%TF.GenerationSoftware,KiCad,Pcbnew,(7.0.0)*%
%TF.CreationDate,2023-09-29T19:28:47+02:00*%
%TF.ProjectId,Hull OEM 275u 225u,48756c6c-204f-4454-9d20-323735752032,rev?*%
%TF.SameCoordinates,Original*%
%TF.FileFunction,Copper,L2,Bot*%
%TF.FilePolarity,Positive*%
%FSLAX46Y46*%
G04 Gerber Fmt 4.6, Leading zero omitted, Abs format (unit mm)*
G04 Created by KiCad (PCBNEW (7.0.0)) date 2023-09-29 19:28:47*
%MOMM*%
%LPD*%
G01*
G04 APERTURE LIST*
G04 APERTURE END LIST*
%TA.AperFunction,Conductor*%
%TO.N,GND*%
G36*
X149225305Y-49213016D02*
G01*
X149358279Y-49219988D01*
X149358317Y-49220006D01*
X149358317Y-49219991D01*
X149358541Y-49220002D01*
X149563552Y-49231522D01*
X149564660Y-49231641D01*
X149725845Y-49257174D01*
X149903189Y-49287311D01*
X149904226Y-49287537D01*
X150066627Y-49331057D01*
X150066797Y-49331104D01*
X150234800Y-49379509D01*
X150235701Y-49379811D01*
X150394610Y-49440813D01*
X150394727Y-49440860D01*
X150554454Y-49507023D01*
X150555237Y-49507384D01*
X150707780Y-49585111D01*
X150708078Y-49585270D01*
X150858411Y-49668358D01*
X150859108Y-49668776D01*
X151003170Y-49762333D01*
X151003449Y-49762522D01*
X151129467Y-49851938D01*
X151143140Y-49861640D01*
X151143722Y-49862082D01*
X151277399Y-49970332D01*
X151277813Y-49970684D01*
X151405281Y-50084597D01*
X151405750Y-50085040D01*
X151527458Y-50206748D01*
X151527901Y-50207217D01*
X151641814Y-50334685D01*
X151642176Y-50335111D01*
X151750416Y-50468776D01*
X151750858Y-50469358D01*
X151791735Y-50526967D01*
X151849962Y-50609030D01*
X151850183Y-50609355D01*
X151880232Y-50655625D01*
X151943720Y-50753387D01*
X151944140Y-50754087D01*
X152027216Y-50904397D01*
X152027398Y-50904739D01*
X152105105Y-51057243D01*
X152105483Y-51058063D01*
X152171611Y-51217703D01*
X152171722Y-51217983D01*
X152232681Y-51376780D01*
X152232995Y-51377717D01*
X152281388Y-51545682D01*
X152281446Y-51545889D01*
X152324959Y-51708267D01*
X152325188Y-51709317D01*
X152355320Y-51886631D01*
X152355341Y-51886759D01*
X152380854Y-52047816D01*
X152380978Y-52048970D01*
X152392509Y-52254181D01*
X152392511Y-52254224D01*
X152399484Y-52387195D01*
X152399500Y-52387797D01*
X152399500Y-52388000D01*
X152399500Y-68262401D01*
X152399459Y-68262500D01*
X152399500Y-68262599D01*
X152399617Y-68262883D01*
X152400000Y-68263041D01*
X152400099Y-68263000D01*
X273787000Y-68263000D01*
X273787175Y-68263000D01*
X273787808Y-68263017D01*
X273832763Y-68265496D01*
X274108413Y-68283746D01*
X274109500Y-68283873D01*
X274231829Y-68304278D01*
X274232203Y-68304346D01*
X274430352Y-68344169D01*
X274431153Y-68344363D01*
X274561883Y-68381314D01*
X274562474Y-68381499D01*
X274745201Y-68444202D01*
X274745763Y-68444412D01*
X274871625Y-68495510D01*
X274872417Y-68495868D01*
X275053261Y-68586094D01*
X275053554Y-68586246D01*
X275162654Y-68645259D01*
X275163600Y-68645832D01*
X275392423Y-68800706D01*
X275392577Y-68800813D01*
X275428779Y-68825902D01*
X275430380Y-68827243D01*
X275451124Y-68848093D01*
X275451161Y-68848131D01*
X275504470Y-68903482D01*
X275521246Y-68920901D01*
X275522892Y-68923075D01*
X275549979Y-68969420D01*
X275550244Y-68969899D01*
X275586214Y-69038772D01*
X275587088Y-69040974D01*
X275602945Y-69097184D01*
X275603158Y-69098071D01*
X275617338Y-69169631D01*
X275617554Y-69171624D01*
X275618817Y-69231659D01*
X275618773Y-69232935D01*
X275612346Y-69304104D01*
X275612083Y-69305724D01*
X275598122Y-69364582D01*
X275597630Y-69366148D01*
X275571404Y-69432632D01*
X275570870Y-69433792D01*
X275542781Y-69486857D01*
X275541692Y-69488541D01*
X275496876Y-69546116D01*
X275496287Y-69546813D01*
X275456879Y-69589905D01*
X275455109Y-69591479D01*
X275392037Y-69636860D01*
X275391586Y-69637169D01*
X275346587Y-69666400D01*
X275344136Y-69667605D01*
X275246395Y-69701963D01*
X275246222Y-69702022D01*
X275220969Y-69710451D01*
X275219615Y-69710813D01*
X275219408Y-69710855D01*
X275219364Y-69710864D01*
X275114653Y-69731690D01*
X275114644Y-69731692D01*
X275114174Y-69731786D01*
X275113725Y-69731958D01*
X275113717Y-69731961D01*
X274913479Y-69808983D01*
X274913468Y-69808988D01*
X274913019Y-69809161D01*
X274912601Y-69809410D01*
X274912597Y-69809413D01*
X274728492Y-69919559D01*
X274728489Y-69919560D01*
X274728068Y-69919813D01*
X274727700Y-69920129D01*
X274727693Y-69920135D01*
X274565146Y-70060157D01*
X274565138Y-70060164D01*
X274564776Y-70060477D01*
X274564467Y-70060851D01*
X274564464Y-70060856D01*
X274428272Y-70226623D01*
X274428267Y-70226629D01*
X274427959Y-70227005D01*
X274427716Y-70227433D01*
X274427715Y-70227435D01*
X274321897Y-70414054D01*
X274321894Y-70414058D01*
X274321652Y-70414487D01*
X274321485Y-70414950D01*
X274321484Y-70414955D01*
X274249153Y-70616932D01*
X274249150Y-70616939D01*
X274248989Y-70617392D01*
X274248907Y-70617862D01*
X274248904Y-70617875D01*
X274212198Y-70829250D01*
X274212197Y-70829258D01*
X274212114Y-70829738D01*
X274212114Y-71045262D01*
X274212197Y-71045742D01*
X274212198Y-71045749D01*
X274248904Y-71257124D01*
X274248906Y-71257134D01*
X274248989Y-71257608D01*
X274249151Y-71258063D01*
X274249153Y-71258067D01*
X274321484Y-71460044D01*
X274321652Y-71460513D01*
X274427959Y-71647995D01*
X274564776Y-71814523D01*
X274728068Y-71955187D01*
X274913019Y-72065839D01*
X275114174Y-72143214D01*
X275215429Y-72163352D01*
X275219145Y-72164091D01*
X275220543Y-72164462D01*
X275250168Y-72174350D01*
X275250191Y-72174358D01*
X275343755Y-72207207D01*
X275346193Y-72208406D01*
X275393459Y-72239110D01*
X275393855Y-72239380D01*
X275454728Y-72283179D01*
X275456485Y-72284741D01*
X275496690Y-72328705D01*
X275497158Y-72329217D01*
X275497746Y-72329914D01*
X275541357Y-72385941D01*
X275542446Y-72387625D01*
X275571273Y-72442084D01*
X275571807Y-72443244D01*
X275597405Y-72508136D01*
X275597897Y-72509702D01*
X275612203Y-72570013D01*
X275612466Y-72571633D01*
X275618740Y-72641106D01*
X275618784Y-72642382D01*
X275617488Y-72703976D01*
X275617272Y-72705969D01*
X275603469Y-72775631D01*
X275603256Y-72776519D01*
X275586897Y-72834502D01*
X275586023Y-72836703D01*
X275551319Y-72903152D01*
X275551054Y-72903631D01*
X275522631Y-72952263D01*
X275520982Y-72954441D01*
X275454068Y-73023867D01*
X275453941Y-73023997D01*
X275430133Y-73047929D01*
X275428530Y-73049270D01*
X275392513Y-73074230D01*
X275392409Y-73074302D01*
X275163614Y-73229157D01*
X275162639Y-73229748D01*
X275053575Y-73288741D01*
X275053238Y-73288916D01*
X274872424Y-73379127D01*
X274871616Y-73379492D01*
X274745778Y-73430580D01*
X274745185Y-73430802D01*
X274562480Y-73493497D01*
X274561875Y-73493686D01*
X274431183Y-73530627D01*
X274430321Y-73530836D01*
X274232203Y-73570652D01*
X274231829Y-73570720D01*
X274109523Y-73591122D01*
X274108391Y-73591254D01*
X273832805Y-73609500D01*
X273832678Y-73609508D01*
X273787808Y-73611983D01*
X273787175Y-73612000D01*
X272963000Y-73612000D01*
X272962500Y-73612000D01*
X272855182Y-73612000D01*
X272854784Y-73612057D01*
X272854772Y-73612058D01*
X272643138Y-73642487D01*
X272643131Y-73642488D01*
X272642731Y-73642546D01*
X272642341Y-73642660D01*
X272642334Y-73642662D01*
X272437189Y-73702898D01*
X272437178Y-73702901D01*
X272436790Y-73703016D01*
X272436419Y-73703185D01*
X272436412Y-73703188D01*
X272241921Y-73792009D01*
X272241914Y-73792012D01*
X272241550Y-73792179D01*
X272241213Y-73792395D01*
X272241203Y-73792401D01*
X272061335Y-73907995D01*
X272061331Y-73907997D01*
X272060987Y-73908219D01*
X272060688Y-73908477D01*
X272060676Y-73908487D01*
X271899090Y-74048503D01*
X271899083Y-74048509D01*
X271898776Y-74048776D01*
X271898509Y-74049083D01*
X271898503Y-74049090D01*
X271758487Y-74210676D01*
X271758477Y-74210688D01*
X271758219Y-74210987D01*
X271757997Y-74211331D01*
X271757995Y-74211335D01*
X271642401Y-74391203D01*
X271642395Y-74391213D01*
X271642179Y-74391550D01*
X271642012Y-74391914D01*
X271642009Y-74391921D01*
X271553188Y-74586412D01*
X271553185Y-74586419D01*
X271553016Y-74586790D01*
X271552901Y-74587178D01*
X271552898Y-74587189D01*
X271492662Y-74792334D01*
X271492660Y-74792341D01*
X271492546Y-74792731D01*
X271492488Y-74793131D01*
X271492487Y-74793138D01*
X271462058Y-75004772D01*
X271462057Y-75004784D01*
X271462000Y-75005182D01*
X271462000Y-75112401D01*
X271462000Y-137612000D01*
X271462000Y-137612500D01*
X271462000Y-137719818D01*
X271462057Y-137720216D01*
X271462058Y-137720227D01*
X271492487Y-137931861D01*
X271492546Y-137932269D01*
X271492661Y-137932661D01*
X271492662Y-137932665D01*
X271552898Y-138137810D01*
X271552900Y-138137816D01*
X271553016Y-138138210D01*
X271642179Y-138333450D01*
X271758219Y-138514013D01*
X271758483Y-138514317D01*
X271758487Y-138514323D01*
X271827930Y-138594464D01*
X271898776Y-138676224D01*
X271899090Y-138676496D01*
X272060676Y-138816512D01*
X272060680Y-138816515D01*
X272060987Y-138816781D01*
X272241550Y-138932821D01*
X272436790Y-139021984D01*
X272642731Y-139082454D01*
X272855182Y-139113000D01*
X272962401Y-139113000D01*
X272962500Y-139113000D01*
X272963000Y-139113000D01*
X273787000Y-139113000D01*
X273787175Y-139113000D01*
X273787808Y-139113017D01*
X273832763Y-139115496D01*
X274108413Y-139133746D01*
X274109500Y-139133873D01*
X274231829Y-139154278D01*
X274232203Y-139154346D01*
X274430352Y-139194169D01*
X274431153Y-139194363D01*
X274561883Y-139231314D01*
X274562474Y-139231499D01*
X274745201Y-139294202D01*
X274745763Y-139294412D01*
X274871625Y-139345510D01*
X274872417Y-139345868D01*
X275053261Y-139436094D01*
X275053554Y-139436246D01*
X275162654Y-139495259D01*
X275163600Y-139495832D01*
X275392397Y-139650689D01*
X275428782Y-139675904D01*
X275430375Y-139677238D01*
X275451484Y-139698449D01*
X275451549Y-139698515D01*
X275521185Y-139770757D01*
X275522830Y-139772930D01*
X275550434Y-139820150D01*
X275550699Y-139820629D01*
X275586188Y-139888567D01*
X275587063Y-139890769D01*
X275603118Y-139947665D01*
X275603331Y-139948552D01*
X275617371Y-140019386D01*
X275617587Y-140021380D01*
X275618863Y-140082023D01*
X275618819Y-140083299D01*
X275612451Y-140153821D01*
X275612187Y-140155441D01*
X275598094Y-140214852D01*
X275597603Y-140216418D01*
X275571613Y-140282295D01*
X275571079Y-140283456D01*
X275542695Y-140337069D01*
X275541605Y-140338752D01*
X275497256Y-140395718D01*
X275496668Y-140396416D01*
X275456760Y-140440046D01*
X275454989Y-140441620D01*
X275392762Y-140486381D01*
X275392310Y-140486690D01*
X275346446Y-140516473D01*
X275343995Y-140517678D01*
X275248875Y-140551096D01*
X275248702Y-140551155D01*
X275220634Y-140560519D01*
X275219238Y-140560889D01*
X275114653Y-140581690D01*
X275114644Y-140581692D01*
X275114174Y-140581786D01*
X275113725Y-140581958D01*
X275113717Y-140581961D01*
X274913479Y-140658983D01*
X274913468Y-140658988D01*
X274913019Y-140659161D01*
X274912601Y-140659410D01*
X274912597Y-140659413D01*
X274728492Y-140769559D01*
X274728489Y-140769560D01*
X274728068Y-140769813D01*
X274727700Y-140770129D01*
X274727693Y-140770135D01*
X274565146Y-140910157D01*
X274565138Y-140910164D01*
X274564776Y-140910477D01*
X274564467Y-140910851D01*
X274564464Y-140910856D01*
X274428272Y-141076623D01*
X274428267Y-141076629D01*
X274427959Y-141077005D01*
X274427716Y-141077433D01*
X274427715Y-141077435D01*
X274321897Y-141264054D01*
X274321894Y-141264058D01*
X274321652Y-141264487D01*
X274321485Y-141264950D01*
X274321484Y-141264955D01*
X274249153Y-141466932D01*
X274249150Y-141466939D01*
X274248989Y-141467392D01*
X274248907Y-141467862D01*
X274248904Y-141467875D01*
X274212198Y-141679250D01*
X274212197Y-141679258D01*
X274212114Y-141679738D01*
X274212114Y-141895262D01*
X274212197Y-141895742D01*
X274212198Y-141895749D01*
X274248904Y-142107124D01*
X274248906Y-142107134D01*
X274248989Y-142107608D01*
X274249151Y-142108063D01*
X274249153Y-142108067D01*
X274321484Y-142310044D01*
X274321652Y-142310513D01*
X274427959Y-142497995D01*
X274564776Y-142664523D01*
X274565144Y-142664840D01*
X274565146Y-142664842D01*
X274645643Y-142734184D01*
X274728068Y-142805187D01*
X274913019Y-142915839D01*
X275114174Y-142993214D01*
X275219148Y-143014092D01*
X275220543Y-143014462D01*
X275249011Y-143023974D01*
X275343733Y-143057332D01*
X275344034Y-143057438D01*
X275346475Y-143058639D01*
X275391809Y-143088102D01*
X275392230Y-143088391D01*
X275454982Y-143133562D01*
X275456739Y-143135123D01*
X275496330Y-143178427D01*
X275496907Y-143179111D01*
X275541541Y-143236466D01*
X275542629Y-143238149D01*
X275570815Y-143291402D01*
X275571349Y-143292562D01*
X275597486Y-143358822D01*
X275597977Y-143360387D01*
X275611984Y-143419422D01*
X275612248Y-143421042D01*
X275618660Y-143491974D01*
X275618704Y-143493249D01*
X275617444Y-143553489D01*
X275617228Y-143555482D01*
X275603118Y-143626762D01*
X275602906Y-143627649D01*
X275586991Y-143684110D01*
X275586117Y-143686311D01*
X275550345Y-143754852D01*
X275550080Y-143755331D01*
X275522839Y-143801972D01*
X275521192Y-143804149D01*
X275450036Y-143878035D01*
X275449909Y-143878166D01*
X275430555Y-143897635D01*
X275428949Y-143898979D01*
X275392513Y-143924230D01*
X275392409Y-143924302D01*
X275163614Y-144079157D01*
X275162639Y-144079748D01*
X275053575Y-144138741D01*
X275053238Y-144138916D01*
X274872424Y-144229127D01*
X274871616Y-144229492D01*
X274745778Y-144280580D01*
X274745185Y-144280802D01*
X274562480Y-144343497D01*
X274561875Y-144343686D01*
X274431183Y-144380627D01*
X274430321Y-144380836D01*
X274232203Y-144420652D01*
X274231829Y-144420720D01*
X274109523Y-144441122D01*
X274108391Y-144441254D01*
X273832805Y-144459500D01*
X273832678Y-144459508D01*
X273787808Y-144461983D01*
X273787175Y-144462000D01*
X26250325Y-144462000D01*
X26249692Y-144461983D01*
X26204820Y-144459508D01*
X26204693Y-144459500D01*
X25929107Y-144441254D01*
X25927975Y-144441122D01*
X25805669Y-144420720D01*
X25805295Y-144420652D01*
X25607177Y-144380836D01*
X25606315Y-144380627D01*
X25475623Y-144343686D01*
X25475018Y-144343497D01*
X25292313Y-144280802D01*
X25291720Y-144280580D01*
X25165882Y-144229492D01*
X25165074Y-144229127D01*
X24984260Y-144138916D01*
X24983923Y-144138741D01*
X24874859Y-144079748D01*
X24873884Y-144079157D01*
X24645090Y-143924302D01*
X24644986Y-143924230D01*
X24608723Y-143899099D01*
X24607120Y-143897757D01*
X24585944Y-143876468D01*
X24585816Y-143876337D01*
X24516371Y-143804263D01*
X24514723Y-143802086D01*
X24503679Y-143783187D01*
X24487010Y-143754660D01*
X24486770Y-143754227D01*
X24451386Y-143686461D01*
X24450516Y-143684270D01*
X24434416Y-143627186D01*
X24434217Y-143626356D01*
X24420213Y-143555658D01*
X24419999Y-143553685D01*
X24418722Y-143492887D01*
X24418765Y-143491661D01*
X24425128Y-143421229D01*
X24425383Y-143419658D01*
X24439511Y-143360103D01*
X24439996Y-143358558D01*
X24465945Y-143292780D01*
X24466456Y-143291669D01*
X24494908Y-143237918D01*
X24495984Y-143236255D01*
X24540254Y-143179378D01*
X24540802Y-143178729D01*
X24580834Y-143134952D01*
X24582580Y-143133400D01*
X24644663Y-143088726D01*
X24645029Y-143088476D01*
X24691119Y-143058533D01*
X24693557Y-143057334D01*
X24788277Y-143024031D01*
X24816920Y-143014468D01*
X24818314Y-143014098D01*
X24923326Y-142993214D01*
X25124481Y-142915839D01*
X25309432Y-142805187D01*
X25446921Y-142686750D01*
X107893649Y-142686750D01*
X107893690Y-142686849D01*
X107893807Y-142687133D01*
X107894190Y-142687291D01*
X107894289Y-142687250D01*
X111193101Y-142687250D01*
X111193200Y-142687291D01*
X111193583Y-142687133D01*
X111193700Y-142686849D01*
X111193741Y-142686750D01*
X131692359Y-142686750D01*
X131692400Y-142686849D01*
X131692517Y-142687133D01*
X131692900Y-142687291D01*
X131692999Y-142687250D01*
X134993201Y-142687250D01*
X134993300Y-142687291D01*
X134993683Y-142687133D01*
X134993800Y-142686849D01*
X134993841Y-142686750D01*
X155518649Y-142686750D01*
X155518690Y-142686849D01*
X155518807Y-142687133D01*
X155519190Y-142687291D01*
X155519289Y-142687250D01*
X158818101Y-142687250D01*
X158818200Y-142687291D01*
X158818583Y-142687133D01*
X158818700Y-142686849D01*
X158818741Y-142686750D01*
X179317359Y-142686750D01*
X179317400Y-142686849D01*
X179317517Y-142687133D01*
X179317900Y-142687291D01*
X179317999Y-142687250D01*
X182618201Y-142687250D01*
X182618300Y-142687291D01*
X182618683Y-142687133D01*
X182618800Y-142686849D01*
X182618841Y-142686750D01*
X182618800Y-142686651D01*
X182618800Y-140937500D01*
X195105708Y-140937500D01*
X195105826Y-140937783D01*
X195105867Y-140937883D01*
X195105965Y-140937923D01*
X196105825Y-141937782D01*
X196105867Y-141937883D01*
X196105967Y-141937924D01*
X196106250Y-141938042D01*
X196106351Y-141938000D01*
X208706149Y-141938000D01*
X208706250Y-141938042D01*
X208706534Y-141937924D01*
X208706534Y-141937923D01*
X208706633Y-141937883D01*
X208706673Y-141937784D01*
X209706532Y-140937924D01*
X209706633Y-140937883D01*
X209706690Y-140937743D01*
X209706792Y-140937500D01*
X216536958Y-140937500D01*
X216537076Y-140937783D01*
X216537117Y-140937883D01*
X216537215Y-140937923D01*
X217537075Y-141937782D01*
X217537117Y-141937883D01*
X217537217Y-141937924D01*
X217537500Y-141938042D01*
X217537601Y-141938000D01*
X230137399Y-141938000D01*
X230137500Y-141938042D01*
X230137784Y-141937924D01*
X230137784Y-141937923D01*
X230137883Y-141937883D01*
X230137923Y-141937784D01*
X231137782Y-140937924D01*
X231137883Y-140937883D01*
X231137940Y-140937743D01*
X231138042Y-140937500D01*
X235586958Y-140937500D01*
X235587076Y-140937783D01*
X235587117Y-140937883D01*
X235587215Y-140937923D01*
X236587075Y-141937782D01*
X236587117Y-141937883D01*
X236587217Y-141937924D01*
X236587500Y-141938042D01*
X236587601Y-141938000D01*
X249187399Y-141938000D01*
X249187500Y-141938042D01*
X249187784Y-141937924D01*
X249187784Y-141937923D01*
X249187883Y-141937883D01*
X249187923Y-141937784D01*
X250187782Y-140937924D01*
X250187883Y-140937883D01*
X250187940Y-140937743D01*
X250188042Y-140937500D01*
X254636958Y-140937500D01*
X254637076Y-140937783D01*
X254637117Y-140937883D01*
X254637215Y-140937923D01*
X255637075Y-141937782D01*
X255637117Y-141937883D01*
X255637217Y-141937924D01*
X255637500Y-141938042D01*
X255637601Y-141938000D01*
X268237399Y-141938000D01*
X268237500Y-141938042D01*
X268237784Y-141937924D01*
X268237784Y-141937923D01*
X268237883Y-141937883D01*
X268237923Y-141937784D01*
X269237782Y-140937924D01*
X269237883Y-140937883D01*
X269237940Y-140937743D01*
X269238042Y-140937500D01*
X269238000Y-140937399D01*
X269238000Y-128937601D01*
X269238042Y-128937500D01*
X269237924Y-128937217D01*
X269237883Y-128937117D01*
X269237782Y-128937075D01*
X268237923Y-127937215D01*
X268237883Y-127937117D01*
X268237784Y-127937076D01*
X268237500Y-127936958D01*
X268237399Y-127937000D01*
X255637601Y-127937000D01*
X255637500Y-127936958D01*
X255637256Y-127937059D01*
X255637117Y-127937117D01*
X255637075Y-127937217D01*
X255635674Y-127938617D01*
X255635673Y-127938618D01*
X254638615Y-128935675D01*
X254638614Y-128935676D01*
X254637215Y-128937076D01*
X254637117Y-128937117D01*
X254637076Y-128937215D01*
X254637076Y-128937216D01*
X254636958Y-128937500D01*
X254637000Y-128937601D01*
X254637000Y-140937399D01*
X254636958Y-140937500D01*
X250188042Y-140937500D01*
X250188000Y-140937399D01*
X250188000Y-134937500D01*
X251257071Y-134937500D01*
X251276744Y-135149810D01*
X251276886Y-135150310D01*
X251276888Y-135150319D01*
X251334948Y-135354374D01*
X251335095Y-135354889D01*
X251430134Y-135545755D01*
X251430451Y-135546174D01*
X251430453Y-135546178D01*
X251558305Y-135715480D01*
X251558308Y-135715483D01*
X251558628Y-135715907D01*
X251559019Y-135716263D01*
X251715810Y-135859199D01*
X251715814Y-135859202D01*
X251716198Y-135859552D01*
X251897481Y-135971798D01*
X252096302Y-136048821D01*
X252305890Y-136088000D01*
X252518576Y-136088000D01*
X252519110Y-136088000D01*
X252728698Y-136048821D01*
X252927519Y-135971798D01*
X253108802Y-135859552D01*
X253266372Y-135715907D01*
X253394866Y-135545755D01*
X253489905Y-135354889D01*
X253548256Y-135149810D01*
X253567929Y-134937500D01*
X253548256Y-134725190D01*
X253489905Y-134520111D01*
X253394866Y-134329245D01*
X253266372Y-134159093D01*
X253113992Y-134020179D01*
X253109189Y-134015800D01*
X253109183Y-134015796D01*
X253108802Y-134015448D01*
X253108354Y-134015171D01*
X253108352Y-134015169D01*
X252927980Y-133903487D01*
X252927976Y-133903485D01*
X252927519Y-133903202D01*
X252927017Y-133903007D01*
X252927012Y-133903005D01*
X252729203Y-133826374D01*
X252729196Y-133826372D01*
X252728698Y-133826179D01*
X252728171Y-133826080D01*
X252728166Y-133826079D01*
X252519635Y-133787098D01*
X252519633Y-133787097D01*
X252519110Y-133787000D01*
X252305890Y-133787000D01*
X252305367Y-133787097D01*
X252305364Y-133787098D01*
X252096833Y-133826079D01*
X252096825Y-133826081D01*
X252096302Y-133826179D01*
X252095805Y-133826371D01*
X252095796Y-133826374D01*
X251897987Y-133903005D01*
X251897978Y-133903009D01*
X251897481Y-133903202D01*
X251897027Y-133903482D01*
X251897019Y-133903487D01*
X251716647Y-134015169D01*
X251716639Y-134015174D01*
X251716198Y-134015448D01*
X251715820Y-134015791D01*
X251715810Y-134015800D01*
X251559019Y-134158736D01*
X251559016Y-134158739D01*
X251558628Y-134159093D01*
X251558312Y-134159510D01*
X251558305Y-134159519D01*
X251430453Y-134328821D01*
X251430447Y-134328829D01*
X251430134Y-134329245D01*
X251429899Y-134329716D01*
X251429897Y-134329720D01*
X251335334Y-134519630D01*
X251335332Y-134519634D01*
X251335095Y-134520111D01*
X251334950Y-134520617D01*
X251334948Y-134520625D01*
X251276888Y-134724680D01*
X251276885Y-134724691D01*
X251276744Y-134725190D01*
X251257071Y-134937500D01*
X250188000Y-134937500D01*
X250188000Y-128937601D01*
X250188042Y-128937500D01*
X250187924Y-128937217D01*
X250187883Y-128937117D01*
X250187782Y-128937075D01*
X249187923Y-127937215D01*
X249187883Y-127937117D01*
X249187784Y-127937076D01*
X249187500Y-127936958D01*
X249187399Y-127937000D01*
X236587601Y-127937000D01*
X236587500Y-127936958D01*
X236587256Y-127937059D01*
X236587117Y-127937117D01*
X236587075Y-127937217D01*
X236585674Y-127938617D01*
X236585673Y-127938618D01*
X235588615Y-128935675D01*
X235588614Y-128935676D01*
X235587215Y-128937076D01*
X235587117Y-128937117D01*
X235587076Y-128937215D01*
X235587076Y-128937216D01*
X235586958Y-128937500D01*
X235587000Y-128937601D01*
X235587000Y-140937399D01*
X235586958Y-140937500D01*
X231138042Y-140937500D01*
X231138000Y-140937399D01*
X231138000Y-128937601D01*
X231138042Y-128937500D01*
X231137924Y-128937217D01*
X231137883Y-128937117D01*
X231137782Y-128937075D01*
X230137923Y-127937215D01*
X230137883Y-127937117D01*
X230137784Y-127937076D01*
X230137500Y-127936958D01*
X230137399Y-127937000D01*
X217537601Y-127937000D01*
X217537500Y-127936958D01*
X217537256Y-127937059D01*
X217537117Y-127937117D01*
X217537075Y-127937217D01*
X217535674Y-127938617D01*
X217535673Y-127938618D01*
X216538615Y-128935675D01*
X216538614Y-128935676D01*
X216537215Y-128937076D01*
X216537117Y-128937117D01*
X216537076Y-128937215D01*
X216537076Y-128937216D01*
X216536958Y-128937500D01*
X216537000Y-128937601D01*
X216537000Y-140937399D01*
X216536958Y-140937500D01*
X209706792Y-140937500D01*
X209706750Y-140937399D01*
X209706750Y-134937500D01*
X213157071Y-134937500D01*
X213176744Y-135149810D01*
X213176886Y-135150310D01*
X213176888Y-135150319D01*
X213234948Y-135354374D01*
X213235095Y-135354889D01*
X213330134Y-135545755D01*
X213330451Y-135546174D01*
X213330453Y-135546178D01*
X213458305Y-135715480D01*
X213458308Y-135715483D01*
X213458628Y-135715907D01*
X213459019Y-135716263D01*
X213615810Y-135859199D01*
X213615814Y-135859202D01*
X213616198Y-135859552D01*
X213797481Y-135971798D01*
X213996302Y-136048821D01*
X214205890Y-136088000D01*
X214418576Y-136088000D01*
X214419110Y-136088000D01*
X214628698Y-136048821D01*
X214827519Y-135971798D01*
X215008802Y-135859552D01*
X215166372Y-135715907D01*
X215294866Y-135545755D01*
X215389905Y-135354889D01*
X215448256Y-135149810D01*
X215467929Y-134937500D01*
X215448256Y-134725190D01*
X215389905Y-134520111D01*
X215294866Y-134329245D01*
X215166372Y-134159093D01*
X215013992Y-134020179D01*
X215009189Y-134015800D01*
X215009183Y-134015796D01*
X215008802Y-134015448D01*
X215008354Y-134015171D01*
X215008352Y-134015169D01*
X214827980Y-133903487D01*
X214827976Y-133903485D01*
X214827519Y-133903202D01*
X214827017Y-133903007D01*
X214827012Y-133903005D01*
X214629203Y-133826374D01*
X214629196Y-133826372D01*
X214628698Y-133826179D01*
X214628171Y-133826080D01*
X214628166Y-133826079D01*
X214419635Y-133787098D01*
X214419633Y-133787097D01*
X214419110Y-133787000D01*
X214205890Y-133787000D01*
X214205367Y-133787097D01*
X214205364Y-133787098D01*
X213996833Y-133826079D01*
X213996825Y-133826081D01*
X213996302Y-133826179D01*
X213995805Y-133826371D01*
X213995796Y-133826374D01*
X213797987Y-133903005D01*
X213797978Y-133903009D01*
X213797481Y-133903202D01*
X213797027Y-133903482D01*
X213797019Y-133903487D01*
X213616647Y-134015169D01*
X213616639Y-134015174D01*
X213616198Y-134015448D01*
X213615820Y-134015791D01*
X213615810Y-134015800D01*
X213459019Y-134158736D01*
X213459016Y-134158739D01*
X213458628Y-134159093D01*
X213458312Y-134159510D01*
X213458305Y-134159519D01*
X213330453Y-134328821D01*
X213330447Y-134328829D01*
X213330134Y-134329245D01*
X213329899Y-134329716D01*
X213329897Y-134329720D01*
X213235334Y-134519630D01*
X213235332Y-134519634D01*
X213235095Y-134520111D01*
X213234950Y-134520617D01*
X213234948Y-134520625D01*
X213176888Y-134724680D01*
X213176885Y-134724691D01*
X213176744Y-134725190D01*
X213157071Y-134937500D01*
X209706750Y-134937500D01*
X209706750Y-128937601D01*
X209706792Y-128937500D01*
X209706674Y-128937217D01*
X209706633Y-128937117D01*
X209706532Y-128937075D01*
X208706673Y-127937215D01*
X208706633Y-127937117D01*
X208706534Y-127937076D01*
X208706250Y-127936958D01*
X208706149Y-127937000D01*
X196106351Y-127937000D01*
X196106250Y-127936958D01*
X196106006Y-127937059D01*
X196105867Y-127937117D01*
X196105825Y-127937217D01*
X196104424Y-127938617D01*
X196104423Y-127938618D01*
X195107365Y-128935675D01*
X195107364Y-128935676D01*
X195105965Y-128937076D01*
X195105867Y-128937117D01*
X195105826Y-128937215D01*
X195105826Y-128937216D01*
X195105708Y-128937500D01*
X195105750Y-128937601D01*
X195105750Y-140937399D01*
X195105708Y-140937500D01*
X182618800Y-140937500D01*
X182618800Y-134937500D01*
X182994571Y-134937500D01*
X183014244Y-135149810D01*
X183014386Y-135150310D01*
X183014388Y-135150319D01*
X183072448Y-135354374D01*
X183072595Y-135354889D01*
X183167634Y-135545755D01*
X183167951Y-135546174D01*
X183167953Y-135546178D01*
X183295805Y-135715480D01*
X183295808Y-135715483D01*
X183296128Y-135715907D01*
X183296519Y-135716263D01*
X183453310Y-135859199D01*
X183453314Y-135859202D01*
X183453698Y-135859552D01*
X183634981Y-135971798D01*
X183833802Y-136048821D01*
X184043390Y-136088000D01*
X184256076Y-136088000D01*
X184256610Y-136088000D01*
X184466198Y-136048821D01*
X184665019Y-135971798D01*
X184846302Y-135859552D01*
X185003872Y-135715907D01*
X185132366Y-135545755D01*
X185227405Y-135354889D01*
X185285756Y-135149810D01*
X185305429Y-134937500D01*
X185285756Y-134725190D01*
X185227405Y-134520111D01*
X185132366Y-134329245D01*
X185003872Y-134159093D01*
X184851492Y-134020179D01*
X184846689Y-134015800D01*
X184846683Y-134015796D01*
X184846302Y-134015448D01*
X184845854Y-134015171D01*
X184845852Y-134015169D01*
X184665480Y-133903487D01*
X184665476Y-133903485D01*
X184665019Y-133903202D01*
X184664517Y-133903007D01*
X184664512Y-133903005D01*
X184466703Y-133826374D01*
X184466696Y-133826372D01*
X184466198Y-133826179D01*
X184465671Y-133826080D01*
X184465666Y-133826079D01*
X184257135Y-133787098D01*
X184257133Y-133787097D01*
X184256610Y-133787000D01*
X184043390Y-133787000D01*
X184042867Y-133787097D01*
X184042864Y-133787098D01*
X183834333Y-133826079D01*
X183834325Y-133826081D01*
X183833802Y-133826179D01*
X183833305Y-133826371D01*
X183833296Y-133826374D01*
X183635487Y-133903005D01*
X183635478Y-133903009D01*
X183634981Y-133903202D01*
X183634527Y-133903482D01*
X183634519Y-133903487D01*
X183454147Y-134015169D01*
X183454139Y-134015174D01*
X183453698Y-134015448D01*
X183453320Y-134015791D01*
X183453310Y-134015800D01*
X183296519Y-134158736D01*
X183296516Y-134158739D01*
X183296128Y-134159093D01*
X183295812Y-134159510D01*
X183295805Y-134159519D01*
X183167953Y-134328821D01*
X183167947Y-134328829D01*
X183167634Y-134329245D01*
X183167399Y-134329716D01*
X183167397Y-134329720D01*
X183072834Y-134519630D01*
X183072832Y-134519634D01*
X183072595Y-134520111D01*
X183072450Y-134520617D01*
X183072448Y-134520625D01*
X183014388Y-134724680D01*
X183014385Y-134724691D01*
X183014244Y-134725190D01*
X182994571Y-134937500D01*
X182618800Y-134937500D01*
X182618800Y-128487549D01*
X182618841Y-128487450D01*
X182618683Y-128487067D01*
X182618399Y-128486950D01*
X182618300Y-128486909D01*
X182618201Y-128486950D01*
X179317999Y-128486950D01*
X179317900Y-128486909D01*
X179317801Y-128486950D01*
X179317517Y-128487067D01*
X179317359Y-128487450D01*
X179317400Y-128487549D01*
X179317400Y-142686651D01*
X179317359Y-142686750D01*
X158818741Y-142686750D01*
X158818700Y-142686651D01*
X158818700Y-140937500D01*
X161768208Y-140937500D01*
X161768326Y-140937783D01*
X161768367Y-140937883D01*
X161768465Y-140937923D01*
X162768325Y-141937782D01*
X162768367Y-141937883D01*
X162768467Y-141937924D01*
X162768750Y-141938042D01*
X162768851Y-141938000D01*
X175368649Y-141938000D01*
X175368750Y-141938042D01*
X175369034Y-141937924D01*
X175369034Y-141937923D01*
X175369133Y-141937883D01*
X175369173Y-141937784D01*
X176369032Y-140937924D01*
X176369133Y-140937883D01*
X176369190Y-140937743D01*
X176369292Y-140937500D01*
X176369250Y-140937399D01*
X176369250Y-128937601D01*
X176369292Y-128937500D01*
X176369174Y-128937217D01*
X176369133Y-128937117D01*
X176369032Y-128937075D01*
X175369173Y-127937215D01*
X175369133Y-127937117D01*
X175369034Y-127937076D01*
X175368750Y-127936958D01*
X175368649Y-127937000D01*
X162768851Y-127937000D01*
X162768750Y-127936958D01*
X162768506Y-127937059D01*
X162768367Y-127937117D01*
X162768325Y-127937217D01*
X162766924Y-127938617D01*
X162766923Y-127938618D01*
X161769865Y-128935675D01*
X161769864Y-128935676D01*
X161768465Y-128937076D01*
X161768367Y-128937117D01*
X161768326Y-128937215D01*
X161768326Y-128937216D01*
X161768208Y-128937500D01*
X161768250Y-128937601D01*
X161768250Y-140937399D01*
X161768208Y-140937500D01*
X158818700Y-140937500D01*
X158818700Y-128487549D01*
X158818741Y-128487450D01*
X158818583Y-128487067D01*
X158818299Y-128486950D01*
X158818200Y-128486909D01*
X158818101Y-128486950D01*
X155519289Y-128486950D01*
X155519190Y-128486909D01*
X155519091Y-128486950D01*
X155518807Y-128487067D01*
X155518649Y-128487450D01*
X155518690Y-128487549D01*
X155518690Y-142686651D01*
X155518649Y-142686750D01*
X134993841Y-142686750D01*
X134993800Y-142686651D01*
X134993800Y-128487549D01*
X134993841Y-128487450D01*
X134993683Y-128487067D01*
X134993399Y-128486950D01*
X134993300Y-128486909D01*
X134993201Y-128486950D01*
X131692999Y-128486950D01*
X131692900Y-128486909D01*
X131692801Y-128486950D01*
X131692517Y-128487067D01*
X131692359Y-128487450D01*
X131692400Y-128487549D01*
X131692400Y-142686651D01*
X131692359Y-142686750D01*
X111193741Y-142686750D01*
X111193700Y-142686651D01*
X111193700Y-140937500D01*
X114143208Y-140937500D01*
X114143326Y-140937783D01*
X114143367Y-140937883D01*
X114143465Y-140937923D01*
X115143325Y-141937782D01*
X115143367Y-141937883D01*
X115143467Y-141937924D01*
X115143750Y-141938042D01*
X115143851Y-141938000D01*
X127743649Y-141938000D01*
X127743750Y-141938042D01*
X127744034Y-141937924D01*
X127744034Y-141937923D01*
X127744133Y-141937883D01*
X127744173Y-141937784D01*
X128744032Y-140937924D01*
X128744133Y-140937883D01*
X128744190Y-140937743D01*
X128744292Y-140937500D01*
X128744250Y-140937399D01*
X128744250Y-128937601D01*
X128744292Y-128937500D01*
X128744174Y-128937217D01*
X128744133Y-128937117D01*
X128744032Y-128937075D01*
X127744173Y-127937215D01*
X127744133Y-127937117D01*
X127744034Y-127937076D01*
X127743750Y-127936958D01*
X127743649Y-127937000D01*
X115143851Y-127937000D01*
X115143750Y-127936958D01*
X115143506Y-127937059D01*
X115143367Y-127937117D01*
X115143325Y-127937217D01*
X115141924Y-127938617D01*
X115141923Y-127938618D01*
X114144865Y-128935675D01*
X114144864Y-128935676D01*
X114143465Y-128937076D01*
X114143367Y-128937117D01*
X114143326Y-128937215D01*
X114143326Y-128937216D01*
X114143208Y-128937500D01*
X114143250Y-128937601D01*
X114143250Y-140937399D01*
X114143208Y-140937500D01*
X111193700Y-140937500D01*
X111193700Y-128487549D01*
X111193741Y-128487450D01*
X111193583Y-128487067D01*
X111193299Y-128486950D01*
X111193200Y-128486909D01*
X111193101Y-128486950D01*
X107894289Y-128486950D01*
X107894190Y-128486909D01*
X107894091Y-128486950D01*
X107893807Y-128487067D01*
X107893649Y-128487450D01*
X107893690Y-128487549D01*
X107893690Y-142686651D01*
X107893649Y-142686750D01*
X25446921Y-142686750D01*
X25472724Y-142664523D01*
X25609541Y-142497995D01*
X25715848Y-142310513D01*
X25788511Y-142107608D01*
X25825386Y-141895262D01*
X25825386Y-141679738D01*
X25788511Y-141467392D01*
X25715848Y-141264487D01*
X25609541Y-141077005D01*
X25494926Y-140937500D01*
X33180708Y-140937500D01*
X33180826Y-140937783D01*
X33180867Y-140937883D01*
X33180965Y-140937923D01*
X34180825Y-141937782D01*
X34180867Y-141937883D01*
X34180967Y-141937924D01*
X34181250Y-141938042D01*
X34181351Y-141938000D01*
X46781149Y-141938000D01*
X46781250Y-141938042D01*
X46781534Y-141937924D01*
X46781534Y-141937923D01*
X46781633Y-141937883D01*
X46781673Y-141937784D01*
X47781532Y-140937924D01*
X47781633Y-140937883D01*
X47781690Y-140937743D01*
X47781792Y-140937500D01*
X54611958Y-140937500D01*
X54612076Y-140937783D01*
X54612117Y-140937883D01*
X54612215Y-140937923D01*
X55612075Y-141937782D01*
X55612117Y-141937883D01*
X55612217Y-141937924D01*
X55612500Y-141938042D01*
X55612601Y-141938000D01*
X68212399Y-141938000D01*
X68212500Y-141938042D01*
X68212784Y-141937924D01*
X68212784Y-141937923D01*
X68212883Y-141937883D01*
X68212923Y-141937784D01*
X69212782Y-140937924D01*
X69212883Y-140937883D01*
X69212940Y-140937743D01*
X69213042Y-140937500D01*
X76043208Y-140937500D01*
X76043326Y-140937783D01*
X76043367Y-140937883D01*
X76043465Y-140937923D01*
X77043325Y-141937782D01*
X77043367Y-141937883D01*
X77043467Y-141937924D01*
X77043750Y-141938042D01*
X77043851Y-141938000D01*
X89643649Y-141938000D01*
X89643750Y-141938042D01*
X89644034Y-141937924D01*
X89644034Y-141937923D01*
X89644133Y-141937883D01*
X89644173Y-141937784D01*
X90644032Y-140937924D01*
X90644133Y-140937883D01*
X90644190Y-140937743D01*
X90644292Y-140937500D01*
X90644250Y-140937399D01*
X90644250Y-134937500D01*
X100444571Y-134937500D01*
X100464244Y-135149810D01*
X100464386Y-135150310D01*
X100464388Y-135150319D01*
X100522448Y-135354374D01*
X100522595Y-135354889D01*
X100617634Y-135545755D01*
X100617951Y-135546174D01*
X100617953Y-135546178D01*
X100745805Y-135715480D01*
X100745808Y-135715483D01*
X100746128Y-135715907D01*
X100746519Y-135716263D01*
X100903310Y-135859199D01*
X100903314Y-135859202D01*
X100903698Y-135859552D01*
X101084981Y-135971798D01*
X101283802Y-136048821D01*
X101493390Y-136088000D01*
X101706076Y-136088000D01*
X101706610Y-136088000D01*
X101916198Y-136048821D01*
X102115019Y-135971798D01*
X102296302Y-135859552D01*
X102453872Y-135715907D01*
X102582366Y-135545755D01*
X102677405Y-135354889D01*
X102735756Y-135149810D01*
X102755429Y-134937500D01*
X102735756Y-134725190D01*
X102677405Y-134520111D01*
X102582366Y-134329245D01*
X102453872Y-134159093D01*
X102301492Y-134020179D01*
X102296689Y-134015800D01*
X102296683Y-134015796D01*
X102296302Y-134015448D01*
X102295854Y-134015171D01*
X102295852Y-134015169D01*
X102115480Y-133903487D01*
X102115476Y-133903485D01*
X102115019Y-133903202D01*
X102114517Y-133903007D01*
X102114512Y-133903005D01*
X101916703Y-133826374D01*
X101916696Y-133826372D01*
X101916198Y-133826179D01*
X101915671Y-133826080D01*
X101915666Y-133826079D01*
X101707135Y-133787098D01*
X101707133Y-133787097D01*
X101706610Y-133787000D01*
X101493390Y-133787000D01*
X101492867Y-133787097D01*
X101492864Y-133787098D01*
X101284333Y-133826079D01*
X101284325Y-133826081D01*
X101283802Y-133826179D01*
X101283305Y-133826371D01*
X101283296Y-133826374D01*
X101085487Y-133903005D01*
X101085478Y-133903009D01*
X101084981Y-133903202D01*
X101084527Y-133903482D01*
X101084519Y-133903487D01*
X100904147Y-134015169D01*
X100904139Y-134015174D01*
X100903698Y-134015448D01*
X100903320Y-134015791D01*
X100903310Y-134015800D01*
X100746519Y-134158736D01*
X100746516Y-134158739D01*
X100746128Y-134159093D01*
X100745812Y-134159510D01*
X100745805Y-134159519D01*
X100617953Y-134328821D01*
X100617947Y-134328829D01*
X100617634Y-134329245D01*
X100617399Y-134329716D01*
X100617397Y-134329720D01*
X100522834Y-134519630D01*
X100522832Y-134519634D01*
X100522595Y-134520111D01*
X100522450Y-134520617D01*
X100522448Y-134520625D01*
X100464388Y-134724680D01*
X100464385Y-134724691D01*
X100464244Y-134725190D01*
X100444571Y-134937500D01*
X90644250Y-134937500D01*
X90644250Y-128937601D01*
X90644292Y-128937500D01*
X90644174Y-128937217D01*
X90644133Y-128937117D01*
X90644032Y-128937075D01*
X89644173Y-127937215D01*
X89644133Y-127937117D01*
X89644034Y-127937076D01*
X89643750Y-127936958D01*
X89643649Y-127937000D01*
X77043851Y-127937000D01*
X77043750Y-127936958D01*
X77043506Y-127937059D01*
X77043367Y-127937117D01*
X77043325Y-127937217D01*
X77041924Y-127938617D01*
X77041923Y-127938618D01*
X76044865Y-128935675D01*
X76044864Y-128935676D01*
X76043465Y-128937076D01*
X76043367Y-128937117D01*
X76043326Y-128937215D01*
X76043326Y-128937216D01*
X76043208Y-128937500D01*
X76043250Y-128937601D01*
X76043250Y-140937399D01*
X76043208Y-140937500D01*
X69213042Y-140937500D01*
X69213000Y-140937399D01*
X69213000Y-134937500D01*
X72663321Y-134937500D01*
X72682994Y-135149810D01*
X72683136Y-135150310D01*
X72683138Y-135150319D01*
X72741198Y-135354374D01*
X72741345Y-135354889D01*
X72836384Y-135545755D01*
X72836701Y-135546174D01*
X72836703Y-135546178D01*
X72964555Y-135715480D01*
X72964558Y-135715483D01*
X72964878Y-135715907D01*
X72965269Y-135716263D01*
X73122060Y-135859199D01*
X73122064Y-135859202D01*
X73122448Y-135859552D01*
X73303731Y-135971798D01*
X73502552Y-136048821D01*
X73712140Y-136088000D01*
X73924826Y-136088000D01*
X73925360Y-136088000D01*
X74134948Y-136048821D01*
X74333769Y-135971798D01*
X74515052Y-135859552D01*
X74672622Y-135715907D01*
X74801116Y-135545755D01*
X74896155Y-135354889D01*
X74954506Y-135149810D01*
X74974179Y-134937500D01*
X74954506Y-134725190D01*
X74896155Y-134520111D01*
X74801116Y-134329245D01*
X74672622Y-134159093D01*
X74520242Y-134020179D01*
X74515439Y-134015800D01*
X74515433Y-134015796D01*
X74515052Y-134015448D01*
X74514604Y-134015171D01*
X74514602Y-134015169D01*
X74334230Y-133903487D01*
X74334226Y-133903485D01*
X74333769Y-133903202D01*
X74333267Y-133903007D01*
X74333262Y-133903005D01*
X74135453Y-133826374D01*
X74135446Y-133826372D01*
X74134948Y-133826179D01*
X74134421Y-133826080D01*
X74134416Y-133826079D01*
X73925885Y-133787098D01*
X73925883Y-133787097D01*
X73925360Y-133787000D01*
X73712140Y-133787000D01*
X73711617Y-133787097D01*
X73711614Y-133787098D01*
X73503083Y-133826079D01*
X73503075Y-133826081D01*
X73502552Y-133826179D01*
X73502055Y-133826371D01*
X73502046Y-133826374D01*
X73304237Y-133903005D01*
X73304228Y-133903009D01*
X73303731Y-133903202D01*
X73303277Y-133903482D01*
X73303269Y-133903487D01*
X73122897Y-134015169D01*
X73122889Y-134015174D01*
X73122448Y-134015448D01*
X73122070Y-134015791D01*
X73122060Y-134015800D01*
X72965269Y-134158736D01*
X72965266Y-134158739D01*
X72964878Y-134159093D01*
X72964562Y-134159510D01*
X72964555Y-134159519D01*
X72836703Y-134328821D01*
X72836697Y-134328829D01*
X72836384Y-134329245D01*
X72836149Y-134329716D01*
X72836147Y-134329720D01*
X72741584Y-134519630D01*
X72741582Y-134519634D01*
X72741345Y-134520111D01*
X72741200Y-134520617D01*
X72741198Y-134520625D01*
X72683138Y-134724680D01*
X72683135Y-134724691D01*
X72682994Y-134725190D01*
X72663321Y-134937500D01*
X69213000Y-134937500D01*
X69213000Y-128937601D01*
X69213042Y-128937500D01*
X69212924Y-128937217D01*
X69212883Y-128937117D01*
X69212782Y-128937075D01*
X68212923Y-127937215D01*
X68212883Y-127937117D01*
X68212784Y-127937076D01*
X68212500Y-127936958D01*
X68212399Y-127937000D01*
X55612601Y-127937000D01*
X55612500Y-127936958D01*
X55612256Y-127937059D01*
X55612117Y-127937117D01*
X55612075Y-127937217D01*
X55610674Y-127938617D01*
X55610673Y-127938618D01*
X54613615Y-128935675D01*
X54613614Y-128935676D01*
X54612215Y-128937076D01*
X54612117Y-128937117D01*
X54612076Y-128937215D01*
X54612076Y-128937216D01*
X54611958Y-128937500D01*
X54612000Y-128937601D01*
X54612000Y-140937399D01*
X54611958Y-140937500D01*
X47781792Y-140937500D01*
X47781750Y-140937399D01*
X47781750Y-134937500D01*
X48850821Y-134937500D01*
X48870494Y-135149810D01*
X48870636Y-135150310D01*
X48870638Y-135150319D01*
X48928698Y-135354374D01*
X48928845Y-135354889D01*
X49023884Y-135545755D01*
X49024201Y-135546174D01*
X49024203Y-135546178D01*
X49152055Y-135715480D01*
X49152058Y-135715483D01*
X49152378Y-135715907D01*
X49152769Y-135716263D01*
X49309560Y-135859199D01*
X49309564Y-135859202D01*
X49309948Y-135859552D01*
X49491231Y-135971798D01*
X49690052Y-136048821D01*
X49899640Y-136088000D01*
X50112326Y-136088000D01*
X50112860Y-136088000D01*
X50322448Y-136048821D01*
X50521269Y-135971798D01*
X50702552Y-135859552D01*
X50860122Y-135715907D01*
X50988616Y-135545755D01*
X51083655Y-135354889D01*
X51142006Y-135149810D01*
X51161679Y-134937500D01*
X51142006Y-134725190D01*
X51083655Y-134520111D01*
X50988616Y-134329245D01*
X50860122Y-134159093D01*
X50707742Y-134020179D01*
X50702939Y-134015800D01*
X50702933Y-134015796D01*
X50702552Y-134015448D01*
X50702104Y-134015171D01*
X50702102Y-134015169D01*
X50521730Y-133903487D01*
X50521726Y-133903485D01*
X50521269Y-133903202D01*
X50520767Y-133903007D01*
X50520762Y-133903005D01*
X50322953Y-133826374D01*
X50322946Y-133826372D01*
X50322448Y-133826179D01*
X50321921Y-133826080D01*
X50321916Y-133826079D01*
X50113385Y-133787098D01*
X50113383Y-133787097D01*
X50112860Y-133787000D01*
X49899640Y-133787000D01*
X49899117Y-133787097D01*
X49899114Y-133787098D01*
X49690583Y-133826079D01*
X49690575Y-133826081D01*
X49690052Y-133826179D01*
X49689555Y-133826371D01*
X49689546Y-133826374D01*
X49491737Y-133903005D01*
X49491728Y-133903009D01*
X49491231Y-133903202D01*
X49490777Y-133903482D01*
X49490769Y-133903487D01*
X49310397Y-134015169D01*
X49310389Y-134015174D01*
X49309948Y-134015448D01*
X49309570Y-134015791D01*
X49309560Y-134015800D01*
X49152769Y-134158736D01*
X49152766Y-134158739D01*
X49152378Y-134159093D01*
X49152062Y-134159510D01*
X49152055Y-134159519D01*
X49024203Y-134328821D01*
X49024197Y-134328829D01*
X49023884Y-134329245D01*
X49023649Y-134329716D01*
X49023647Y-134329720D01*
X48929084Y-134519630D01*
X48929082Y-134519634D01*
X48928845Y-134520111D01*
X48928700Y-134520617D01*
X48928698Y-134520625D01*
X48870638Y-134724680D01*
X48870635Y-134724691D01*
X48870494Y-134725190D01*
X48850821Y-134937500D01*
X47781750Y-134937500D01*
X47781750Y-128937601D01*
X47781792Y-128937500D01*
X47781674Y-128937217D01*
X47781633Y-128937117D01*
X47781532Y-128937075D01*
X46781673Y-127937215D01*
X46781633Y-127937117D01*
X46781534Y-127937076D01*
X46781250Y-127936958D01*
X46781149Y-127937000D01*
X34181351Y-127937000D01*
X34181250Y-127936958D01*
X34181006Y-127937059D01*
X34180867Y-127937117D01*
X34180825Y-127937217D01*
X34179424Y-127938617D01*
X34179423Y-127938618D01*
X33182365Y-128935675D01*
X33182364Y-128935676D01*
X33180965Y-128937076D01*
X33180867Y-128937117D01*
X33180826Y-128937215D01*
X33180826Y-128937216D01*
X33180708Y-128937500D01*
X33180750Y-128937601D01*
X33180750Y-140937399D01*
X33180708Y-140937500D01*
X25494926Y-140937500D01*
X25472724Y-140910477D01*
X25309432Y-140769813D01*
X25124481Y-140659161D01*
X25124026Y-140658986D01*
X25124020Y-140658983D01*
X24923782Y-140581961D01*
X24923777Y-140581959D01*
X24923326Y-140581786D01*
X24922851Y-140581691D01*
X24922846Y-140581690D01*
X24822623Y-140561757D01*
X24818353Y-140560907D01*
X24816954Y-140560537D01*
X24786783Y-140550460D01*
X24786618Y-140550403D01*
X24693913Y-140517867D01*
X24691455Y-140516659D01*
X24643377Y-140485418D01*
X24642925Y-140485109D01*
X24609852Y-140461306D01*
X24582952Y-140441946D01*
X24581190Y-140440379D01*
X24540031Y-140395363D01*
X24539475Y-140394705D01*
X24496310Y-140339240D01*
X24495225Y-140337561D01*
X24466124Y-140282576D01*
X24465594Y-140281426D01*
X24440233Y-140217129D01*
X24439743Y-140215568D01*
X24425305Y-140154692D01*
X24425046Y-140153097D01*
X24418829Y-140084258D01*
X24418786Y-140083009D01*
X24420094Y-140020778D01*
X24420307Y-140018817D01*
X24433966Y-139949868D01*
X24434166Y-139949034D01*
X24450727Y-139890315D01*
X24451591Y-139888140D01*
X24485832Y-139822563D01*
X24486029Y-139822206D01*
X24515008Y-139772613D01*
X24516647Y-139770448D01*
X24581690Y-139702944D01*
X24607555Y-139676939D01*
X24609145Y-139675607D01*
X24645066Y-139650713D01*
X24873916Y-139495821D01*
X24874826Y-139495269D01*
X24984007Y-139436212D01*
X24984187Y-139436119D01*
X25165101Y-139345858D01*
X25165853Y-139345518D01*
X25291761Y-139294402D01*
X25292274Y-139294210D01*
X25475045Y-139231492D01*
X25475594Y-139231320D01*
X25606359Y-139194360D01*
X25607136Y-139194171D01*
X25805315Y-139154342D01*
X25805644Y-139154282D01*
X25928004Y-139133872D01*
X25929081Y-139133746D01*
X26204700Y-139115498D01*
X26249691Y-139113017D01*
X26250325Y-139113000D01*
X27181904Y-139113000D01*
X27182318Y-139113000D01*
X27394769Y-139082454D01*
X27600710Y-139021984D01*
X27795950Y-138932821D01*
X27976513Y-138816781D01*
X28138724Y-138676224D01*
X28279281Y-138514013D01*
X28395321Y-138333450D01*
X28484484Y-138138210D01*
X28544954Y-137932269D01*
X28575500Y-137719818D01*
X28575500Y-137612500D01*
X28575500Y-137612000D01*
X28575500Y-121887500D01*
X37943208Y-121887500D01*
X37943326Y-121887783D01*
X37943367Y-121887883D01*
X37943465Y-121887923D01*
X38943325Y-122887782D01*
X38943367Y-122887883D01*
X38943467Y-122887924D01*
X38943750Y-122888042D01*
X38943851Y-122888000D01*
X51543649Y-122888000D01*
X51543750Y-122888042D01*
X51544034Y-122887924D01*
X51544034Y-122887923D01*
X51544133Y-122887883D01*
X51544173Y-122887784D01*
X52544032Y-121887924D01*
X52544133Y-121887883D01*
X52544190Y-121887743D01*
X52544292Y-121887500D01*
X64136958Y-121887500D01*
X64137076Y-121887783D01*
X64137117Y-121887883D01*
X64137215Y-121887923D01*
X65137075Y-122887782D01*
X65137117Y-122887883D01*
X65137217Y-122887924D01*
X65137500Y-122888042D01*
X65137601Y-122888000D01*
X77737399Y-122888000D01*
X77737500Y-122888042D01*
X77737784Y-122887924D01*
X77737784Y-122887923D01*
X77737883Y-122887883D01*
X77737923Y-122887784D01*
X78737782Y-121887924D01*
X78737883Y-121887883D01*
X78737940Y-121887743D01*
X78738042Y-121887500D01*
X83186958Y-121887500D01*
X83187076Y-121887783D01*
X83187117Y-121887883D01*
X83187215Y-121887923D01*
X84187075Y-122887782D01*
X84187117Y-122887883D01*
X84187217Y-122887924D01*
X84187500Y-122888042D01*
X84187601Y-122888000D01*
X96787399Y-122888000D01*
X96787500Y-122888042D01*
X96787784Y-122887924D01*
X96787784Y-122887923D01*
X96787883Y-122887883D01*
X96787923Y-122887784D01*
X97787782Y-121887924D01*
X97787883Y-121887883D01*
X97787940Y-121887743D01*
X97788042Y-121887500D01*
X102236958Y-121887500D01*
X102237076Y-121887783D01*
X102237117Y-121887883D01*
X102237215Y-121887923D01*
X103237075Y-122887782D01*
X103237117Y-122887883D01*
X103237217Y-122887924D01*
X103237500Y-122888042D01*
X103237601Y-122888000D01*
X115837399Y-122888000D01*
X115837500Y-122888042D01*
X115837784Y-122887924D01*
X115837784Y-122887923D01*
X115837883Y-122887883D01*
X115837923Y-122887784D01*
X116837782Y-121887924D01*
X116837883Y-121887883D01*
X116837940Y-121887743D01*
X116838042Y-121887500D01*
X121286958Y-121887500D01*
X121287076Y-121887783D01*
X121287117Y-121887883D01*
X121287215Y-121887923D01*
X122287075Y-122887782D01*
X122287117Y-122887883D01*
X122287217Y-122887924D01*
X122287500Y-122888042D01*
X122287601Y-122888000D01*
X134887399Y-122888000D01*
X134887500Y-122888042D01*
X134887784Y-122887924D01*
X134887784Y-122887923D01*
X134887883Y-122887883D01*
X134887923Y-122887784D01*
X135887782Y-121887924D01*
X135887883Y-121887883D01*
X135887940Y-121887743D01*
X135888042Y-121887500D01*
X140336958Y-121887500D01*
X140337076Y-121887783D01*
X140337117Y-121887883D01*
X140337215Y-121887923D01*
X141337075Y-122887782D01*
X141337117Y-122887883D01*
X141337217Y-122887924D01*
X141337500Y-122888042D01*
X141337601Y-122888000D01*
X153937399Y-122888000D01*
X153937500Y-122888042D01*
X153937784Y-122887924D01*
X153937784Y-122887923D01*
X153937883Y-122887883D01*
X153937923Y-122887784D01*
X154937782Y-121887924D01*
X154937883Y-121887883D01*
X154937940Y-121887743D01*
X154938042Y-121887500D01*
X159386958Y-121887500D01*
X159387076Y-121887783D01*
X159387117Y-121887883D01*
X159387215Y-121887923D01*
X160387075Y-122887782D01*
X160387117Y-122887883D01*
X160387217Y-122887924D01*
X160387500Y-122888042D01*
X160387601Y-122888000D01*
X172987399Y-122888000D01*
X172987500Y-122888042D01*
X172987784Y-122887924D01*
X172987784Y-122887923D01*
X172987883Y-122887883D01*
X172987923Y-122887784D01*
X173987782Y-121887924D01*
X173987883Y-121887883D01*
X173987940Y-121887743D01*
X173988042Y-121887500D01*
X178436958Y-121887500D01*
X178437076Y-121887783D01*
X178437117Y-121887883D01*
X178437215Y-121887923D01*
X179437075Y-122887782D01*
X179437117Y-122887883D01*
X179437217Y-122887924D01*
X179437500Y-122888042D01*
X179437601Y-122888000D01*
X192037399Y-122888000D01*
X192037500Y-122888042D01*
X192037784Y-122887924D01*
X192037784Y-122887923D01*
X192037883Y-122887883D01*
X192037923Y-122887784D01*
X193037782Y-121887924D01*
X193037883Y-121887883D01*
X193037940Y-121887743D01*
X193038042Y-121887500D01*
X197486958Y-121887500D01*
X197487076Y-121887783D01*
X197487117Y-121887883D01*
X197487215Y-121887923D01*
X198487075Y-122887782D01*
X198487117Y-122887883D01*
X198487217Y-122887924D01*
X198487500Y-122888042D01*
X198487601Y-122888000D01*
X211087399Y-122888000D01*
X211087500Y-122888042D01*
X211087784Y-122887924D01*
X211087784Y-122887923D01*
X211087883Y-122887883D01*
X211087923Y-122887784D01*
X212087782Y-121887924D01*
X212087883Y-121887883D01*
X212087940Y-121887743D01*
X212088042Y-121887500D01*
X216536958Y-121887500D01*
X216537076Y-121887783D01*
X216537117Y-121887883D01*
X216537215Y-121887923D01*
X217537075Y-122887782D01*
X217537117Y-122887883D01*
X217537217Y-122887924D01*
X217537500Y-122888042D01*
X217537601Y-122888000D01*
X230137399Y-122888000D01*
X230137500Y-122888042D01*
X230137784Y-122887924D01*
X230137784Y-122887923D01*
X230137883Y-122887883D01*
X230137923Y-122887784D01*
X231137782Y-121887924D01*
X231137883Y-121887883D01*
X231137940Y-121887743D01*
X231138042Y-121887500D01*
X235586958Y-121887500D01*
X235587076Y-121887783D01*
X235587117Y-121887883D01*
X235587215Y-121887923D01*
X236587075Y-122887782D01*
X236587117Y-122887883D01*
X236587217Y-122887924D01*
X236587500Y-122888042D01*
X236587601Y-122888000D01*
X249187399Y-122888000D01*
X249187500Y-122888042D01*
X249187784Y-122887924D01*
X249187784Y-122887923D01*
X249187883Y-122887883D01*
X249187923Y-122887784D01*
X250187782Y-121887924D01*
X250187883Y-121887883D01*
X250187940Y-121887743D01*
X250188042Y-121887500D01*
X254636958Y-121887500D01*
X254637076Y-121887783D01*
X254637117Y-121887883D01*
X254637215Y-121887923D01*
X255637075Y-122887782D01*
X255637117Y-122887883D01*
X255637217Y-122887924D01*
X255637500Y-122888042D01*
X255637601Y-122888000D01*
X268237399Y-122888000D01*
X268237500Y-122888042D01*
X268237784Y-122887924D01*
X268237784Y-122887923D01*
X268237883Y-122887883D01*
X268237923Y-122887784D01*
X269237782Y-121887924D01*
X269237883Y-121887883D01*
X269237940Y-121887743D01*
X269238042Y-121887500D01*
X269238000Y-121887399D01*
X269238000Y-109887601D01*
X269238042Y-109887500D01*
X269237924Y-109887217D01*
X269237883Y-109887117D01*
X269237782Y-109887075D01*
X268237923Y-108887215D01*
X268237883Y-108887117D01*
X268237784Y-108887076D01*
X268237500Y-108886958D01*
X268237399Y-108887000D01*
X255637601Y-108887000D01*
X255637500Y-108886958D01*
X255637256Y-108887059D01*
X255637117Y-108887117D01*
X255637075Y-108887217D01*
X255635674Y-108888617D01*
X255635673Y-108888618D01*
X254638615Y-109885675D01*
X254638614Y-109885676D01*
X254637215Y-109887076D01*
X254637117Y-109887117D01*
X254637076Y-109887215D01*
X254637076Y-109887216D01*
X254636958Y-109887500D01*
X254637000Y-109887601D01*
X254637000Y-121887399D01*
X254636958Y-121887500D01*
X250188042Y-121887500D01*
X250188000Y-121887399D01*
X250188000Y-115887500D01*
X251257071Y-115887500D01*
X251276744Y-116099810D01*
X251276886Y-116100310D01*
X251276888Y-116100319D01*
X251334948Y-116304374D01*
X251335095Y-116304889D01*
X251430134Y-116495755D01*
X251430451Y-116496174D01*
X251430453Y-116496178D01*
X251558305Y-116665480D01*
X251558308Y-116665483D01*
X251558628Y-116665907D01*
X251559019Y-116666263D01*
X251715810Y-116809199D01*
X251715814Y-116809202D01*
X251716198Y-116809552D01*
X251897481Y-116921798D01*
X252096302Y-116998821D01*
X252305890Y-117038000D01*
X252518576Y-117038000D01*
X252519110Y-117038000D01*
X252728698Y-116998821D01*
X252927519Y-116921798D01*
X253108802Y-116809552D01*
X253266372Y-116665907D01*
X253394866Y-116495755D01*
X253489905Y-116304889D01*
X253548256Y-116099810D01*
X253567929Y-115887500D01*
X253548256Y-115675190D01*
X253489905Y-115470111D01*
X253394866Y-115279245D01*
X253266372Y-115109093D01*
X253113992Y-114970179D01*
X253109189Y-114965800D01*
X253109183Y-114965796D01*
X253108802Y-114965448D01*
X253108354Y-114965171D01*
X253108352Y-114965169D01*
X252927980Y-114853487D01*
X252927976Y-114853485D01*
X252927519Y-114853202D01*
X252927017Y-114853007D01*
X252927012Y-114853005D01*
X252729203Y-114776374D01*
X252729196Y-114776372D01*
X252728698Y-114776179D01*
X252728171Y-114776080D01*
X252728166Y-114776079D01*
X252519635Y-114737098D01*
X252519633Y-114737097D01*
X252519110Y-114737000D01*
X252305890Y-114737000D01*
X252305367Y-114737097D01*
X252305364Y-114737098D01*
X252096833Y-114776079D01*
X252096825Y-114776081D01*
X252096302Y-114776179D01*
X252095805Y-114776371D01*
X252095796Y-114776374D01*
X251897987Y-114853005D01*
X251897978Y-114853009D01*
X251897481Y-114853202D01*
X251897027Y-114853482D01*
X251897019Y-114853487D01*
X251716647Y-114965169D01*
X251716639Y-114965174D01*
X251716198Y-114965448D01*
X251715820Y-114965791D01*
X251715810Y-114965800D01*
X251559019Y-115108736D01*
X251559016Y-115108739D01*
X251558628Y-115109093D01*
X251558312Y-115109510D01*
X251558305Y-115109519D01*
X251430453Y-115278821D01*
X251430447Y-115278829D01*
X251430134Y-115279245D01*
X251429899Y-115279716D01*
X251429897Y-115279720D01*
X251335334Y-115469630D01*
X251335332Y-115469634D01*
X251335095Y-115470111D01*
X251334950Y-115470617D01*
X251334948Y-115470625D01*
X251276888Y-115674680D01*
X251276885Y-115674691D01*
X251276744Y-115675190D01*
X251257071Y-115887500D01*
X250188000Y-115887500D01*
X250188000Y-109887601D01*
X250188042Y-109887500D01*
X250187924Y-109887217D01*
X250187883Y-109887117D01*
X250187782Y-109887075D01*
X249187923Y-108887215D01*
X249187883Y-108887117D01*
X249187784Y-108887076D01*
X249187500Y-108886958D01*
X249187399Y-108887000D01*
X236587601Y-108887000D01*
X236587500Y-108886958D01*
X236587256Y-108887059D01*
X236587117Y-108887117D01*
X236587075Y-108887217D01*
X236585674Y-108888617D01*
X236585673Y-108888618D01*
X235588615Y-109885675D01*
X235588614Y-109885676D01*
X235587215Y-109887076D01*
X235587117Y-109887117D01*
X235587076Y-109887215D01*
X235587076Y-109887216D01*
X235586958Y-109887500D01*
X235587000Y-109887601D01*
X235587000Y-121887399D01*
X235586958Y-121887500D01*
X231138042Y-121887500D01*
X231138000Y-121887399D01*
X231138000Y-109887601D01*
X231138042Y-109887500D01*
X231137924Y-109887217D01*
X231137883Y-109887117D01*
X231137782Y-109887075D01*
X230137923Y-108887215D01*
X230137883Y-108887117D01*
X230137784Y-108887076D01*
X230137500Y-108886958D01*
X230137399Y-108887000D01*
X217537601Y-108887000D01*
X217537500Y-108886958D01*
X217537256Y-108887059D01*
X217537117Y-108887117D01*
X217537075Y-108887217D01*
X217535674Y-108888617D01*
X217535673Y-108888618D01*
X216538615Y-109885675D01*
X216538614Y-109885676D01*
X216537215Y-109887076D01*
X216537117Y-109887117D01*
X216537076Y-109887215D01*
X216537076Y-109887216D01*
X216536958Y-109887500D01*
X216537000Y-109887601D01*
X216537000Y-121887399D01*
X216536958Y-121887500D01*
X212088042Y-121887500D01*
X212088000Y-121887399D01*
X212088000Y-115887500D01*
X213157071Y-115887500D01*
X213176744Y-116099810D01*
X213176886Y-116100310D01*
X213176888Y-116100319D01*
X213234948Y-116304374D01*
X213235095Y-116304889D01*
X213330134Y-116495755D01*
X213330451Y-116496174D01*
X213330453Y-116496178D01*
X213458305Y-116665480D01*
X213458308Y-116665483D01*
X213458628Y-116665907D01*
X213459019Y-116666263D01*
X213615810Y-116809199D01*
X213615814Y-116809202D01*
X213616198Y-116809552D01*
X213797481Y-116921798D01*
X213996302Y-116998821D01*
X214205890Y-117038000D01*
X214418576Y-117038000D01*
X214419110Y-117038000D01*
X214628698Y-116998821D01*
X214827519Y-116921798D01*
X215008802Y-116809552D01*
X215166372Y-116665907D01*
X215294866Y-116495755D01*
X215389905Y-116304889D01*
X215448256Y-116099810D01*
X215467929Y-115887500D01*
X215448256Y-115675190D01*
X215389905Y-115470111D01*
X215294866Y-115279245D01*
X215166372Y-115109093D01*
X215013992Y-114970179D01*
X215009189Y-114965800D01*
X215009183Y-114965796D01*
X215008802Y-114965448D01*
X215008354Y-114965171D01*
X215008352Y-114965169D01*
X214827980Y-114853487D01*
X214827976Y-114853485D01*
X214827519Y-114853202D01*
X214827017Y-114853007D01*
X214827012Y-114853005D01*
X214629203Y-114776374D01*
X214629196Y-114776372D01*
X214628698Y-114776179D01*
X214628171Y-114776080D01*
X214628166Y-114776079D01*
X214419635Y-114737098D01*
X214419633Y-114737097D01*
X214419110Y-114737000D01*
X214205890Y-114737000D01*
X214205367Y-114737097D01*
X214205364Y-114737098D01*
X213996833Y-114776079D01*
X213996825Y-114776081D01*
X213996302Y-114776179D01*
X213995805Y-114776371D01*
X213995796Y-114776374D01*
X213797987Y-114853005D01*
X213797978Y-114853009D01*
X213797481Y-114853202D01*
X213797027Y-114853482D01*
X213797019Y-114853487D01*
X213616647Y-114965169D01*
X213616639Y-114965174D01*
X213616198Y-114965448D01*
X213615820Y-114965791D01*
X213615810Y-114965800D01*
X213459019Y-115108736D01*
X213459016Y-115108739D01*
X213458628Y-115109093D01*
X213458312Y-115109510D01*
X213458305Y-115109519D01*
X213330453Y-115278821D01*
X213330447Y-115278829D01*
X213330134Y-115279245D01*
X213329899Y-115279716D01*
X213329897Y-115279720D01*
X213235334Y-115469630D01*
X213235332Y-115469634D01*
X213235095Y-115470111D01*
X213234950Y-115470617D01*
X213234948Y-115470625D01*
X213176888Y-115674680D01*
X213176885Y-115674691D01*
X213176744Y-115675190D01*
X213157071Y-115887500D01*
X212088000Y-115887500D01*
X212088000Y-109887601D01*
X212088042Y-109887500D01*
X212087924Y-109887217D01*
X212087883Y-109887117D01*
X212087782Y-109887075D01*
X211087923Y-108887215D01*
X211087883Y-108887117D01*
X211087784Y-108887076D01*
X211087500Y-108886958D01*
X211087399Y-108887000D01*
X198487601Y-108887000D01*
X198487500Y-108886958D01*
X198487256Y-108887059D01*
X198487117Y-108887117D01*
X198487075Y-108887217D01*
X198485674Y-108888617D01*
X198485673Y-108888618D01*
X197488615Y-109885675D01*
X197488614Y-109885676D01*
X197487215Y-109887076D01*
X197487117Y-109887117D01*
X197487076Y-109887215D01*
X197487076Y-109887216D01*
X197486958Y-109887500D01*
X197487000Y-109887601D01*
X197487000Y-121887399D01*
X197486958Y-121887500D01*
X193038042Y-121887500D01*
X193038000Y-121887399D01*
X193038000Y-109887601D01*
X193038042Y-109887500D01*
X193037924Y-109887217D01*
X193037883Y-109887117D01*
X193037782Y-109887075D01*
X192037923Y-108887215D01*
X192037883Y-108887117D01*
X192037784Y-108887076D01*
X192037500Y-108886958D01*
X192037399Y-108887000D01*
X179437601Y-108887000D01*
X179437500Y-108886958D01*
X179437256Y-108887059D01*
X179437117Y-108887117D01*
X179437075Y-108887217D01*
X179435674Y-108888617D01*
X179435673Y-108888618D01*
X178438615Y-109885675D01*
X178438614Y-109885676D01*
X178437215Y-109887076D01*
X178437117Y-109887117D01*
X178437076Y-109887215D01*
X178437076Y-109887216D01*
X178436958Y-109887500D01*
X178437000Y-109887601D01*
X178437000Y-121887399D01*
X178436958Y-121887500D01*
X173988042Y-121887500D01*
X173988000Y-121887399D01*
X173988000Y-109887601D01*
X173988042Y-109887500D01*
X173987924Y-109887217D01*
X173987883Y-109887117D01*
X173987782Y-109887075D01*
X172987923Y-108887215D01*
X172987883Y-108887117D01*
X172987784Y-108887076D01*
X172987500Y-108886958D01*
X172987399Y-108887000D01*
X160387601Y-108887000D01*
X160387500Y-108886958D01*
X160387256Y-108887059D01*
X160387117Y-108887117D01*
X160387075Y-108887217D01*
X160385674Y-108888617D01*
X160385673Y-108888618D01*
X159388615Y-109885675D01*
X159388614Y-109885676D01*
X159387215Y-109887076D01*
X159387117Y-109887117D01*
X159387076Y-109887215D01*
X159387076Y-109887216D01*
X159386958Y-109887500D01*
X159387000Y-109887601D01*
X159387000Y-121887399D01*
X159386958Y-121887500D01*
X154938042Y-121887500D01*
X154938000Y-121887399D01*
X154938000Y-115887500D01*
X156007071Y-115887500D01*
X156026744Y-116099810D01*
X156026886Y-116100310D01*
X156026888Y-116100319D01*
X156084948Y-116304374D01*
X156085095Y-116304889D01*
X156180134Y-116495755D01*
X156180451Y-116496174D01*
X156180453Y-116496178D01*
X156308305Y-116665480D01*
X156308308Y-116665483D01*
X156308628Y-116665907D01*
X156309019Y-116666263D01*
X156465810Y-116809199D01*
X156465814Y-116809202D01*
X156466198Y-116809552D01*
X156647481Y-116921798D01*
X156846302Y-116998821D01*
X157055890Y-117038000D01*
X157268576Y-117038000D01*
X157269110Y-117038000D01*
X157478698Y-116998821D01*
X157677519Y-116921798D01*
X157858802Y-116809552D01*
X158016372Y-116665907D01*
X158144866Y-116495755D01*
X158239905Y-116304889D01*
X158298256Y-116099810D01*
X158317929Y-115887500D01*
X158298256Y-115675190D01*
X158239905Y-115470111D01*
X158144866Y-115279245D01*
X158016372Y-115109093D01*
X157863992Y-114970179D01*
X157859189Y-114965800D01*
X157859183Y-114965796D01*
X157858802Y-114965448D01*
X157858354Y-114965171D01*
X157858352Y-114965169D01*
X157677980Y-114853487D01*
X157677976Y-114853485D01*
X157677519Y-114853202D01*
X157677017Y-114853007D01*
X157677012Y-114853005D01*
X157479203Y-114776374D01*
X157479196Y-114776372D01*
X157478698Y-114776179D01*
X157478171Y-114776080D01*
X157478166Y-114776079D01*
X157269635Y-114737098D01*
X157269633Y-114737097D01*
X157269110Y-114737000D01*
X157055890Y-114737000D01*
X157055367Y-114737097D01*
X157055364Y-114737098D01*
X156846833Y-114776079D01*
X156846825Y-114776081D01*
X156846302Y-114776179D01*
X156845805Y-114776371D01*
X156845796Y-114776374D01*
X156647987Y-114853005D01*
X156647978Y-114853009D01*
X156647481Y-114853202D01*
X156647027Y-114853482D01*
X156647019Y-114853487D01*
X156466647Y-114965169D01*
X156466639Y-114965174D01*
X156466198Y-114965448D01*
X156465820Y-114965791D01*
X156465810Y-114965800D01*
X156309019Y-115108736D01*
X156309016Y-115108739D01*
X156308628Y-115109093D01*
X156308312Y-115109510D01*
X156308305Y-115109519D01*
X156180453Y-115278821D01*
X156180447Y-115278829D01*
X156180134Y-115279245D01*
X156179899Y-115279716D01*
X156179897Y-115279720D01*
X156085334Y-115469630D01*
X156085332Y-115469634D01*
X156085095Y-115470111D01*
X156084950Y-115470617D01*
X156084948Y-115470625D01*
X156026888Y-115674680D01*
X156026885Y-115674691D01*
X156026744Y-115675190D01*
X156007071Y-115887500D01*
X154938000Y-115887500D01*
X154938000Y-109887601D01*
X154938042Y-109887500D01*
X154937924Y-109887217D01*
X154937883Y-109887117D01*
X154937782Y-109887075D01*
X153937923Y-108887215D01*
X153937883Y-108887117D01*
X153937784Y-108887076D01*
X153937500Y-108886958D01*
X153937399Y-108887000D01*
X141337601Y-108887000D01*
X141337500Y-108886958D01*
X141337256Y-108887059D01*
X141337117Y-108887117D01*
X141337075Y-108887217D01*
X141335674Y-108888617D01*
X141335673Y-108888618D01*
X140338615Y-109885675D01*
X140338614Y-109885676D01*
X140337215Y-109887076D01*
X140337117Y-109887117D01*
X140337076Y-109887215D01*
X140337076Y-109887216D01*
X140336958Y-109887500D01*
X140337000Y-109887601D01*
X140337000Y-121887399D01*
X140336958Y-121887500D01*
X135888042Y-121887500D01*
X135888000Y-121887399D01*
X135888000Y-109887601D01*
X135888042Y-109887500D01*
X135887924Y-109887217D01*
X135887883Y-109887117D01*
X135887782Y-109887075D01*
X134887923Y-108887215D01*
X134887883Y-108887117D01*
X134887784Y-108887076D01*
X134887500Y-108886958D01*
X134887399Y-108887000D01*
X122287601Y-108887000D01*
X122287500Y-108886958D01*
X122287256Y-108887059D01*
X122287117Y-108887117D01*
X122287075Y-108887217D01*
X122285674Y-108888617D01*
X122285673Y-108888618D01*
X121288615Y-109885675D01*
X121288614Y-109885676D01*
X121287215Y-109887076D01*
X121287117Y-109887117D01*
X121287076Y-109887215D01*
X121287076Y-109887216D01*
X121286958Y-109887500D01*
X121287000Y-109887601D01*
X121287000Y-121887399D01*
X121286958Y-121887500D01*
X116838042Y-121887500D01*
X116838000Y-121887399D01*
X116838000Y-109887601D01*
X116838042Y-109887500D01*
X116837924Y-109887217D01*
X116837883Y-109887117D01*
X116837782Y-109887075D01*
X115837923Y-108887215D01*
X115837883Y-108887117D01*
X115837784Y-108887076D01*
X115837500Y-108886958D01*
X115837399Y-108887000D01*
X103237601Y-108887000D01*
X103237500Y-108886958D01*
X103237256Y-108887059D01*
X103237117Y-108887117D01*
X103237075Y-108887217D01*
X103235674Y-108888617D01*
X103235673Y-108888618D01*
X102238615Y-109885675D01*
X102238614Y-109885676D01*
X102237215Y-109887076D01*
X102237117Y-109887117D01*
X102237076Y-109887215D01*
X102237076Y-109887216D01*
X102236958Y-109887500D01*
X102237000Y-109887601D01*
X102237000Y-121887399D01*
X102236958Y-121887500D01*
X97788042Y-121887500D01*
X97788000Y-121887399D01*
X97788000Y-115887500D01*
X98857071Y-115887500D01*
X98876744Y-116099810D01*
X98876886Y-116100310D01*
X98876888Y-116100319D01*
X98934948Y-116304374D01*
X98935095Y-116304889D01*
X99030134Y-116495755D01*
X99030451Y-116496174D01*
X99030453Y-116496178D01*
X99158305Y-116665480D01*
X99158308Y-116665483D01*
X99158628Y-116665907D01*
X99159019Y-116666263D01*
X99315810Y-116809199D01*
X99315814Y-116809202D01*
X99316198Y-116809552D01*
X99497481Y-116921798D01*
X99696302Y-116998821D01*
X99905890Y-117038000D01*
X100118576Y-117038000D01*
X100119110Y-117038000D01*
X100328698Y-116998821D01*
X100527519Y-116921798D01*
X100708802Y-116809552D01*
X100866372Y-116665907D01*
X100994866Y-116495755D01*
X101089905Y-116304889D01*
X101148256Y-116099810D01*
X101167929Y-115887500D01*
X101148256Y-115675190D01*
X101089905Y-115470111D01*
X100994866Y-115279245D01*
X100866372Y-115109093D01*
X100713992Y-114970179D01*
X100709189Y-114965800D01*
X100709183Y-114965796D01*
X100708802Y-114965448D01*
X100708354Y-114965171D01*
X100708352Y-114965169D01*
X100527980Y-114853487D01*
X100527976Y-114853485D01*
X100527519Y-114853202D01*
X100527017Y-114853007D01*
X100527012Y-114853005D01*
X100329203Y-114776374D01*
X100329196Y-114776372D01*
X100328698Y-114776179D01*
X100328171Y-114776080D01*
X100328166Y-114776079D01*
X100119635Y-114737098D01*
X100119633Y-114737097D01*
X100119110Y-114737000D01*
X99905890Y-114737000D01*
X99905367Y-114737097D01*
X99905364Y-114737098D01*
X99696833Y-114776079D01*
X99696825Y-114776081D01*
X99696302Y-114776179D01*
X99695805Y-114776371D01*
X99695796Y-114776374D01*
X99497987Y-114853005D01*
X99497978Y-114853009D01*
X99497481Y-114853202D01*
X99497027Y-114853482D01*
X99497019Y-114853487D01*
X99316647Y-114965169D01*
X99316639Y-114965174D01*
X99316198Y-114965448D01*
X99315820Y-114965791D01*
X99315810Y-114965800D01*
X99159019Y-115108736D01*
X99159016Y-115108739D01*
X99158628Y-115109093D01*
X99158312Y-115109510D01*
X99158305Y-115109519D01*
X99030453Y-115278821D01*
X99030447Y-115278829D01*
X99030134Y-115279245D01*
X99029899Y-115279716D01*
X99029897Y-115279720D01*
X98935334Y-115469630D01*
X98935332Y-115469634D01*
X98935095Y-115470111D01*
X98934950Y-115470617D01*
X98934948Y-115470625D01*
X98876888Y-115674680D01*
X98876885Y-115674691D01*
X98876744Y-115675190D01*
X98857071Y-115887500D01*
X97788000Y-115887500D01*
X97788000Y-109887601D01*
X97788042Y-109887500D01*
X97787924Y-109887217D01*
X97787883Y-109887117D01*
X97787782Y-109887075D01*
X96787923Y-108887215D01*
X96787883Y-108887117D01*
X96787784Y-108887076D01*
X96787500Y-108886958D01*
X96787399Y-108887000D01*
X84187601Y-108887000D01*
X84187500Y-108886958D01*
X84187256Y-108887059D01*
X84187117Y-108887117D01*
X84187075Y-108887217D01*
X84185674Y-108888617D01*
X84185673Y-108888618D01*
X83188615Y-109885675D01*
X83188614Y-109885676D01*
X83187215Y-109887076D01*
X83187117Y-109887117D01*
X83187076Y-109887215D01*
X83187076Y-109887216D01*
X83186958Y-109887500D01*
X83187000Y-109887601D01*
X83187000Y-121887399D01*
X83186958Y-121887500D01*
X78738042Y-121887500D01*
X78738000Y-121887399D01*
X78738000Y-109887601D01*
X78738042Y-109887500D01*
X78737924Y-109887217D01*
X78737883Y-109887117D01*
X78737782Y-109887075D01*
X77737923Y-108887215D01*
X77737883Y-108887117D01*
X77737784Y-108887076D01*
X77737500Y-108886958D01*
X77737399Y-108887000D01*
X65137601Y-108887000D01*
X65137500Y-108886958D01*
X65137256Y-108887059D01*
X65137117Y-108887117D01*
X65137075Y-108887217D01*
X65135674Y-108888617D01*
X65135673Y-108888618D01*
X64138615Y-109885675D01*
X64138614Y-109885676D01*
X64137215Y-109887076D01*
X64137117Y-109887117D01*
X64137076Y-109887215D01*
X64137076Y-109887216D01*
X64136958Y-109887500D01*
X64137000Y-109887601D01*
X64137000Y-121887399D01*
X64136958Y-121887500D01*
X52544292Y-121887500D01*
X52544250Y-121887399D01*
X52544250Y-109887601D01*
X52544292Y-109887500D01*
X52544174Y-109887217D01*
X52544133Y-109887117D01*
X52544032Y-109887075D01*
X51544173Y-108887215D01*
X51544133Y-108887117D01*
X51544034Y-108887076D01*
X51543750Y-108886958D01*
X51543649Y-108887000D01*
X38943851Y-108887000D01*
X38943750Y-108886958D01*
X38943506Y-108887059D01*
X38943367Y-108887117D01*
X38943325Y-108887217D01*
X38941924Y-108888617D01*
X38941923Y-108888618D01*
X37944865Y-109885675D01*
X37944864Y-109885676D01*
X37943465Y-109887076D01*
X37943367Y-109887117D01*
X37943326Y-109887215D01*
X37943326Y-109887216D01*
X37943208Y-109887500D01*
X37943250Y-109887601D01*
X37943250Y-121887399D01*
X37943208Y-121887500D01*
X28575500Y-121887500D01*
X28575500Y-115887500D01*
X34563321Y-115887500D01*
X34582994Y-116099810D01*
X34583136Y-116100310D01*
X34583138Y-116100319D01*
X34641198Y-116304374D01*
X34641345Y-116304889D01*
X34736384Y-116495755D01*
X34736701Y-116496174D01*
X34736703Y-116496178D01*
X34864555Y-116665480D01*
X34864558Y-116665483D01*
X34864878Y-116665907D01*
X34865269Y-116666263D01*
X35022060Y-116809199D01*
X35022064Y-116809202D01*
X35022448Y-116809552D01*
X35203731Y-116921798D01*
X35402552Y-116998821D01*
X35612140Y-117038000D01*
X35824826Y-117038000D01*
X35825360Y-117038000D01*
X36034948Y-116998821D01*
X36233769Y-116921798D01*
X36415052Y-116809552D01*
X36572622Y-116665907D01*
X36701116Y-116495755D01*
X36796155Y-116304889D01*
X36854506Y-116099810D01*
X36874179Y-115887500D01*
X36854506Y-115675190D01*
X36796155Y-115470111D01*
X36701116Y-115279245D01*
X36572622Y-115109093D01*
X36420242Y-114970179D01*
X36415439Y-114965800D01*
X36415433Y-114965796D01*
X36415052Y-114965448D01*
X36414604Y-114965171D01*
X36414602Y-114965169D01*
X36234230Y-114853487D01*
X36234226Y-114853485D01*
X36233769Y-114853202D01*
X36233267Y-114853007D01*
X36233262Y-114853005D01*
X36035453Y-114776374D01*
X36035446Y-114776372D01*
X36034948Y-114776179D01*
X36034421Y-114776080D01*
X36034416Y-114776079D01*
X35825885Y-114737098D01*
X35825883Y-114737097D01*
X35825360Y-114737000D01*
X35612140Y-114737000D01*
X35611617Y-114737097D01*
X35611614Y-114737098D01*
X35403083Y-114776079D01*
X35403075Y-114776081D01*
X35402552Y-114776179D01*
X35402055Y-114776371D01*
X35402046Y-114776374D01*
X35204237Y-114853005D01*
X35204228Y-114853009D01*
X35203731Y-114853202D01*
X35203277Y-114853482D01*
X35203269Y-114853487D01*
X35022897Y-114965169D01*
X35022889Y-114965174D01*
X35022448Y-114965448D01*
X35022070Y-114965791D01*
X35022060Y-114965800D01*
X34865269Y-115108736D01*
X34865266Y-115108739D01*
X34864878Y-115109093D01*
X34864562Y-115109510D01*
X34864555Y-115109519D01*
X34736703Y-115278821D01*
X34736697Y-115278829D01*
X34736384Y-115279245D01*
X34736149Y-115279716D01*
X34736147Y-115279720D01*
X34641584Y-115469630D01*
X34641582Y-115469634D01*
X34641345Y-115470111D01*
X34641200Y-115470617D01*
X34641198Y-115470625D01*
X34583138Y-115674680D01*
X34583135Y-115674691D01*
X34582994Y-115675190D01*
X34563321Y-115887500D01*
X28575500Y-115887500D01*
X28575500Y-102837500D01*
X33180708Y-102837500D01*
X33180826Y-102837783D01*
X33180867Y-102837883D01*
X33180965Y-102837923D01*
X34180825Y-103837782D01*
X34180867Y-103837883D01*
X34180967Y-103837924D01*
X34181250Y-103838042D01*
X34181351Y-103838000D01*
X46781149Y-103838000D01*
X46781250Y-103838042D01*
X46781534Y-103837924D01*
X46781534Y-103837923D01*
X46781633Y-103837883D01*
X46781673Y-103837784D01*
X47781532Y-102837924D01*
X47781633Y-102837883D01*
X47781690Y-102837743D01*
X47781792Y-102837500D01*
X54611958Y-102837500D01*
X54612076Y-102837783D01*
X54612117Y-102837883D01*
X54612215Y-102837923D01*
X55612075Y-103837782D01*
X55612117Y-103837883D01*
X55612217Y-103837924D01*
X55612500Y-103838042D01*
X55612601Y-103838000D01*
X68212399Y-103838000D01*
X68212500Y-103838042D01*
X68212784Y-103837924D01*
X68212784Y-103837923D01*
X68212883Y-103837883D01*
X68212923Y-103837784D01*
X69212782Y-102837924D01*
X69212883Y-102837883D01*
X69212940Y-102837743D01*
X69213042Y-102837500D01*
X73661958Y-102837500D01*
X73662076Y-102837783D01*
X73662117Y-102837883D01*
X73662215Y-102837923D01*
X74662075Y-103837782D01*
X74662117Y-103837883D01*
X74662217Y-103837924D01*
X74662500Y-103838042D01*
X74662601Y-103838000D01*
X87262399Y-103838000D01*
X87262500Y-103838042D01*
X87262784Y-103837924D01*
X87262784Y-103837923D01*
X87262883Y-103837883D01*
X87262923Y-103837784D01*
X88262782Y-102837924D01*
X88262883Y-102837883D01*
X88262940Y-102837743D01*
X88263042Y-102837500D01*
X92711958Y-102837500D01*
X92712076Y-102837783D01*
X92712117Y-102837883D01*
X92712215Y-102837923D01*
X93712075Y-103837782D01*
X93712117Y-103837883D01*
X93712217Y-103837924D01*
X93712500Y-103838042D01*
X93712601Y-103838000D01*
X106312399Y-103838000D01*
X106312500Y-103838042D01*
X106312784Y-103837924D01*
X106312784Y-103837923D01*
X106312883Y-103837883D01*
X106312923Y-103837784D01*
X107312782Y-102837924D01*
X107312883Y-102837883D01*
X107312940Y-102837743D01*
X107313042Y-102837500D01*
X111761958Y-102837500D01*
X111762076Y-102837783D01*
X111762117Y-102837883D01*
X111762215Y-102837923D01*
X112762075Y-103837782D01*
X112762117Y-103837883D01*
X112762217Y-103837924D01*
X112762500Y-103838042D01*
X112762601Y-103838000D01*
X125362399Y-103838000D01*
X125362500Y-103838042D01*
X125362784Y-103837924D01*
X125362784Y-103837923D01*
X125362883Y-103837883D01*
X125362923Y-103837784D01*
X126362782Y-102837924D01*
X126362883Y-102837883D01*
X126362940Y-102837743D01*
X126363042Y-102837500D01*
X130811958Y-102837500D01*
X130812076Y-102837783D01*
X130812117Y-102837883D01*
X130812215Y-102837923D01*
X131812075Y-103837782D01*
X131812117Y-103837883D01*
X131812217Y-103837924D01*
X131812500Y-103838042D01*
X131812601Y-103838000D01*
X144412399Y-103838000D01*
X144412500Y-103838042D01*
X144412784Y-103837924D01*
X144412784Y-103837923D01*
X144412883Y-103837883D01*
X144412923Y-103837784D01*
X145412782Y-102837924D01*
X145412883Y-102837883D01*
X145412940Y-102837743D01*
X145413042Y-102837500D01*
X149861958Y-102837500D01*
X149862076Y-102837783D01*
X149862117Y-102837883D01*
X149862215Y-102837923D01*
X150862075Y-103837782D01*
X150862117Y-103837883D01*
X150862217Y-103837924D01*
X150862500Y-103838042D01*
X150862601Y-103838000D01*
X163462399Y-103838000D01*
X163462500Y-103838042D01*
X163462784Y-103837924D01*
X163462784Y-103837923D01*
X163462883Y-103837883D01*
X163462923Y-103837784D01*
X164462782Y-102837924D01*
X164462883Y-102837883D01*
X164462940Y-102837743D01*
X164463042Y-102837500D01*
X168911958Y-102837500D01*
X168912076Y-102837783D01*
X168912117Y-102837883D01*
X168912215Y-102837923D01*
X169912075Y-103837782D01*
X169912117Y-103837883D01*
X169912217Y-103837924D01*
X169912500Y-103838042D01*
X169912601Y-103838000D01*
X182512399Y-103838000D01*
X182512500Y-103838042D01*
X182512784Y-103837924D01*
X182512784Y-103837923D01*
X182512883Y-103837883D01*
X182512923Y-103837784D01*
X183512782Y-102837924D01*
X183512883Y-102837883D01*
X183512940Y-102837743D01*
X183513042Y-102837500D01*
X187961958Y-102837500D01*
X187962076Y-102837783D01*
X187962117Y-102837883D01*
X187962215Y-102837923D01*
X188962075Y-103837782D01*
X188962117Y-103837883D01*
X188962217Y-103837924D01*
X188962500Y-103838042D01*
X188962601Y-103838000D01*
X201562399Y-103838000D01*
X201562500Y-103838042D01*
X201562784Y-103837924D01*
X201562784Y-103837923D01*
X201562883Y-103837883D01*
X201562923Y-103837784D01*
X202562782Y-102837924D01*
X202562883Y-102837883D01*
X202562940Y-102837743D01*
X202563042Y-102837500D01*
X207011958Y-102837500D01*
X207012076Y-102837783D01*
X207012117Y-102837883D01*
X207012215Y-102837923D01*
X208012075Y-103837782D01*
X208012117Y-103837883D01*
X208012217Y-103837924D01*
X208012500Y-103838042D01*
X208012601Y-103838000D01*
X220612399Y-103838000D01*
X220612500Y-103838042D01*
X220612784Y-103837924D01*
X220612784Y-103837923D01*
X220612883Y-103837883D01*
X220612923Y-103837784D01*
X221612782Y-102837924D01*
X221612883Y-102837883D01*
X221612940Y-102837743D01*
X221613042Y-102837500D01*
X226061958Y-102837500D01*
X226062076Y-102837783D01*
X226062117Y-102837883D01*
X226062215Y-102837923D01*
X227062075Y-103837782D01*
X227062117Y-103837883D01*
X227062217Y-103837924D01*
X227062500Y-103838042D01*
X227062601Y-103838000D01*
X239662399Y-103838000D01*
X239662500Y-103838042D01*
X239662784Y-103837924D01*
X239662784Y-103837923D01*
X239662883Y-103837883D01*
X239662923Y-103837784D01*
X240662782Y-102837924D01*
X240662883Y-102837883D01*
X240662940Y-102837743D01*
X240663042Y-102837500D01*
X249874458Y-102837500D01*
X249874576Y-102837783D01*
X249874617Y-102837883D01*
X249874715Y-102837923D01*
X250874575Y-103837782D01*
X250874617Y-103837883D01*
X250874717Y-103837924D01*
X250875000Y-103838042D01*
X250875101Y-103838000D01*
X263474899Y-103838000D01*
X263475000Y-103838042D01*
X263475284Y-103837924D01*
X263475284Y-103837923D01*
X263475383Y-103837883D01*
X263475423Y-103837784D01*
X264475282Y-102837924D01*
X264475383Y-102837883D01*
X264475440Y-102837743D01*
X264475542Y-102837500D01*
X264475500Y-102837399D01*
X264475500Y-90837601D01*
X264475542Y-90837500D01*
X264475424Y-90837217D01*
X264475383Y-90837117D01*
X264475282Y-90837075D01*
X263475423Y-89837215D01*
X263475383Y-89837117D01*
X263475284Y-89837076D01*
X263475000Y-89836958D01*
X263474899Y-89837000D01*
X250875101Y-89837000D01*
X250875000Y-89836958D01*
X250874756Y-89837059D01*
X250874617Y-89837117D01*
X250874575Y-89837217D01*
X250873174Y-89838617D01*
X250873173Y-89838618D01*
X249876115Y-90835675D01*
X249876114Y-90835676D01*
X249874715Y-90837076D01*
X249874617Y-90837117D01*
X249874576Y-90837215D01*
X249874576Y-90837216D01*
X249874458Y-90837500D01*
X249874500Y-90837601D01*
X249874500Y-102837399D01*
X249874458Y-102837500D01*
X240663042Y-102837500D01*
X240663000Y-102837399D01*
X240663000Y-96837500D01*
X246494571Y-96837500D01*
X246514244Y-97049810D01*
X246514386Y-97050310D01*
X246514388Y-97050319D01*
X246572448Y-97254374D01*
X246572595Y-97254889D01*
X246667634Y-97445755D01*
X246667951Y-97446174D01*
X246667953Y-97446178D01*
X246795805Y-97615480D01*
X246795808Y-97615483D01*
X246796128Y-97615907D01*
X246796519Y-97616263D01*
X246953310Y-97759199D01*
X246953314Y-97759202D01*
X246953698Y-97759552D01*
X247134981Y-97871798D01*
X247333802Y-97948821D01*
X247543390Y-97988000D01*
X247756076Y-97988000D01*
X247756610Y-97988000D01*
X247966198Y-97948821D01*
X248165019Y-97871798D01*
X248346302Y-97759552D01*
X248503872Y-97615907D01*
X248632366Y-97445755D01*
X248727405Y-97254889D01*
X248785756Y-97049810D01*
X248805429Y-96837500D01*
X248785756Y-96625190D01*
X248727405Y-96420111D01*
X248632366Y-96229245D01*
X248503872Y-96059093D01*
X248351492Y-95920179D01*
X248346689Y-95915800D01*
X248346683Y-95915796D01*
X248346302Y-95915448D01*
X248345854Y-95915171D01*
X248345852Y-95915169D01*
X248165480Y-95803487D01*
X248165476Y-95803485D01*
X248165019Y-95803202D01*
X248164517Y-95803007D01*
X248164512Y-95803005D01*
X247966703Y-95726374D01*
X247966696Y-95726372D01*
X247966198Y-95726179D01*
X247965671Y-95726080D01*
X247965666Y-95726079D01*
X247757135Y-95687098D01*
X247757133Y-95687097D01*
X247756610Y-95687000D01*
X247543390Y-95687000D01*
X247542867Y-95687097D01*
X247542864Y-95687098D01*
X247334333Y-95726079D01*
X247334325Y-95726081D01*
X247333802Y-95726179D01*
X247333305Y-95726371D01*
X247333296Y-95726374D01*
X247135487Y-95803005D01*
X247135478Y-95803009D01*
X247134981Y-95803202D01*
X247134527Y-95803482D01*
X247134519Y-95803487D01*
X246954147Y-95915169D01*
X246954139Y-95915174D01*
X246953698Y-95915448D01*
X246953320Y-95915791D01*
X246953310Y-95915800D01*
X246796519Y-96058736D01*
X246796516Y-96058739D01*
X246796128Y-96059093D01*
X246795812Y-96059510D01*
X246795805Y-96059519D01*
X246667953Y-96228821D01*
X246667947Y-96228829D01*
X246667634Y-96229245D01*
X246667399Y-96229716D01*
X246667397Y-96229720D01*
X246572834Y-96419630D01*
X246572832Y-96419634D01*
X246572595Y-96420111D01*
X246572450Y-96420617D01*
X246572448Y-96420625D01*
X246514388Y-96624680D01*
X246514385Y-96624691D01*
X246514244Y-96625190D01*
X246494571Y-96837500D01*
X240663000Y-96837500D01*
X240663000Y-90837601D01*
X240663042Y-90837500D01*
X240662924Y-90837217D01*
X240662883Y-90837117D01*
X240662782Y-90837075D01*
X239662923Y-89837215D01*
X239662883Y-89837117D01*
X239662784Y-89837076D01*
X239662500Y-89836958D01*
X239662399Y-89837000D01*
X227062601Y-89837000D01*
X227062500Y-89836958D01*
X227062256Y-89837059D01*
X227062117Y-89837117D01*
X227062075Y-89837217D01*
X227060674Y-89838617D01*
X227060673Y-89838618D01*
X226063615Y-90835675D01*
X226063614Y-90835676D01*
X226062215Y-90837076D01*
X226062117Y-90837117D01*
X226062076Y-90837215D01*
X226062076Y-90837216D01*
X226061958Y-90837500D01*
X226062000Y-90837601D01*
X226062000Y-102837399D01*
X226061958Y-102837500D01*
X221613042Y-102837500D01*
X221613000Y-102837399D01*
X221613000Y-90837601D01*
X221613042Y-90837500D01*
X221612924Y-90837217D01*
X221612883Y-90837117D01*
X221612782Y-90837075D01*
X220612923Y-89837215D01*
X220612883Y-89837117D01*
X220612784Y-89837076D01*
X220612500Y-89836958D01*
X220612399Y-89837000D01*
X208012601Y-89837000D01*
X208012500Y-89836958D01*
X208012256Y-89837059D01*
X208012117Y-89837117D01*
X208012075Y-89837217D01*
X208010674Y-89838617D01*
X208010673Y-89838618D01*
X207013615Y-90835675D01*
X207013614Y-90835676D01*
X207012215Y-90837076D01*
X207012117Y-90837117D01*
X207012076Y-90837215D01*
X207012076Y-90837216D01*
X207011958Y-90837500D01*
X207012000Y-90837601D01*
X207012000Y-102837399D01*
X207011958Y-102837500D01*
X202563042Y-102837500D01*
X202563000Y-102837399D01*
X202563000Y-96837500D01*
X203632071Y-96837500D01*
X203651744Y-97049810D01*
X203651886Y-97050310D01*
X203651888Y-97050319D01*
X203709948Y-97254374D01*
X203710095Y-97254889D01*
X203805134Y-97445755D01*
X203805451Y-97446174D01*
X203805453Y-97446178D01*
X203933305Y-97615480D01*
X203933308Y-97615483D01*
X203933628Y-97615907D01*
X203934019Y-97616263D01*
X204090810Y-97759199D01*
X204090814Y-97759202D01*
X204091198Y-97759552D01*
X204272481Y-97871798D01*
X204471302Y-97948821D01*
X204680890Y-97988000D01*
X204893576Y-97988000D01*
X204894110Y-97988000D01*
X205103698Y-97948821D01*
X205302519Y-97871798D01*
X205483802Y-97759552D01*
X205641372Y-97615907D01*
X205769866Y-97445755D01*
X205864905Y-97254889D01*
X205923256Y-97049810D01*
X205942929Y-96837500D01*
X205923256Y-96625190D01*
X205864905Y-96420111D01*
X205769866Y-96229245D01*
X205641372Y-96059093D01*
X205488992Y-95920179D01*
X205484189Y-95915800D01*
X205484183Y-95915796D01*
X205483802Y-95915448D01*
X205483354Y-95915171D01*
X205483352Y-95915169D01*
X205302980Y-95803487D01*
X205302976Y-95803485D01*
X205302519Y-95803202D01*
X205302017Y-95803007D01*
X205302012Y-95803005D01*
X205104203Y-95726374D01*
X205104196Y-95726372D01*
X205103698Y-95726179D01*
X205103171Y-95726080D01*
X205103166Y-95726079D01*
X204894635Y-95687098D01*
X204894633Y-95687097D01*
X204894110Y-95687000D01*
X204680890Y-95687000D01*
X204680367Y-95687097D01*
X204680364Y-95687098D01*
X204471833Y-95726079D01*
X204471825Y-95726081D01*
X204471302Y-95726179D01*
X204470805Y-95726371D01*
X204470796Y-95726374D01*
X204272987Y-95803005D01*
X204272978Y-95803009D01*
X204272481Y-95803202D01*
X204272027Y-95803482D01*
X204272019Y-95803487D01*
X204091647Y-95915169D01*
X204091639Y-95915174D01*
X204091198Y-95915448D01*
X204090820Y-95915791D01*
X204090810Y-95915800D01*
X203934019Y-96058736D01*
X203934016Y-96058739D01*
X203933628Y-96059093D01*
X203933312Y-96059510D01*
X203933305Y-96059519D01*
X203805453Y-96228821D01*
X203805447Y-96228829D01*
X203805134Y-96229245D01*
X203804899Y-96229716D01*
X203804897Y-96229720D01*
X203710334Y-96419630D01*
X203710332Y-96419634D01*
X203710095Y-96420111D01*
X203709950Y-96420617D01*
X203709948Y-96420625D01*
X203651888Y-96624680D01*
X203651885Y-96624691D01*
X203651744Y-96625190D01*
X203632071Y-96837500D01*
X202563000Y-96837500D01*
X202563000Y-90837601D01*
X202563042Y-90837500D01*
X202562924Y-90837217D01*
X202562883Y-90837117D01*
X202562782Y-90837075D01*
X201562923Y-89837215D01*
X201562883Y-89837117D01*
X201562784Y-89837076D01*
X201562500Y-89836958D01*
X201562399Y-89837000D01*
X188962601Y-89837000D01*
X188962500Y-89836958D01*
X188962256Y-89837059D01*
X188962117Y-89837117D01*
X188962075Y-89837217D01*
X188960674Y-89838617D01*
X188960673Y-89838618D01*
X187963615Y-90835675D01*
X187963614Y-90835676D01*
X187962215Y-90837076D01*
X187962117Y-90837117D01*
X187962076Y-90837215D01*
X187962076Y-90837216D01*
X187961958Y-90837500D01*
X187962000Y-90837601D01*
X187962000Y-102837399D01*
X187961958Y-102837500D01*
X183513042Y-102837500D01*
X183513000Y-102837399D01*
X183513000Y-90837601D01*
X183513042Y-90837500D01*
X183512924Y-90837217D01*
X183512883Y-90837117D01*
X183512782Y-90837075D01*
X182512923Y-89837215D01*
X182512883Y-89837117D01*
X182512784Y-89837076D01*
X182512500Y-89836958D01*
X182512399Y-89837000D01*
X169912601Y-89837000D01*
X169912500Y-89836958D01*
X169912256Y-89837059D01*
X169912117Y-89837117D01*
X169912075Y-89837217D01*
X169910674Y-89838617D01*
X169910673Y-89838618D01*
X168913615Y-90835675D01*
X168913614Y-90835676D01*
X168912215Y-90837076D01*
X168912117Y-90837117D01*
X168912076Y-90837215D01*
X168912076Y-90837216D01*
X168911958Y-90837500D01*
X168912000Y-90837601D01*
X168912000Y-102837399D01*
X168911958Y-102837500D01*
X164463042Y-102837500D01*
X164463000Y-102837399D01*
X164463000Y-90837601D01*
X164463042Y-90837500D01*
X164462924Y-90837217D01*
X164462883Y-90837117D01*
X164462782Y-90837075D01*
X163462923Y-89837215D01*
X163462883Y-89837117D01*
X163462784Y-89837076D01*
X163462500Y-89836958D01*
X163462399Y-89837000D01*
X150862601Y-89837000D01*
X150862500Y-89836958D01*
X150862256Y-89837059D01*
X150862117Y-89837117D01*
X150862075Y-89837217D01*
X150860674Y-89838617D01*
X150860673Y-89838618D01*
X149863615Y-90835675D01*
X149863614Y-90835676D01*
X149862215Y-90837076D01*
X149862117Y-90837117D01*
X149862076Y-90837215D01*
X149862076Y-90837216D01*
X149861958Y-90837500D01*
X149862000Y-90837601D01*
X149862000Y-102837399D01*
X149861958Y-102837500D01*
X145413042Y-102837500D01*
X145413000Y-102837399D01*
X145413000Y-96837500D01*
X146482071Y-96837500D01*
X146501744Y-97049810D01*
X146501886Y-97050310D01*
X146501888Y-97050319D01*
X146559948Y-97254374D01*
X146560095Y-97254889D01*
X146655134Y-97445755D01*
X146655451Y-97446174D01*
X146655453Y-97446178D01*
X146783305Y-97615480D01*
X146783308Y-97615483D01*
X146783628Y-97615907D01*
X146784019Y-97616263D01*
X146940810Y-97759199D01*
X146940814Y-97759202D01*
X146941198Y-97759552D01*
X147122481Y-97871798D01*
X147321302Y-97948821D01*
X147530890Y-97988000D01*
X147743576Y-97988000D01*
X147744110Y-97988000D01*
X147953698Y-97948821D01*
X148152519Y-97871798D01*
X148333802Y-97759552D01*
X148491372Y-97615907D01*
X148619866Y-97445755D01*
X148714905Y-97254889D01*
X148773256Y-97049810D01*
X148792929Y-96837500D01*
X148773256Y-96625190D01*
X148714905Y-96420111D01*
X148619866Y-96229245D01*
X148491372Y-96059093D01*
X148338992Y-95920179D01*
X148334189Y-95915800D01*
X148334183Y-95915796D01*
X148333802Y-95915448D01*
X148333354Y-95915171D01*
X148333352Y-95915169D01*
X148152980Y-95803487D01*
X148152976Y-95803485D01*
X148152519Y-95803202D01*
X148152017Y-95803007D01*
X148152012Y-95803005D01*
X147954203Y-95726374D01*
X147954196Y-95726372D01*
X147953698Y-95726179D01*
X147953171Y-95726080D01*
X147953166Y-95726079D01*
X147744635Y-95687098D01*
X147744633Y-95687097D01*
X147744110Y-95687000D01*
X147530890Y-95687000D01*
X147530367Y-95687097D01*
X147530364Y-95687098D01*
X147321833Y-95726079D01*
X147321825Y-95726081D01*
X147321302Y-95726179D01*
X147320805Y-95726371D01*
X147320796Y-95726374D01*
X147122987Y-95803005D01*
X147122978Y-95803009D01*
X147122481Y-95803202D01*
X147122027Y-95803482D01*
X147122019Y-95803487D01*
X146941647Y-95915169D01*
X146941639Y-95915174D01*
X146941198Y-95915448D01*
X146940820Y-95915791D01*
X146940810Y-95915800D01*
X146784019Y-96058736D01*
X146784016Y-96058739D01*
X146783628Y-96059093D01*
X146783312Y-96059510D01*
X146783305Y-96059519D01*
X146655453Y-96228821D01*
X146655447Y-96228829D01*
X146655134Y-96229245D01*
X146654899Y-96229716D01*
X146654897Y-96229720D01*
X146560334Y-96419630D01*
X146560332Y-96419634D01*
X146560095Y-96420111D01*
X146559950Y-96420617D01*
X146559948Y-96420625D01*
X146501888Y-96624680D01*
X146501885Y-96624691D01*
X146501744Y-96625190D01*
X146482071Y-96837500D01*
X145413000Y-96837500D01*
X145413000Y-90837601D01*
X145413042Y-90837500D01*
X145412924Y-90837217D01*
X145412883Y-90837117D01*
X145412782Y-90837075D01*
X144412923Y-89837215D01*
X144412883Y-89837117D01*
X144412784Y-89837076D01*
X144412500Y-89836958D01*
X144412399Y-89837000D01*
X131812601Y-89837000D01*
X131812500Y-89836958D01*
X131812256Y-89837059D01*
X131812117Y-89837117D01*
X131812075Y-89837217D01*
X131810674Y-89838617D01*
X131810673Y-89838618D01*
X130813615Y-90835675D01*
X130813614Y-90835676D01*
X130812215Y-90837076D01*
X130812117Y-90837117D01*
X130812076Y-90837215D01*
X130812076Y-90837216D01*
X130811958Y-90837500D01*
X130812000Y-90837601D01*
X130812000Y-102837399D01*
X130811958Y-102837500D01*
X126363042Y-102837500D01*
X126363000Y-102837399D01*
X126363000Y-90837601D01*
X126363042Y-90837500D01*
X126362924Y-90837217D01*
X126362883Y-90837117D01*
X126362782Y-90837075D01*
X125362923Y-89837215D01*
X125362883Y-89837117D01*
X125362784Y-89837076D01*
X125362500Y-89836958D01*
X125362399Y-89837000D01*
X112762601Y-89837000D01*
X112762500Y-89836958D01*
X112762256Y-89837059D01*
X112762117Y-89837117D01*
X112762075Y-89837217D01*
X112760674Y-89838617D01*
X112760673Y-89838618D01*
X111763615Y-90835675D01*
X111763614Y-90835676D01*
X111762215Y-90837076D01*
X111762117Y-90837117D01*
X111762076Y-90837215D01*
X111762076Y-90837216D01*
X111761958Y-90837500D01*
X111762000Y-90837601D01*
X111762000Y-102837399D01*
X111761958Y-102837500D01*
X107313042Y-102837500D01*
X107313000Y-102837399D01*
X107313000Y-96837500D01*
X108382071Y-96837500D01*
X108401744Y-97049810D01*
X108401886Y-97050310D01*
X108401888Y-97050319D01*
X108459948Y-97254374D01*
X108460095Y-97254889D01*
X108555134Y-97445755D01*
X108555451Y-97446174D01*
X108555453Y-97446178D01*
X108683305Y-97615480D01*
X108683308Y-97615483D01*
X108683628Y-97615907D01*
X108684019Y-97616263D01*
X108840810Y-97759199D01*
X108840814Y-97759202D01*
X108841198Y-97759552D01*
X109022481Y-97871798D01*
X109221302Y-97948821D01*
X109430890Y-97988000D01*
X109643576Y-97988000D01*
X109644110Y-97988000D01*
X109853698Y-97948821D01*
X110052519Y-97871798D01*
X110233802Y-97759552D01*
X110391372Y-97615907D01*
X110519866Y-97445755D01*
X110614905Y-97254889D01*
X110673256Y-97049810D01*
X110692929Y-96837500D01*
X110673256Y-96625190D01*
X110614905Y-96420111D01*
X110519866Y-96229245D01*
X110391372Y-96059093D01*
X110238992Y-95920179D01*
X110234189Y-95915800D01*
X110234183Y-95915796D01*
X110233802Y-95915448D01*
X110233354Y-95915171D01*
X110233352Y-95915169D01*
X110052980Y-95803487D01*
X110052976Y-95803485D01*
X110052519Y-95803202D01*
X110052017Y-95803007D01*
X110052012Y-95803005D01*
X109854203Y-95726374D01*
X109854196Y-95726372D01*
X109853698Y-95726179D01*
X109853171Y-95726080D01*
X109853166Y-95726079D01*
X109644635Y-95687098D01*
X109644633Y-95687097D01*
X109644110Y-95687000D01*
X109430890Y-95687000D01*
X109430367Y-95687097D01*
X109430364Y-95687098D01*
X109221833Y-95726079D01*
X109221825Y-95726081D01*
X109221302Y-95726179D01*
X109220805Y-95726371D01*
X109220796Y-95726374D01*
X109022987Y-95803005D01*
X109022978Y-95803009D01*
X109022481Y-95803202D01*
X109022027Y-95803482D01*
X109022019Y-95803487D01*
X108841647Y-95915169D01*
X108841639Y-95915174D01*
X108841198Y-95915448D01*
X108840820Y-95915791D01*
X108840810Y-95915800D01*
X108684019Y-96058736D01*
X108684016Y-96058739D01*
X108683628Y-96059093D01*
X108683312Y-96059510D01*
X108683305Y-96059519D01*
X108555453Y-96228821D01*
X108555447Y-96228829D01*
X108555134Y-96229245D01*
X108554899Y-96229716D01*
X108554897Y-96229720D01*
X108460334Y-96419630D01*
X108460332Y-96419634D01*
X108460095Y-96420111D01*
X108459950Y-96420617D01*
X108459948Y-96420625D01*
X108401888Y-96624680D01*
X108401885Y-96624691D01*
X108401744Y-96625190D01*
X108382071Y-96837500D01*
X107313000Y-96837500D01*
X107313000Y-90837601D01*
X107313042Y-90837500D01*
X107312924Y-90837217D01*
X107312883Y-90837117D01*
X107312782Y-90837075D01*
X106312923Y-89837215D01*
X106312883Y-89837117D01*
X106312784Y-89837076D01*
X106312500Y-89836958D01*
X106312399Y-89837000D01*
X93712601Y-89837000D01*
X93712500Y-89836958D01*
X93712256Y-89837059D01*
X93712117Y-89837117D01*
X93712075Y-89837217D01*
X93710674Y-89838617D01*
X93710673Y-89838618D01*
X92713615Y-90835675D01*
X92713614Y-90835676D01*
X92712215Y-90837076D01*
X92712117Y-90837117D01*
X92712076Y-90837215D01*
X92712076Y-90837216D01*
X92711958Y-90837500D01*
X92712000Y-90837601D01*
X92712000Y-102837399D01*
X92711958Y-102837500D01*
X88263042Y-102837500D01*
X88263000Y-102837399D01*
X88263000Y-90837601D01*
X88263042Y-90837500D01*
X88262924Y-90837217D01*
X88262883Y-90837117D01*
X88262782Y-90837075D01*
X87262923Y-89837215D01*
X87262883Y-89837117D01*
X87262784Y-89837076D01*
X87262500Y-89836958D01*
X87262399Y-89837000D01*
X74662601Y-89837000D01*
X74662500Y-89836958D01*
X74662256Y-89837059D01*
X74662117Y-89837117D01*
X74662075Y-89837217D01*
X74660674Y-89838617D01*
X74660673Y-89838618D01*
X73663615Y-90835675D01*
X73663614Y-90835676D01*
X73662215Y-90837076D01*
X73662117Y-90837117D01*
X73662076Y-90837215D01*
X73662076Y-90837216D01*
X73661958Y-90837500D01*
X73662000Y-90837601D01*
X73662000Y-102837399D01*
X73661958Y-102837500D01*
X69213042Y-102837500D01*
X69213000Y-102837399D01*
X69213000Y-96837500D01*
X70282071Y-96837500D01*
X70301744Y-97049810D01*
X70301886Y-97050310D01*
X70301888Y-97050319D01*
X70359948Y-97254374D01*
X70360095Y-97254889D01*
X70455134Y-97445755D01*
X70455451Y-97446174D01*
X70455453Y-97446178D01*
X70583305Y-97615480D01*
X70583308Y-97615483D01*
X70583628Y-97615907D01*
X70584019Y-97616263D01*
X70740810Y-97759199D01*
X70740814Y-97759202D01*
X70741198Y-97759552D01*
X70922481Y-97871798D01*
X71121302Y-97948821D01*
X71330890Y-97988000D01*
X71543576Y-97988000D01*
X71544110Y-97988000D01*
X71753698Y-97948821D01*
X71952519Y-97871798D01*
X72133802Y-97759552D01*
X72291372Y-97615907D01*
X72419866Y-97445755D01*
X72514905Y-97254889D01*
X72573256Y-97049810D01*
X72592929Y-96837500D01*
X72573256Y-96625190D01*
X72514905Y-96420111D01*
X72419866Y-96229245D01*
X72291372Y-96059093D01*
X72138992Y-95920179D01*
X72134189Y-95915800D01*
X72134183Y-95915796D01*
X72133802Y-95915448D01*
X72133354Y-95915171D01*
X72133352Y-95915169D01*
X71952980Y-95803487D01*
X71952976Y-95803485D01*
X71952519Y-95803202D01*
X71952017Y-95803007D01*
X71952012Y-95803005D01*
X71754203Y-95726374D01*
X71754196Y-95726372D01*
X71753698Y-95726179D01*
X71753171Y-95726080D01*
X71753166Y-95726079D01*
X71544635Y-95687098D01*
X71544633Y-95687097D01*
X71544110Y-95687000D01*
X71330890Y-95687000D01*
X71330367Y-95687097D01*
X71330364Y-95687098D01*
X71121833Y-95726079D01*
X71121825Y-95726081D01*
X71121302Y-95726179D01*
X71120805Y-95726371D01*
X71120796Y-95726374D01*
X70922987Y-95803005D01*
X70922978Y-95803009D01*
X70922481Y-95803202D01*
X70922027Y-95803482D01*
X70922019Y-95803487D01*
X70741647Y-95915169D01*
X70741639Y-95915174D01*
X70741198Y-95915448D01*
X70740820Y-95915791D01*
X70740810Y-95915800D01*
X70584019Y-96058736D01*
X70584016Y-96058739D01*
X70583628Y-96059093D01*
X70583312Y-96059510D01*
X70583305Y-96059519D01*
X70455453Y-96228821D01*
X70455447Y-96228829D01*
X70455134Y-96229245D01*
X70454899Y-96229716D01*
X70454897Y-96229720D01*
X70360334Y-96419630D01*
X70360332Y-96419634D01*
X70360095Y-96420111D01*
X70359950Y-96420617D01*
X70359948Y-96420625D01*
X70301888Y-96624680D01*
X70301885Y-96624691D01*
X70301744Y-96625190D01*
X70282071Y-96837500D01*
X69213000Y-96837500D01*
X69213000Y-90837601D01*
X69213042Y-90837500D01*
X69212924Y-90837217D01*
X69212883Y-90837117D01*
X69212782Y-90837075D01*
X68212923Y-89837215D01*
X68212883Y-89837117D01*
X68212784Y-89837076D01*
X68212500Y-89836958D01*
X68212399Y-89837000D01*
X55612601Y-89837000D01*
X55612500Y-89836958D01*
X55612256Y-89837059D01*
X55612117Y-89837117D01*
X55612075Y-89837217D01*
X55610674Y-89838617D01*
X55610673Y-89838618D01*
X54613615Y-90835675D01*
X54613614Y-90835676D01*
X54612215Y-90837076D01*
X54612117Y-90837117D01*
X54612076Y-90837215D01*
X54612076Y-90837216D01*
X54611958Y-90837500D01*
X54612000Y-90837601D01*
X54612000Y-102837399D01*
X54611958Y-102837500D01*
X47781792Y-102837500D01*
X47781750Y-102837399D01*
X47781750Y-90837601D01*
X47781792Y-90837500D01*
X47781674Y-90837217D01*
X47781633Y-90837117D01*
X47781532Y-90837075D01*
X46781673Y-89837215D01*
X46781633Y-89837117D01*
X46781534Y-89837076D01*
X46781250Y-89836958D01*
X46781149Y-89837000D01*
X34181351Y-89837000D01*
X34181250Y-89836958D01*
X34181006Y-89837059D01*
X34180867Y-89837117D01*
X34180825Y-89837217D01*
X34179424Y-89838617D01*
X34179423Y-89838618D01*
X33182365Y-90835675D01*
X33182364Y-90835676D01*
X33180965Y-90837076D01*
X33180867Y-90837117D01*
X33180826Y-90837215D01*
X33180826Y-90837216D01*
X33180708Y-90837500D01*
X33180750Y-90837601D01*
X33180750Y-102837399D01*
X33180708Y-102837500D01*
X28575500Y-102837500D01*
X28575500Y-96837500D01*
X29800821Y-96837500D01*
X29820494Y-97049810D01*
X29820636Y-97050310D01*
X29820638Y-97050319D01*
X29878698Y-97254374D01*
X29878845Y-97254889D01*
X29973884Y-97445755D01*
X29974201Y-97446174D01*
X29974203Y-97446178D01*
X30102055Y-97615480D01*
X30102058Y-97615483D01*
X30102378Y-97615907D01*
X30102769Y-97616263D01*
X30259560Y-97759199D01*
X30259564Y-97759202D01*
X30259948Y-97759552D01*
X30441231Y-97871798D01*
X30640052Y-97948821D01*
X30849640Y-97988000D01*
X31062326Y-97988000D01*
X31062860Y-97988000D01*
X31272448Y-97948821D01*
X31471269Y-97871798D01*
X31652552Y-97759552D01*
X31810122Y-97615907D01*
X31938616Y-97445755D01*
X32033655Y-97254889D01*
X32092006Y-97049810D01*
X32111679Y-96837500D01*
X32092006Y-96625190D01*
X32033655Y-96420111D01*
X31938616Y-96229245D01*
X31810122Y-96059093D01*
X31657742Y-95920179D01*
X31652939Y-95915800D01*
X31652933Y-95915796D01*
X31652552Y-95915448D01*
X31652104Y-95915171D01*
X31652102Y-95915169D01*
X31471730Y-95803487D01*
X31471726Y-95803485D01*
X31471269Y-95803202D01*
X31470767Y-95803007D01*
X31470762Y-95803005D01*
X31272953Y-95726374D01*
X31272946Y-95726372D01*
X31272448Y-95726179D01*
X31271921Y-95726080D01*
X31271916Y-95726079D01*
X31063385Y-95687098D01*
X31063383Y-95687097D01*
X31062860Y-95687000D01*
X30849640Y-95687000D01*
X30849117Y-95687097D01*
X30849114Y-95687098D01*
X30640583Y-95726079D01*
X30640575Y-95726081D01*
X30640052Y-95726179D01*
X30639555Y-95726371D01*
X30639546Y-95726374D01*
X30441737Y-95803005D01*
X30441728Y-95803009D01*
X30441231Y-95803202D01*
X30440777Y-95803482D01*
X30440769Y-95803487D01*
X30260397Y-95915169D01*
X30260389Y-95915174D01*
X30259948Y-95915448D01*
X30259570Y-95915791D01*
X30259560Y-95915800D01*
X30102769Y-96058736D01*
X30102766Y-96058739D01*
X30102378Y-96059093D01*
X30102062Y-96059510D01*
X30102055Y-96059519D01*
X29974203Y-96228821D01*
X29974197Y-96228829D01*
X29973884Y-96229245D01*
X29973649Y-96229716D01*
X29973647Y-96229720D01*
X29879084Y-96419630D01*
X29879082Y-96419634D01*
X29878845Y-96420111D01*
X29878700Y-96420617D01*
X29878698Y-96420625D01*
X29820638Y-96624680D01*
X29820635Y-96624691D01*
X29820494Y-96625190D01*
X29800821Y-96837500D01*
X28575500Y-96837500D01*
X28575500Y-83787500D01*
X30799458Y-83787500D01*
X30799576Y-83787783D01*
X30799617Y-83787883D01*
X30799715Y-83787923D01*
X31799575Y-84787782D01*
X31799617Y-84787883D01*
X31799717Y-84787924D01*
X31800000Y-84788042D01*
X31800101Y-84788000D01*
X44399899Y-84788000D01*
X44400000Y-84788042D01*
X44400284Y-84787924D01*
X44400284Y-84787923D01*
X44400383Y-84787883D01*
X44400423Y-84787784D01*
X45400282Y-83787924D01*
X45400383Y-83787883D01*
X45400440Y-83787743D01*
X45400542Y-83787500D01*
X49849458Y-83787500D01*
X49849576Y-83787783D01*
X49849617Y-83787883D01*
X49849715Y-83787923D01*
X50849575Y-84787782D01*
X50849617Y-84787883D01*
X50849717Y-84787924D01*
X50850000Y-84788042D01*
X50850101Y-84788000D01*
X63449899Y-84788000D01*
X63450000Y-84788042D01*
X63450284Y-84787924D01*
X63450284Y-84787923D01*
X63450383Y-84787883D01*
X63450423Y-84787784D01*
X64450282Y-83787924D01*
X64450383Y-83787883D01*
X64450440Y-83787743D01*
X64450542Y-83787500D01*
X68899458Y-83787500D01*
X68899576Y-83787783D01*
X68899617Y-83787883D01*
X68899715Y-83787923D01*
X69899575Y-84787782D01*
X69899617Y-84787883D01*
X69899717Y-84787924D01*
X69900000Y-84788042D01*
X69900101Y-84788000D01*
X82499899Y-84788000D01*
X82500000Y-84788042D01*
X82500284Y-84787924D01*
X82500284Y-84787923D01*
X82500383Y-84787883D01*
X82500423Y-84787784D01*
X83500282Y-83787924D01*
X83500383Y-83787883D01*
X83500440Y-83787743D01*
X83500542Y-83787500D01*
X87949458Y-83787500D01*
X87949576Y-83787783D01*
X87949617Y-83787883D01*
X87949715Y-83787923D01*
X88949575Y-84787782D01*
X88949617Y-84787883D01*
X88949717Y-84787924D01*
X88950000Y-84788042D01*
X88950101Y-84788000D01*
X101549899Y-84788000D01*
X101550000Y-84788042D01*
X101550284Y-84787924D01*
X101550284Y-84787923D01*
X101550383Y-84787883D01*
X101550423Y-84787784D01*
X102550282Y-83787924D01*
X102550383Y-83787883D01*
X102550440Y-83787743D01*
X102550542Y-83787500D01*
X106999458Y-83787500D01*
X106999576Y-83787783D01*
X106999617Y-83787883D01*
X106999715Y-83787923D01*
X107999575Y-84787782D01*
X107999617Y-84787883D01*
X107999717Y-84787924D01*
X108000000Y-84788042D01*
X108000101Y-84788000D01*
X120599899Y-84788000D01*
X120600000Y-84788042D01*
X120600284Y-84787924D01*
X120600284Y-84787923D01*
X120600383Y-84787883D01*
X120600423Y-84787784D01*
X121600282Y-83787924D01*
X121600383Y-83787883D01*
X121600440Y-83787743D01*
X121600542Y-83787500D01*
X126049458Y-83787500D01*
X126049576Y-83787783D01*
X126049617Y-83787883D01*
X126049715Y-83787923D01*
X127049575Y-84787782D01*
X127049617Y-84787883D01*
X127049717Y-84787924D01*
X127050000Y-84788042D01*
X127050101Y-84788000D01*
X139649899Y-84788000D01*
X139650000Y-84788042D01*
X139650284Y-84787924D01*
X139650284Y-84787923D01*
X139650383Y-84787883D01*
X139650423Y-84787784D01*
X140650282Y-83787924D01*
X140650383Y-83787883D01*
X140650440Y-83787743D01*
X140650542Y-83787500D01*
X145099458Y-83787500D01*
X145099576Y-83787783D01*
X145099617Y-83787883D01*
X145099715Y-83787923D01*
X146099575Y-84787782D01*
X146099617Y-84787883D01*
X146099717Y-84787924D01*
X146100000Y-84788042D01*
X146100101Y-84788000D01*
X158699899Y-84788000D01*
X158700000Y-84788042D01*
X158700284Y-84787924D01*
X158700284Y-84787923D01*
X158700383Y-84787883D01*
X158700423Y-84787784D01*
X159700282Y-83787924D01*
X159700383Y-83787883D01*
X159700440Y-83787743D01*
X159700542Y-83787500D01*
X164149458Y-83787500D01*
X164149576Y-83787783D01*
X164149617Y-83787883D01*
X164149715Y-83787923D01*
X165149575Y-84787782D01*
X165149617Y-84787883D01*
X165149717Y-84787924D01*
X165150000Y-84788042D01*
X165150101Y-84788000D01*
X177749899Y-84788000D01*
X177750000Y-84788042D01*
X177750284Y-84787924D01*
X177750284Y-84787923D01*
X177750383Y-84787883D01*
X177750423Y-84787784D01*
X178750282Y-83787924D01*
X178750383Y-83787883D01*
X178750440Y-83787743D01*
X178750542Y-83787500D01*
X183199458Y-83787500D01*
X183199576Y-83787783D01*
X183199617Y-83787883D01*
X183199715Y-83787923D01*
X184199575Y-84787782D01*
X184199617Y-84787883D01*
X184199717Y-84787924D01*
X184200000Y-84788042D01*
X184200101Y-84788000D01*
X196799899Y-84788000D01*
X196800000Y-84788042D01*
X196800284Y-84787924D01*
X196800284Y-84787923D01*
X196800383Y-84787883D01*
X196800423Y-84787784D01*
X197800282Y-83787924D01*
X197800383Y-83787883D01*
X197800440Y-83787743D01*
X197800542Y-83787500D01*
X202249458Y-83787500D01*
X202249576Y-83787783D01*
X202249617Y-83787883D01*
X202249715Y-83787923D01*
X203249575Y-84787782D01*
X203249617Y-84787883D01*
X203249717Y-84787924D01*
X203250000Y-84788042D01*
X203250101Y-84788000D01*
X215849899Y-84788000D01*
X215850000Y-84788042D01*
X215850284Y-84787924D01*
X215850284Y-84787923D01*
X215850383Y-84787883D01*
X215850423Y-84787784D01*
X216850282Y-83787924D01*
X216850383Y-83787883D01*
X216850440Y-83787743D01*
X216850542Y-83787500D01*
X221299458Y-83787500D01*
X221299576Y-83787783D01*
X221299617Y-83787883D01*
X221299715Y-83787923D01*
X222299575Y-84787782D01*
X222299617Y-84787883D01*
X222299717Y-84787924D01*
X222300000Y-84788042D01*
X222300101Y-84788000D01*
X234899899Y-84788000D01*
X234900000Y-84788042D01*
X234900284Y-84787924D01*
X234900284Y-84787923D01*
X234900383Y-84787883D01*
X234900423Y-84787784D01*
X235900282Y-83787924D01*
X235900383Y-83787883D01*
X235900440Y-83787743D01*
X235900542Y-83787500D01*
X247493208Y-83787500D01*
X247493326Y-83787783D01*
X247493367Y-83787883D01*
X247493465Y-83787923D01*
X248493325Y-84787782D01*
X248493367Y-84787883D01*
X248493467Y-84787924D01*
X248493750Y-84788042D01*
X248493851Y-84788000D01*
X261093649Y-84788000D01*
X261093750Y-84788042D01*
X261094034Y-84787924D01*
X261094034Y-84787923D01*
X261094133Y-84787883D01*
X261094173Y-84787784D01*
X262094032Y-83787924D01*
X262094133Y-83787883D01*
X262094190Y-83787743D01*
X262094292Y-83787500D01*
X262094250Y-83787399D01*
X262094250Y-77787500D01*
X263163321Y-77787500D01*
X263182994Y-77999810D01*
X263183136Y-78000310D01*
X263183138Y-78000319D01*
X263241198Y-78204374D01*
X263241345Y-78204889D01*
X263336384Y-78395755D01*
X263336701Y-78396174D01*
X263336703Y-78396178D01*
X263464555Y-78565480D01*
X263464558Y-78565483D01*
X263464878Y-78565907D01*
X263465269Y-78566263D01*
X263622060Y-78709199D01*
X263622064Y-78709202D01*
X263622448Y-78709552D01*
X263803731Y-78821798D01*
X264002552Y-78898821D01*
X264212140Y-78938000D01*
X264424826Y-78938000D01*
X264425360Y-78938000D01*
X264634948Y-78898821D01*
X264833769Y-78821798D01*
X265015052Y-78709552D01*
X265172622Y-78565907D01*
X265301116Y-78395755D01*
X265396155Y-78204889D01*
X265454506Y-77999810D01*
X265474179Y-77787500D01*
X265454506Y-77575190D01*
X265396155Y-77370111D01*
X265301116Y-77179245D01*
X265172622Y-77009093D01*
X265020242Y-76870179D01*
X265015439Y-76865800D01*
X265015433Y-76865796D01*
X265015052Y-76865448D01*
X265014604Y-76865171D01*
X265014602Y-76865169D01*
X264834230Y-76753487D01*
X264834226Y-76753485D01*
X264833769Y-76753202D01*
X264833267Y-76753007D01*
X264833262Y-76753005D01*
X264635453Y-76676374D01*
X264635446Y-76676372D01*
X264634948Y-76676179D01*
X264634421Y-76676080D01*
X264634416Y-76676079D01*
X264425885Y-76637098D01*
X264425883Y-76637097D01*
X264425360Y-76637000D01*
X264212140Y-76637000D01*
X264211617Y-76637097D01*
X264211614Y-76637098D01*
X264003083Y-76676079D01*
X264003075Y-76676081D01*
X264002552Y-76676179D01*
X264002055Y-76676371D01*
X264002046Y-76676374D01*
X263804237Y-76753005D01*
X263804228Y-76753009D01*
X263803731Y-76753202D01*
X263803277Y-76753482D01*
X263803269Y-76753487D01*
X263622897Y-76865169D01*
X263622889Y-76865174D01*
X263622448Y-76865448D01*
X263622070Y-76865791D01*
X263622060Y-76865800D01*
X263465269Y-77008736D01*
X263465266Y-77008739D01*
X263464878Y-77009093D01*
X263464562Y-77009510D01*
X263464555Y-77009519D01*
X263336703Y-77178821D01*
X263336697Y-77178829D01*
X263336384Y-77179245D01*
X263336149Y-77179716D01*
X263336147Y-77179720D01*
X263241584Y-77369630D01*
X263241582Y-77369634D01*
X263241345Y-77370111D01*
X263241200Y-77370617D01*
X263241198Y-77370625D01*
X263183138Y-77574680D01*
X263183135Y-77574691D01*
X263182994Y-77575190D01*
X263163321Y-77787500D01*
X262094250Y-77787500D01*
X262094250Y-71787601D01*
X262094292Y-71787500D01*
X262094174Y-71787217D01*
X262094133Y-71787117D01*
X262094032Y-71787075D01*
X261094173Y-70787215D01*
X261094133Y-70787117D01*
X261094034Y-70787076D01*
X261093750Y-70786958D01*
X261093649Y-70787000D01*
X248493851Y-70787000D01*
X248493750Y-70786958D01*
X248493506Y-70787059D01*
X248493367Y-70787117D01*
X248493325Y-70787217D01*
X248491924Y-70788617D01*
X248491923Y-70788618D01*
X247494865Y-71785675D01*
X247494864Y-71785676D01*
X247493465Y-71787076D01*
X247493367Y-71787117D01*
X247493326Y-71787215D01*
X247493326Y-71787216D01*
X247493208Y-71787500D01*
X247493250Y-71787601D01*
X247493250Y-83787399D01*
X247493208Y-83787500D01*
X235900542Y-83787500D01*
X235900500Y-83787399D01*
X235900500Y-71787601D01*
X235900542Y-71787500D01*
X235900424Y-71787217D01*
X235900383Y-71787117D01*
X235900282Y-71787075D01*
X234900423Y-70787215D01*
X234900383Y-70787117D01*
X234900284Y-70787076D01*
X234900000Y-70786958D01*
X234899899Y-70787000D01*
X222300101Y-70787000D01*
X222300000Y-70786958D01*
X222299756Y-70787059D01*
X222299617Y-70787117D01*
X222299575Y-70787217D01*
X222298174Y-70788617D01*
X222298173Y-70788618D01*
X221301115Y-71785675D01*
X221301114Y-71785676D01*
X221299715Y-71787076D01*
X221299617Y-71787117D01*
X221299576Y-71787215D01*
X221299576Y-71787216D01*
X221299458Y-71787500D01*
X221299500Y-71787601D01*
X221299500Y-83787399D01*
X221299458Y-83787500D01*
X216850542Y-83787500D01*
X216850500Y-83787399D01*
X216850500Y-77787500D01*
X217919571Y-77787500D01*
X217939244Y-77999810D01*
X217939386Y-78000310D01*
X217939388Y-78000319D01*
X217997448Y-78204374D01*
X217997595Y-78204889D01*
X218092634Y-78395755D01*
X218092951Y-78396174D01*
X218092953Y-78396178D01*
X218220805Y-78565480D01*
X218220808Y-78565483D01*
X218221128Y-78565907D01*
X218221519Y-78566263D01*
X218378310Y-78709199D01*
X218378314Y-78709202D01*
X218378698Y-78709552D01*
X218559981Y-78821798D01*
X218758802Y-78898821D01*
X218968390Y-78938000D01*
X219181076Y-78938000D01*
X219181610Y-78938000D01*
X219391198Y-78898821D01*
X219590019Y-78821798D01*
X219771302Y-78709552D01*
X219928872Y-78565907D01*
X220057366Y-78395755D01*
X220152405Y-78204889D01*
X220210756Y-77999810D01*
X220230429Y-77787500D01*
X220210756Y-77575190D01*
X220152405Y-77370111D01*
X220057366Y-77179245D01*
X219928872Y-77009093D01*
X219776492Y-76870179D01*
X219771689Y-76865800D01*
X219771683Y-76865796D01*
X219771302Y-76865448D01*
X219770854Y-76865171D01*
X219770852Y-76865169D01*
X219590480Y-76753487D01*
X219590476Y-76753485D01*
X219590019Y-76753202D01*
X219589517Y-76753007D01*
X219589512Y-76753005D01*
X219391703Y-76676374D01*
X219391696Y-76676372D01*
X219391198Y-76676179D01*
X219390671Y-76676080D01*
X219390666Y-76676079D01*
X219182135Y-76637098D01*
X219182133Y-76637097D01*
X219181610Y-76637000D01*
X218968390Y-76637000D01*
X218967867Y-76637097D01*
X218967864Y-76637098D01*
X218759333Y-76676079D01*
X218759325Y-76676081D01*
X218758802Y-76676179D01*
X218758305Y-76676371D01*
X218758296Y-76676374D01*
X218560487Y-76753005D01*
X218560478Y-76753009D01*
X218559981Y-76753202D01*
X218559527Y-76753482D01*
X218559519Y-76753487D01*
X218379147Y-76865169D01*
X218379139Y-76865174D01*
X218378698Y-76865448D01*
X218378320Y-76865791D01*
X218378310Y-76865800D01*
X218221519Y-77008736D01*
X218221516Y-77008739D01*
X218221128Y-77009093D01*
X218220812Y-77009510D01*
X218220805Y-77009519D01*
X218092953Y-77178821D01*
X218092947Y-77178829D01*
X218092634Y-77179245D01*
X218092399Y-77179716D01*
X218092397Y-77179720D01*
X217997834Y-77369630D01*
X217997832Y-77369634D01*
X217997595Y-77370111D01*
X217997450Y-77370617D01*
X217997448Y-77370625D01*
X217939388Y-77574680D01*
X217939385Y-77574691D01*
X217939244Y-77575190D01*
X217919571Y-77787500D01*
X216850500Y-77787500D01*
X216850500Y-71787601D01*
X216850542Y-71787500D01*
X216850424Y-71787217D01*
X216850383Y-71787117D01*
X216850282Y-71787075D01*
X215850423Y-70787215D01*
X215850383Y-70787117D01*
X215850284Y-70787076D01*
X215850000Y-70786958D01*
X215849899Y-70787000D01*
X203250101Y-70787000D01*
X203250000Y-70786958D01*
X203249756Y-70787059D01*
X203249617Y-70787117D01*
X203249575Y-70787217D01*
X203248174Y-70788617D01*
X203248173Y-70788618D01*
X202251115Y-71785675D01*
X202251114Y-71785676D01*
X202249715Y-71787076D01*
X202249617Y-71787117D01*
X202249576Y-71787215D01*
X202249576Y-71787216D01*
X202249458Y-71787500D01*
X202249500Y-71787601D01*
X202249500Y-83787399D01*
X202249458Y-83787500D01*
X197800542Y-83787500D01*
X197800500Y-83787399D01*
X197800500Y-71787601D01*
X197800542Y-71787500D01*
X197800424Y-71787217D01*
X197800383Y-71787117D01*
X197800282Y-71787075D01*
X196800423Y-70787215D01*
X196800383Y-70787117D01*
X196800284Y-70787076D01*
X196800000Y-70786958D01*
X196799899Y-70787000D01*
X184200101Y-70787000D01*
X184200000Y-70786958D01*
X184199756Y-70787059D01*
X184199617Y-70787117D01*
X184199575Y-70787217D01*
X184198174Y-70788617D01*
X184198173Y-70788618D01*
X183201115Y-71785675D01*
X183201114Y-71785676D01*
X183199715Y-71787076D01*
X183199617Y-71787117D01*
X183199576Y-71787215D01*
X183199576Y-71787216D01*
X183199458Y-71787500D01*
X183199500Y-71787601D01*
X183199500Y-83787399D01*
X183199458Y-83787500D01*
X178750542Y-83787500D01*
X178750500Y-83787399D01*
X178750500Y-71787601D01*
X178750542Y-71787500D01*
X178750424Y-71787217D01*
X178750383Y-71787117D01*
X178750282Y-71787075D01*
X177750423Y-70787215D01*
X177750383Y-70787117D01*
X177750284Y-70787076D01*
X177750000Y-70786958D01*
X177749899Y-70787000D01*
X165150101Y-70787000D01*
X165150000Y-70786958D01*
X165149756Y-70787059D01*
X165149617Y-70787117D01*
X165149575Y-70787217D01*
X165148174Y-70788617D01*
X165148173Y-70788618D01*
X164151115Y-71785675D01*
X164151114Y-71785676D01*
X164149715Y-71787076D01*
X164149617Y-71787117D01*
X164149576Y-71787215D01*
X164149576Y-71787216D01*
X164149458Y-71787500D01*
X164149500Y-71787601D01*
X164149500Y-83787399D01*
X164149458Y-83787500D01*
X159700542Y-83787500D01*
X159700500Y-83787399D01*
X159700500Y-77787500D01*
X160769571Y-77787500D01*
X160789244Y-77999810D01*
X160789386Y-78000310D01*
X160789388Y-78000319D01*
X160847448Y-78204374D01*
X160847595Y-78204889D01*
X160942634Y-78395755D01*
X160942951Y-78396174D01*
X160942953Y-78396178D01*
X161070805Y-78565480D01*
X161070808Y-78565483D01*
X161071128Y-78565907D01*
X161071519Y-78566263D01*
X161228310Y-78709199D01*
X161228314Y-78709202D01*
X161228698Y-78709552D01*
X161409981Y-78821798D01*
X161608802Y-78898821D01*
X161818390Y-78938000D01*
X162031076Y-78938000D01*
X162031610Y-78938000D01*
X162241198Y-78898821D01*
X162440019Y-78821798D01*
X162621302Y-78709552D01*
X162778872Y-78565907D01*
X162907366Y-78395755D01*
X163002405Y-78204889D01*
X163060756Y-77999810D01*
X163080429Y-77787500D01*
X163060756Y-77575190D01*
X163002405Y-77370111D01*
X162907366Y-77179245D01*
X162778872Y-77009093D01*
X162626492Y-76870179D01*
X162621689Y-76865800D01*
X162621683Y-76865796D01*
X162621302Y-76865448D01*
X162620854Y-76865171D01*
X162620852Y-76865169D01*
X162440480Y-76753487D01*
X162440476Y-76753485D01*
X162440019Y-76753202D01*
X162439517Y-76753007D01*
X162439512Y-76753005D01*
X162241703Y-76676374D01*
X162241696Y-76676372D01*
X162241198Y-76676179D01*
X162240671Y-76676080D01*
X162240666Y-76676079D01*
X162032135Y-76637098D01*
X162032133Y-76637097D01*
X162031610Y-76637000D01*
X161818390Y-76637000D01*
X161817867Y-76637097D01*
X161817864Y-76637098D01*
X161609333Y-76676079D01*
X161609325Y-76676081D01*
X161608802Y-76676179D01*
X161608305Y-76676371D01*
X161608296Y-76676374D01*
X161410487Y-76753005D01*
X161410478Y-76753009D01*
X161409981Y-76753202D01*
X161409527Y-76753482D01*
X161409519Y-76753487D01*
X161229147Y-76865169D01*
X161229139Y-76865174D01*
X161228698Y-76865448D01*
X161228320Y-76865791D01*
X161228310Y-76865800D01*
X161071519Y-77008736D01*
X161071516Y-77008739D01*
X161071128Y-77009093D01*
X161070812Y-77009510D01*
X161070805Y-77009519D01*
X160942953Y-77178821D01*
X160942947Y-77178829D01*
X160942634Y-77179245D01*
X160942399Y-77179716D01*
X160942397Y-77179720D01*
X160847834Y-77369630D01*
X160847832Y-77369634D01*
X160847595Y-77370111D01*
X160847450Y-77370617D01*
X160847448Y-77370625D01*
X160789388Y-77574680D01*
X160789385Y-77574691D01*
X160789244Y-77575190D01*
X160769571Y-77787500D01*
X159700500Y-77787500D01*
X159700500Y-71787601D01*
X159700542Y-71787500D01*
X159700424Y-71787217D01*
X159700383Y-71787117D01*
X159700282Y-71787075D01*
X158700423Y-70787215D01*
X158700383Y-70787117D01*
X158700284Y-70787076D01*
X158700000Y-70786958D01*
X158699899Y-70787000D01*
X146100101Y-70787000D01*
X146100000Y-70786958D01*
X146099756Y-70787059D01*
X146099617Y-70787117D01*
X146099575Y-70787217D01*
X146098174Y-70788617D01*
X146098173Y-70788618D01*
X145101115Y-71785675D01*
X145101114Y-71785676D01*
X145099715Y-71787076D01*
X145099617Y-71787117D01*
X145099576Y-71787215D01*
X145099576Y-71787216D01*
X145099458Y-71787500D01*
X145099500Y-71787601D01*
X145099500Y-83787399D01*
X145099458Y-83787500D01*
X140650542Y-83787500D01*
X140650500Y-83787399D01*
X140650500Y-71787601D01*
X140650542Y-71787500D01*
X140650424Y-71787217D01*
X140650383Y-71787117D01*
X140650282Y-71787075D01*
X139650423Y-70787215D01*
X139650383Y-70787117D01*
X139650284Y-70787076D01*
X139650000Y-70786958D01*
X139649899Y-70787000D01*
X127050101Y-70787000D01*
X127050000Y-70786958D01*
X127049756Y-70787059D01*
X127049617Y-70787117D01*
X127049575Y-70787217D01*
X127048174Y-70788617D01*
X127048173Y-70788618D01*
X126051115Y-71785675D01*
X126051114Y-71785676D01*
X126049715Y-71787076D01*
X126049617Y-71787117D01*
X126049576Y-71787215D01*
X126049576Y-71787216D01*
X126049458Y-71787500D01*
X126049500Y-71787601D01*
X126049500Y-83787399D01*
X126049458Y-83787500D01*
X121600542Y-83787500D01*
X121600500Y-83787399D01*
X121600500Y-71787601D01*
X121600542Y-71787500D01*
X121600424Y-71787217D01*
X121600383Y-71787117D01*
X121600282Y-71787075D01*
X120600423Y-70787215D01*
X120600383Y-70787117D01*
X120600284Y-70787076D01*
X120600000Y-70786958D01*
X120599899Y-70787000D01*
X108000101Y-70787000D01*
X108000000Y-70786958D01*
X107999756Y-70787059D01*
X107999617Y-70787117D01*
X107999575Y-70787217D01*
X107998174Y-70788617D01*
X107998173Y-70788618D01*
X107001115Y-71785675D01*
X107001114Y-71785676D01*
X106999715Y-71787076D01*
X106999617Y-71787117D01*
X106999576Y-71787215D01*
X106999576Y-71787216D01*
X106999458Y-71787500D01*
X106999500Y-71787601D01*
X106999500Y-83787399D01*
X106999458Y-83787500D01*
X102550542Y-83787500D01*
X102550500Y-83787399D01*
X102550500Y-77787500D01*
X103619571Y-77787500D01*
X103639244Y-77999810D01*
X103639386Y-78000310D01*
X103639388Y-78000319D01*
X103697448Y-78204374D01*
X103697595Y-78204889D01*
X103792634Y-78395755D01*
X103792951Y-78396174D01*
X103792953Y-78396178D01*
X103920805Y-78565480D01*
X103920808Y-78565483D01*
X103921128Y-78565907D01*
X103921519Y-78566263D01*
X104078310Y-78709199D01*
X104078314Y-78709202D01*
X104078698Y-78709552D01*
X104259981Y-78821798D01*
X104458802Y-78898821D01*
X104668390Y-78938000D01*
X104881076Y-78938000D01*
X104881610Y-78938000D01*
X105091198Y-78898821D01*
X105290019Y-78821798D01*
X105471302Y-78709552D01*
X105628872Y-78565907D01*
X105757366Y-78395755D01*
X105852405Y-78204889D01*
X105910756Y-77999810D01*
X105930429Y-77787500D01*
X105910756Y-77575190D01*
X105852405Y-77370111D01*
X105757366Y-77179245D01*
X105628872Y-77009093D01*
X105476492Y-76870179D01*
X105471689Y-76865800D01*
X105471683Y-76865796D01*
X105471302Y-76865448D01*
X105470854Y-76865171D01*
X105470852Y-76865169D01*
X105290480Y-76753487D01*
X105290476Y-76753485D01*
X105290019Y-76753202D01*
X105289517Y-76753007D01*
X105289512Y-76753005D01*
X105091703Y-76676374D01*
X105091696Y-76676372D01*
X105091198Y-76676179D01*
X105090671Y-76676080D01*
X105090666Y-76676079D01*
X104882135Y-76637098D01*
X104882133Y-76637097D01*
X104881610Y-76637000D01*
X104668390Y-76637000D01*
X104667867Y-76637097D01*
X104667864Y-76637098D01*
X104459333Y-76676079D01*
X104459325Y-76676081D01*
X104458802Y-76676179D01*
X104458305Y-76676371D01*
X104458296Y-76676374D01*
X104260487Y-76753005D01*
X104260478Y-76753009D01*
X104259981Y-76753202D01*
X104259527Y-76753482D01*
X104259519Y-76753487D01*
X104079147Y-76865169D01*
X104079139Y-76865174D01*
X104078698Y-76865448D01*
X104078320Y-76865791D01*
X104078310Y-76865800D01*
X103921519Y-77008736D01*
X103921516Y-77008739D01*
X103921128Y-77009093D01*
X103920812Y-77009510D01*
X103920805Y-77009519D01*
X103792953Y-77178821D01*
X103792947Y-77178829D01*
X103792634Y-77179245D01*
X103792399Y-77179716D01*
X103792397Y-77179720D01*
X103697834Y-77369630D01*
X103697832Y-77369634D01*
X103697595Y-77370111D01*
X103697450Y-77370617D01*
X103697448Y-77370625D01*
X103639388Y-77574680D01*
X103639385Y-77574691D01*
X103639244Y-77575190D01*
X103619571Y-77787500D01*
X102550500Y-77787500D01*
X102550500Y-71787601D01*
X102550542Y-71787500D01*
X102550424Y-71787217D01*
X102550383Y-71787117D01*
X102550282Y-71787075D01*
X101550423Y-70787215D01*
X101550383Y-70787117D01*
X101550284Y-70787076D01*
X101550000Y-70786958D01*
X101549899Y-70787000D01*
X88950101Y-70787000D01*
X88950000Y-70786958D01*
X88949756Y-70787059D01*
X88949617Y-70787117D01*
X88949575Y-70787217D01*
X88948174Y-70788617D01*
X88948173Y-70788618D01*
X87951115Y-71785675D01*
X87951114Y-71785676D01*
X87949715Y-71787076D01*
X87949617Y-71787117D01*
X87949576Y-71787215D01*
X87949576Y-71787216D01*
X87949458Y-71787500D01*
X87949500Y-71787601D01*
X87949500Y-83787399D01*
X87949458Y-83787500D01*
X83500542Y-83787500D01*
X83500500Y-83787399D01*
X83500500Y-71787601D01*
X83500542Y-71787500D01*
X83500424Y-71787217D01*
X83500383Y-71787117D01*
X83500282Y-71787075D01*
X82500423Y-70787215D01*
X82500383Y-70787117D01*
X82500284Y-70787076D01*
X82500000Y-70786958D01*
X82499899Y-70787000D01*
X69900101Y-70787000D01*
X69900000Y-70786958D01*
X69899756Y-70787059D01*
X69899617Y-70787117D01*
X69899575Y-70787217D01*
X69898174Y-70788617D01*
X69898173Y-70788618D01*
X68901115Y-71785675D01*
X68901114Y-71785676D01*
X68899715Y-71787076D01*
X68899617Y-71787117D01*
X68899576Y-71787215D01*
X68899576Y-71787216D01*
X68899458Y-71787500D01*
X68899500Y-71787601D01*
X68899500Y-83787399D01*
X68899458Y-83787500D01*
X64450542Y-83787500D01*
X64450500Y-83787399D01*
X64450500Y-71787601D01*
X64450542Y-71787500D01*
X64450424Y-71787217D01*
X64450383Y-71787117D01*
X64450282Y-71787075D01*
X63450423Y-70787215D01*
X63450383Y-70787117D01*
X63450284Y-70787076D01*
X63450000Y-70786958D01*
X63449899Y-70787000D01*
X50850101Y-70787000D01*
X50850000Y-70786958D01*
X50849756Y-70787059D01*
X50849617Y-70787117D01*
X50849575Y-70787217D01*
X50848174Y-70788617D01*
X50848173Y-70788618D01*
X49851115Y-71785675D01*
X49851114Y-71785676D01*
X49849715Y-71787076D01*
X49849617Y-71787117D01*
X49849576Y-71787215D01*
X49849576Y-71787216D01*
X49849458Y-71787500D01*
X49849500Y-71787601D01*
X49849500Y-83787399D01*
X49849458Y-83787500D01*
X45400542Y-83787500D01*
X45400500Y-83787399D01*
X45400500Y-77787500D01*
X46469571Y-77787500D01*
X46489244Y-77999810D01*
X46489386Y-78000310D01*
X46489388Y-78000319D01*
X46547448Y-78204374D01*
X46547595Y-78204889D01*
X46642634Y-78395755D01*
X46642951Y-78396174D01*
X46642953Y-78396178D01*
X46770805Y-78565480D01*
X46770808Y-78565483D01*
X46771128Y-78565907D01*
X46771519Y-78566263D01*
X46928310Y-78709199D01*
X46928314Y-78709202D01*
X46928698Y-78709552D01*
X47109981Y-78821798D01*
X47308802Y-78898821D01*
X47518390Y-78938000D01*
X47731076Y-78938000D01*
X47731610Y-78938000D01*
X47941198Y-78898821D01*
X48140019Y-78821798D01*
X48321302Y-78709552D01*
X48478872Y-78565907D01*
X48607366Y-78395755D01*
X48702405Y-78204889D01*
X48760756Y-77999810D01*
X48780429Y-77787500D01*
X48760756Y-77575190D01*
X48702405Y-77370111D01*
X48607366Y-77179245D01*
X48478872Y-77009093D01*
X48326492Y-76870179D01*
X48321689Y-76865800D01*
X48321683Y-76865796D01*
X48321302Y-76865448D01*
X48320854Y-76865171D01*
X48320852Y-76865169D01*
X48140480Y-76753487D01*
X48140476Y-76753485D01*
X48140019Y-76753202D01*
X48139517Y-76753007D01*
X48139512Y-76753005D01*
X47941703Y-76676374D01*
X47941696Y-76676372D01*
X47941198Y-76676179D01*
X47940671Y-76676080D01*
X47940666Y-76676079D01*
X47732135Y-76637098D01*
X47732133Y-76637097D01*
X47731610Y-76637000D01*
X47518390Y-76637000D01*
X47517867Y-76637097D01*
X47517864Y-76637098D01*
X47309333Y-76676079D01*
X47309325Y-76676081D01*
X47308802Y-76676179D01*
X47308305Y-76676371D01*
X47308296Y-76676374D01*
X47110487Y-76753005D01*
X47110478Y-76753009D01*
X47109981Y-76753202D01*
X47109527Y-76753482D01*
X47109519Y-76753487D01*
X46929147Y-76865169D01*
X46929139Y-76865174D01*
X46928698Y-76865448D01*
X46928320Y-76865791D01*
X46928310Y-76865800D01*
X46771519Y-77008736D01*
X46771516Y-77008739D01*
X46771128Y-77009093D01*
X46770812Y-77009510D01*
X46770805Y-77009519D01*
X46642953Y-77178821D01*
X46642947Y-77178829D01*
X46642634Y-77179245D01*
X46642399Y-77179716D01*
X46642397Y-77179720D01*
X46547834Y-77369630D01*
X46547832Y-77369634D01*
X46547595Y-77370111D01*
X46547450Y-77370617D01*
X46547448Y-77370625D01*
X46489388Y-77574680D01*
X46489385Y-77574691D01*
X46489244Y-77575190D01*
X46469571Y-77787500D01*
X45400500Y-77787500D01*
X45400500Y-71787601D01*
X45400542Y-71787500D01*
X45400424Y-71787217D01*
X45400383Y-71787117D01*
X45400282Y-71787075D01*
X44400423Y-70787215D01*
X44400383Y-70787117D01*
X44400284Y-70787076D01*
X44400000Y-70786958D01*
X44399899Y-70787000D01*
X31800101Y-70787000D01*
X31800000Y-70786958D01*
X31799756Y-70787059D01*
X31799617Y-70787117D01*
X31799575Y-70787217D01*
X31798174Y-70788617D01*
X31798173Y-70788618D01*
X30801115Y-71785675D01*
X30801114Y-71785676D01*
X30799715Y-71787076D01*
X30799617Y-71787117D01*
X30799576Y-71787215D01*
X30799576Y-71787216D01*
X30799458Y-71787500D01*
X30799500Y-71787601D01*
X30799500Y-83787399D01*
X30799458Y-83787500D01*
X28575500Y-83787500D01*
X28575500Y-75112401D01*
X28575500Y-75005182D01*
X28544954Y-74792731D01*
X28484484Y-74586790D01*
X28395321Y-74391550D01*
X28279281Y-74210987D01*
X28138724Y-74048776D01*
X28058492Y-73979254D01*
X27976823Y-73908487D01*
X27976817Y-73908483D01*
X27976513Y-73908219D01*
X27887540Y-73851040D01*
X27796296Y-73792401D01*
X27796292Y-73792398D01*
X27795950Y-73792179D01*
X27600710Y-73703016D01*
X27600316Y-73702900D01*
X27600310Y-73702898D01*
X27395165Y-73642662D01*
X27395161Y-73642661D01*
X27394769Y-73642546D01*
X27394365Y-73642487D01*
X27394361Y-73642487D01*
X27182727Y-73612058D01*
X27182716Y-73612057D01*
X27182318Y-73612000D01*
X27181904Y-73612000D01*
X26250325Y-73612000D01*
X26249692Y-73611983D01*
X26204820Y-73609508D01*
X26204693Y-73609500D01*
X25929107Y-73591254D01*
X25927975Y-73591122D01*
X25805669Y-73570720D01*
X25805295Y-73570652D01*
X25607177Y-73530836D01*
X25606315Y-73530627D01*
X25475623Y-73493686D01*
X25475018Y-73493497D01*
X25292313Y-73430802D01*
X25291720Y-73430580D01*
X25165882Y-73379492D01*
X25165074Y-73379127D01*
X24984260Y-73288916D01*
X24983923Y-73288741D01*
X24874859Y-73229748D01*
X24873884Y-73229157D01*
X24645090Y-73074302D01*
X24644986Y-73074230D01*
X24608723Y-73049099D01*
X24607120Y-73047757D01*
X24585944Y-73026468D01*
X24585816Y-73026337D01*
X24583561Y-73023997D01*
X24561482Y-73001082D01*
X24516371Y-72954263D01*
X24514723Y-72952086D01*
X24503679Y-72933187D01*
X24487010Y-72904660D01*
X24486770Y-72904227D01*
X24451386Y-72836461D01*
X24450516Y-72834270D01*
X24434416Y-72777186D01*
X24434217Y-72776356D01*
X24420213Y-72705658D01*
X24419999Y-72703685D01*
X24418722Y-72642887D01*
X24418765Y-72641661D01*
X24425128Y-72571229D01*
X24425383Y-72569658D01*
X24439511Y-72510103D01*
X24439996Y-72508558D01*
X24465945Y-72442780D01*
X24466456Y-72441669D01*
X24494908Y-72387918D01*
X24495984Y-72386255D01*
X24540254Y-72329378D01*
X24540802Y-72328729D01*
X24580834Y-72284952D01*
X24582580Y-72283400D01*
X24644663Y-72238726D01*
X24645029Y-72238476D01*
X24691119Y-72208533D01*
X24693557Y-72207334D01*
X24788277Y-72174031D01*
X24816920Y-72164468D01*
X24818314Y-72164098D01*
X24923326Y-72143214D01*
X25124481Y-72065839D01*
X25309432Y-71955187D01*
X25472724Y-71814523D01*
X25609541Y-71647995D01*
X25715848Y-71460513D01*
X25788511Y-71257608D01*
X25825386Y-71045262D01*
X25825386Y-70829738D01*
X25788511Y-70617392D01*
X25715848Y-70414487D01*
X25609541Y-70227005D01*
X25472724Y-70060477D01*
X25309432Y-69919813D01*
X25124481Y-69809161D01*
X25124026Y-69808986D01*
X25124020Y-69808983D01*
X24923782Y-69731961D01*
X24923777Y-69731959D01*
X24923326Y-69731786D01*
X24922851Y-69731691D01*
X24922846Y-69731690D01*
X24822829Y-69711798D01*
X24818353Y-69710907D01*
X24816954Y-69710537D01*
X24786783Y-69700460D01*
X24786618Y-69700403D01*
X24693913Y-69667867D01*
X24691455Y-69666659D01*
X24643377Y-69635418D01*
X24642925Y-69635109D01*
X24609851Y-69611306D01*
X24582952Y-69591946D01*
X24581190Y-69590379D01*
X24540031Y-69545363D01*
X24539475Y-69544705D01*
X24496310Y-69489240D01*
X24495225Y-69487561D01*
X24494852Y-69486857D01*
X24466123Y-69432575D01*
X24465594Y-69431426D01*
X24440233Y-69367129D01*
X24439743Y-69365568D01*
X24425305Y-69304692D01*
X24425046Y-69303097D01*
X24418829Y-69234258D01*
X24418786Y-69233009D01*
X24420094Y-69170778D01*
X24420307Y-69168817D01*
X24433966Y-69099868D01*
X24434166Y-69099034D01*
X24450727Y-69040315D01*
X24451591Y-69038140D01*
X24485832Y-68972563D01*
X24486029Y-68972206D01*
X24515008Y-68922613D01*
X24516647Y-68920448D01*
X24581690Y-68852944D01*
X24607556Y-68826938D01*
X24609146Y-68825606D01*
X24645115Y-68800679D01*
X24873916Y-68645821D01*
X24874826Y-68645269D01*
X24984007Y-68586212D01*
X24984187Y-68586119D01*
X25165101Y-68495858D01*
X25165853Y-68495518D01*
X25291761Y-68444402D01*
X25292274Y-68444210D01*
X25475045Y-68381492D01*
X25475594Y-68381320D01*
X25606359Y-68344360D01*
X25607136Y-68344171D01*
X25805315Y-68304342D01*
X25805644Y-68304282D01*
X25928004Y-68283872D01*
X25929081Y-68283746D01*
X26204700Y-68265498D01*
X26249691Y-68263017D01*
X26250325Y-68263000D01*
X27181904Y-68263000D01*
X27182318Y-68263000D01*
X27394769Y-68232454D01*
X27600710Y-68171984D01*
X27795950Y-68082821D01*
X27976513Y-67966781D01*
X28138724Y-67826224D01*
X28279281Y-67664013D01*
X28395321Y-67483450D01*
X28484484Y-67288210D01*
X28544954Y-67082269D01*
X28575500Y-66869818D01*
X28575500Y-66762500D01*
X28575500Y-66762000D01*
X28575500Y-65405001D01*
X30899460Y-65405001D01*
X30899501Y-65405100D01*
X30899618Y-65405384D01*
X30900001Y-65405542D01*
X30900100Y-65405501D01*
X34299900Y-65405501D01*
X34299999Y-65405542D01*
X34300382Y-65405384D01*
X34300499Y-65405100D01*
X34300540Y-65405001D01*
X34300499Y-65404902D01*
X34300499Y-64737500D01*
X40324458Y-64737500D01*
X40324576Y-64737783D01*
X40324617Y-64737883D01*
X40324715Y-64737923D01*
X41324575Y-65737782D01*
X41324617Y-65737883D01*
X41324717Y-65737924D01*
X41325000Y-65738042D01*
X41325101Y-65738000D01*
X53924899Y-65738000D01*
X53925000Y-65738042D01*
X53925284Y-65737924D01*
X53925284Y-65737923D01*
X53925383Y-65737883D01*
X53925423Y-65737784D01*
X54925282Y-64737924D01*
X54925383Y-64737883D01*
X54925440Y-64737743D01*
X54925542Y-64737500D01*
X59374458Y-64737500D01*
X59374576Y-64737783D01*
X59374617Y-64737883D01*
X59374715Y-64737923D01*
X60374575Y-65737782D01*
X60374617Y-65737883D01*
X60374717Y-65737924D01*
X60375000Y-65738042D01*
X60375101Y-65738000D01*
X72974899Y-65738000D01*
X72975000Y-65738042D01*
X72975284Y-65737924D01*
X72975284Y-65737923D01*
X72975383Y-65737883D01*
X72975423Y-65737784D01*
X73975282Y-64737924D01*
X73975383Y-64737883D01*
X73975440Y-64737743D01*
X73975542Y-64737500D01*
X78424458Y-64737500D01*
X78424576Y-64737783D01*
X78424617Y-64737883D01*
X78424715Y-64737923D01*
X79424575Y-65737782D01*
X79424617Y-65737883D01*
X79424717Y-65737924D01*
X79425000Y-65738042D01*
X79425101Y-65738000D01*
X92024899Y-65738000D01*
X92025000Y-65738042D01*
X92025284Y-65737924D01*
X92025284Y-65737923D01*
X92025383Y-65737883D01*
X92025423Y-65737784D01*
X93025282Y-64737924D01*
X93025383Y-64737883D01*
X93025440Y-64737743D01*
X93025542Y-64737500D01*
X97474458Y-64737500D01*
X97474576Y-64737783D01*
X97474617Y-64737883D01*
X97474715Y-64737923D01*
X98474575Y-65737782D01*
X98474617Y-65737883D01*
X98474717Y-65737924D01*
X98475000Y-65738042D01*
X98475101Y-65738000D01*
X111074899Y-65738000D01*
X111075000Y-65738042D01*
X111075284Y-65737924D01*
X111075284Y-65737923D01*
X111075383Y-65737883D01*
X111075423Y-65737784D01*
X112075282Y-64737924D01*
X112075383Y-64737883D01*
X112075440Y-64737743D01*
X112075542Y-64737500D01*
X116524458Y-64737500D01*
X116524576Y-64737783D01*
X116524617Y-64737883D01*
X116524715Y-64737923D01*
X117524575Y-65737782D01*
X117524617Y-65737883D01*
X117524717Y-65737924D01*
X117525000Y-65738042D01*
X117525101Y-65738000D01*
X130124899Y-65738000D01*
X130125000Y-65738042D01*
X130125284Y-65737924D01*
X130125284Y-65737923D01*
X130125383Y-65737883D01*
X130125423Y-65737784D01*
X131125282Y-64737924D01*
X131125383Y-64737883D01*
X131125440Y-64737743D01*
X131125542Y-64737500D01*
X135574458Y-64737500D01*
X135574576Y-64737783D01*
X135574617Y-64737883D01*
X135574715Y-64737923D01*
X136574575Y-65737782D01*
X136574617Y-65737883D01*
X136574717Y-65737924D01*
X136575000Y-65738042D01*
X136575101Y-65738000D01*
X149174899Y-65738000D01*
X149175000Y-65738042D01*
X149175284Y-65737924D01*
X149175284Y-65737923D01*
X149175383Y-65737883D01*
X149175423Y-65737784D01*
X150175282Y-64737924D01*
X150175383Y-64737883D01*
X150175440Y-64737743D01*
X150175542Y-64737500D01*
X150175500Y-64737399D01*
X150175500Y-52737601D01*
X150175542Y-52737500D01*
X150175424Y-52737217D01*
X150175383Y-52737117D01*
X150175282Y-52737075D01*
X149175423Y-51737215D01*
X149175383Y-51737117D01*
X149175284Y-51737076D01*
X149175000Y-51736958D01*
X149174899Y-51737000D01*
X136575101Y-51737000D01*
X136575000Y-51736958D01*
X136574756Y-51737059D01*
X136574617Y-51737117D01*
X136574575Y-51737217D01*
X136573174Y-51738617D01*
X136573173Y-51738618D01*
X135576115Y-52735675D01*
X135576114Y-52735676D01*
X135574715Y-52737076D01*
X135574617Y-52737117D01*
X135574576Y-52737215D01*
X135574576Y-52737216D01*
X135574458Y-52737500D01*
X135574500Y-52737601D01*
X135574500Y-64737399D01*
X135574458Y-64737500D01*
X131125542Y-64737500D01*
X131125500Y-64737399D01*
X131125500Y-58737500D01*
X132194571Y-58737500D01*
X132214244Y-58949810D01*
X132214386Y-58950310D01*
X132214388Y-58950319D01*
X132272448Y-59154374D01*
X132272595Y-59154889D01*
X132367634Y-59345755D01*
X132367951Y-59346174D01*
X132367953Y-59346178D01*
X132495805Y-59515480D01*
X132495808Y-59515483D01*
X132496128Y-59515907D01*
X132496519Y-59516263D01*
X132653310Y-59659199D01*
X132653314Y-59659202D01*
X132653698Y-59659552D01*
X132834981Y-59771798D01*
X133033802Y-59848821D01*
X133243390Y-59888000D01*
X133456076Y-59888000D01*
X133456610Y-59888000D01*
X133666198Y-59848821D01*
X133865019Y-59771798D01*
X134046302Y-59659552D01*
X134203872Y-59515907D01*
X134332366Y-59345755D01*
X134427405Y-59154889D01*
X134485756Y-58949810D01*
X134505429Y-58737500D01*
X134485756Y-58525190D01*
X134427405Y-58320111D01*
X134332366Y-58129245D01*
X134203872Y-57959093D01*
X134051492Y-57820179D01*
X134046689Y-57815800D01*
X134046683Y-57815796D01*
X134046302Y-57815448D01*
X134045854Y-57815171D01*
X134045852Y-57815169D01*
X133865480Y-57703487D01*
X133865476Y-57703485D01*
X133865019Y-57703202D01*
X133864517Y-57703007D01*
X133864512Y-57703005D01*
X133666703Y-57626374D01*
X133666696Y-57626372D01*
X133666198Y-57626179D01*
X133665671Y-57626080D01*
X133665666Y-57626079D01*
X133457135Y-57587098D01*
X133457133Y-57587097D01*
X133456610Y-57587000D01*
X133243390Y-57587000D01*
X133242867Y-57587097D01*
X133242864Y-57587098D01*
X133034333Y-57626079D01*
X133034325Y-57626081D01*
X133033802Y-57626179D01*
X133033305Y-57626371D01*
X133033296Y-57626374D01*
X132835487Y-57703005D01*
X132835478Y-57703009D01*
X132834981Y-57703202D01*
X132834527Y-57703482D01*
X132834519Y-57703487D01*
X132654147Y-57815169D01*
X132654139Y-57815174D01*
X132653698Y-57815448D01*
X132653320Y-57815791D01*
X132653310Y-57815800D01*
X132496519Y-57958736D01*
X132496516Y-57958739D01*
X132496128Y-57959093D01*
X132495812Y-57959510D01*
X132495805Y-57959519D01*
X132367953Y-58128821D01*
X132367947Y-58128829D01*
X132367634Y-58129245D01*
X132367399Y-58129716D01*
X132367397Y-58129720D01*
X132272834Y-58319630D01*
X132272832Y-58319634D01*
X132272595Y-58320111D01*
X132272450Y-58320617D01*
X132272448Y-58320625D01*
X132214388Y-58524680D01*
X132214385Y-58524691D01*
X132214244Y-58525190D01*
X132194571Y-58737500D01*
X131125500Y-58737500D01*
X131125500Y-52737601D01*
X131125542Y-52737500D01*
X131125424Y-52737217D01*
X131125383Y-52737117D01*
X131125282Y-52737075D01*
X130125423Y-51737215D01*
X130125383Y-51737117D01*
X130125284Y-51737076D01*
X130125000Y-51736958D01*
X130124899Y-51737000D01*
X117525101Y-51737000D01*
X117525000Y-51736958D01*
X117524756Y-51737059D01*
X117524617Y-51737117D01*
X117524575Y-51737217D01*
X117523174Y-51738617D01*
X117523173Y-51738618D01*
X116526115Y-52735675D01*
X116526114Y-52735676D01*
X116524715Y-52737076D01*
X116524617Y-52737117D01*
X116524576Y-52737215D01*
X116524576Y-52737216D01*
X116524458Y-52737500D01*
X116524500Y-52737601D01*
X116524500Y-64737399D01*
X116524458Y-64737500D01*
X112075542Y-64737500D01*
X112075500Y-64737399D01*
X112075500Y-58737500D01*
X113144571Y-58737500D01*
X113164244Y-58949810D01*
X113164386Y-58950310D01*
X113164388Y-58950319D01*
X113222448Y-59154374D01*
X113222595Y-59154889D01*
X113317634Y-59345755D01*
X113317951Y-59346174D01*
X113317953Y-59346178D01*
X113445805Y-59515480D01*
X113445808Y-59515483D01*
X113446128Y-59515907D01*
X113446519Y-59516263D01*
X113603310Y-59659199D01*
X113603314Y-59659202D01*
X113603698Y-59659552D01*
X113784981Y-59771798D01*
X113983802Y-59848821D01*
X114193390Y-59888000D01*
X114406076Y-59888000D01*
X114406610Y-59888000D01*
X114616198Y-59848821D01*
X114815019Y-59771798D01*
X114996302Y-59659552D01*
X115153872Y-59515907D01*
X115282366Y-59345755D01*
X115377405Y-59154889D01*
X115435756Y-58949810D01*
X115455429Y-58737500D01*
X115435756Y-58525190D01*
X115377405Y-58320111D01*
X115282366Y-58129245D01*
X115153872Y-57959093D01*
X115001492Y-57820179D01*
X114996689Y-57815800D01*
X114996683Y-57815796D01*
X114996302Y-57815448D01*
X114995854Y-57815171D01*
X114995852Y-57815169D01*
X114815480Y-57703487D01*
X114815476Y-57703485D01*
X114815019Y-57703202D01*
X114814517Y-57703007D01*
X114814512Y-57703005D01*
X114616703Y-57626374D01*
X114616696Y-57626372D01*
X114616198Y-57626179D01*
X114615671Y-57626080D01*
X114615666Y-57626079D01*
X114407135Y-57587098D01*
X114407133Y-57587097D01*
X114406610Y-57587000D01*
X114193390Y-57587000D01*
X114192867Y-57587097D01*
X114192864Y-57587098D01*
X113984333Y-57626079D01*
X113984325Y-57626081D01*
X113983802Y-57626179D01*
X113983305Y-57626371D01*
X113983296Y-57626374D01*
X113785487Y-57703005D01*
X113785478Y-57703009D01*
X113784981Y-57703202D01*
X113784527Y-57703482D01*
X113784519Y-57703487D01*
X113604147Y-57815169D01*
X113604139Y-57815174D01*
X113603698Y-57815448D01*
X113603320Y-57815791D01*
X113603310Y-57815800D01*
X113446519Y-57958736D01*
X113446516Y-57958739D01*
X113446128Y-57959093D01*
X113445812Y-57959510D01*
X113445805Y-57959519D01*
X113317953Y-58128821D01*
X113317947Y-58128829D01*
X113317634Y-58129245D01*
X113317399Y-58129716D01*
X113317397Y-58129720D01*
X113222834Y-58319630D01*
X113222832Y-58319634D01*
X113222595Y-58320111D01*
X113222450Y-58320617D01*
X113222448Y-58320625D01*
X113164388Y-58524680D01*
X113164385Y-58524691D01*
X113164244Y-58525190D01*
X113144571Y-58737500D01*
X112075500Y-58737500D01*
X112075500Y-52737601D01*
X112075542Y-52737500D01*
X112075424Y-52737217D01*
X112075383Y-52737117D01*
X112075282Y-52737075D01*
X111075423Y-51737215D01*
X111075383Y-51737117D01*
X111075284Y-51737076D01*
X111075000Y-51736958D01*
X111074899Y-51737000D01*
X98475101Y-51737000D01*
X98475000Y-51736958D01*
X98474756Y-51737059D01*
X98474617Y-51737117D01*
X98474575Y-51737217D01*
X98473174Y-51738617D01*
X98473173Y-51738618D01*
X97476115Y-52735675D01*
X97476114Y-52735676D01*
X97474715Y-52737076D01*
X97474617Y-52737117D01*
X97474576Y-52737215D01*
X97474576Y-52737216D01*
X97474458Y-52737500D01*
X97474500Y-52737601D01*
X97474500Y-64737399D01*
X97474458Y-64737500D01*
X93025542Y-64737500D01*
X93025500Y-64737399D01*
X93025500Y-52737601D01*
X93025542Y-52737500D01*
X93025424Y-52737217D01*
X93025383Y-52737117D01*
X93025282Y-52737075D01*
X92025423Y-51737215D01*
X92025383Y-51737117D01*
X92025284Y-51737076D01*
X92025000Y-51736958D01*
X92024899Y-51737000D01*
X79425101Y-51737000D01*
X79425000Y-51736958D01*
X79424756Y-51737059D01*
X79424617Y-51737117D01*
X79424575Y-51737217D01*
X79423174Y-51738617D01*
X79423173Y-51738618D01*
X78426115Y-52735675D01*
X78426114Y-52735676D01*
X78424715Y-52737076D01*
X78424617Y-52737117D01*
X78424576Y-52737215D01*
X78424576Y-52737216D01*
X78424458Y-52737500D01*
X78424500Y-52737601D01*
X78424500Y-64737399D01*
X78424458Y-64737500D01*
X73975542Y-64737500D01*
X73975500Y-64737399D01*
X73975500Y-58737500D01*
X75044571Y-58737500D01*
X75064244Y-58949810D01*
X75064386Y-58950310D01*
X75064388Y-58950319D01*
X75122448Y-59154374D01*
X75122595Y-59154889D01*
X75217634Y-59345755D01*
X75217951Y-59346174D01*
X75217953Y-59346178D01*
X75345805Y-59515480D01*
X75345808Y-59515483D01*
X75346128Y-59515907D01*
X75346519Y-59516263D01*
X75503310Y-59659199D01*
X75503314Y-59659202D01*
X75503698Y-59659552D01*
X75684981Y-59771798D01*
X75883802Y-59848821D01*
X76093390Y-59888000D01*
X76306076Y-59888000D01*
X76306610Y-59888000D01*
X76516198Y-59848821D01*
X76715019Y-59771798D01*
X76896302Y-59659552D01*
X77053872Y-59515907D01*
X77182366Y-59345755D01*
X77277405Y-59154889D01*
X77335756Y-58949810D01*
X77355429Y-58737500D01*
X77335756Y-58525190D01*
X77277405Y-58320111D01*
X77182366Y-58129245D01*
X77053872Y-57959093D01*
X76901492Y-57820179D01*
X76896689Y-57815800D01*
X76896683Y-57815796D01*
X76896302Y-57815448D01*
X76895854Y-57815171D01*
X76895852Y-57815169D01*
X76715480Y-57703487D01*
X76715476Y-57703485D01*
X76715019Y-57703202D01*
X76714517Y-57703007D01*
X76714512Y-57703005D01*
X76516703Y-57626374D01*
X76516696Y-57626372D01*
X76516198Y-57626179D01*
X76515671Y-57626080D01*
X76515666Y-57626079D01*
X76307135Y-57587098D01*
X76307133Y-57587097D01*
X76306610Y-57587000D01*
X76093390Y-57587000D01*
X76092867Y-57587097D01*
X76092864Y-57587098D01*
X75884333Y-57626079D01*
X75884325Y-57626081D01*
X75883802Y-57626179D01*
X75883305Y-57626371D01*
X75883296Y-57626374D01*
X75685487Y-57703005D01*
X75685478Y-57703009D01*
X75684981Y-57703202D01*
X75684527Y-57703482D01*
X75684519Y-57703487D01*
X75504147Y-57815169D01*
X75504139Y-57815174D01*
X75503698Y-57815448D01*
X75503320Y-57815791D01*
X75503310Y-57815800D01*
X75346519Y-57958736D01*
X75346516Y-57958739D01*
X75346128Y-57959093D01*
X75345812Y-57959510D01*
X75345805Y-57959519D01*
X75217953Y-58128821D01*
X75217947Y-58128829D01*
X75217634Y-58129245D01*
X75217399Y-58129716D01*
X75217397Y-58129720D01*
X75122834Y-58319630D01*
X75122832Y-58319634D01*
X75122595Y-58320111D01*
X75122450Y-58320617D01*
X75122448Y-58320625D01*
X75064388Y-58524680D01*
X75064385Y-58524691D01*
X75064244Y-58525190D01*
X75044571Y-58737500D01*
X73975500Y-58737500D01*
X73975500Y-52737601D01*
X73975542Y-52737500D01*
X73975424Y-52737217D01*
X73975383Y-52737117D01*
X73975282Y-52737075D01*
X72975423Y-51737215D01*
X72975383Y-51737117D01*
X72975284Y-51737076D01*
X72975000Y-51736958D01*
X72974899Y-51737000D01*
X60375101Y-51737000D01*
X60375000Y-51736958D01*
X60374756Y-51737059D01*
X60374617Y-51737117D01*
X60374575Y-51737217D01*
X60373174Y-51738617D01*
X60373173Y-51738618D01*
X59376115Y-52735675D01*
X59376114Y-52735676D01*
X59374715Y-52737076D01*
X59374617Y-52737117D01*
X59374576Y-52737215D01*
X59374576Y-52737216D01*
X59374458Y-52737500D01*
X59374500Y-52737601D01*
X59374500Y-64737399D01*
X59374458Y-64737500D01*
X54925542Y-64737500D01*
X54925500Y-64737399D01*
X54925500Y-52737601D01*
X54925542Y-52737500D01*
X54925424Y-52737217D01*
X54925383Y-52737117D01*
X54925282Y-52737075D01*
X53925423Y-51737215D01*
X53925383Y-51737117D01*
X53925284Y-51737076D01*
X53925000Y-51736958D01*
X53924899Y-51737000D01*
X41325101Y-51737000D01*
X41325000Y-51736958D01*
X41324756Y-51737059D01*
X41324617Y-51737117D01*
X41324575Y-51737217D01*
X41323174Y-51738617D01*
X41323173Y-51738618D01*
X40326115Y-52735675D01*
X40326114Y-52735676D01*
X40324715Y-52737076D01*
X40324617Y-52737117D01*
X40324576Y-52737215D01*
X40324576Y-52737216D01*
X40324458Y-52737500D01*
X40324500Y-52737601D01*
X40324500Y-64737399D01*
X40324458Y-64737500D01*
X34300499Y-64737500D01*
X34300499Y-62204700D01*
X34300540Y-62204601D01*
X34300382Y-62204218D01*
X34300098Y-62204101D01*
X34299999Y-62204060D01*
X34299900Y-62204101D01*
X30900100Y-62204101D01*
X30900001Y-62204060D01*
X30899902Y-62204101D01*
X30899618Y-62204218D01*
X30899460Y-62204601D01*
X30899501Y-62204700D01*
X30899501Y-65404902D01*
X30899460Y-65405001D01*
X28575500Y-65405001D01*
X28575500Y-59785201D01*
X30898460Y-59785201D01*
X30898501Y-59785300D01*
X30898618Y-59785584D01*
X30899001Y-59785742D01*
X30899100Y-59785701D01*
X34298900Y-59785701D01*
X34298999Y-59785742D01*
X34299382Y-59785584D01*
X34299499Y-59785300D01*
X34299540Y-59785201D01*
X34299499Y-59785102D01*
X34299499Y-58737500D01*
X36944571Y-58737500D01*
X36964244Y-58949810D01*
X36964386Y-58950310D01*
X36964388Y-58950319D01*
X37022448Y-59154374D01*
X37022595Y-59154889D01*
X37117634Y-59345755D01*
X37117951Y-59346174D01*
X37117953Y-59346178D01*
X37245805Y-59515480D01*
X37245808Y-59515483D01*
X37246128Y-59515907D01*
X37246519Y-59516263D01*
X37403310Y-59659199D01*
X37403314Y-59659202D01*
X37403698Y-59659552D01*
X37584981Y-59771798D01*
X37783802Y-59848821D01*
X37993390Y-59888000D01*
X38206076Y-59888000D01*
X38206610Y-59888000D01*
X38416198Y-59848821D01*
X38615019Y-59771798D01*
X38796302Y-59659552D01*
X38953872Y-59515907D01*
X39082366Y-59345755D01*
X39177405Y-59154889D01*
X39235756Y-58949810D01*
X39255429Y-58737500D01*
X39235756Y-58525190D01*
X39177405Y-58320111D01*
X39082366Y-58129245D01*
X38953872Y-57959093D01*
X38801492Y-57820179D01*
X38796689Y-57815800D01*
X38796683Y-57815796D01*
X38796302Y-57815448D01*
X38795854Y-57815171D01*
X38795852Y-57815169D01*
X38615480Y-57703487D01*
X38615476Y-57703485D01*
X38615019Y-57703202D01*
X38614517Y-57703007D01*
X38614512Y-57703005D01*
X38416703Y-57626374D01*
X38416696Y-57626372D01*
X38416198Y-57626179D01*
X38415671Y-57626080D01*
X38415666Y-57626079D01*
X38207135Y-57587098D01*
X38207133Y-57587097D01*
X38206610Y-57587000D01*
X37993390Y-57587000D01*
X37992867Y-57587097D01*
X37992864Y-57587098D01*
X37784333Y-57626079D01*
X37784325Y-57626081D01*
X37783802Y-57626179D01*
X37783305Y-57626371D01*
X37783296Y-57626374D01*
X37585487Y-57703005D01*
X37585478Y-57703009D01*
X37584981Y-57703202D01*
X37584527Y-57703482D01*
X37584519Y-57703487D01*
X37404147Y-57815169D01*
X37404139Y-57815174D01*
X37403698Y-57815448D01*
X37403320Y-57815791D01*
X37403310Y-57815800D01*
X37246519Y-57958736D01*
X37246516Y-57958739D01*
X37246128Y-57959093D01*
X37245812Y-57959510D01*
X37245805Y-57959519D01*
X37117953Y-58128821D01*
X37117947Y-58128829D01*
X37117634Y-58129245D01*
X37117399Y-58129716D01*
X37117397Y-58129720D01*
X37022834Y-58319630D01*
X37022832Y-58319634D01*
X37022595Y-58320111D01*
X37022450Y-58320617D01*
X37022448Y-58320625D01*
X36964388Y-58524680D01*
X36964385Y-58524691D01*
X36964244Y-58525190D01*
X36944571Y-58737500D01*
X34299499Y-58737500D01*
X34299499Y-56584900D01*
X34299540Y-56584801D01*
X34299382Y-56584418D01*
X34299098Y-56584301D01*
X34298999Y-56584260D01*
X34298900Y-56584301D01*
X30899100Y-56584301D01*
X30899001Y-56584260D01*
X30898902Y-56584301D01*
X30898618Y-56584418D01*
X30898460Y-56584801D01*
X30898501Y-56584900D01*
X30898501Y-59785102D01*
X30898460Y-59785201D01*
X28575500Y-59785201D01*
X28575500Y-54152701D01*
X30898460Y-54152701D01*
X30898501Y-54152800D01*
X30898618Y-54153084D01*
X30899001Y-54153242D01*
X30899100Y-54153201D01*
X34298900Y-54153201D01*
X34298999Y-54153242D01*
X34299382Y-54153084D01*
X34299499Y-54152800D01*
X34299540Y-54152701D01*
X34299499Y-54152602D01*
X34299499Y-50952400D01*
X34299540Y-50952301D01*
X34299382Y-50951918D01*
X34299098Y-50951801D01*
X34298999Y-50951760D01*
X34298900Y-50951801D01*
X30899100Y-50951801D01*
X30899001Y-50951760D01*
X30898902Y-50951801D01*
X30898618Y-50951918D01*
X30898460Y-50952301D01*
X30898501Y-50952400D01*
X30898501Y-54152602D01*
X30898460Y-54152701D01*
X28575500Y-54152701D01*
X28575500Y-52387797D01*
X28575516Y-52387195D01*
X28575708Y-52383519D01*
X28582488Y-52254152D01*
X28594013Y-52048931D01*
X28594131Y-52047833D01*
X28619642Y-51886767D01*
X28619644Y-51886759D01*
X28649798Y-51709278D01*
X28650024Y-51708246D01*
X28693529Y-51545889D01*
X28693561Y-51545771D01*
X28693587Y-51545682D01*
X28741995Y-51377652D01*
X28742289Y-51376780D01*
X28803269Y-51217922D01*
X28803349Y-51217719D01*
X28869506Y-51058005D01*
X28869849Y-51057258D01*
X28947597Y-50904670D01*
X28947720Y-50904438D01*
X29030844Y-50754038D01*
X29031235Y-50753387D01*
X29124837Y-50609252D01*
X29124972Y-50609054D01*
X29224129Y-50469305D01*
X29224519Y-50468791D01*
X29332832Y-50335036D01*
X29333122Y-50334694D01*
X29447104Y-50207149D01*
X29447484Y-50206748D01*
X29569254Y-50084977D01*
X29569649Y-50084604D01*
X29697194Y-49970622D01*
X29697549Y-49970322D01*
X29831291Y-49862019D01*
X29831805Y-49861629D01*
X29971554Y-49762472D01*
X29971752Y-49762337D01*
X30115890Y-49668733D01*
X30116538Y-49668344D01*
X30266938Y-49585220D01*
X30267170Y-49585097D01*
X30419758Y-49507349D01*
X30420505Y-49507006D01*
X30580219Y-49440849D01*
X30580422Y-49440769D01*
X30739298Y-49379782D01*
X30740152Y-49379495D01*
X30908302Y-49331052D01*
X30908344Y-49331040D01*
X31070746Y-49287524D01*
X31071778Y-49287298D01*
X31249241Y-49257146D01*
X31249272Y-49257141D01*
X31249280Y-49257188D01*
X31249394Y-49257121D01*
X31410333Y-49231631D01*
X31411431Y-49231513D01*
X31616758Y-49219983D01*
X31616758Y-49219998D01*
X31616794Y-49219980D01*
X31749694Y-49213016D01*
X31750297Y-49213000D01*
X31750500Y-49213000D01*
X149224500Y-49213000D01*
X149224703Y-49213000D01*
X149225305Y-49213016D01*
G37*
%TD.AperFunction*%
%TD*%
M02*
