  0
SECTION
  2
HEADER
  9
$ANGBASE
  50
0.0
  9
$ANGDIR
  70
1
  9
$MEASUREMENT
  70
1
  0
ENDSEC
  0
SECTION
  2
TABLES
  0
TABLE
  2
LTYPE
  70
4
  0
LTYPE
  5
40F
  2
CONTINUOUS
  70
0
  3
Solid line
  72
65
  73
0
  40
0.0
  0
LTYPE
  5
410
  2
DASHDOT
 70
0
  3
Dash Dot ____ _ ____ _
 72
65
 73
4
 40
2.0
 49
1.25
 49
-0.25
 49
0.25
 49
-0.25
  0
LTYPE
  5
411
  2
DASHED
 70
0
  3
Dashed __ __ __ __ __
 72
65
 73
2
 40
0.75
 49
0.5
 49
-0.25
  0
LTYPE
  5
43B
  2
DOTTED
 70
0
  3
Dotted .  .  .  .
 72
65
 73
2
 40
0.2
 49
0.0
 49
-0.2
  0
ENDTAB
  0
TABLE
  2
STYLE
  70
4
  0
STYLE
  2
KICAD
  70
0
  40
0
  41
1
  42
1
  50
0
  71
0
  3
isocp.shx
  0
STYLE
  2
KICADB
  70
0
  40
0
  41
1
  42
1
  50
0
  71
0
  3
isocp.shx
  0
STYLE
  2
KICADI
  70
0
  40
0
  41
1
  42
1
  50
15
  71
0
  3
isocp.shx
  0
STYLE
  2
KICADBI
  70
0
  40
0
  41
1
  42
1
  50
15
  71
0
  3
isocp.shx
  0
ENDTAB
  0
TABLE
  2
LAYER
  70
1
  0
LAYER
  2
BLACK
  70
0
  62
7
  6
CONTINUOUS
  0
ENDTAB
  0
ENDSEC
  0
SECTION
  2
ENTITIES
0
LINE
8
BLACK
6
CONTINUOUS
10
181.763
20
-138.225
11
181.78
21
-138.274
0
LINE
8
BLACK
6
CONTINUOUS
10
181.78
20
-138.274
11
181.78
21
-138.532
0
LINE
8
BLACK
6
CONTINUOUS
10
181.78
20
-138.532
11
181.943
21
-138.532
0
LINE
8
BLACK
6
CONTINUOUS
10
181.943
20
-138.532
11
181.969
21
-138.536
0
LINE
8
BLACK
6
CONTINUOUS
10
181.969
20
-138.536
11
182.008
21
-138.569
0
LINE
8
BLACK
6
CONTINUOUS
10
182.008
20
-138.569
11
182.017
21
-138.62
0
LINE
8
BLACK
6
CONTINUOUS
10
182.017
20
-138.62
11
181.991
21
-138.664
0
LINE
8
BLACK
6
CONTINUOUS
10
181.991
20
-138.664
11
181.943
21
-138.682
0
LINE
8
BLACK
6
CONTINUOUS
10
181.943
20
-138.682
11
181.78
21
-138.682
0
LINE
8
BLACK
6
CONTINUOUS
10
181.78
20
-138.682
11
181.78
21
-139.113
0
LINE
8
BLACK
6
CONTINUOUS
10
181.78
20
-139.113
11
181.809
21
-139.17
0
LINE
8
BLACK
6
CONTINUOUS
10
181.809
20
-139.17
11
181.866
21
-139.199
0
LINE
8
BLACK
6
CONTINUOUS
10
181.866
20
-139.199
11
181.943
21
-139.199
0
LINE
8
BLACK
6
CONTINUOUS
10
181.943
20
-139.199
11
181.969
21
-139.203
0
LINE
8
BLACK
6
CONTINUOUS
10
181.969
20
-139.203
11
182.008
21
-139.236
0
LINE
8
BLACK
6
CONTINUOUS
10
182.008
20
-139.236
11
182.017
21
-139.287
0
LINE
8
BLACK
6
CONTINUOUS
10
182.017
20
-139.287
11
181.991
21
-139.331
0
LINE
8
BLACK
6
CONTINUOUS
10
181.991
20
-139.331
11
181.943
21
-139.349
0
LINE
8
BLACK
6
CONTINUOUS
10
181.943
20
-139.349
11
181.848
21
-139.349
0
LINE
8
BLACK
6
CONTINUOUS
10
181.848
20
-139.349
11
181.822
21
-139.344
0
LINE
8
BLACK
6
CONTINUOUS
10
181.822
20
-139.344
11
181.819
21
-139.341
0
LINE
8
BLACK
6
CONTINUOUS
10
181.819
20
-139.341
11
181.814
21
-139.341
0
LINE
8
BLACK
6
CONTINUOUS
10
181.814
20
-139.341
11
181.719
21
-139.293
0
LINE
8
BLACK
6
CONTINUOUS
10
181.719
20
-139.293
11
181.698
21
-139.278
0
LINE
8
BLACK
6
CONTINUOUS
10
181.698
20
-139.278
11
181.694
21
-139.267
0
LINE
8
BLACK
6
CONTINUOUS
10
181.694
20
-139.267
11
181.686
21
-139.26
0
LINE
8
BLACK
6
CONTINUOUS
10
181.686
20
-139.26
11
181.638
21
-139.164
0
LINE
8
BLACK
6
CONTINUOUS
10
181.638
20
-139.164
11
181.631
21
-139.139
0
LINE
8
BLACK
6
CONTINUOUS
10
181.631
20
-139.139
11
181.632
21
-139.135
0
LINE
8
BLACK
6
CONTINUOUS
10
181.632
20
-139.135
11
181.63
21
-139.131
0
LINE
8
BLACK
6
CONTINUOUS
10
181.63
20
-139.131
11
181.63
21
-138.682
0
LINE
8
BLACK
6
CONTINUOUS
10
181.63
20
-138.682
11
181.562
21
-138.682
0
LINE
8
BLACK
6
CONTINUOUS
10
181.562
20
-138.682
11
181.537
21
-138.677
0
LINE
8
BLACK
6
CONTINUOUS
10
181.537
20
-138.677
11
181.497
21
-138.644
0
LINE
8
BLACK
6
CONTINUOUS
10
181.497
20
-138.644
11
181.488
21
-138.594
0
LINE
8
BLACK
6
CONTINUOUS
10
181.488
20
-138.594
11
181.514
21
-138.55
0
LINE
8
BLACK
6
CONTINUOUS
10
181.514
20
-138.55
11
181.562
21
-138.532
0
LINE
8
BLACK
6
CONTINUOUS
10
181.562
20
-138.532
11
181.63
21
-138.532
0
LINE
8
BLACK
6
CONTINUOUS
10
181.63
20
-138.532
11
181.63
21
-138.274
0
LINE
8
BLACK
6
CONTINUOUS
10
181.63
20
-138.274
11
181.635
21
-138.248
0
LINE
8
BLACK
6
CONTINUOUS
10
181.635
20
-138.248
11
181.668
21
-138.209
0
LINE
8
BLACK
6
CONTINUOUS
10
181.668
20
-138.209
11
181.718
21
-138.2
0
LINE
8
BLACK
6
CONTINUOUS
10
181.718
20
-138.2
11
181.763
21
-138.225
0
LINE
8
BLACK
6
CONTINUOUS
10
181.159
20
-138.536
11
181.163
21
-138.539
0
LINE
8
BLACK
6
CONTINUOUS
10
181.163
20
-138.539
11
181.167
21
-138.54
0
LINE
8
BLACK
6
CONTINUOUS
10
181.167
20
-138.54
11
181.262
21
-138.588
0
LINE
8
BLACK
6
CONTINUOUS
10
181.262
20
-138.588
11
181.283
21
-138.603
0
LINE
8
BLACK
6
CONTINUOUS
10
181.283
20
-138.603
11
181.288
21
-138.613
0
LINE
8
BLACK
6
CONTINUOUS
10
181.288
20
-138.613
11
181.296
21
-138.621
0
LINE
8
BLACK
6
CONTINUOUS
10
181.296
20
-138.621
11
181.344
21
-138.716
0
LINE
8
BLACK
6
CONTINUOUS
10
181.344
20
-138.716
11
181.351
21
-138.741
0
LINE
8
BLACK
6
CONTINUOUS
10
181.351
20
-138.741
11
181.35
21
-138.746
0
LINE
8
BLACK
6
CONTINUOUS
10
181.35
20
-138.746
11
181.351
21
-138.75
0
LINE
8
BLACK
6
CONTINUOUS
10
181.351
20
-138.75
11
181.351
21
-138.845
0
LINE
8
BLACK
6
CONTINUOUS
10
181.351
20
-138.845
11
181.347
21
-138.871
0
LINE
8
BLACK
6
CONTINUOUS
10
181.347
20
-138.871
11
181.339
21
-138.88
0
LINE
8
BLACK
6
CONTINUOUS
10
181.339
20
-138.88
11
181.335
21
-138.892
0
LINE
8
BLACK
6
CONTINUOUS
10
181.335
20
-138.892
11
181.323
21
-138.899
0
LINE
8
BLACK
6
CONTINUOUS
10
181.323
20
-138.899
11
181.314
21
-138.91
0
LINE
8
BLACK
6
CONTINUOUS
10
181.314
20
-138.91
11
181.302
21
-138.912
0
LINE
8
BLACK
6
CONTINUOUS
10
181.302
20
-138.912
11
181.291
21
-138.919
0
LINE
8
BLACK
6
CONTINUOUS
10
181.291
20
-138.919
11
180.875
21
-139.002
0
LINE
8
BLACK
6
CONTINUOUS
10
180.875
20
-139.002
11
180.875
21
-139.113
0
LINE
8
BLACK
6
CONTINUOUS
10
180.875
20
-139.113
11
180.904
21
-139.17
0
LINE
8
BLACK
6
CONTINUOUS
10
180.904
20
-139.17
11
180.961
21
-139.199
0
LINE
8
BLACK
6
CONTINUOUS
10
180.961
20
-139.199
11
181.116
21
-139.199
0
LINE
8
BLACK
6
CONTINUOUS
10
181.116
20
-139.199
11
181.195
21
-139.159
0
LINE
8
BLACK
6
CONTINUOUS
10
181.195
20
-139.159
11
181.22
21
-139.152
0
LINE
8
BLACK
6
CONTINUOUS
10
181.22
20
-139.152
11
181.27
21
-139.163
0
LINE
8
BLACK
6
CONTINUOUS
10
181.27
20
-139.163
11
181.301
21
-139.205
0
LINE
8
BLACK
6
CONTINUOUS
10
181.301
20
-139.205
11
181.298
21
-139.256
0
LINE
8
BLACK
6
CONTINUOUS
10
181.298
20
-139.256
11
181.262
21
-139.293
0
LINE
8
BLACK
6
CONTINUOUS
10
181.262
20
-139.293
11
181.167
21
-139.341
0
LINE
8
BLACK
6
CONTINUOUS
10
181.167
20
-139.341
11
181.142
21
-139.348
0
LINE
8
BLACK
6
CONTINUOUS
10
181.142
20
-139.348
11
181.138
21
-139.347
0
LINE
8
BLACK
6
CONTINUOUS
10
181.138
20
-139.347
11
181.134
21
-139.349
0
LINE
8
BLACK
6
CONTINUOUS
10
181.134
20
-139.349
11
180.943
21
-139.349
0
LINE
8
BLACK
6
CONTINUOUS
10
180.943
20
-139.349
11
180.918
21
-139.344
0
LINE
8
BLACK
6
CONTINUOUS
10
180.918
20
-139.344
11
180.914
21
-139.341
0
LINE
8
BLACK
6
CONTINUOUS
10
180.914
20
-139.341
11
180.91
21
-139.341
0
LINE
8
BLACK
6
CONTINUOUS
10
180.91
20
-139.341
11
180.814
21
-139.293
0
LINE
8
BLACK
6
CONTINUOUS
10
180.814
20
-139.293
11
180.793
21
-139.278
0
LINE
8
BLACK
6
CONTINUOUS
10
180.793
20
-139.278
11
180.789
21
-139.267
0
LINE
8
BLACK
6
CONTINUOUS
10
180.789
20
-139.267
11
180.781
21
-139.26
0
LINE
8
BLACK
6
CONTINUOUS
10
180.781
20
-139.26
11
180.733
21
-139.164
0
LINE
8
BLACK
6
CONTINUOUS
10
180.733
20
-139.164
11
180.726
21
-139.139
0
LINE
8
BLACK
6
CONTINUOUS
10
180.726
20
-139.139
11
180.727
21
-139.135
0
LINE
8
BLACK
6
CONTINUOUS
10
180.727
20
-139.135
11
180.725
21
-139.131
0
LINE
8
BLACK
6
CONTINUOUS
10
180.725
20
-139.131
11
180.725
21
-138.75
0
LINE
8
BLACK
6
CONTINUOUS
10
180.725
20
-138.75
11
180.73
21
-138.724
0
LINE
8
BLACK
6
CONTINUOUS
10
180.73
20
-138.724
11
180.733
21
-138.721
0
LINE
8
BLACK
6
CONTINUOUS
10
180.733
20
-138.721
11
180.733
21
-138.716
0
LINE
8
BLACK
6
CONTINUOUS
10
180.733
20
-138.716
11
180.781
21
-138.621
0
LINE
8
BLACK
6
CONTINUOUS
10
180.781
20
-138.621
11
180.796
21
-138.6
0
LINE
8
BLACK
6
CONTINUOUS
10
180.796
20
-138.6
11
180.807
21
-138.596
0
LINE
8
BLACK
6
CONTINUOUS
10
180.807
20
-138.596
11
180.814
21
-138.588
0
LINE
8
BLACK
6
CONTINUOUS
10
180.814
20
-138.588
11
180.91
21
-138.54
0
LINE
8
BLACK
6
CONTINUOUS
10
180.91
20
-138.54
11
180.935
21
-138.532
0
LINE
8
BLACK
6
CONTINUOUS
10
180.935
20
-138.532
11
180.939
21
-138.533
0
LINE
8
BLACK
6
CONTINUOUS
10
180.939
20
-138.533
11
180.943
21
-138.532
0
LINE
8
BLACK
6
CONTINUOUS
10
180.943
20
-138.532
11
181.134
21
-138.532
0
LINE
8
BLACK
6
CONTINUOUS
10
181.134
20
-138.532
11
181.159
21
-138.536
0
LINE
8
BLACK
6
CONTINUOUS
10
180.961
20
-138.682
11
180.904
21
-138.71
0
LINE
8
BLACK
6
CONTINUOUS
10
180.904
20
-138.71
11
180.875
21
-138.768
0
LINE
8
BLACK
6
CONTINUOUS
10
180.875
20
-138.768
11
180.875
21
-138.849
0
LINE
8
BLACK
6
CONTINUOUS
10
180.875
20
-138.849
11
181.201
21
-138.784
0
LINE
8
BLACK
6
CONTINUOUS
10
181.201
20
-138.784
11
181.201
21
-138.768
0
LINE
8
BLACK
6
CONTINUOUS
10
181.201
20
-138.768
11
181.173
21
-138.71
0
LINE
8
BLACK
6
CONTINUOUS
10
181.173
20
-138.71
11
181.116
21
-138.682
0
LINE
8
BLACK
6
CONTINUOUS
10
181.116
20
-138.682
11
180.961
21
-138.682
0
LINE
8
BLACK
6
CONTINUOUS
10
180.302
20
-138.536
11
180.306
21
-138.539
0
LINE
8
BLACK
6
CONTINUOUS
10
180.306
20
-138.539
11
180.31
21
-138.54
0
LINE
8
BLACK
6
CONTINUOUS
10
180.31
20
-138.54
11
180.405
21
-138.588
0
LINE
8
BLACK
6
CONTINUOUS
10
180.405
20
-138.588
11
180.426
21
-138.603
0
LINE
8
BLACK
6
CONTINUOUS
10
180.426
20
-138.603
11
180.447
21
-138.65
0
LINE
8
BLACK
6
CONTINUOUS
10
180.447
20
-138.65
11
180.432
21
-138.699
0
LINE
8
BLACK
6
CONTINUOUS
10
180.432
20
-138.699
11
180.389
21
-138.728
0
LINE
8
BLACK
6
CONTINUOUS
10
180.389
20
-138.728
11
180.338
21
-138.722
0
LINE
8
BLACK
6
CONTINUOUS
10
180.338
20
-138.722
11
180.259
21
-138.682
0
LINE
8
BLACK
6
CONTINUOUS
10
180.259
20
-138.682
11
180.151
21
-138.682
0
LINE
8
BLACK
6
CONTINUOUS
10
180.151
20
-138.682
11
180.094
21
-138.71
0
LINE
8
BLACK
6
CONTINUOUS
10
180.094
20
-138.71
11
180.066
21
-138.768
0
LINE
8
BLACK
6
CONTINUOUS
10
180.066
20
-138.768
11
180.066
21
-138.78
0
LINE
8
BLACK
6
CONTINUOUS
10
180.066
20
-138.78
11
180.094
21
-138.837
0
LINE
8
BLACK
6
CONTINUOUS
10
180.094
20
-138.837
11
180.151
21
-138.865
0
LINE
8
BLACK
6
CONTINUOUS
10
180.151
20
-138.865
11
180.276
21
-138.865
0
LINE
8
BLACK
6
CONTINUOUS
10
180.276
20
-138.865
11
180.302
21
-138.87
0
LINE
8
BLACK
6
CONTINUOUS
10
180.302
20
-138.87
11
180.306
21
-138.873
0
LINE
8
BLACK
6
CONTINUOUS
10
180.306
20
-138.873
11
180.31
21
-138.873
0
LINE
8
BLACK
6
CONTINUOUS
10
180.31
20
-138.873
11
180.405
21
-138.921
0
LINE
8
BLACK
6
CONTINUOUS
10
180.405
20
-138.921
11
180.426
21
-138.936
0
LINE
8
BLACK
6
CONTINUOUS
10
180.426
20
-138.936
11
180.431
21
-138.947
0
LINE
8
BLACK
6
CONTINUOUS
10
180.431
20
-138.947
11
180.439
21
-138.954
0
LINE
8
BLACK
6
CONTINUOUS
10
180.439
20
-138.954
11
180.486
21
-139.05
0
LINE
8
BLACK
6
CONTINUOUS
10
180.486
20
-139.05
11
180.494
21
-139.075
0
LINE
8
BLACK
6
CONTINUOUS
10
180.494
20
-139.075
11
180.493
21
-139.079
0
LINE
8
BLACK
6
CONTINUOUS
10
180.493
20
-139.079
11
180.494
21
-139.083
0
LINE
8
BLACK
6
CONTINUOUS
10
180.494
20
-139.083
11
180.494
21
-139.131
0
LINE
8
BLACK
6
CONTINUOUS
10
180.494
20
-139.131
11
180.49
21
-139.156
0
LINE
8
BLACK
6
CONTINUOUS
10
180.49
20
-139.156
11
180.487
21
-139.16
0
LINE
8
BLACK
6
CONTINUOUS
10
180.487
20
-139.16
11
180.486
21
-139.164
0
LINE
8
BLACK
6
CONTINUOUS
10
180.486
20
-139.164
11
180.439
21
-139.26
0
LINE
8
BLACK
6
CONTINUOUS
10
180.439
20
-139.26
11
180.423
21
-139.28
0
LINE
8
BLACK
6
CONTINUOUS
10
180.423
20
-139.28
11
180.413
21
-139.285
0
LINE
8
BLACK
6
CONTINUOUS
10
180.413
20
-139.285
11
180.405
21
-139.293
0
LINE
8
BLACK
6
CONTINUOUS
10
180.405
20
-139.293
11
180.31
21
-139.341
0
LINE
8
BLACK
6
CONTINUOUS
10
180.31
20
-139.341
11
180.285
21
-139.348
0
LINE
8
BLACK
6
CONTINUOUS
10
180.285
20
-139.348
11
180.281
21
-139.347
0
LINE
8
BLACK
6
CONTINUOUS
10
180.281
20
-139.347
11
180.276
21
-139.349
0
LINE
8
BLACK
6
CONTINUOUS
10
180.276
20
-139.349
11
180.086
21
-139.349
0
LINE
8
BLACK
6
CONTINUOUS
10
180.086
20
-139.349
11
180.06
21
-139.344
0
LINE
8
BLACK
6
CONTINUOUS
10
180.06
20
-139.344
11
180.057
21
-139.341
0
LINE
8
BLACK
6
CONTINUOUS
10
180.057
20
-139.341
11
180.052
21
-139.341
0
LINE
8
BLACK
6
CONTINUOUS
10
180.052
20
-139.341
11
179.957
21
-139.293
0
LINE
8
BLACK
6
CONTINUOUS
10
179.957
20
-139.293
11
179.936
21
-139.278
0
LINE
8
BLACK
6
CONTINUOUS
10
179.936
20
-139.278
11
179.916
21
-139.231
0
LINE
8
BLACK
6
CONTINUOUS
10
179.916
20
-139.231
11
179.931
21
-139.181
0
LINE
8
BLACK
6
CONTINUOUS
10
179.931
20
-139.181
11
179.973
21
-139.153
0
LINE
8
BLACK
6
CONTINUOUS
10
179.973
20
-139.153
11
180.024
21
-139.159
0
LINE
8
BLACK
6
CONTINUOUS
10
180.024
20
-139.159
11
180.104
21
-139.199
0
LINE
8
BLACK
6
CONTINUOUS
10
180.104
20
-139.199
11
180.259
21
-139.199
0
LINE
8
BLACK
6
CONTINUOUS
10
180.259
20
-139.199
11
180.316
21
-139.17
0
LINE
8
BLACK
6
CONTINUOUS
10
180.316
20
-139.17
11
180.344
21
-139.113
0
LINE
8
BLACK
6
CONTINUOUS
10
180.344
20
-139.113
11
180.344
21
-139.101
0
LINE
8
BLACK
6
CONTINUOUS
10
180.344
20
-139.101
11
180.316
21
-139.044
0
LINE
8
BLACK
6
CONTINUOUS
10
180.316
20
-139.044
11
180.259
21
-139.015
0
LINE
8
BLACK
6
CONTINUOUS
10
180.259
20
-139.015
11
180.134
21
-139.015
0
LINE
8
BLACK
6
CONTINUOUS
10
180.134
20
-139.015
11
180.108
21
-139.011
0
LINE
8
BLACK
6
CONTINUOUS
10
180.108
20
-139.011
11
180.105
21
-139.008
0
LINE
8
BLACK
6
CONTINUOUS
10
180.105
20
-139.008
11
180.1
21
-139.007
0
LINE
8
BLACK
6
CONTINUOUS
10
180.1
20
-139.007
11
180.005
21
-138.96
0
LINE
8
BLACK
6
CONTINUOUS
10
180.005
20
-138.96
11
179.984
21
-138.944
0
LINE
8
BLACK
6
CONTINUOUS
10
179.984
20
-138.944
11
179.979
21
-138.934
0
LINE
8
BLACK
6
CONTINUOUS
10
179.979
20
-138.934
11
179.971
21
-138.926
0
LINE
8
BLACK
6
CONTINUOUS
10
179.971
20
-138.926
11
179.924
21
-138.831
0
LINE
8
BLACK
6
CONTINUOUS
10
179.924
20
-138.831
11
179.916
21
-138.806
0
LINE
8
BLACK
6
CONTINUOUS
10
179.916
20
-138.806
11
179.917
21
-138.802
0
LINE
8
BLACK
6
CONTINUOUS
10
179.917
20
-138.802
11
179.916
21
-138.797
0
LINE
8
BLACK
6
CONTINUOUS
10
179.916
20
-138.797
11
179.916
21
-138.75
0
LINE
8
BLACK
6
CONTINUOUS
10
179.916
20
-138.75
11
179.92
21
-138.724
0
LINE
8
BLACK
6
CONTINUOUS
10
179.92
20
-138.724
11
179.923
21
-138.721
0
LINE
8
BLACK
6
CONTINUOUS
10
179.923
20
-138.721
11
179.924
21
-138.716
0
LINE
8
BLACK
6
CONTINUOUS
10
179.924
20
-138.716
11
179.971
21
-138.621
0
LINE
8
BLACK
6
CONTINUOUS
10
179.971
20
-138.621
11
179.987
21
-138.6
0
LINE
8
BLACK
6
CONTINUOUS
10
179.987
20
-138.6
11
179.997
21
-138.596
0
LINE
8
BLACK
6
CONTINUOUS
10
179.997
20
-138.596
11
180.005
21
-138.588
0
LINE
8
BLACK
6
CONTINUOUS
10
180.005
20
-138.588
11
180.1
21
-138.54
0
LINE
8
BLACK
6
CONTINUOUS
10
180.1
20
-138.54
11
180.125
21
-138.532
0
LINE
8
BLACK
6
CONTINUOUS
10
180.125
20
-138.532
11
180.129
21
-138.533
0
LINE
8
BLACK
6
CONTINUOUS
10
180.129
20
-138.533
11
180.134
21
-138.532
0
LINE
8
BLACK
6
CONTINUOUS
10
180.134
20
-138.532
11
180.276
21
-138.532
0
LINE
8
BLACK
6
CONTINUOUS
10
180.276
20
-138.532
11
180.302
21
-138.536
0
LINE
8
BLACK
6
CONTINUOUS
10
179.493
20
-138.536
11
179.496
21
-138.539
0
LINE
8
BLACK
6
CONTINUOUS
10
179.496
20
-138.539
11
179.501
21
-138.54
0
LINE
8
BLACK
6
CONTINUOUS
10
179.501
20
-138.54
11
179.596
21
-138.588
0
LINE
8
BLACK
6
CONTINUOUS
10
179.596
20
-138.588
11
179.617
21
-138.603
0
LINE
8
BLACK
6
CONTINUOUS
10
179.617
20
-138.603
11
179.621
21
-138.613
0
LINE
8
BLACK
6
CONTINUOUS
10
179.621
20
-138.613
11
179.629
21
-138.621
0
LINE
8
BLACK
6
CONTINUOUS
10
179.629
20
-138.621
11
179.677
21
-138.716
0
LINE
8
BLACK
6
CONTINUOUS
10
179.677
20
-138.716
11
179.684
21
-138.741
0
LINE
8
BLACK
6
CONTINUOUS
10
179.684
20
-138.741
11
179.683
21
-138.746
0
LINE
8
BLACK
6
CONTINUOUS
10
179.683
20
-138.746
11
179.685
21
-138.75
0
LINE
8
BLACK
6
CONTINUOUS
10
179.685
20
-138.75
11
179.685
21
-138.845
0
LINE
8
BLACK
6
CONTINUOUS
10
179.685
20
-138.845
11
179.68
21
-138.871
0
LINE
8
BLACK
6
CONTINUOUS
10
179.68
20
-138.871
11
179.672
21
-138.88
0
LINE
8
BLACK
6
CONTINUOUS
10
179.672
20
-138.88
11
179.668
21
-138.892
0
LINE
8
BLACK
6
CONTINUOUS
10
179.668
20
-138.892
11
179.656
21
-138.899
0
LINE
8
BLACK
6
CONTINUOUS
10
179.656
20
-138.899
11
179.647
21
-138.91
0
LINE
8
BLACK
6
CONTINUOUS
10
179.647
20
-138.91
11
179.635
21
-138.912
0
LINE
8
BLACK
6
CONTINUOUS
10
179.635
20
-138.912
11
179.625
21
-138.919
0
LINE
8
BLACK
6
CONTINUOUS
10
179.625
20
-138.919
11
179.209
21
-139.002
0
LINE
8
BLACK
6
CONTINUOUS
10
179.209
20
-139.002
11
179.209
21
-139.113
0
LINE
8
BLACK
6
CONTINUOUS
10
179.209
20
-139.113
11
179.237
21
-139.17
0
LINE
8
BLACK
6
CONTINUOUS
10
179.237
20
-139.17
11
179.294
21
-139.199
0
LINE
8
BLACK
6
CONTINUOUS
10
179.294
20
-139.199
11
179.449
21
-139.199
0
LINE
8
BLACK
6
CONTINUOUS
10
179.449
20
-139.199
11
179.529
21
-139.159
0
LINE
8
BLACK
6
CONTINUOUS
10
179.529
20
-139.159
11
179.554
21
-139.152
0
LINE
8
BLACK
6
CONTINUOUS
10
179.554
20
-139.152
11
179.604
21
-139.163
0
LINE
8
BLACK
6
CONTINUOUS
10
179.604
20
-139.163
11
179.634
21
-139.205
0
LINE
8
BLACK
6
CONTINUOUS
10
179.634
20
-139.205
11
179.631
21
-139.256
0
LINE
8
BLACK
6
CONTINUOUS
10
179.631
20
-139.256
11
179.596
21
-139.293
0
LINE
8
BLACK
6
CONTINUOUS
10
179.596
20
-139.293
11
179.501
21
-139.341
0
LINE
8
BLACK
6
CONTINUOUS
10
179.501
20
-139.341
11
179.476
21
-139.348
0
LINE
8
BLACK
6
CONTINUOUS
10
179.476
20
-139.348
11
179.471
21
-139.347
0
LINE
8
BLACK
6
CONTINUOUS
10
179.471
20
-139.347
11
179.467
21
-139.349
0
LINE
8
BLACK
6
CONTINUOUS
10
179.467
20
-139.349
11
179.276
21
-139.349
0
LINE
8
BLACK
6
CONTINUOUS
10
179.276
20
-139.349
11
179.251
21
-139.344
0
LINE
8
BLACK
6
CONTINUOUS
10
179.251
20
-139.344
11
179.247
21
-139.341
0
LINE
8
BLACK
6
CONTINUOUS
10
179.247
20
-139.341
11
179.243
21
-139.341
0
LINE
8
BLACK
6
CONTINUOUS
10
179.243
20
-139.341
11
179.148
21
-139.293
0
LINE
8
BLACK
6
CONTINUOUS
10
179.148
20
-139.293
11
179.127
21
-139.278
0
LINE
8
BLACK
6
CONTINUOUS
10
179.127
20
-139.278
11
179.122
21
-139.267
0
LINE
8
BLACK
6
CONTINUOUS
10
179.122
20
-139.267
11
179.114
21
-139.26
0
LINE
8
BLACK
6
CONTINUOUS
10
179.114
20
-139.26
11
179.067
21
-139.164
0
LINE
8
BLACK
6
CONTINUOUS
10
179.067
20
-139.164
11
179.059
21
-139.139
0
LINE
8
BLACK
6
CONTINUOUS
10
179.059
20
-139.139
11
179.06
21
-139.135
0
LINE
8
BLACK
6
CONTINUOUS
10
179.06
20
-139.135
11
179.059
21
-139.131
0
LINE
8
BLACK
6
CONTINUOUS
10
179.059
20
-139.131
11
179.059
21
-138.75
0
LINE
8
BLACK
6
CONTINUOUS
10
179.059
20
-138.75
11
179.063
21
-138.724
0
LINE
8
BLACK
6
CONTINUOUS
10
179.063
20
-138.724
11
179.066
21
-138.721
0
LINE
8
BLACK
6
CONTINUOUS
10
179.066
20
-138.721
11
179.067
21
-138.716
0
LINE
8
BLACK
6
CONTINUOUS
10
179.067
20
-138.716
11
179.114
21
-138.621
0
LINE
8
BLACK
6
CONTINUOUS
10
179.114
20
-138.621
11
179.13
21
-138.6
0
LINE
8
BLACK
6
CONTINUOUS
10
179.13
20
-138.6
11
179.14
21
-138.596
0
LINE
8
BLACK
6
CONTINUOUS
10
179.14
20
-138.596
11
179.148
21
-138.588
0
LINE
8
BLACK
6
CONTINUOUS
10
179.148
20
-138.588
11
179.243
21
-138.54
0
LINE
8
BLACK
6
CONTINUOUS
10
179.243
20
-138.54
11
179.268
21
-138.532
0
LINE
8
BLACK
6
CONTINUOUS
10
179.268
20
-138.532
11
179.272
21
-138.533
0
LINE
8
BLACK
6
CONTINUOUS
10
179.272
20
-138.533
11
179.276
21
-138.532
0
LINE
8
BLACK
6
CONTINUOUS
10
179.276
20
-138.532
11
179.467
21
-138.532
0
LINE
8
BLACK
6
CONTINUOUS
10
179.467
20
-138.532
11
179.493
21
-138.536
0
LINE
8
BLACK
6
CONTINUOUS
10
179.294
20
-138.682
11
179.237
21
-138.71
0
LINE
8
BLACK
6
CONTINUOUS
10
179.237
20
-138.71
11
179.209
21
-138.768
0
LINE
8
BLACK
6
CONTINUOUS
10
179.209
20
-138.768
11
179.209
21
-138.849
0
LINE
8
BLACK
6
CONTINUOUS
10
179.209
20
-138.849
11
179.535
21
-138.784
0
LINE
8
BLACK
6
CONTINUOUS
10
179.535
20
-138.784
11
179.535
21
-138.768
0
LINE
8
BLACK
6
CONTINUOUS
10
179.535
20
-138.768
11
179.506
21
-138.71
0
LINE
8
BLACK
6
CONTINUOUS
10
179.506
20
-138.71
11
179.449
21
-138.682
0
LINE
8
BLACK
6
CONTINUOUS
10
179.449
20
-138.682
11
179.294
21
-138.682
0
LINE
8
BLACK
6
CONTINUOUS
10
178.874
20
-138.536
11
178.913
21
-138.569
0
LINE
8
BLACK
6
CONTINUOUS
10
178.913
20
-138.569
11
178.922
21
-138.62
0
LINE
8
BLACK
6
CONTINUOUS
10
178.922
20
-138.62
11
178.896
21
-138.664
0
LINE
8
BLACK
6
CONTINUOUS
10
178.896
20
-138.664
11
178.848
21
-138.682
0
LINE
8
BLACK
6
CONTINUOUS
10
178.848
20
-138.682
11
178.77
21
-138.682
0
LINE
8
BLACK
6
CONTINUOUS
10
178.77
20
-138.682
11
178.702
21
-138.716
0
LINE
8
BLACK
6
CONTINUOUS
10
178.702
20
-138.716
11
178.671
21
-138.747
0
LINE
8
BLACK
6
CONTINUOUS
10
178.671
20
-138.747
11
178.637
21
-138.815
0
LINE
8
BLACK
6
CONTINUOUS
10
178.637
20
-138.815
11
178.637
21
-139.274
0
LINE
8
BLACK
6
CONTINUOUS
10
178.637
20
-139.274
11
178.633
21
-139.299
0
LINE
8
BLACK
6
CONTINUOUS
10
178.633
20
-139.299
11
178.6
21
-139.339
0
LINE
8
BLACK
6
CONTINUOUS
10
178.6
20
-139.339
11
178.549
21
-139.347
0
LINE
8
BLACK
6
CONTINUOUS
10
178.549
20
-139.347
11
178.505
21
-139.322
0
LINE
8
BLACK
6
CONTINUOUS
10
178.505
20
-139.322
11
178.487
21
-139.274
0
LINE
8
BLACK
6
CONTINUOUS
10
178.487
20
-139.274
11
178.487
21
-138.607
0
LINE
8
BLACK
6
CONTINUOUS
10
178.487
20
-138.607
11
178.492
21
-138.581
0
LINE
8
BLACK
6
CONTINUOUS
10
178.492
20
-138.581
11
178.525
21
-138.542
0
LINE
8
BLACK
6
CONTINUOUS
10
178.525
20
-138.542
11
178.575
21
-138.533
0
LINE
8
BLACK
6
CONTINUOUS
10
178.575
20
-138.533
11
178.62
21
-138.559
0
LINE
8
BLACK
6
CONTINUOUS
10
178.62
20
-138.559
11
178.629
21
-138.585
0
LINE
8
BLACK
6
CONTINUOUS
10
178.629
20
-138.585
11
178.719
21
-138.54
0
LINE
8
BLACK
6
CONTINUOUS
10
178.719
20
-138.54
11
178.744
21
-138.532
0
LINE
8
BLACK
6
CONTINUOUS
10
178.744
20
-138.532
11
178.748
21
-138.533
0
LINE
8
BLACK
6
CONTINUOUS
10
178.748
20
-138.533
11
178.753
21
-138.532
0
LINE
8
BLACK
6
CONTINUOUS
10
178.753
20
-138.532
11
178.848
21
-138.532
0
LINE
8
BLACK
6
CONTINUOUS
10
178.848
20
-138.532
11
178.874
21
-138.536
0
LINE
8
BLACK
6
CONTINUOUS
10
130.707
20
-134.59
11
130.724
21
-134.638
0
LINE
8
BLACK
6
CONTINUOUS
10
130.724
20
-134.638
11
130.724
21
-135.305
0
LINE
8
BLACK
6
CONTINUOUS
10
130.724
20
-135.305
11
130.72
21
-135.331
0
LINE
8
BLACK
6
CONTINUOUS
10
130.72
20
-135.331
11
130.687
21
-135.37
0
LINE
8
BLACK
6
CONTINUOUS
10
130.687
20
-135.37
11
130.636
21
-135.379
0
LINE
8
BLACK
6
CONTINUOUS
10
130.636
20
-135.379
11
130.592
21
-135.353
0
LINE
8
BLACK
6
CONTINUOUS
10
130.592
20
-135.353
11
130.59
21
-135.347
0
LINE
8
BLACK
6
CONTINUOUS
10
130.59
20
-135.347
11
130.54
21
-135.372
0
LINE
8
BLACK
6
CONTINUOUS
10
130.54
20
-135.372
11
130.515
21
-135.379
0
LINE
8
BLACK
6
CONTINUOUS
10
130.515
20
-135.379
11
130.511
21
-135.378
0
LINE
8
BLACK
6
CONTINUOUS
10
130.511
20
-135.378
11
130.507
21
-135.38
0
LINE
8
BLACK
6
CONTINUOUS
10
130.507
20
-135.38
11
130.364
21
-135.38
0
LINE
8
BLACK
6
CONTINUOUS
10
130.364
20
-135.38
11
130.338
21
-135.375
0
LINE
8
BLACK
6
CONTINUOUS
10
130.338
20
-135.375
11
130.335
21
-135.372
0
LINE
8
BLACK
6
CONTINUOUS
10
130.335
20
-135.372
11
130.33
21
-135.372
0
LINE
8
BLACK
6
CONTINUOUS
10
130.33
20
-135.372
11
130.235
21
-135.324
0
LINE
8
BLACK
6
CONTINUOUS
10
130.235
20
-135.324
11
130.214
21
-135.309
0
LINE
8
BLACK
6
CONTINUOUS
10
130.214
20
-135.309
11
130.21
21
-135.299
0
LINE
8
BLACK
6
CONTINUOUS
10
130.21
20
-135.299
11
130.201
21
-135.291
0
LINE
8
BLACK
6
CONTINUOUS
10
130.201
20
-135.291
11
130.154
21
-135.196
0
LINE
8
BLACK
6
CONTINUOUS
10
130.154
20
-135.196
11
130.146
21
-135.171
0
LINE
8
BLACK
6
CONTINUOUS
10
130.146
20
-135.171
11
130.147
21
-135.166
0
LINE
8
BLACK
6
CONTINUOUS
10
130.147
20
-135.166
11
130.146
21
-135.162
0
LINE
8
BLACK
6
CONTINUOUS
10
130.146
20
-135.162
11
130.146
21
-134.638
0
LINE
8
BLACK
6
CONTINUOUS
10
130.146
20
-134.638
11
130.15
21
-134.613
0
LINE
8
BLACK
6
CONTINUOUS
10
130.15
20
-134.613
11
130.183
21
-134.573
0
LINE
8
BLACK
6
CONTINUOUS
10
130.183
20
-134.573
11
130.234
21
-134.564
0
LINE
8
BLACK
6
CONTINUOUS
10
130.234
20
-134.564
11
130.278
21
-134.59
0
LINE
8
BLACK
6
CONTINUOUS
10
130.278
20
-134.59
11
130.296
21
-134.638
0
LINE
8
BLACK
6
CONTINUOUS
10
130.296
20
-134.638
11
130.296
21
-135.144
0
LINE
8
BLACK
6
CONTINUOUS
10
130.296
20
-135.144
11
130.324
21
-135.201
0
LINE
8
BLACK
6
CONTINUOUS
10
130.324
20
-135.201
11
130.381
21
-135.23
0
LINE
8
BLACK
6
CONTINUOUS
10
130.381
20
-135.23
11
130.489
21
-135.23
0
LINE
8
BLACK
6
CONTINUOUS
10
130.489
20
-135.23
11
130.557
21
-135.196
0
LINE
8
BLACK
6
CONTINUOUS
10
130.557
20
-135.196
11
130.574
21
-135.179
0
LINE
8
BLACK
6
CONTINUOUS
10
130.574
20
-135.179
11
130.574
21
-134.638
0
LINE
8
BLACK
6
CONTINUOUS
10
130.574
20
-134.638
11
130.579
21
-134.613
0
LINE
8
BLACK
6
CONTINUOUS
10
130.579
20
-134.613
11
130.612
21
-134.573
0
LINE
8
BLACK
6
CONTINUOUS
10
130.612
20
-134.573
11
130.662
21
-134.564
0
LINE
8
BLACK
6
CONTINUOUS
10
130.662
20
-134.564
11
130.707
21
-134.59
0
LINE
8
BLACK
6
CONTINUOUS
10
127.027
20
-134.234
11
127.067
21
-134.267
0
LINE
8
BLACK
6
CONTINUOUS
10
127.067
20
-134.267
11
127.076
21
-134.318
0
LINE
8
BLACK
6
CONTINUOUS
10
127.076
20
-134.318
11
127.05
21
-134.362
0
LINE
8
BLACK
6
CONTINUOUS
10
127.05
20
-134.362
11
127.002
21
-134.38
0
LINE
8
BLACK
6
CONTINUOUS
10
127.002
20
-134.38
11
126.601
21
-134.38
0
LINE
8
BLACK
6
CONTINUOUS
10
126.601
20
-134.38
11
126.601
21
-134.706
0
LINE
8
BLACK
6
CONTINUOUS
10
126.601
20
-134.706
11
126.859
21
-134.706
0
LINE
8
BLACK
6
CONTINUOUS
10
126.859
20
-134.706
11
126.885
21
-134.711
0
LINE
8
BLACK
6
CONTINUOUS
10
126.885
20
-134.711
11
126.924
21
-134.744
0
LINE
8
BLACK
6
CONTINUOUS
10
126.924
20
-134.744
11
126.933
21
-134.794
0
LINE
8
BLACK
6
CONTINUOUS
10
126.933
20
-134.794
11
126.907
21
-134.839
0
LINE
8
BLACK
6
CONTINUOUS
10
126.907
20
-134.839
11
126.859
21
-134.856
0
LINE
8
BLACK
6
CONTINUOUS
10
126.859
20
-134.856
11
126.601
21
-134.856
0
LINE
8
BLACK
6
CONTINUOUS
10
126.601
20
-134.856
11
126.601
21
-135.23
0
LINE
8
BLACK
6
CONTINUOUS
10
126.601
20
-135.23
11
127.002
21
-135.23
0
LINE
8
BLACK
6
CONTINUOUS
10
127.002
20
-135.23
11
127.027
21
-135.234
0
LINE
8
BLACK
6
CONTINUOUS
10
127.027
20
-135.234
11
127.067
21
-135.267
0
LINE
8
BLACK
6
CONTINUOUS
10
127.067
20
-135.267
11
127.076
21
-135.318
0
LINE
8
BLACK
6
CONTINUOUS
10
127.076
20
-135.318
11
127.05
21
-135.362
0
LINE
8
BLACK
6
CONTINUOUS
10
127.05
20
-135.362
11
127.002
21
-135.38
0
LINE
8
BLACK
6
CONTINUOUS
10
127.002
20
-135.38
11
126.526
21
-135.38
0
LINE
8
BLACK
6
CONTINUOUS
10
126.526
20
-135.38
11
126.516
21
-135.378
0
LINE
8
BLACK
6
CONTINUOUS
10
126.516
20
-135.378
11
126.513
21
-135.379
0
LINE
8
BLACK
6
CONTINUOUS
10
126.513
20
-135.379
11
126.51
21
-135.377
0
LINE
8
BLACK
6
CONTINUOUS
10
126.51
20
-135.377
11
126.5
21
-135.375
0
LINE
8
BLACK
6
CONTINUOUS
10
126.5
20
-135.375
11
126.485
21
-135.363
0
LINE
8
BLACK
6
CONTINUOUS
10
126.485
20
-135.363
11
126.468
21
-135.353
0
LINE
8
BLACK
6
CONTINUOUS
10
126.468
20
-135.353
11
126.466
21
-135.347
0
LINE
8
BLACK
6
CONTINUOUS
10
126.466
20
-135.347
11
126.461
21
-135.342
0
LINE
8
BLACK
6
CONTINUOUS
10
126.461
20
-135.342
11
126.457
21
-135.323
0
LINE
8
BLACK
6
CONTINUOUS
10
126.457
20
-135.323
11
126.451
21
-135.305
0
LINE
8
BLACK
6
CONTINUOUS
10
126.451
20
-135.305
11
126.451
21
-134.305
0
LINE
8
BLACK
6
CONTINUOUS
10
126.451
20
-134.305
11
126.452
21
-134.295
0
LINE
8
BLACK
6
CONTINUOUS
10
126.452
20
-134.295
11
126.452
21
-134.292
0
LINE
8
BLACK
6
CONTINUOUS
10
126.452
20
-134.292
11
126.453
21
-134.289
0
LINE
8
BLACK
6
CONTINUOUS
10
126.453
20
-134.289
11
126.455
21
-134.279
0
LINE
8
BLACK
6
CONTINUOUS
10
126.455
20
-134.279
11
126.468
21
-134.264
0
LINE
8
BLACK
6
CONTINUOUS
10
126.468
20
-134.264
11
126.477
21
-134.247
0
LINE
8
BLACK
6
CONTINUOUS
10
126.477
20
-134.247
11
126.484
21
-134.245
0
LINE
8
BLACK
6
CONTINUOUS
10
126.484
20
-134.245
11
126.488
21
-134.24
0
LINE
8
BLACK
6
CONTINUOUS
10
126.488
20
-134.24
11
126.507
21
-134.237
0
LINE
8
BLACK
6
CONTINUOUS
10
126.507
20
-134.237
11
126.526
21
-134.23
0
LINE
8
BLACK
6
CONTINUOUS
10
126.526
20
-134.23
11
127.002
21
-134.23
0
LINE
8
BLACK
6
CONTINUOUS
10
127.002
20
-134.23
11
127.027
21
-134.234
0
LINE
8
BLACK
6
CONTINUOUS
10
125.885
20
-134.234
11
125.888
21
-134.237
0
LINE
8
BLACK
6
CONTINUOUS
10
125.888
20
-134.237
11
125.892
21
-134.238
0
LINE
8
BLACK
6
CONTINUOUS
10
125.892
20
-134.238
11
125.988
21
-134.285
0
LINE
8
BLACK
6
CONTINUOUS
10
125.988
20
-134.285
11
126.006
21
-134.299
0
LINE
8
BLACK
6
CONTINUOUS
10
126.006
20
-134.299
11
126.007
21
-134.299
0
LINE
8
BLACK
6
CONTINUOUS
10
126.007
20
-134.299
11
126.102
21
-134.395
0
LINE
8
BLACK
6
CONTINUOUS
10
126.102
20
-134.395
11
126.117
21
-134.416
0
LINE
8
BLACK
6
CONTINUOUS
10
126.117
20
-134.416
11
126.118
21
-134.423
0
LINE
8
BLACK
6
CONTINUOUS
10
126.118
20
-134.423
11
126.122
21
-134.43
0
LINE
8
BLACK
6
CONTINUOUS
10
126.122
20
-134.43
11
126.17
21
-134.62
0
LINE
8
BLACK
6
CONTINUOUS
10
126.17
20
-134.62
11
126.171
21
-134.635
0
LINE
8
BLACK
6
CONTINUOUS
10
126.171
20
-134.635
11
126.172
21
-134.638
0
LINE
8
BLACK
6
CONTINUOUS
10
126.172
20
-134.638
11
126.172
21
-134.972
0
LINE
8
BLACK
6
CONTINUOUS
10
126.172
20
-134.972
11
126.169
21
-134.986
0
LINE
8
BLACK
6
CONTINUOUS
10
126.169
20
-134.986
11
126.17
21
-134.99
0
LINE
8
BLACK
6
CONTINUOUS
10
126.17
20
-134.99
11
126.122
21
-135.18
0
LINE
8
BLACK
6
CONTINUOUS
10
126.122
20
-135.18
11
126.112
21
-135.204
0
LINE
8
BLACK
6
CONTINUOUS
10
126.112
20
-135.204
11
126.106
21
-135.208
0
LINE
8
BLACK
6
CONTINUOUS
10
126.106
20
-135.208
11
126.102
21
-135.215
0
LINE
8
BLACK
6
CONTINUOUS
10
126.102
20
-135.215
11
126.007
21
-135.31
0
LINE
8
BLACK
6
CONTINUOUS
10
126.007
20
-135.31
11
125.989
21
-135.323
0
LINE
8
BLACK
6
CONTINUOUS
10
125.989
20
-135.323
11
125.988
21
-135.324
0
LINE
8
BLACK
6
CONTINUOUS
10
125.988
20
-135.324
11
125.892
21
-135.372
0
LINE
8
BLACK
6
CONTINUOUS
10
125.892
20
-135.372
11
125.868
21
-135.379
0
LINE
8
BLACK
6
CONTINUOUS
10
125.868
20
-135.379
11
125.863
21
-135.378
0
LINE
8
BLACK
6
CONTINUOUS
10
125.863
20
-135.378
11
125.859
21
-135.38
0
LINE
8
BLACK
6
CONTINUOUS
10
125.859
20
-135.38
11
125.668
21
-135.38
0
LINE
8
BLACK
6
CONTINUOUS
10
125.668
20
-135.38
11
125.643
21
-135.375
0
LINE
8
BLACK
6
CONTINUOUS
10
125.643
20
-135.375
11
125.639
21
-135.372
0
LINE
8
BLACK
6
CONTINUOUS
10
125.639
20
-135.372
11
125.635
21
-135.372
0
LINE
8
BLACK
6
CONTINUOUS
10
125.635
20
-135.372
11
125.54
21
-135.324
0
LINE
8
BLACK
6
CONTINUOUS
10
125.54
20
-135.324
11
125.522
21
-135.311
0
LINE
8
BLACK
6
CONTINUOUS
10
125.522
20
-135.311
11
125.52
21
-135.31
0
LINE
8
BLACK
6
CONTINUOUS
10
125.52
20
-135.31
11
125.425
21
-135.215
0
LINE
8
BLACK
6
CONTINUOUS
10
125.425
20
-135.215
11
125.41
21
-135.194
0
LINE
8
BLACK
6
CONTINUOUS
10
125.41
20
-135.194
11
125.409
21
-135.186
0
LINE
8
BLACK
6
CONTINUOUS
10
125.409
20
-135.186
11
125.405
21
-135.18
0
LINE
8
BLACK
6
CONTINUOUS
10
125.405
20
-135.18
11
125.358
21
-134.99
0
LINE
8
BLACK
6
CONTINUOUS
10
125.358
20
-134.99
11
125.357
21
-134.975
0
LINE
8
BLACK
6
CONTINUOUS
10
125.357
20
-134.975
11
125.355
21
-134.972
0
LINE
8
BLACK
6
CONTINUOUS
10
125.355
20
-134.972
11
125.355
21
-134.638
0
LINE
8
BLACK
6
CONTINUOUS
10
125.355
20
-134.638
11
125.358
21
-134.623
0
LINE
8
BLACK
6
CONTINUOUS
10
125.358
20
-134.623
11
125.358
21
-134.62
0
LINE
8
BLACK
6
CONTINUOUS
10
125.358
20
-134.62
11
125.405
21
-134.43
0
LINE
8
BLACK
6
CONTINUOUS
10
125.405
20
-134.43
11
125.416
21
-134.406
0
LINE
8
BLACK
6
CONTINUOUS
10
125.416
20
-134.406
11
125.422
21
-134.401
0
LINE
8
BLACK
6
CONTINUOUS
10
125.422
20
-134.401
11
125.425
21
-134.395
0
LINE
8
BLACK
6
CONTINUOUS
10
125.425
20
-134.395
11
125.52
21
-134.299
0
LINE
8
BLACK
6
CONTINUOUS
10
125.52
20
-134.299
11
125.539
21
-134.287
0
LINE
8
BLACK
6
CONTINUOUS
10
125.539
20
-134.287
11
125.54
21
-134.285
0
LINE
8
BLACK
6
CONTINUOUS
10
125.54
20
-134.285
11
125.635
21
-134.238
0
LINE
8
BLACK
6
CONTINUOUS
10
125.635
20
-134.238
11
125.66
21
-134.23
0
LINE
8
BLACK
6
CONTINUOUS
10
125.66
20
-134.23
11
125.664
21
-134.231
0
LINE
8
BLACK
6
CONTINUOUS
10
125.664
20
-134.231
11
125.668
21
-134.23
0
LINE
8
BLACK
6
CONTINUOUS
10
125.668
20
-134.23
11
125.859
21
-134.23
0
LINE
8
BLACK
6
CONTINUOUS
10
125.859
20
-134.23
11
125.885
21
-134.234
0
LINE
8
BLACK
6
CONTINUOUS
10
125.686
20
-134.38
11
125.618
21
-134.414
0
LINE
8
BLACK
6
CONTINUOUS
10
125.618
20
-134.414
11
125.546
21
-134.486
0
LINE
8
BLACK
6
CONTINUOUS
10
125.546
20
-134.486
11
125.505
21
-134.647
0
LINE
8
BLACK
6
CONTINUOUS
10
125.505
20
-134.647
11
125.505
21
-134.962
0
LINE
8
BLACK
6
CONTINUOUS
10
125.505
20
-134.962
11
125.546
21
-135.124
0
LINE
8
BLACK
6
CONTINUOUS
10
125.546
20
-135.124
11
125.618
21
-135.196
0
LINE
8
BLACK
6
CONTINUOUS
10
125.618
20
-135.196
11
125.686
21
-135.23
0
LINE
8
BLACK
6
CONTINUOUS
10
125.686
20
-135.23
11
125.841
21
-135.23
0
LINE
8
BLACK
6
CONTINUOUS
10
125.841
20
-135.23
11
125.91
21
-135.196
0
LINE
8
BLACK
6
CONTINUOUS
10
125.91
20
-135.196
11
125.982
21
-135.124
0
LINE
8
BLACK
6
CONTINUOUS
10
125.982
20
-135.124
11
126.022
21
-134.962
0
LINE
8
BLACK
6
CONTINUOUS
10
126.022
20
-134.962
11
126.022
21
-134.647
0
LINE
8
BLACK
6
CONTINUOUS
10
126.022
20
-134.647
11
125.982
21
-134.486
0
LINE
8
BLACK
6
CONTINUOUS
10
125.982
20
-134.486
11
125.91
21
-134.414
0
LINE
8
BLACK
6
CONTINUOUS
10
125.91
20
-134.414
11
125.841
21
-134.38
0
LINE
8
BLACK
6
CONTINUOUS
10
125.841
20
-134.38
11
125.686
21
-134.38
0
LINE
8
BLACK
6
CONTINUOUS
10
129.802
20
-134.257
11
129.82
21
-134.305
0
LINE
8
BLACK
6
CONTINUOUS
10
129.82
20
-134.305
11
129.82
21
-135.305
0
LINE
8
BLACK
6
CONTINUOUS
10
129.82
20
-135.305
11
129.815
21
-135.331
0
LINE
8
BLACK
6
CONTINUOUS
10
129.815
20
-135.331
11
129.782
21
-135.37
0
LINE
8
BLACK
6
CONTINUOUS
10
129.782
20
-135.37
11
129.732
21
-135.379
0
LINE
8
BLACK
6
CONTINUOUS
10
129.732
20
-135.379
11
129.687
21
-135.353
0
LINE
8
BLACK
6
CONTINUOUS
10
129.687
20
-135.353
11
129.67
21
-135.305
0
LINE
8
BLACK
6
CONTINUOUS
10
129.67
20
-135.305
11
129.67
21
-134.856
0
LINE
8
BLACK
6
CONTINUOUS
10
129.67
20
-134.856
11
129.248
21
-134.856
0
LINE
8
BLACK
6
CONTINUOUS
10
129.248
20
-134.856
11
129.248
21
-135.305
0
LINE
8
BLACK
6
CONTINUOUS
10
129.248
20
-135.305
11
129.244
21
-135.331
0
LINE
8
BLACK
6
CONTINUOUS
10
129.244
20
-135.331
11
129.211
21
-135.37
0
LINE
8
BLACK
6
CONTINUOUS
10
129.211
20
-135.37
11
129.16
21
-135.379
0
LINE
8
BLACK
6
CONTINUOUS
10
129.16
20
-135.379
11
129.116
21
-135.353
0
LINE
8
BLACK
6
CONTINUOUS
10
129.116
20
-135.353
11
129.098
21
-135.305
0
LINE
8
BLACK
6
CONTINUOUS
10
129.098
20
-135.305
11
129.098
21
-134.305
0
LINE
8
BLACK
6
CONTINUOUS
10
129.098
20
-134.305
11
129.103
21
-134.279
0
LINE
8
BLACK
6
CONTINUOUS
10
129.103
20
-134.279
11
129.136
21
-134.24
0
LINE
8
BLACK
6
CONTINUOUS
10
129.136
20
-134.24
11
129.186
21
-134.231
0
LINE
8
BLACK
6
CONTINUOUS
10
129.186
20
-134.231
11
129.231
21
-134.257
0
LINE
8
BLACK
6
CONTINUOUS
10
129.231
20
-134.257
11
129.248
21
-134.305
0
LINE
8
BLACK
6
CONTINUOUS
10
129.248
20
-134.305
11
129.248
21
-134.706
0
LINE
8
BLACK
6
CONTINUOUS
10
129.248
20
-134.706
11
129.67
21
-134.706
0
LINE
8
BLACK
6
CONTINUOUS
10
129.67
20
-134.706
11
129.67
21
-134.305
0
LINE
8
BLACK
6
CONTINUOUS
10
129.67
20
-134.305
11
129.674
21
-134.279
0
LINE
8
BLACK
6
CONTINUOUS
10
129.674
20
-134.279
11
129.707
21
-134.24
0
LINE
8
BLACK
6
CONTINUOUS
10
129.707
20
-134.24
11
129.758
21
-134.231
0
LINE
8
BLACK
6
CONTINUOUS
10
129.758
20
-134.231
11
129.802
21
-134.257
0
LINE
8
BLACK
6
CONTINUOUS
10
128.1
20
-134.233
11
128.11
21
-134.231
0
LINE
8
BLACK
6
CONTINUOUS
10
128.11
20
-134.231
11
128.124
21
-134.239
0
LINE
8
BLACK
6
CONTINUOUS
10
128.124
20
-134.239
11
128.14
21
-134.243
0
LINE
8
BLACK
6
CONTINUOUS
10
128.14
20
-134.243
11
128.146
21
-134.252
0
LINE
8
BLACK
6
CONTINUOUS
10
128.146
20
-134.252
11
128.154
21
-134.257
0
LINE
8
BLACK
6
CONTINUOUS
10
128.154
20
-134.257
11
128.16
21
-134.272
0
LINE
8
BLACK
6
CONTINUOUS
10
128.16
20
-134.272
11
128.169
21
-134.285
0
LINE
8
BLACK
6
CONTINUOUS
10
128.169
20
-134.285
11
128.169
21
-134.295
0
LINE
8
BLACK
6
CONTINUOUS
10
128.169
20
-134.295
11
128.172
21
-134.305
0
LINE
8
BLACK
6
CONTINUOUS
10
128.172
20
-134.305
11
128.172
21
-135.305
0
LINE
8
BLACK
6
CONTINUOUS
10
128.172
20
-135.305
11
128.167
21
-135.331
0
LINE
8
BLACK
6
CONTINUOUS
10
128.167
20
-135.331
11
128.135
21
-135.37
0
LINE
8
BLACK
6
CONTINUOUS
10
128.135
20
-135.37
11
128.084
21
-135.379
0
LINE
8
BLACK
6
CONTINUOUS
10
128.084
20
-135.379
11
128.04
21
-135.353
0
LINE
8
BLACK
6
CONTINUOUS
10
128.04
20
-135.353
11
128.022
21
-135.305
0
LINE
8
BLACK
6
CONTINUOUS
10
128.022
20
-135.305
11
128.022
21
-134.643
0
LINE
8
BLACK
6
CONTINUOUS
10
128.022
20
-134.643
11
127.832
21
-135.051
0
LINE
8
BLACK
6
CONTINUOUS
10
127.832
20
-135.051
11
127.826
21
-135.059
0
LINE
8
BLACK
6
CONTINUOUS
10
127.826
20
-135.059
11
127.825
21
-135.062
0
LINE
8
BLACK
6
CONTINUOUS
10
127.825
20
-135.062
11
127.822
21
-135.064
0
LINE
8
BLACK
6
CONTINUOUS
10
127.822
20
-135.064
11
127.817
21
-135.072
0
LINE
8
BLACK
6
CONTINUOUS
10
127.817
20
-135.072
11
127.799
21
-135.08
0
LINE
8
BLACK
6
CONTINUOUS
10
127.799
20
-135.08
11
127.783
21
-135.092
0
LINE
8
BLACK
6
CONTINUOUS
10
127.783
20
-135.092
11
127.776
21
-135.091
0
LINE
8
BLACK
6
CONTINUOUS
10
127.776
20
-135.091
11
127.77
21
-135.094
0
LINE
8
BLACK
6
CONTINUOUS
10
127.77
20
-135.094
11
127.751
21
-135.089
0
LINE
8
BLACK
6
CONTINUOUS
10
127.751
20
-135.089
11
127.732
21
-135.087
0
LINE
8
BLACK
6
CONTINUOUS
10
127.732
20
-135.087
11
127.727
21
-135.082
0
LINE
8
BLACK
6
CONTINUOUS
10
127.727
20
-135.082
11
127.721
21
-135.081
0
LINE
8
BLACK
6
CONTINUOUS
10
127.721
20
-135.081
11
127.709
21
-135.065
0
LINE
8
BLACK
6
CONTINUOUS
10
127.709
20
-135.065
11
127.696
21
-135.051
0
LINE
8
BLACK
6
CONTINUOUS
10
127.696
20
-135.051
11
127.505
21
-134.643
0
LINE
8
BLACK
6
CONTINUOUS
10
127.505
20
-134.643
11
127.505
21
-135.305
0
LINE
8
BLACK
6
CONTINUOUS
10
127.505
20
-135.305
11
127.501
21
-135.331
0
LINE
8
BLACK
6
CONTINUOUS
10
127.501
20
-135.331
11
127.468
21
-135.37
0
LINE
8
BLACK
6
CONTINUOUS
10
127.468
20
-135.37
11
127.417
21
-135.379
0
LINE
8
BLACK
6
CONTINUOUS
10
127.417
20
-135.379
11
127.373
21
-135.353
0
LINE
8
BLACK
6
CONTINUOUS
10
127.373
20
-135.353
11
127.355
21
-135.305
0
LINE
8
BLACK
6
CONTINUOUS
10
127.355
20
-135.305
11
127.355
21
-134.305
0
LINE
8
BLACK
6
CONTINUOUS
10
127.355
20
-134.305
11
127.36
21
-134.279
0
LINE
8
BLACK
6
CONTINUOUS
10
127.36
20
-134.279
11
127.366
21
-134.272
0
LINE
8
BLACK
6
CONTINUOUS
10
127.366
20
-134.272
11
127.369
21
-134.262
0
LINE
8
BLACK
6
CONTINUOUS
10
127.369
20
-134.262
11
127.382
21
-134.252
0
LINE
8
BLACK
6
CONTINUOUS
10
127.382
20
-134.252
11
127.393
21
-134.24
0
LINE
8
BLACK
6
CONTINUOUS
10
127.393
20
-134.24
11
127.403
21
-134.238
0
LINE
8
BLACK
6
CONTINUOUS
10
127.403
20
-134.238
11
127.411
21
-134.232
0
LINE
8
BLACK
6
CONTINUOUS
10
127.411
20
-134.232
11
127.427
21
-134.234
0
LINE
8
BLACK
6
CONTINUOUS
10
127.427
20
-134.234
11
127.443
21
-134.231
0
LINE
8
BLACK
6
CONTINUOUS
10
127.443
20
-134.231
11
127.452
21
-134.236
0
LINE
8
BLACK
6
CONTINUOUS
10
127.452
20
-134.236
11
127.462
21
-134.237
0
LINE
8
BLACK
6
CONTINUOUS
10
127.462
20
-134.237
11
127.474
21
-134.248
0
LINE
8
BLACK
6
CONTINUOUS
10
127.474
20
-134.248
11
127.488
21
-134.257
0
LINE
8
BLACK
6
CONTINUOUS
10
127.488
20
-134.257
11
127.491
21
-134.266
0
LINE
8
BLACK
6
CONTINUOUS
10
127.491
20
-134.266
11
127.498
21
-134.273
0
LINE
8
BLACK
6
CONTINUOUS
10
127.498
20
-134.273
11
127.764
21
-134.842
0
LINE
8
BLACK
6
CONTINUOUS
10
127.764
20
-134.842
11
128.029
21
-134.273
0
LINE
8
BLACK
6
CONTINUOUS
10
128.029
20
-134.273
11
128.044
21
-134.252
0
LINE
8
BLACK
6
CONTINUOUS
10
128.044
20
-134.252
11
128.053
21
-134.248
0
LINE
8
BLACK
6
CONTINUOUS
10
128.053
20
-134.248
11
128.06
21
-134.24
0
LINE
8
BLACK
6
CONTINUOUS
10
128.06
20
-134.24
11
128.076
21
-134.237
0
LINE
8
BLACK
6
CONTINUOUS
10
128.076
20
-134.237
11
128.091
21
-134.23
0
LINE
8
BLACK
6
CONTINUOUS
10
128.091
20
-134.23
11
128.1
21
-134.233
0
LINE
8
BLACK
6
CONTINUOUS
10
131.707
20
-134.257
11
131.724
21
-134.305
0
LINE
8
BLACK
6
CONTINUOUS
10
131.724
20
-134.305
11
131.724
21
-135.144
0
LINE
8
BLACK
6
CONTINUOUS
10
131.724
20
-135.144
11
131.753
21
-135.201
0
LINE
8
BLACK
6
CONTINUOUS
10
131.753
20
-135.201
11
131.826
21
-135.238
0
LINE
8
BLACK
6
CONTINUOUS
10
131.826
20
-135.238
11
131.847
21
-135.253
0
LINE
8
BLACK
6
CONTINUOUS
10
131.847
20
-135.253
11
131.867
21
-135.3
0
LINE
8
BLACK
6
CONTINUOUS
10
131.867
20
-135.3
11
131.852
21
-135.35
0
LINE
8
BLACK
6
CONTINUOUS
10
131.852
20
-135.35
11
131.81
21
-135.378
0
LINE
8
BLACK
6
CONTINUOUS
10
131.81
20
-135.378
11
131.759
21
-135.372
0
LINE
8
BLACK
6
CONTINUOUS
10
131.759
20
-135.372
11
131.663
21
-135.324
0
LINE
8
BLACK
6
CONTINUOUS
10
131.663
20
-135.324
11
131.643
21
-135.309
0
LINE
8
BLACK
6
CONTINUOUS
10
131.643
20
-135.309
11
131.638
21
-135.299
0
LINE
8
BLACK
6
CONTINUOUS
10
131.638
20
-135.299
11
131.63
21
-135.291
0
LINE
8
BLACK
6
CONTINUOUS
10
131.63
20
-135.291
11
131.582
21
-135.196
0
LINE
8
BLACK
6
CONTINUOUS
10
131.582
20
-135.196
11
131.575
21
-135.171
0
LINE
8
BLACK
6
CONTINUOUS
10
131.575
20
-135.171
11
131.576
21
-135.166
0
LINE
8
BLACK
6
CONTINUOUS
10
131.576
20
-135.166
11
131.574
21
-135.162
0
LINE
8
BLACK
6
CONTINUOUS
10
131.574
20
-135.162
11
131.574
21
-134.305
0
LINE
8
BLACK
6
CONTINUOUS
10
131.574
20
-134.305
11
131.579
21
-134.279
0
LINE
8
BLACK
6
CONTINUOUS
10
131.579
20
-134.279
11
131.612
21
-134.24
0
LINE
8
BLACK
6
CONTINUOUS
10
131.612
20
-134.24
11
131.662
21
-134.231
0
LINE
8
BLACK
6
CONTINUOUS
10
131.662
20
-134.231
11
131.707
21
-134.257
0
LINE
8
BLACK
6
CONTINUOUS
10
131.183
20
-134.257
11
131.201
21
-134.305
0
LINE
8
BLACK
6
CONTINUOUS
10
131.201
20
-134.305
11
131.201
21
-135.144
0
LINE
8
BLACK
6
CONTINUOUS
10
131.201
20
-135.144
11
131.229
21
-135.201
0
LINE
8
BLACK
6
CONTINUOUS
10
131.229
20
-135.201
11
131.302
21
-135.238
0
LINE
8
BLACK
6
CONTINUOUS
10
131.302
20
-135.238
11
131.323
21
-135.253
0
LINE
8
BLACK
6
CONTINUOUS
10
131.323
20
-135.253
11
131.343
21
-135.3
0
LINE
8
BLACK
6
CONTINUOUS
10
131.343
20
-135.3
11
131.329
21
-135.35
0
LINE
8
BLACK
6
CONTINUOUS
10
131.329
20
-135.35
11
131.286
21
-135.378
0
LINE
8
BLACK
6
CONTINUOUS
10
131.286
20
-135.378
11
131.235
21
-135.372
0
LINE
8
BLACK
6
CONTINUOUS
10
131.235
20
-135.372
11
131.14
21
-135.324
0
LINE
8
BLACK
6
CONTINUOUS
10
131.14
20
-135.324
11
131.119
21
-135.309
0
LINE
8
BLACK
6
CONTINUOUS
10
131.119
20
-135.309
11
131.114
21
-135.299
0
LINE
8
BLACK
6
CONTINUOUS
10
131.114
20
-135.299
11
131.106
21
-135.291
0
LINE
8
BLACK
6
CONTINUOUS
10
131.106
20
-135.291
11
131.059
21
-135.196
0
LINE
8
BLACK
6
CONTINUOUS
10
131.059
20
-135.196
11
131.051
21
-135.171
0
LINE
8
BLACK
6
CONTINUOUS
10
131.051
20
-135.171
11
131.052
21
-135.166
0
LINE
8
BLACK
6
CONTINUOUS
10
131.052
20
-135.166
11
131.051
21
-135.162
0
LINE
8
BLACK
6
CONTINUOUS
10
131.051
20
-135.162
11
131.051
21
-134.305
0
LINE
8
BLACK
6
CONTINUOUS
10
131.051
20
-134.305
11
131.055
21
-134.279
0
LINE
8
BLACK
6
CONTINUOUS
10
131.055
20
-134.279
11
131.088
21
-134.24
0
LINE
8
BLACK
6
CONTINUOUS
10
131.088
20
-134.24
11
131.139
21
-134.231
0
LINE
8
BLACK
6
CONTINUOUS
10
131.139
20
-134.231
11
131.183
21
-134.257
0
LINE
8
BLACK
6
CONTINUOUS
10
106.315
20
-67.2665
11
106.322
21
-67.2658
0
LINE
8
BLACK
6
CONTINUOUS
10
106.322
20
-67.2658
11
106.329
21
-67.2677
0
LINE
8
BLACK
6
CONTINUOUS
10
106.329
20
-67.2677
11
106.349
21
-67.2696
0
LINE
8
BLACK
6
CONTINUOUS
10
106.349
20
-67.2696
11
106.388
21
-67.2847
0
LINE
8
BLACK
6
CONTINUOUS
10
106.388
20
-67.2847
11
106.428
21
-67.2962
0
LINE
8
BLACK
6
CONTINUOUS
10
106.428
20
-67.2962
11
106.809
21
-67.4866
0
LINE
8
BLACK
6
CONTINUOUS
10
106.809
20
-67.4866
11
106.856
21
-67.5159
0
LINE
8
BLACK
6
CONTINUOUS
10
106.856
20
-67.5159
11
106.865
21
-67.5259
0
LINE
8
BLACK
6
CONTINUOUS
10
106.865
20
-67.5259
11
106.877
21
-67.5329
0
LINE
8
BLACK
6
CONTINUOUS
10
106.877
20
-67.5329
11
106.902
21
-67.5664
0
LINE
8
BLACK
6
CONTINUOUS
10
106.902
20
-67.5664
11
106.93
21
-67.5975
0
LINE
8
BLACK
6
CONTINUOUS
10
106.93
20
-67.5975
11
106.935
21
-67.6101
0
LINE
8
BLACK
6
CONTINUOUS
10
106.935
20
-67.6101
11
106.943
21
-67.6208
0
LINE
8
BLACK
6
CONTINUOUS
10
106.943
20
-67.6208
11
107.134
21
-68.0018
0
LINE
8
BLACK
6
CONTINUOUS
10
107.134
20
-68.0018
11
107.141
21
-68.0216
0
LINE
8
BLACK
6
CONTINUOUS
10
107.141
20
-68.0216
11
107.145
21
-68.0276
0
LINE
8
BLACK
6
CONTINUOUS
10
107.145
20
-68.0276
11
107.146
21
-68.0343
0
LINE
8
BLACK
6
CONTINUOUS
10
107.146
20
-68.0343
11
107.154
21
-68.0533
0
LINE
8
BLACK
6
CONTINUOUS
10
107.154
20
-68.0533
11
107.158
21
-68.0949
0
LINE
8
BLACK
6
CONTINUOUS
10
107.158
20
-68.0949
11
107.165
21
-68.1359
0
LINE
8
BLACK
6
CONTINUOUS
10
107.165
20
-68.1359
11
107.165
21
-70.2312
0
LINE
8
BLACK
6
CONTINUOUS
10
107.165
20
-70.2312
11
107.16
21
-70.2863
0
LINE
8
BLACK
6
CONTINUOUS
10
107.16
20
-70.2863
11
107.12
21
-70.3891
0
LINE
8
BLACK
6
CONTINUOUS
10
107.12
20
-70.3891
11
107.046
21
-70.4706
0
LINE
8
BLACK
6
CONTINUOUS
10
107.046
20
-70.4706
11
106.947
21
-70.5197
0
LINE
8
BLACK
6
CONTINUOUS
10
106.947
20
-70.5197
11
106.838
21
-70.5299
0
LINE
8
BLACK
6
CONTINUOUS
10
106.838
20
-70.5299
11
106.732
21
-70.4997
0
LINE
8
BLACK
6
CONTINUOUS
10
106.732
20
-70.4997
11
106.686
21
-70.4656
0
LINE
8
BLACK
6
CONTINUOUS
10
106.686
20
-70.4656
11
106.619
21
-70.4995
0
LINE
8
BLACK
6
CONTINUOUS
10
106.619
20
-70.4995
11
106.599
21
-70.5072
0
LINE
8
BLACK
6
CONTINUOUS
10
106.599
20
-70.5072
11
106.593
21
-70.5109
0
LINE
8
BLACK
6
CONTINUOUS
10
106.593
20
-70.5109
11
106.586
21
-70.5122
0
LINE
8
BLACK
6
CONTINUOUS
10
106.586
20
-70.5122
11
106.567
21
-70.5196
0
LINE
8
BLACK
6
CONTINUOUS
10
106.567
20
-70.5196
11
106.525
21
-70.5235
0
LINE
8
BLACK
6
CONTINUOUS
10
106.525
20
-70.5235
11
106.484
21
-70.5312
0
LINE
8
BLACK
6
CONTINUOUS
10
106.484
20
-70.5312
11
105.532
21
-70.5312
0
LINE
8
BLACK
6
CONTINUOUS
10
105.532
20
-70.5312
11
105.511
21
-70.5292
0
LINE
8
BLACK
6
CONTINUOUS
10
105.511
20
-70.5292
11
105.504
21
-70.5298
0
LINE
8
BLACK
6
CONTINUOUS
10
105.504
20
-70.5298
11
105.497
21
-70.5279
0
LINE
8
BLACK
6
CONTINUOUS
10
105.497
20
-70.5279
11
105.477
21
-70.5261
0
LINE
8
BLACK
6
CONTINUOUS
10
105.477
20
-70.5261
11
105.438
21
-70.511
0
LINE
8
BLACK
6
CONTINUOUS
10
105.438
20
-70.511
11
105.398
21
-70.4995
0
LINE
8
BLACK
6
CONTINUOUS
10
105.398
20
-70.4995
11
105.017
21
-70.309
0
LINE
8
BLACK
6
CONTINUOUS
10
105.017
20
-70.309
11
104.97
21
-70.2798
0
LINE
8
BLACK
6
CONTINUOUS
10
104.97
20
-70.2798
11
104.961
21
-70.2698
0
LINE
8
BLACK
6
CONTINUOUS
10
104.961
20
-70.2698
11
104.949
21
-70.2627
0
LINE
8
BLACK
6
CONTINUOUS
10
104.949
20
-70.2627
11
104.924
21
-70.2293
0
LINE
8
BLACK
6
CONTINUOUS
10
104.924
20
-70.2293
11
104.896
21
-70.1982
0
LINE
8
BLACK
6
CONTINUOUS
10
104.896
20
-70.1982
11
104.891
21
-70.1856
0
LINE
8
BLACK
6
CONTINUOUS
10
104.891
20
-70.1856
11
104.883
21
-70.1749
0
LINE
8
BLACK
6
CONTINUOUS
10
104.883
20
-70.1749
11
104.692
21
-69.7939
0
LINE
8
BLACK
6
CONTINUOUS
10
104.692
20
-69.7939
11
104.685
21
-69.7741
0
LINE
8
BLACK
6
CONTINUOUS
10
104.685
20
-69.7741
11
104.681
21
-69.7681
0
LINE
8
BLACK
6
CONTINUOUS
10
104.681
20
-69.7681
11
104.68
21
-69.7613
0
LINE
8
BLACK
6
CONTINUOUS
10
104.68
20
-69.7613
11
104.672
21
-69.7423
0
LINE
8
BLACK
6
CONTINUOUS
10
104.672
20
-69.7423
11
104.668
21
-69.7008
0
LINE
8
BLACK
6
CONTINUOUS
10
104.668
20
-69.7008
11
104.661
21
-69.6597
0
LINE
8
BLACK
6
CONTINUOUS
10
104.661
20
-69.6597
11
104.661
21
-69.2788
0
LINE
8
BLACK
6
CONTINUOUS
10
104.661
20
-69.2788
11
104.663
21
-69.2576
0
LINE
8
BLACK
6
CONTINUOUS
10
104.663
20
-69.2576
11
104.662
21
-69.2506
0
LINE
8
BLACK
6
CONTINUOUS
10
104.662
20
-69.2506
11
104.664
21
-69.244
0
LINE
8
BLACK
6
CONTINUOUS
10
104.664
20
-69.244
11
104.666
21
-69.2237
0
LINE
8
BLACK
6
CONTINUOUS
10
104.666
20
-69.2237
11
104.681
21
-69.1847
0
LINE
8
BLACK
6
CONTINUOUS
10
104.681
20
-69.1847
11
104.692
21
-69.1446
0
LINE
8
BLACK
6
CONTINUOUS
10
104.692
20
-69.1446
11
104.883
21
-68.7637
0
LINE
8
BLACK
6
CONTINUOUS
10
104.883
20
-68.7637
11
104.912
21
-68.7166
0
LINE
8
BLACK
6
CONTINUOUS
10
104.912
20
-68.7166
11
104.922
21
-68.7076
0
LINE
8
BLACK
6
CONTINUOUS
10
104.922
20
-68.7076
11
104.929
21
-68.6961
0
LINE
8
BLACK
6
CONTINUOUS
10
104.929
20
-68.6961
11
104.962
21
-68.6707
0
LINE
8
BLACK
6
CONTINUOUS
10
104.962
20
-68.6707
11
104.994
21
-68.6425
0
LINE
8
BLACK
6
CONTINUOUS
10
104.994
20
-68.6425
11
105.006
21
-68.6377
0
LINE
8
BLACK
6
CONTINUOUS
10
105.006
20
-68.6377
11
105.017
21
-68.6295
0
LINE
8
BLACK
6
CONTINUOUS
10
105.017
20
-68.6295
11
105.398
21
-68.439
0
LINE
8
BLACK
6
CONTINUOUS
10
105.398
20
-68.439
11
105.418
21
-68.4313
0
LINE
8
BLACK
6
CONTINUOUS
10
105.418
20
-68.4313
11
105.424
21
-68.4276
0
LINE
8
BLACK
6
CONTINUOUS
10
105.424
20
-68.4276
11
105.43
21
-68.4263
0
LINE
8
BLACK
6
CONTINUOUS
10
105.43
20
-68.4263
11
105.449
21
-68.4189
0
LINE
8
BLACK
6
CONTINUOUS
10
105.449
20
-68.4189
11
105.491
21
-68.415
0
LINE
8
BLACK
6
CONTINUOUS
10
105.491
20
-68.415
11
105.532
21
-68.4074
0
LINE
8
BLACK
6
CONTINUOUS
10
105.532
20
-68.4074
11
106.414
21
-68.4074
0
LINE
8
BLACK
6
CONTINUOUS
10
106.414
20
-68.4074
11
106.565
21
-68.3315
0
LINE
8
BLACK
6
CONTINUOUS
10
106.565
20
-68.3315
11
106.565
21
-68.2067
0
LINE
8
BLACK
6
CONTINUOUS
10
106.565
20
-68.2067
11
106.451
21
-67.9786
0
LINE
8
BLACK
6
CONTINUOUS
10
106.451
20
-67.9786
11
106.223
21
-67.8645
0
LINE
8
BLACK
6
CONTINUOUS
10
106.223
20
-67.8645
11
105.603
21
-67.8645
0
LINE
8
BLACK
6
CONTINUOUS
10
105.603
20
-67.8645
11
105.285
21
-68.0233
0
LINE
8
BLACK
6
CONTINUOUS
10
105.285
20
-68.0233
11
105.234
21
-68.0434
0
LINE
8
BLACK
6
CONTINUOUS
10
105.234
20
-68.0434
11
105.124
21
-68.0537
0
LINE
8
BLACK
6
CONTINUOUS
10
105.124
20
-68.0537
11
105.018
21
-68.0237
0
LINE
8
BLACK
6
CONTINUOUS
10
105.018
20
-68.0237
11
104.93
21
-67.9574
0
LINE
8
BLACK
6
CONTINUOUS
10
104.93
20
-67.9574
11
104.871
21
-67.8638
0
LINE
8
BLACK
6
CONTINUOUS
10
104.871
20
-67.8638
11
104.851
21
-67.7555
0
LINE
8
BLACK
6
CONTINUOUS
10
104.851
20
-67.7555
11
104.871
21
-67.6471
0
LINE
8
BLACK
6
CONTINUOUS
10
104.871
20
-67.6471
11
104.929
21
-67.5532
0
LINE
8
BLACK
6
CONTINUOUS
10
104.929
20
-67.5532
11
105.017
21
-67.4866
0
LINE
8
BLACK
6
CONTINUOUS
10
105.017
20
-67.4866
11
105.398
21
-67.2962
0
LINE
8
BLACK
6
CONTINUOUS
10
105.398
20
-67.2962
11
105.418
21
-67.2885
0
LINE
8
BLACK
6
CONTINUOUS
10
105.418
20
-67.2885
11
105.424
21
-67.2848
0
LINE
8
BLACK
6
CONTINUOUS
10
105.424
20
-67.2848
11
105.43
21
-67.2835
0
LINE
8
BLACK
6
CONTINUOUS
10
105.43
20
-67.2835
11
105.449
21
-67.2761
0
LINE
8
BLACK
6
CONTINUOUS
10
105.449
20
-67.2761
11
105.491
21
-67.2722
0
LINE
8
BLACK
6
CONTINUOUS
10
105.491
20
-67.2722
11
105.532
21
-67.2645
0
LINE
8
BLACK
6
CONTINUOUS
10
105.532
20
-67.2645
11
106.294
21
-67.2645
0
LINE
8
BLACK
6
CONTINUOUS
10
106.294
20
-67.2645
11
106.315
21
-67.2665
0
LINE
8
BLACK
6
CONTINUOUS
10
106.525
20
-68.9997
11
106.484
21
-69.0074
0
LINE
8
BLACK
6
CONTINUOUS
10
106.484
20
-69.0074
11
105.603
21
-69.0074
0
LINE
8
BLACK
6
CONTINUOUS
10
105.603
20
-69.0074
11
105.375
21
-69.1214
0
LINE
8
BLACK
6
CONTINUOUS
10
105.375
20
-69.1214
11
105.261
21
-69.3496
0
LINE
8
BLACK
6
CONTINUOUS
10
105.261
20
-69.3496
11
105.261
21
-69.5889
0
LINE
8
BLACK
6
CONTINUOUS
10
105.261
20
-69.5889
11
105.375
21
-69.8171
0
LINE
8
BLACK
6
CONTINUOUS
10
105.375
20
-69.8171
11
105.603
21
-69.9312
0
LINE
8
BLACK
6
CONTINUOUS
10
105.603
20
-69.9312
11
106.414
21
-69.9312
0
LINE
8
BLACK
6
CONTINUOUS
10
106.414
20
-69.9312
11
106.565
21
-69.8553
0
LINE
8
BLACK
6
CONTINUOUS
10
106.565
20
-69.8553
11
106.565
21
-68.9959
0
LINE
8
BLACK
6
CONTINUOUS
10
106.565
20
-68.9959
11
106.525
21
-68.9997
0
LINE
8
BLACK
6
CONTINUOUS
10
97.0579
20
-67.2665
11
97.0649
21
-67.2658
0
LINE
8
BLACK
6
CONTINUOUS
10
97.0649
20
-67.2658
11
97.0716
21
-67.2677
0
LINE
8
BLACK
6
CONTINUOUS
10
97.0716
20
-67.2677
11
97.0919
21
-67.2696
0
LINE
8
BLACK
6
CONTINUOUS
10
97.0919
20
-67.2696
11
97.1308
21
-67.2847
0
LINE
8
BLACK
6
CONTINUOUS
10
97.1308
20
-67.2847
11
97.1709
21
-67.2962
0
LINE
8
BLACK
6
CONTINUOUS
10
97.1709
20
-67.2962
11
97.5519
21
-67.4866
0
LINE
8
BLACK
6
CONTINUOUS
10
97.5519
20
-67.4866
11
97.5989
21
-67.5159
0
LINE
8
BLACK
6
CONTINUOUS
10
97.5989
20
-67.5159
11
97.673
21
-67.5975
0
LINE
8
BLACK
6
CONTINUOUS
10
97.673
20
-67.5975
11
97.7127
21
-67.7003
0
LINE
8
BLACK
6
CONTINUOUS
10
97.7127
20
-67.7003
11
97.7125
21
-67.8106
0
LINE
8
BLACK
6
CONTINUOUS
10
97.7125
20
-67.8106
11
97.6725
21
-67.9133
0
LINE
8
BLACK
6
CONTINUOUS
10
97.6725
20
-67.9133
11
97.5981
21
-67.9947
0
LINE
8
BLACK
6
CONTINUOUS
10
97.5981
20
-67.9947
11
97.4993
21
-68.0437
0
LINE
8
BLACK
6
CONTINUOUS
10
97.4993
20
-68.0437
11
97.3895
21
-68.0536
0
LINE
8
BLACK
6
CONTINUOUS
10
97.3895
20
-68.0536
11
97.2835
21
-68.0233
0
LINE
8
BLACK
6
CONTINUOUS
10
97.2835
20
-68.0233
11
96.9659
21
-67.8645
0
LINE
8
BLACK
6
CONTINUOUS
10
96.9659
20
-67.8645
11
96.5361
21
-67.8645
0
LINE
8
BLACK
6
CONTINUOUS
10
96.5361
20
-67.8645
11
96.308
21
-67.9786
0
LINE
8
BLACK
6
CONTINUOUS
10
96.308
20
-67.9786
11
96.1939
21
-68.2067
0
LINE
8
BLACK
6
CONTINUOUS
10
96.1939
20
-68.2067
11
96.1939
21
-68.2556
0
LINE
8
BLACK
6
CONTINUOUS
10
96.1939
20
-68.2556
11
96.308
21
-68.4837
0
LINE
8
BLACK
6
CONTINUOUS
10
96.308
20
-68.4837
11
96.5361
21
-68.5978
0
LINE
8
BLACK
6
CONTINUOUS
10
96.5361
20
-68.5978
11
97.0367
21
-68.5978
0
LINE
8
BLACK
6
CONTINUOUS
10
97.0367
20
-68.5978
11
97.0579
21
-68.5998
0
LINE
8
BLACK
6
CONTINUOUS
10
97.0579
20
-68.5998
11
97.0649
21
-68.5992
0
LINE
8
BLACK
6
CONTINUOUS
10
97.0649
20
-68.5992
11
97.0716
21
-68.6011
0
LINE
8
BLACK
6
CONTINUOUS
10
97.0716
20
-68.6011
11
97.0919
21
-68.6029
0
LINE
8
BLACK
6
CONTINUOUS
10
97.0919
20
-68.6029
11
97.1308
21
-68.618
0
LINE
8
BLACK
6
CONTINUOUS
10
97.1308
20
-68.618
11
97.1709
21
-68.6295
0
LINE
8
BLACK
6
CONTINUOUS
10
97.1709
20
-68.6295
11
97.5519
21
-68.82
0
LINE
8
BLACK
6
CONTINUOUS
10
97.5519
20
-68.82
11
97.5989
21
-68.8492
0
LINE
8
BLACK
6
CONTINUOUS
10
97.5989
20
-68.8492
11
97.608
21
-68.8592
0
LINE
8
BLACK
6
CONTINUOUS
10
97.608
20
-68.8592
11
97.6194
21
-68.8663
0
LINE
8
BLACK
6
CONTINUOUS
10
97.6194
20
-68.8663
11
97.6448
21
-68.8997
0
LINE
8
BLACK
6
CONTINUOUS
10
97.6448
20
-68.8997
11
97.673
21
-68.9308
0
LINE
8
BLACK
6
CONTINUOUS
10
97.673
20
-68.9308
11
97.6779
21
-68.9434
0
LINE
8
BLACK
6
CONTINUOUS
10
97.6779
20
-68.9434
11
97.686
21
-68.9541
0
LINE
8
BLACK
6
CONTINUOUS
10
97.686
20
-68.9541
11
97.8765
21
-69.3351
0
LINE
8
BLACK
6
CONTINUOUS
10
97.8765
20
-69.3351
11
97.8842
21
-69.3549
0
LINE
8
BLACK
6
CONTINUOUS
10
97.8842
20
-69.3549
11
97.8879
21
-69.3609
0
LINE
8
BLACK
6
CONTINUOUS
10
97.8879
20
-69.3609
11
97.8892
21
-69.3677
0
LINE
8
BLACK
6
CONTINUOUS
10
97.8892
20
-69.3677
11
97.8966
21
-69.3867
0
LINE
8
BLACK
6
CONTINUOUS
10
97.8966
20
-69.3867
11
97.9005
21
-69.4282
0
LINE
8
BLACK
6
CONTINUOUS
10
97.9005
20
-69.4282
11
97.9082
21
-69.4693
0
LINE
8
BLACK
6
CONTINUOUS
10
97.9082
20
-69.4693
11
97.9082
21
-69.6597
0
LINE
8
BLACK
6
CONTINUOUS
10
97.9082
20
-69.6597
11
97.9062
21
-69.6809
0
LINE
8
BLACK
6
CONTINUOUS
10
97.9062
20
-69.6809
11
97.9068
21
-69.6879
0
LINE
8
BLACK
6
CONTINUOUS
10
97.9068
20
-69.6879
11
97.9049
21
-69.6945
0
LINE
8
BLACK
6
CONTINUOUS
10
97.9049
20
-69.6945
11
97.9031
21
-69.7149
0
LINE
8
BLACK
6
CONTINUOUS
10
97.9031
20
-69.7149
11
97.888
21
-69.7538
0
LINE
8
BLACK
6
CONTINUOUS
10
97.888
20
-69.7538
11
97.8765
21
-69.7939
0
LINE
8
BLACK
6
CONTINUOUS
10
97.8765
20
-69.7939
11
97.686
21
-70.1749
0
LINE
8
BLACK
6
CONTINUOUS
10
97.686
20
-70.1749
11
97.6568
21
-70.2219
0
LINE
8
BLACK
6
CONTINUOUS
10
97.6568
20
-70.2219
11
97.6468
21
-70.2309
0
LINE
8
BLACK
6
CONTINUOUS
10
97.6468
20
-70.2309
11
97.6397
21
-70.2424
0
LINE
8
BLACK
6
CONTINUOUS
10
97.6397
20
-70.2424
11
97.6063
21
-70.2678
0
LINE
8
BLACK
6
CONTINUOUS
10
97.6063
20
-70.2678
11
97.5752
21
-70.296
0
LINE
8
BLACK
6
CONTINUOUS
10
97.5752
20
-70.296
11
97.5626
21
-70.3009
0
LINE
8
BLACK
6
CONTINUOUS
10
97.5626
20
-70.3009
11
97.5519
21
-70.309
0
LINE
8
BLACK
6
CONTINUOUS
10
97.5519
20
-70.309
11
97.1709
21
-70.4995
0
LINE
8
BLACK
6
CONTINUOUS
10
97.1709
20
-70.4995
11
97.1511
21
-70.5072
0
LINE
8
BLACK
6
CONTINUOUS
10
97.1511
20
-70.5072
11
97.1451
21
-70.5109
0
LINE
8
BLACK
6
CONTINUOUS
10
97.1451
20
-70.5109
11
97.1383
21
-70.5122
0
LINE
8
BLACK
6
CONTINUOUS
10
97.1383
20
-70.5122
11
97.1193
21
-70.5196
0
LINE
8
BLACK
6
CONTINUOUS
10
97.1193
20
-70.5196
11
97.0778
21
-70.5235
0
LINE
8
BLACK
6
CONTINUOUS
10
97.0778
20
-70.5235
11
97.0367
21
-70.5312
0
LINE
8
BLACK
6
CONTINUOUS
10
97.0367
20
-70.5312
11
96.2748
21
-70.5312
0
LINE
8
BLACK
6
CONTINUOUS
10
96.2748
20
-70.5312
11
96.2537
21
-70.5292
0
LINE
8
BLACK
6
CONTINUOUS
10
96.2537
20
-70.5292
11
96.2467
21
-70.5298
0
LINE
8
BLACK
6
CONTINUOUS
10
96.2467
20
-70.5298
11
96.24
21
-70.5279
0
LINE
8
BLACK
6
CONTINUOUS
10
96.24
20
-70.5279
11
96.2197
21
-70.5261
0
LINE
8
BLACK
6
CONTINUOUS
10
96.2197
20
-70.5261
11
96.1808
21
-70.511
0
LINE
8
BLACK
6
CONTINUOUS
10
96.1808
20
-70.511
11
96.1407
21
-70.4995
0
LINE
8
BLACK
6
CONTINUOUS
10
96.1407
20
-70.4995
11
95.7597
21
-70.309
0
LINE
8
BLACK
6
CONTINUOUS
10
95.7597
20
-70.309
11
95.7127
21
-70.2798
0
LINE
8
BLACK
6
CONTINUOUS
10
95.7127
20
-70.2798
11
95.6386
21
-70.1982
0
LINE
8
BLACK
6
CONTINUOUS
10
95.6386
20
-70.1982
11
95.5989
21
-70.0953
0
LINE
8
BLACK
6
CONTINUOUS
10
95.5989
20
-70.0953
11
95.5991
21
-69.9851
0
LINE
8
BLACK
6
CONTINUOUS
10
95.5991
20
-69.9851
11
95.6391
21
-69.8823
0
LINE
8
BLACK
6
CONTINUOUS
10
95.6391
20
-69.8823
11
95.7135
21
-69.801
0
LINE
8
BLACK
6
CONTINUOUS
10
95.7135
20
-69.801
11
95.8123
21
-69.752
0
LINE
8
BLACK
6
CONTINUOUS
10
95.8123
20
-69.752
11
95.9221
21
-69.742
0
LINE
8
BLACK
6
CONTINUOUS
10
95.9221
20
-69.742
11
96.0281
21
-69.7724
0
LINE
8
BLACK
6
CONTINUOUS
10
96.0281
20
-69.7724
11
96.3457
21
-69.9312
0
LINE
8
BLACK
6
CONTINUOUS
10
96.3457
20
-69.9312
11
96.9659
21
-69.9312
0
LINE
8
BLACK
6
CONTINUOUS
10
96.9659
20
-69.9312
11
97.1941
21
-69.8171
0
LINE
8
BLACK
6
CONTINUOUS
10
97.1941
20
-69.8171
11
97.3082
21
-69.5889
0
LINE
8
BLACK
6
CONTINUOUS
10
97.3082
20
-69.5889
11
97.3082
21
-69.5401
0
LINE
8
BLACK
6
CONTINUOUS
10
97.3082
20
-69.5401
11
97.1941
21
-69.3119
0
LINE
8
BLACK
6
CONTINUOUS
10
97.1941
20
-69.3119
11
96.9659
21
-69.1978
0
LINE
8
BLACK
6
CONTINUOUS
10
96.9659
20
-69.1978
11
96.4653
21
-69.1978
0
LINE
8
BLACK
6
CONTINUOUS
10
96.4653
20
-69.1978
11
96.4441
21
-69.1959
0
LINE
8
BLACK
6
CONTINUOUS
10
96.4441
20
-69.1959
11
96.4371
21
-69.1965
0
LINE
8
BLACK
6
CONTINUOUS
10
96.4371
20
-69.1965
11
96.4305
21
-69.1946
0
LINE
8
BLACK
6
CONTINUOUS
10
96.4305
20
-69.1946
11
96.4102
21
-69.1927
0
LINE
8
BLACK
6
CONTINUOUS
10
96.4102
20
-69.1927
11
96.3713
21
-69.1776
0
LINE
8
BLACK
6
CONTINUOUS
10
96.3713
20
-69.1776
11
96.3312
21
-69.1662
0
LINE
8
BLACK
6
CONTINUOUS
10
96.3312
20
-69.1662
11
95.9502
21
-68.9757
0
LINE
8
BLACK
6
CONTINUOUS
10
95.9502
20
-68.9757
11
95.9032
21
-68.9465
0
LINE
8
BLACK
6
CONTINUOUS
10
95.9032
20
-68.9465
11
95.8941
21
-68.9365
0
LINE
8
BLACK
6
CONTINUOUS
10
95.8941
20
-68.9365
11
95.8826
21
-68.9294
0
LINE
8
BLACK
6
CONTINUOUS
10
95.8826
20
-68.9294
11
95.8573
21
-68.8959
0
LINE
8
BLACK
6
CONTINUOUS
10
95.8573
20
-68.8959
11
95.829
21
-68.8649
0
LINE
8
BLACK
6
CONTINUOUS
10
95.829
20
-68.8649
11
95.8242
21
-68.8523
0
LINE
8
BLACK
6
CONTINUOUS
10
95.8242
20
-68.8523
11
95.816
21
-68.8415
0
LINE
8
BLACK
6
CONTINUOUS
10
95.816
20
-68.8415
11
95.6256
21
-68.4606
0
LINE
8
BLACK
6
CONTINUOUS
10
95.6256
20
-68.4606
11
95.6178
21
-68.4407
0
LINE
8
BLACK
6
CONTINUOUS
10
95.6178
20
-68.4407
11
95.6141
21
-68.4348
0
LINE
8
BLACK
6
CONTINUOUS
10
95.6141
20
-68.4348
11
95.6129
21
-68.428
0
LINE
8
BLACK
6
CONTINUOUS
10
95.6129
20
-68.428
11
95.6055
21
-68.409
0
LINE
8
BLACK
6
CONTINUOUS
10
95.6055
20
-68.409
11
95.6016
21
-68.3674
0
LINE
8
BLACK
6
CONTINUOUS
10
95.6016
20
-68.3674
11
95.5939
21
-68.3264
0
LINE
8
BLACK
6
CONTINUOUS
10
95.5939
20
-68.3264
11
95.5939
21
-68.1359
0
LINE
8
BLACK
6
CONTINUOUS
10
95.5939
20
-68.1359
11
95.5959
21
-68.1147
0
LINE
8
BLACK
6
CONTINUOUS
10
95.5959
20
-68.1147
11
95.5952
21
-68.1078
0
LINE
8
BLACK
6
CONTINUOUS
10
95.5952
20
-68.1078
11
95.5971
21
-68.1011
0
LINE
8
BLACK
6
CONTINUOUS
10
95.5971
20
-68.1011
11
95.599
21
-68.0808
0
LINE
8
BLACK
6
CONTINUOUS
10
95.599
20
-68.0808
11
95.6141
21
-68.0419
0
LINE
8
BLACK
6
CONTINUOUS
10
95.6141
20
-68.0419
11
95.6256
21
-68.0018
0
LINE
8
BLACK
6
CONTINUOUS
10
95.6256
20
-68.0018
11
95.816
21
-67.6208
0
LINE
8
BLACK
6
CONTINUOUS
10
95.816
20
-67.6208
11
95.8453
21
-67.5738
0
LINE
8
BLACK
6
CONTINUOUS
10
95.8453
20
-67.5738
11
95.8552
21
-67.5647
0
LINE
8
BLACK
6
CONTINUOUS
10
95.8552
20
-67.5647
11
95.8623
21
-67.5532
0
LINE
8
BLACK
6
CONTINUOUS
10
95.8623
20
-67.5532
11
95.8958
21
-67.5279
0
LINE
8
BLACK
6
CONTINUOUS
10
95.8958
20
-67.5279
11
95.9269
21
-67.4996
0
LINE
8
BLACK
6
CONTINUOUS
10
95.9269
20
-67.4996
11
95.9394
21
-67.4948
0
LINE
8
BLACK
6
CONTINUOUS
10
95.9394
20
-67.4948
11
95.9502
21
-67.4866
0
LINE
8
BLACK
6
CONTINUOUS
10
95.9502
20
-67.4866
11
96.3312
21
-67.2962
0
LINE
8
BLACK
6
CONTINUOUS
10
96.3312
20
-67.2962
11
96.351
21
-67.2885
0
LINE
8
BLACK
6
CONTINUOUS
10
96.351
20
-67.2885
11
96.3569
21
-67.2848
0
LINE
8
BLACK
6
CONTINUOUS
10
96.3569
20
-67.2848
11
96.3637
21
-67.2835
0
LINE
8
BLACK
6
CONTINUOUS
10
96.3637
20
-67.2835
11
96.3827
21
-67.2761
0
LINE
8
BLACK
6
CONTINUOUS
10
96.3827
20
-67.2761
11
96.4243
21
-67.2722
0
LINE
8
BLACK
6
CONTINUOUS
10
96.4243
20
-67.2722
11
96.4653
21
-67.2645
0
LINE
8
BLACK
6
CONTINUOUS
10
96.4653
20
-67.2645
11
97.0367
21
-67.2645
0
LINE
8
BLACK
6
CONTINUOUS
10
97.0367
20
-67.2645
11
97.0579
21
-67.2665
0
LINE
8
BLACK
6
CONTINUOUS
10
93.6294
20
-67.2665
11
93.6363
21
-67.2658
0
LINE
8
BLACK
6
CONTINUOUS
10
93.6363
20
-67.2658
11
93.643
21
-67.2677
0
LINE
8
BLACK
6
CONTINUOUS
10
93.643
20
-67.2677
11
93.6633
21
-67.2696
0
LINE
8
BLACK
6
CONTINUOUS
10
93.6633
20
-67.2696
11
93.7022
21
-67.2847
0
LINE
8
BLACK
6
CONTINUOUS
10
93.7022
20
-67.2847
11
93.7423
21
-67.2962
0
LINE
8
BLACK
6
CONTINUOUS
10
93.7423
20
-67.2962
11
94.1233
21
-67.4866
0
LINE
8
BLACK
6
CONTINUOUS
10
94.1233
20
-67.4866
11
94.1703
21
-67.5159
0
LINE
8
BLACK
6
CONTINUOUS
10
94.1703
20
-67.5159
11
94.1794
21
-67.5259
0
LINE
8
BLACK
6
CONTINUOUS
10
94.1794
20
-67.5259
11
94.1909
21
-67.5329
0
LINE
8
BLACK
6
CONTINUOUS
10
94.1909
20
-67.5329
11
94.2162
21
-67.5664
0
LINE
8
BLACK
6
CONTINUOUS
10
94.2162
20
-67.5664
11
94.2445
21
-67.5975
0
LINE
8
BLACK
6
CONTINUOUS
10
94.2445
20
-67.5975
11
94.2493
21
-67.6101
0
LINE
8
BLACK
6
CONTINUOUS
10
94.2493
20
-67.6101
11
94.2575
21
-67.6208
0
LINE
8
BLACK
6
CONTINUOUS
10
94.2575
20
-67.6208
11
94.4479
21
-68.0018
0
LINE
8
BLACK
6
CONTINUOUS
10
94.4479
20
-68.0018
11
94.4556
21
-68.0216
0
LINE
8
BLACK
6
CONTINUOUS
10
94.4556
20
-68.0216
11
94.4593
21
-68.0276
0
LINE
8
BLACK
6
CONTINUOUS
10
94.4593
20
-68.0276
11
94.4606
21
-68.0343
0
LINE
8
BLACK
6
CONTINUOUS
10
94.4606
20
-68.0343
11
94.468
21
-68.0533
0
LINE
8
BLACK
6
CONTINUOUS
10
94.468
20
-68.0533
11
94.4719
21
-68.0949
0
LINE
8
BLACK
6
CONTINUOUS
10
94.4719
20
-68.0949
11
94.4796
21
-68.1359
0
LINE
8
BLACK
6
CONTINUOUS
10
94.4796
20
-68.1359
11
94.4796
21
-70.2312
0
LINE
8
BLACK
6
CONTINUOUS
10
94.4796
20
-70.2312
11
94.4745
21
-70.2863
0
LINE
8
BLACK
6
CONTINUOUS
10
94.4745
20
-70.2863
11
94.4347
21
-70.3891
0
LINE
8
BLACK
6
CONTINUOUS
10
94.4347
20
-70.3891
11
94.3604
21
-70.4706
0
LINE
8
BLACK
6
CONTINUOUS
10
94.3604
20
-70.4706
11
94.2617
21
-70.5197
0
LINE
8
BLACK
6
CONTINUOUS
10
94.2617
20
-70.5197
11
94.1519
21
-70.5299
0
LINE
8
BLACK
6
CONTINUOUS
10
94.1519
20
-70.5299
11
94.0459
21
-70.4997
0
LINE
8
BLACK
6
CONTINUOUS
10
94.0459
20
-70.4997
11
94.0007
21
-70.4656
0
LINE
8
BLACK
6
CONTINUOUS
10
94.0007
20
-70.4656
11
93.9328
21
-70.4995
0
LINE
8
BLACK
6
CONTINUOUS
10
93.9328
20
-70.4995
11
93.913
21
-70.5072
0
LINE
8
BLACK
6
CONTINUOUS
10
93.913
20
-70.5072
11
93.907
21
-70.5109
0
LINE
8
BLACK
6
CONTINUOUS
10
93.907
20
-70.5109
11
93.9002
21
-70.5122
0
LINE
8
BLACK
6
CONTINUOUS
10
93.9002
20
-70.5122
11
93.8812
21
-70.5196
0
LINE
8
BLACK
6
CONTINUOUS
10
93.8812
20
-70.5196
11
93.8397
21
-70.5235
0
LINE
8
BLACK
6
CONTINUOUS
10
93.8397
20
-70.5235
11
93.7987
21
-70.5312
0
LINE
8
BLACK
6
CONTINUOUS
10
93.7987
20
-70.5312
11
92.8463
21
-70.5312
0
LINE
8
BLACK
6
CONTINUOUS
10
92.8463
20
-70.5312
11
92.8251
21
-70.5292
0
LINE
8
BLACK
6
CONTINUOUS
10
92.8251
20
-70.5292
11
92.8181
21
-70.5298
0
LINE
8
BLACK
6
CONTINUOUS
10
92.8181
20
-70.5298
11
92.8115
21
-70.5279
0
LINE
8
BLACK
6
CONTINUOUS
10
92.8115
20
-70.5279
11
92.7911
21
-70.5261
0
LINE
8
BLACK
6
CONTINUOUS
10
92.7911
20
-70.5261
11
92.7522
21
-70.511
0
LINE
8
BLACK
6
CONTINUOUS
10
92.7522
20
-70.511
11
92.7121
21
-70.4995
0
LINE
8
BLACK
6
CONTINUOUS
10
92.7121
20
-70.4995
11
92.3312
21
-70.309
0
LINE
8
BLACK
6
CONTINUOUS
10
92.3312
20
-70.309
11
92.2841
21
-70.2798
0
LINE
8
BLACK
6
CONTINUOUS
10
92.2841
20
-70.2798
11
92.2751
21
-70.2698
0
LINE
8
BLACK
6
CONTINUOUS
10
92.2751
20
-70.2698
11
92.2636
21
-70.2627
0
LINE
8
BLACK
6
CONTINUOUS
10
92.2636
20
-70.2627
11
92.2382
21
-70.2293
0
LINE
8
BLACK
6
CONTINUOUS
10
92.2382
20
-70.2293
11
92.21
21
-70.1982
0
LINE
8
BLACK
6
CONTINUOUS
10
92.21
20
-70.1982
11
92.2051
21
-70.1856
0
LINE
8
BLACK
6
CONTINUOUS
10
92.2051
20
-70.1856
11
92.197
21
-70.1749
0
LINE
8
BLACK
6
CONTINUOUS
10
92.197
20
-70.1749
11
92.0065
21
-69.7939
0
LINE
8
BLACK
6
CONTINUOUS
10
92.0065
20
-69.7939
11
91.9988
21
-69.7741
0
LINE
8
BLACK
6
CONTINUOUS
10
91.9988
20
-69.7741
11
91.9951
21
-69.7681
0
LINE
8
BLACK
6
CONTINUOUS
10
91.9951
20
-69.7681
11
91.9938
21
-69.7613
0
LINE
8
BLACK
6
CONTINUOUS
10
91.9938
20
-69.7613
11
91.9864
21
-69.7423
0
LINE
8
BLACK
6
CONTINUOUS
10
91.9864
20
-69.7423
11
91.9825
21
-69.7008
0
LINE
8
BLACK
6
CONTINUOUS
10
91.9825
20
-69.7008
11
91.9748
21
-69.6597
0
LINE
8
BLACK
6
CONTINUOUS
10
91.9748
20
-69.6597
11
91.9748
21
-69.2788
0
LINE
8
BLACK
6
CONTINUOUS
10
91.9748
20
-69.2788
11
91.9768
21
-69.2576
0
LINE
8
BLACK
6
CONTINUOUS
10
91.9768
20
-69.2576
11
91.9762
21
-69.2506
0
LINE
8
BLACK
6
CONTINUOUS
10
91.9762
20
-69.2506
11
91.9781
21
-69.244
0
LINE
8
BLACK
6
CONTINUOUS
10
91.9781
20
-69.244
11
91.98
21
-69.2237
0
LINE
8
BLACK
6
CONTINUOUS
10
91.98
20
-69.2237
11
91.995
21
-69.1847
0
LINE
8
BLACK
6
CONTINUOUS
10
91.995
20
-69.1847
11
92.0065
21
-69.1446
0
LINE
8
BLACK
6
CONTINUOUS
10
92.0065
20
-69.1446
11
92.197
21
-68.7637
0
LINE
8
BLACK
6
CONTINUOUS
10
92.197
20
-68.7637
11
92.2262
21
-68.7166
0
LINE
8
BLACK
6
CONTINUOUS
10
92.2262
20
-68.7166
11
92.2362
21
-68.7076
0
LINE
8
BLACK
6
CONTINUOUS
10
92.2362
20
-68.7076
11
92.2433
21
-68.6961
0
LINE
8
BLACK
6
CONTINUOUS
10
92.2433
20
-68.6961
11
92.2767
21
-68.6707
0
LINE
8
BLACK
6
CONTINUOUS
10
92.2767
20
-68.6707
11
92.3078
21
-68.6425
0
LINE
8
BLACK
6
CONTINUOUS
10
92.3078
20
-68.6425
11
92.3204
21
-68.6377
0
LINE
8
BLACK
6
CONTINUOUS
10
92.3204
20
-68.6377
11
92.3312
21
-68.6295
0
LINE
8
BLACK
6
CONTINUOUS
10
92.3312
20
-68.6295
11
92.7121
21
-68.439
0
LINE
8
BLACK
6
CONTINUOUS
10
92.7121
20
-68.439
11
92.7319
21
-68.4313
0
LINE
8
BLACK
6
CONTINUOUS
10
92.7319
20
-68.4313
11
92.7379
21
-68.4276
0
LINE
8
BLACK
6
CONTINUOUS
10
92.7379
20
-68.4276
11
92.7447
21
-68.4263
0
LINE
8
BLACK
6
CONTINUOUS
10
92.7447
20
-68.4263
11
92.7637
21
-68.4189
0
LINE
8
BLACK
6
CONTINUOUS
10
92.7637
20
-68.4189
11
92.8052
21
-68.415
0
LINE
8
BLACK
6
CONTINUOUS
10
92.8052
20
-68.415
11
92.8463
21
-68.4074
0
LINE
8
BLACK
6
CONTINUOUS
10
92.8463
20
-68.4074
11
93.7278
21
-68.4074
0
LINE
8
BLACK
6
CONTINUOUS
10
93.7278
20
-68.4074
11
93.8796
21
-68.3315
0
LINE
8
BLACK
6
CONTINUOUS
10
93.8796
20
-68.3315
11
93.8796
21
-68.2067
0
LINE
8
BLACK
6
CONTINUOUS
10
93.8796
20
-68.2067
11
93.7655
21
-67.9786
0
LINE
8
BLACK
6
CONTINUOUS
10
93.7655
20
-67.9786
11
93.5374
21
-67.8645
0
LINE
8
BLACK
6
CONTINUOUS
10
93.5374
20
-67.8645
11
92.9171
21
-67.8645
0
LINE
8
BLACK
6
CONTINUOUS
10
92.9171
20
-67.8645
11
92.5995
21
-68.0233
0
LINE
8
BLACK
6
CONTINUOUS
10
92.5995
20
-68.0233
11
92.5479
21
-68.0434
0
LINE
8
BLACK
6
CONTINUOUS
10
92.5479
20
-68.0434
11
92.4381
21
-68.0537
0
LINE
8
BLACK
6
CONTINUOUS
10
92.4381
20
-68.0537
11
92.332
21
-68.0237
0
LINE
8
BLACK
6
CONTINUOUS
10
92.332
20
-68.0237
11
92.2439
21
-67.9574
0
LINE
8
BLACK
6
CONTINUOUS
10
92.2439
20
-67.9574
11
92.1858
21
-67.8638
0
LINE
8
BLACK
6
CONTINUOUS
10
92.1858
20
-67.8638
11
92.1653
21
-67.7555
0
LINE
8
BLACK
6
CONTINUOUS
10
92.1653
20
-67.7555
11
92.1854
21
-67.6471
0
LINE
8
BLACK
6
CONTINUOUS
10
92.1854
20
-67.6471
11
92.2433
21
-67.5532
0
LINE
8
BLACK
6
CONTINUOUS
10
92.2433
20
-67.5532
11
92.3312
21
-67.4866
0
LINE
8
BLACK
6
CONTINUOUS
10
92.3312
20
-67.4866
11
92.7121
21
-67.2962
0
LINE
8
BLACK
6
CONTINUOUS
10
92.7121
20
-67.2962
11
92.7319
21
-67.2885
0
LINE
8
BLACK
6
CONTINUOUS
10
92.7319
20
-67.2885
11
92.7379
21
-67.2848
0
LINE
8
BLACK
6
CONTINUOUS
10
92.7379
20
-67.2848
11
92.7447
21
-67.2835
0
LINE
8
BLACK
6
CONTINUOUS
10
92.7447
20
-67.2835
11
92.7637
21
-67.2761
0
LINE
8
BLACK
6
CONTINUOUS
10
92.7637
20
-67.2761
11
92.8052
21
-67.2722
0
LINE
8
BLACK
6
CONTINUOUS
10
92.8052
20
-67.2722
11
92.8463
21
-67.2645
0
LINE
8
BLACK
6
CONTINUOUS
10
92.8463
20
-67.2645
11
93.6082
21
-67.2645
0
LINE
8
BLACK
6
CONTINUOUS
10
93.6082
20
-67.2645
11
93.6294
21
-67.2665
0
LINE
8
BLACK
6
CONTINUOUS
10
93.8397
20
-68.9997
11
93.7987
21
-69.0074
0
LINE
8
BLACK
6
CONTINUOUS
10
93.7987
20
-69.0074
11
92.9171
21
-69.0074
0
LINE
8
BLACK
6
CONTINUOUS
10
92.9171
20
-69.0074
11
92.6889
21
-69.1214
0
LINE
8
BLACK
6
CONTINUOUS
10
92.6889
20
-69.1214
11
92.5748
21
-69.3496
0
LINE
8
BLACK
6
CONTINUOUS
10
92.5748
20
-69.3496
11
92.5748
21
-69.5889
0
LINE
8
BLACK
6
CONTINUOUS
10
92.5748
20
-69.5889
11
92.6889
21
-69.8171
0
LINE
8
BLACK
6
CONTINUOUS
10
92.6889
20
-69.8171
11
92.9171
21
-69.9312
0
LINE
8
BLACK
6
CONTINUOUS
10
92.9171
20
-69.9312
11
93.7278
21
-69.9312
0
LINE
8
BLACK
6
CONTINUOUS
10
93.7278
20
-69.9312
11
93.8796
21
-69.8553
0
LINE
8
BLACK
6
CONTINUOUS
10
93.8796
20
-69.8553
11
93.8796
21
-68.9959
0
LINE
8
BLACK
6
CONTINUOUS
10
93.8796
20
-68.9959
11
93.8397
21
-68.9997
0
LINE
8
BLACK
6
CONTINUOUS
10
87.9151
20
-67.2665
11
87.9221
21
-67.2658
0
LINE
8
BLACK
6
CONTINUOUS
10
87.9221
20
-67.2658
11
87.9287
21
-67.2677
0
LINE
8
BLACK
6
CONTINUOUS
10
87.9287
20
-67.2677
11
87.949
21
-67.2696
0
LINE
8
BLACK
6
CONTINUOUS
10
87.949
20
-67.2696
11
87.9879
21
-67.2847
0
LINE
8
BLACK
6
CONTINUOUS
10
87.9879
20
-67.2847
11
88.0281
21
-67.2962
0
LINE
8
BLACK
6
CONTINUOUS
10
88.0281
20
-67.2962
11
88.409
21
-67.4866
0
LINE
8
BLACK
6
CONTINUOUS
10
88.409
20
-67.4866
11
88.456
21
-67.5159
0
LINE
8
BLACK
6
CONTINUOUS
10
88.456
20
-67.5159
11
88.4699
21
-67.5312
0
LINE
8
BLACK
6
CONTINUOUS
10
88.4699
20
-67.5312
11
88.487
21
-67.5428
0
LINE
8
BLACK
6
CONTINUOUS
10
88.487
20
-67.5428
11
88.6774
21
-67.7333
0
LINE
8
BLACK
6
CONTINUOUS
10
88.6774
20
-67.7333
11
88.7128
21
-67.7759
0
LINE
8
BLACK
6
CONTINUOUS
10
88.7128
20
-67.7759
11
88.7212
21
-67.7948
0
LINE
8
BLACK
6
CONTINUOUS
10
88.7212
20
-67.7948
11
88.7336
21
-67.8113
0
LINE
8
BLACK
6
CONTINUOUS
10
88.7336
20
-67.8113
11
88.9241
21
-68.1922
0
LINE
8
BLACK
6
CONTINUOUS
10
88.9241
20
-68.1922
11
88.9318
21
-68.2121
0
LINE
8
BLACK
6
CONTINUOUS
10
88.9318
20
-68.2121
11
88.9355
21
-68.218
0
LINE
8
BLACK
6
CONTINUOUS
10
88.9355
20
-68.218
11
88.9368
21
-68.2248
0
LINE
8
BLACK
6
CONTINUOUS
10
88.9368
20
-68.2248
11
88.9442
21
-68.2438
0
LINE
8
BLACK
6
CONTINUOUS
10
88.9442
20
-68.2438
11
88.9481
21
-68.2854
0
LINE
8
BLACK
6
CONTINUOUS
10
88.9481
20
-68.2854
11
88.9558
21
-68.3264
0
LINE
8
BLACK
6
CONTINUOUS
10
88.9558
20
-68.3264
11
88.9558
21
-69.4693
0
LINE
8
BLACK
6
CONTINUOUS
10
88.9558
20
-69.4693
11
88.9538
21
-69.4904
0
LINE
8
BLACK
6
CONTINUOUS
10
88.9538
20
-69.4904
11
88.9545
21
-69.4974
0
LINE
8
BLACK
6
CONTINUOUS
10
88.9545
20
-69.4974
11
88.9526
21
-69.5041
0
LINE
8
BLACK
6
CONTINUOUS
10
88.9526
20
-69.5041
11
88.9507
21
-69.5244
0
LINE
8
BLACK
6
CONTINUOUS
10
88.9507
20
-69.5244
11
88.9356
21
-69.5633
0
LINE
8
BLACK
6
CONTINUOUS
10
88.9356
20
-69.5633
11
88.9241
21
-69.6034
0
LINE
8
BLACK
6
CONTINUOUS
10
88.9241
20
-69.6034
11
88.7336
21
-69.9844
0
LINE
8
BLACK
6
CONTINUOUS
10
88.7336
20
-69.9844
11
88.7044
21
-70.0314
0
LINE
8
BLACK
6
CONTINUOUS
10
88.7044
20
-70.0314
11
88.6891
21
-70.0453
0
LINE
8
BLACK
6
CONTINUOUS
10
88.6891
20
-70.0453
11
88.6774
21
-70.0623
0
LINE
8
BLACK
6
CONTINUOUS
10
88.6774
20
-70.0623
11
88.487
21
-70.2528
0
LINE
8
BLACK
6
CONTINUOUS
10
88.487
20
-70.2528
11
88.4444
21
-70.2882
0
LINE
8
BLACK
6
CONTINUOUS
10
88.4444
20
-70.2882
11
88.4255
21
-70.2965
0
LINE
8
BLACK
6
CONTINUOUS
10
88.4255
20
-70.2965
11
88.409
21
-70.309
0
LINE
8
BLACK
6
CONTINUOUS
10
88.409
20
-70.309
11
88.0281
21
-70.4995
0
LINE
8
BLACK
6
CONTINUOUS
10
88.0281
20
-70.4995
11
88.0082
21
-70.5072
0
LINE
8
BLACK
6
CONTINUOUS
10
88.0082
20
-70.5072
11
88.0023
21
-70.5109
0
LINE
8
BLACK
6
CONTINUOUS
10
88.0023
20
-70.5109
11
87.9955
21
-70.5122
0
LINE
8
BLACK
6
CONTINUOUS
10
87.9955
20
-70.5122
11
87.9765
21
-70.5196
0
LINE
8
BLACK
6
CONTINUOUS
10
87.9765
20
-70.5196
11
87.9349
21
-70.5235
0
LINE
8
BLACK
6
CONTINUOUS
10
87.9349
20
-70.5235
11
87.8939
21
-70.5312
0
LINE
8
BLACK
6
CONTINUOUS
10
87.8939
20
-70.5312
11
87.3225
21
-70.5312
0
LINE
8
BLACK
6
CONTINUOUS
10
87.3225
20
-70.5312
11
87.3013
21
-70.5292
0
LINE
8
BLACK
6
CONTINUOUS
10
87.3013
20
-70.5292
11
87.2943
21
-70.5298
0
LINE
8
BLACK
6
CONTINUOUS
10
87.2943
20
-70.5298
11
87.2877
21
-70.5279
0
LINE
8
BLACK
6
CONTINUOUS
10
87.2877
20
-70.5279
11
87.2673
21
-70.5261
0
LINE
8
BLACK
6
CONTINUOUS
10
87.2673
20
-70.5261
11
87.2284
21
-70.511
0
LINE
8
BLACK
6
CONTINUOUS
10
87.2284
20
-70.511
11
87.1883
21
-70.4995
0
LINE
8
BLACK
6
CONTINUOUS
10
87.1883
20
-70.4995
11
86.8073
21
-70.309
0
LINE
8
BLACK
6
CONTINUOUS
10
86.8073
20
-70.309
11
86.7603
21
-70.2798
0
LINE
8
BLACK
6
CONTINUOUS
10
86.7603
20
-70.2798
11
86.7464
21
-70.2645
0
LINE
8
BLACK
6
CONTINUOUS
10
86.7464
20
-70.2645
11
86.7294
21
-70.2528
0
LINE
8
BLACK
6
CONTINUOUS
10
86.7294
20
-70.2528
11
86.5389
21
-70.0623
0
LINE
8
BLACK
6
CONTINUOUS
10
86.5389
20
-70.0623
11
86.5035
21
-70.0198
0
LINE
8
BLACK
6
CONTINUOUS
10
86.5035
20
-70.0198
11
86.4952
21
-70.0008
0
LINE
8
BLACK
6
CONTINUOUS
10
86.4952
20
-70.0008
11
86.4827
21
-69.9844
0
LINE
8
BLACK
6
CONTINUOUS
10
86.4827
20
-69.9844
11
86.2922
21
-69.6034
0
LINE
8
BLACK
6
CONTINUOUS
10
86.2922
20
-69.6034
11
86.2845
21
-69.5836
0
LINE
8
BLACK
6
CONTINUOUS
10
86.2845
20
-69.5836
11
86.2808
21
-69.5776
0
LINE
8
BLACK
6
CONTINUOUS
10
86.2808
20
-69.5776
11
86.2795
21
-69.5708
0
LINE
8
BLACK
6
CONTINUOUS
10
86.2795
20
-69.5708
11
86.2721
21
-69.5518
0
LINE
8
BLACK
6
CONTINUOUS
10
86.2721
20
-69.5518
11
86.2682
21
-69.5103
0
LINE
8
BLACK
6
CONTINUOUS
10
86.2682
20
-69.5103
11
86.2606
21
-69.4693
0
LINE
8
BLACK
6
CONTINUOUS
10
86.2606
20
-69.4693
11
86.2606
21
-68.3264
0
LINE
8
BLACK
6
CONTINUOUS
10
86.2606
20
-68.3264
11
86.2625
21
-68.3052
0
LINE
8
BLACK
6
CONTINUOUS
10
86.2625
20
-68.3052
11
86.2619
21
-68.2982
0
LINE
8
BLACK
6
CONTINUOUS
10
86.2619
20
-68.2982
11
86.2638
21
-68.2916
0
LINE
8
BLACK
6
CONTINUOUS
10
86.2638
20
-68.2916
11
86.2657
21
-68.2713
0
LINE
8
BLACK
6
CONTINUOUS
10
86.2657
20
-68.2713
11
86.2807
21
-68.2324
0
LINE
8
BLACK
6
CONTINUOUS
10
86.2807
20
-68.2324
11
86.2922
21
-68.1922
0
LINE
8
BLACK
6
CONTINUOUS
10
86.2922
20
-68.1922
11
86.4827
21
-67.8113
0
LINE
8
BLACK
6
CONTINUOUS
10
86.4827
20
-67.8113
11
86.5119
21
-67.7643
0
LINE
8
BLACK
6
CONTINUOUS
10
86.5119
20
-67.7643
11
86.5272
21
-67.7504
0
LINE
8
BLACK
6
CONTINUOUS
10
86.5272
20
-67.7504
11
86.5389
21
-67.7333
0
LINE
8
BLACK
6
CONTINUOUS
10
86.5389
20
-67.7333
11
86.7294
21
-67.5428
0
LINE
8
BLACK
6
CONTINUOUS
10
86.7294
20
-67.5428
11
86.772
21
-67.5075
0
LINE
8
BLACK
6
CONTINUOUS
10
86.772
20
-67.5075
11
86.7909
21
-67.4991
0
LINE
8
BLACK
6
CONTINUOUS
10
86.7909
20
-67.4991
11
86.8073
21
-67.4866
0
LINE
8
BLACK
6
CONTINUOUS
10
86.8073
20
-67.4866
11
87.1883
21
-67.2962
0
LINE
8
BLACK
6
CONTINUOUS
10
87.1883
20
-67.2962
11
87.2081
21
-67.2885
0
LINE
8
BLACK
6
CONTINUOUS
10
87.2081
20
-67.2885
11
87.2141
21
-67.2848
0
LINE
8
BLACK
6
CONTINUOUS
10
87.2141
20
-67.2848
11
87.2209
21
-67.2835
0
LINE
8
BLACK
6
CONTINUOUS
10
87.2209
20
-67.2835
11
87.2399
21
-67.2761
0
LINE
8
BLACK
6
CONTINUOUS
10
87.2399
20
-67.2761
11
87.2814
21
-67.2722
0
LINE
8
BLACK
6
CONTINUOUS
10
87.2814
20
-67.2722
11
87.3225
21
-67.2645
0
LINE
8
BLACK
6
CONTINUOUS
10
87.3225
20
-67.2645
11
87.8939
21
-67.2645
0
LINE
8
BLACK
6
CONTINUOUS
10
87.8939
20
-67.2645
11
87.9151
21
-67.2665
0
LINE
8
BLACK
6
CONTINUOUS
10
87.3933
20
-67.8645
11
87.1192
21
-68.0015
0
LINE
8
BLACK
6
CONTINUOUS
10
87.1192
20
-68.0015
11
86.9976
21
-68.1232
0
LINE
8
BLACK
6
CONTINUOUS
10
86.9976
20
-68.1232
11
86.8606
21
-68.3972
0
LINE
8
BLACK
6
CONTINUOUS
10
86.8606
20
-68.3972
11
86.8606
21
-69.3984
0
LINE
8
BLACK
6
CONTINUOUS
10
86.8606
20
-69.3984
11
86.9976
21
-69.6725
0
LINE
8
BLACK
6
CONTINUOUS
10
86.9976
20
-69.6725
11
87.1192
21
-69.7941
0
LINE
8
BLACK
6
CONTINUOUS
10
87.1192
20
-69.7941
11
87.3933
21
-69.9312
0
LINE
8
BLACK
6
CONTINUOUS
10
87.3933
20
-69.9312
11
87.8231
21
-69.9312
0
LINE
8
BLACK
6
CONTINUOUS
10
87.8231
20
-69.9312
11
88.0971
21
-69.7941
0
LINE
8
BLACK
6
CONTINUOUS
10
88.0971
20
-69.7941
11
88.2188
21
-69.6725
0
LINE
8
BLACK
6
CONTINUOUS
10
88.2188
20
-69.6725
11
88.3558
21
-69.3984
0
LINE
8
BLACK
6
CONTINUOUS
10
88.3558
20
-69.3984
11
88.3558
21
-68.3972
0
LINE
8
BLACK
6
CONTINUOUS
10
88.3558
20
-68.3972
11
88.2188
21
-68.1232
0
LINE
8
BLACK
6
CONTINUOUS
10
88.2188
20
-68.1232
11
88.0971
21
-68.0015
0
LINE
8
BLACK
6
CONTINUOUS
10
88.0971
20
-68.0015
11
87.8231
21
-67.8645
0
LINE
8
BLACK
6
CONTINUOUS
10
87.8231
20
-67.8645
11
87.3933
21
-67.8645
0
LINE
8
BLACK
6
CONTINUOUS
10
81.0579
20
-67.2665
11
81.0649
21
-67.2658
0
LINE
8
BLACK
6
CONTINUOUS
10
81.0649
20
-67.2658
11
81.0716
21
-67.2677
0
LINE
8
BLACK
6
CONTINUOUS
10
81.0716
20
-67.2677
11
81.0919
21
-67.2696
0
LINE
8
BLACK
6
CONTINUOUS
10
81.0919
20
-67.2696
11
81.1308
21
-67.2847
0
LINE
8
BLACK
6
CONTINUOUS
10
81.1308
20
-67.2847
11
81.1709
21
-67.2962
0
LINE
8
BLACK
6
CONTINUOUS
10
81.1709
20
-67.2962
11
81.5519
21
-67.4866
0
LINE
8
BLACK
6
CONTINUOUS
10
81.5519
20
-67.4866
11
81.5989
21
-67.5159
0
LINE
8
BLACK
6
CONTINUOUS
10
81.5989
20
-67.5159
11
81.673
21
-67.5975
0
LINE
8
BLACK
6
CONTINUOUS
10
81.673
20
-67.5975
11
81.7127
21
-67.7003
0
LINE
8
BLACK
6
CONTINUOUS
10
81.7127
20
-67.7003
11
81.7125
21
-67.8106
0
LINE
8
BLACK
6
CONTINUOUS
10
81.7125
20
-67.8106
11
81.6725
21
-67.9133
0
LINE
8
BLACK
6
CONTINUOUS
10
81.6725
20
-67.9133
11
81.5981
21
-67.9947
0
LINE
8
BLACK
6
CONTINUOUS
10
81.5981
20
-67.9947
11
81.4993
21
-68.0437
0
LINE
8
BLACK
6
CONTINUOUS
10
81.4993
20
-68.0437
11
81.3895
21
-68.0536
0
LINE
8
BLACK
6
CONTINUOUS
10
81.3895
20
-68.0536
11
81.2835
21
-68.0233
0
LINE
8
BLACK
6
CONTINUOUS
10
81.2835
20
-68.0233
11
80.9659
21
-67.8645
0
LINE
8
BLACK
6
CONTINUOUS
10
80.9659
20
-67.8645
11
80.3457
21
-67.8645
0
LINE
8
BLACK
6
CONTINUOUS
10
80.3457
20
-67.8645
11
80.0716
21
-68.0015
0
LINE
8
BLACK
6
CONTINUOUS
10
80.0716
20
-68.0015
11
79.95
21
-68.1232
0
LINE
8
BLACK
6
CONTINUOUS
10
79.95
20
-68.1232
11
79.8129
21
-68.3972
0
LINE
8
BLACK
6
CONTINUOUS
10
79.8129
20
-68.3972
11
79.8129
21
-69.3984
0
LINE
8
BLACK
6
CONTINUOUS
10
79.8129
20
-69.3984
11
79.95
21
-69.6725
0
LINE
8
BLACK
6
CONTINUOUS
10
79.95
20
-69.6725
11
80.0716
21
-69.7941
0
LINE
8
BLACK
6
CONTINUOUS
10
80.0716
20
-69.7941
11
80.3457
21
-69.9312
0
LINE
8
BLACK
6
CONTINUOUS
10
80.3457
20
-69.9312
11
80.9659
21
-69.9312
0
LINE
8
BLACK
6
CONTINUOUS
10
80.9659
20
-69.9312
11
81.2835
21
-69.7724
0
LINE
8
BLACK
6
CONTINUOUS
10
81.2835
20
-69.7724
11
81.3351
21
-69.7523
0
LINE
8
BLACK
6
CONTINUOUS
10
81.3351
20
-69.7523
11
81.4449
21
-69.7419
0
LINE
8
BLACK
6
CONTINUOUS
10
81.4449
20
-69.7419
11
81.551
21
-69.7719
0
LINE
8
BLACK
6
CONTINUOUS
10
81.551
20
-69.7719
11
81.6391
21
-69.8382
0
LINE
8
BLACK
6
CONTINUOUS
10
81.6391
20
-69.8382
11
81.6973
21
-69.9319
0
LINE
8
BLACK
6
CONTINUOUS
10
81.6973
20
-69.9319
11
81.7177
21
-70.0402
0
LINE
8
BLACK
6
CONTINUOUS
10
81.7177
20
-70.0402
11
81.6976
21
-70.1486
0
LINE
8
BLACK
6
CONTINUOUS
10
81.6976
20
-70.1486
11
81.6397
21
-70.2424
0
LINE
8
BLACK
6
CONTINUOUS
10
81.6397
20
-70.2424
11
81.5519
21
-70.309
0
LINE
8
BLACK
6
CONTINUOUS
10
81.5519
20
-70.309
11
81.1709
21
-70.4995
0
LINE
8
BLACK
6
CONTINUOUS
10
81.1709
20
-70.4995
11
81.1511
21
-70.5072
0
LINE
8
BLACK
6
CONTINUOUS
10
81.1511
20
-70.5072
11
81.1451
21
-70.5109
0
LINE
8
BLACK
6
CONTINUOUS
10
81.1451
20
-70.5109
11
81.1383
21
-70.5122
0
LINE
8
BLACK
6
CONTINUOUS
10
81.1383
20
-70.5122
11
81.1193
21
-70.5196
0
LINE
8
BLACK
6
CONTINUOUS
10
81.1193
20
-70.5196
11
81.0778
21
-70.5235
0
LINE
8
BLACK
6
CONTINUOUS
10
81.0778
20
-70.5235
11
81.0367
21
-70.5312
0
LINE
8
BLACK
6
CONTINUOUS
10
81.0367
20
-70.5312
11
80.2748
21
-70.5312
0
LINE
8
BLACK
6
CONTINUOUS
10
80.2748
20
-70.5312
11
80.2537
21
-70.5292
0
LINE
8
BLACK
6
CONTINUOUS
10
80.2537
20
-70.5292
11
80.2467
21
-70.5298
0
LINE
8
BLACK
6
CONTINUOUS
10
80.2467
20
-70.5298
11
80.24
21
-70.5279
0
LINE
8
BLACK
6
CONTINUOUS
10
80.24
20
-70.5279
11
80.2197
21
-70.5261
0
LINE
8
BLACK
6
CONTINUOUS
10
80.2197
20
-70.5261
11
80.1808
21
-70.511
0
LINE
8
BLACK
6
CONTINUOUS
10
80.1808
20
-70.511
11
80.1407
21
-70.4995
0
LINE
8
BLACK
6
CONTINUOUS
10
80.1407
20
-70.4995
11
79.7597
21
-70.309
0
LINE
8
BLACK
6
CONTINUOUS
10
79.7597
20
-70.309
11
79.7127
21
-70.2798
0
LINE
8
BLACK
6
CONTINUOUS
10
79.7127
20
-70.2798
11
79.6988
21
-70.2645
0
LINE
8
BLACK
6
CONTINUOUS
10
79.6988
20
-70.2645
11
79.6818
21
-70.2528
0
LINE
8
BLACK
6
CONTINUOUS
10
79.6818
20
-70.2528
11
79.4913
21
-70.0623
0
LINE
8
BLACK
6
CONTINUOUS
10
79.4913
20
-70.0623
11
79.4559
21
-70.0198
0
LINE
8
BLACK
6
CONTINUOUS
10
79.4559
20
-70.0198
11
79.4476
21
-70.0008
0
LINE
8
BLACK
6
CONTINUOUS
10
79.4476
20
-70.0008
11
79.4351
21
-69.9844
0
LINE
8
BLACK
6
CONTINUOUS
10
79.4351
20
-69.9844
11
79.2446
21
-69.6034
0
LINE
8
BLACK
6
CONTINUOUS
10
79.2446
20
-69.6034
11
79.2369
21
-69.5836
0
LINE
8
BLACK
6
CONTINUOUS
10
79.2369
20
-69.5836
11
79.2332
21
-69.5776
0
LINE
8
BLACK
6
CONTINUOUS
10
79.2332
20
-69.5776
11
79.2319
21
-69.5708
0
LINE
8
BLACK
6
CONTINUOUS
10
79.2319
20
-69.5708
11
79.2245
21
-69.5518
0
LINE
8
BLACK
6
CONTINUOUS
10
79.2245
20
-69.5518
11
79.2206
21
-69.5103
0
LINE
8
BLACK
6
CONTINUOUS
10
79.2206
20
-69.5103
11
79.2129
21
-69.4693
0
LINE
8
BLACK
6
CONTINUOUS
10
79.2129
20
-69.4693
11
79.2129
21
-68.3264
0
LINE
8
BLACK
6
CONTINUOUS
10
79.2129
20
-68.3264
11
79.2149
21
-68.3052
0
LINE
8
BLACK
6
CONTINUOUS
10
79.2149
20
-68.3052
11
79.2143
21
-68.2982
0
LINE
8
BLACK
6
CONTINUOUS
10
79.2143
20
-68.2982
11
79.2162
21
-68.2916
0
LINE
8
BLACK
6
CONTINUOUS
10
79.2162
20
-68.2916
11
79.218
21
-68.2713
0
LINE
8
BLACK
6
CONTINUOUS
10
79.218
20
-68.2713
11
79.2331
21
-68.2324
0
LINE
8
BLACK
6
CONTINUOUS
10
79.2331
20
-68.2324
11
79.2446
21
-68.1922
0
LINE
8
BLACK
6
CONTINUOUS
10
79.2446
20
-68.1922
11
79.4351
21
-67.8113
0
LINE
8
BLACK
6
CONTINUOUS
10
79.4351
20
-67.8113
11
79.4643
21
-67.7643
0
LINE
8
BLACK
6
CONTINUOUS
10
79.4643
20
-67.7643
11
79.4796
21
-67.7504
0
LINE
8
BLACK
6
CONTINUOUS
10
79.4796
20
-67.7504
11
79.4913
21
-67.7333
0
LINE
8
BLACK
6
CONTINUOUS
10
79.4913
20
-67.7333
11
79.6818
21
-67.5428
0
LINE
8
BLACK
6
CONTINUOUS
10
79.6818
20
-67.5428
11
79.7243
21
-67.5075
0
LINE
8
BLACK
6
CONTINUOUS
10
79.7243
20
-67.5075
11
79.7433
21
-67.4991
0
LINE
8
BLACK
6
CONTINUOUS
10
79.7433
20
-67.4991
11
79.7597
21
-67.4866
0
LINE
8
BLACK
6
CONTINUOUS
10
79.7597
20
-67.4866
11
80.1407
21
-67.2962
0
LINE
8
BLACK
6
CONTINUOUS
10
80.1407
20
-67.2962
11
80.1605
21
-67.2885
0
LINE
8
BLACK
6
CONTINUOUS
10
80.1605
20
-67.2885
11
80.1665
21
-67.2848
0
LINE
8
BLACK
6
CONTINUOUS
10
80.1665
20
-67.2848
11
80.1733
21
-67.2835
0
LINE
8
BLACK
6
CONTINUOUS
10
80.1733
20
-67.2835
11
80.1923
21
-67.2761
0
LINE
8
BLACK
6
CONTINUOUS
10
80.1923
20
-67.2761
11
80.2338
21
-67.2722
0
LINE
8
BLACK
6
CONTINUOUS
10
80.2338
20
-67.2722
11
80.2748
21
-67.2645
0
LINE
8
BLACK
6
CONTINUOUS
10
80.2748
20
-67.2645
11
81.0367
21
-67.2645
0
LINE
8
BLACK
6
CONTINUOUS
10
81.0367
20
-67.2645
11
81.0579
21
-67.2665
0
LINE
8
BLACK
6
CONTINUOUS
10
68.9436
20
-67.2665
11
68.9506
21
-67.2658
0
LINE
8
BLACK
6
CONTINUOUS
10
68.9506
20
-67.2658
11
68.9573
21
-67.2677
0
LINE
8
BLACK
6
CONTINUOUS
10
68.9573
20
-67.2677
11
68.9776
21
-67.2696
0
LINE
8
BLACK
6
CONTINUOUS
10
68.9776
20
-67.2696
11
69.0165
21
-67.2847
0
LINE
8
BLACK
6
CONTINUOUS
10
69.0165
20
-67.2847
11
69.0566
21
-67.2962
0
LINE
8
BLACK
6
CONTINUOUS
10
69.0566
20
-67.2962
11
69.4376
21
-67.4866
0
LINE
8
BLACK
6
CONTINUOUS
10
69.4376
20
-67.4866
11
69.4846
21
-67.5159
0
LINE
8
BLACK
6
CONTINUOUS
10
69.4846
20
-67.5159
11
69.4937
21
-67.5259
0
LINE
8
BLACK
6
CONTINUOUS
10
69.4937
20
-67.5259
11
69.5052
21
-67.5329
0
LINE
8
BLACK
6
CONTINUOUS
10
69.5052
20
-67.5329
11
69.5305
21
-67.5664
0
LINE
8
BLACK
6
CONTINUOUS
10
69.5305
20
-67.5664
11
69.5587
21
-67.5975
0
LINE
8
BLACK
6
CONTINUOUS
10
69.5587
20
-67.5975
11
69.5636
21
-67.6101
0
LINE
8
BLACK
6
CONTINUOUS
10
69.5636
20
-67.6101
11
69.5717
21
-67.6208
0
LINE
8
BLACK
6
CONTINUOUS
10
69.5717
20
-67.6208
11
69.7622
21
-68.0018
0
LINE
8
BLACK
6
CONTINUOUS
10
69.7622
20
-68.0018
11
69.7699
21
-68.0216
0
LINE
8
BLACK
6
CONTINUOUS
10
69.7699
20
-68.0216
11
69.7736
21
-68.0276
0
LINE
8
BLACK
6
CONTINUOUS
10
69.7736
20
-68.0276
11
69.7749
21
-68.0343
0
LINE
8
BLACK
6
CONTINUOUS
10
69.7749
20
-68.0343
11
69.7823
21
-68.0533
0
LINE
8
BLACK
6
CONTINUOUS
10
69.7823
20
-68.0533
11
69.7862
21
-68.0949
0
LINE
8
BLACK
6
CONTINUOUS
10
69.7862
20
-68.0949
11
69.7939
21
-68.1359
0
LINE
8
BLACK
6
CONTINUOUS
10
69.7939
20
-68.1359
11
69.7939
21
-68.5169
0
LINE
8
BLACK
6
CONTINUOUS
10
69.7939
20
-68.5169
11
69.7888
21
-68.572
0
LINE
8
BLACK
6
CONTINUOUS
10
69.7888
20
-68.572
11
69.7844
21
-68.5833
0
LINE
8
BLACK
6
CONTINUOUS
10
69.7844
20
-68.5833
11
69.7834
21
-68.5953
0
LINE
8
BLACK
6
CONTINUOUS
10
69.7834
20
-68.5953
11
69.7646
21
-68.6344
0
LINE
8
BLACK
6
CONTINUOUS
10
69.7646
20
-68.6344
11
69.749
21
-68.6748
0
LINE
8
BLACK
6
CONTINUOUS
10
69.749
20
-68.6748
11
69.7408
21
-68.6837
0
LINE
8
BLACK
6
CONTINUOUS
10
69.7408
20
-68.6837
11
69.7356
21
-68.6946
0
LINE
8
BLACK
6
CONTINUOUS
10
69.7356
20
-68.6946
11
69.7039
21
-68.7243
0
LINE
8
BLACK
6
CONTINUOUS
10
69.7039
20
-68.7243
11
69.6747
21
-68.7563
0
LINE
8
BLACK
6
CONTINUOUS
10
69.6747
20
-68.7563
11
69.6639
21
-68.7617
0
LINE
8
BLACK
6
CONTINUOUS
10
69.6639
20
-68.7617
11
69.655
21
-68.7699
0
LINE
8
BLACK
6
CONTINUOUS
10
69.655
20
-68.7699
11
69.6148
21
-68.7861
0
LINE
8
BLACK
6
CONTINUOUS
10
69.6148
20
-68.7861
11
69.576
21
-68.8054
0
LINE
8
BLACK
6
CONTINUOUS
10
69.576
20
-68.8054
11
69.5639
21
-68.8065
0
LINE
8
BLACK
6
CONTINUOUS
10
69.5639
20
-68.8065
11
69.5527
21
-68.8111
0
LINE
8
BLACK
6
CONTINUOUS
10
69.5527
20
-68.8111
11
67.8891
21
-69.1438
0
LINE
8
BLACK
6
CONTINUOUS
10
67.8891
20
-69.1438
11
67.8891
21
-69.5889
0
LINE
8
BLACK
6
CONTINUOUS
10
67.8891
20
-69.5889
11
68.0032
21
-69.8171
0
LINE
8
BLACK
6
CONTINUOUS
10
68.0032
20
-69.8171
11
68.2314
21
-69.9312
0
LINE
8
BLACK
6
CONTINUOUS
10
68.2314
20
-69.9312
11
68.8516
21
-69.9312
0
LINE
8
BLACK
6
CONTINUOUS
10
68.8516
20
-69.9312
11
69.1692
21
-69.7724
0
LINE
8
BLACK
6
CONTINUOUS
10
69.1692
20
-69.7724
11
69.2208
21
-69.7523
0
LINE
8
BLACK
6
CONTINUOUS
10
69.2208
20
-69.7523
11
69.3306
21
-69.7419
0
LINE
8
BLACK
6
CONTINUOUS
10
69.3306
20
-69.7419
11
69.4367
21
-69.7719
0
LINE
8
BLACK
6
CONTINUOUS
10
69.4367
20
-69.7719
11
69.5248
21
-69.8382
0
LINE
8
BLACK
6
CONTINUOUS
10
69.5248
20
-69.8382
11
69.583
21
-69.9319
0
LINE
8
BLACK
6
CONTINUOUS
10
69.583
20
-69.9319
11
69.6034
21
-70.0402
0
LINE
8
BLACK
6
CONTINUOUS
10
69.6034
20
-70.0402
11
69.5833
21
-70.1486
0
LINE
8
BLACK
6
CONTINUOUS
10
69.5833
20
-70.1486
11
69.5254
21
-70.2424
0
LINE
8
BLACK
6
CONTINUOUS
10
69.5254
20
-70.2424
11
69.4376
21
-70.309
0
LINE
8
BLACK
6
CONTINUOUS
10
69.4376
20
-70.309
11
69.0566
21
-70.4995
0
LINE
8
BLACK
6
CONTINUOUS
10
69.0566
20
-70.4995
11
69.0368
21
-70.5072
0
LINE
8
BLACK
6
CONTINUOUS
10
69.0368
20
-70.5072
11
69.0308
21
-70.5109
0
LINE
8
BLACK
6
CONTINUOUS
10
69.0308
20
-70.5109
11
69.024
21
-70.5122
0
LINE
8
BLACK
6
CONTINUOUS
10
69.024
20
-70.5122
11
69.005
21
-70.5196
0
LINE
8
BLACK
6
CONTINUOUS
10
69.005
20
-70.5196
11
68.9635
21
-70.5235
0
LINE
8
BLACK
6
CONTINUOUS
10
68.9635
20
-70.5235
11
68.9225
21
-70.5312
0
LINE
8
BLACK
6
CONTINUOUS
10
68.9225
20
-70.5312
11
68.1606
21
-70.5312
0
LINE
8
BLACK
6
CONTINUOUS
10
68.1606
20
-70.5312
11
68.1394
21
-70.5292
0
LINE
8
BLACK
6
CONTINUOUS
10
68.1394
20
-70.5292
11
68.1324
21
-70.5298
0
LINE
8
BLACK
6
CONTINUOUS
10
68.1324
20
-70.5298
11
68.1257
21
-70.5279
0
LINE
8
BLACK
6
CONTINUOUS
10
68.1257
20
-70.5279
11
68.1054
21
-70.5261
0
LINE
8
BLACK
6
CONTINUOUS
10
68.1054
20
-70.5261
11
68.0665
21
-70.511
0
LINE
8
BLACK
6
CONTINUOUS
10
68.0665
20
-70.511
11
68.0264
21
-70.4995
0
LINE
8
BLACK
6
CONTINUOUS
10
68.0264
20
-70.4995
11
67.6454
21
-70.309
0
LINE
8
BLACK
6
CONTINUOUS
10
67.6454
20
-70.309
11
67.5984
21
-70.2798
0
LINE
8
BLACK
6
CONTINUOUS
10
67.5984
20
-70.2798
11
67.5893
21
-70.2698
0
LINE
8
BLACK
6
CONTINUOUS
10
67.5893
20
-70.2698
11
67.5779
21
-70.2627
0
LINE
8
BLACK
6
CONTINUOUS
10
67.5779
20
-70.2627
11
67.5525
21
-70.2293
0
LINE
8
BLACK
6
CONTINUOUS
10
67.5525
20
-70.2293
11
67.5243
21
-70.1982
0
LINE
8
BLACK
6
CONTINUOUS
10
67.5243
20
-70.1982
11
67.5194
21
-70.1856
0
LINE
8
BLACK
6
CONTINUOUS
10
67.5194
20
-70.1856
11
67.5113
21
-70.1749
0
LINE
8
BLACK
6
CONTINUOUS
10
67.5113
20
-70.1749
11
67.3208
21
-69.7939
0
LINE
8
BLACK
6
CONTINUOUS
10
67.3208
20
-69.7939
11
67.3131
21
-69.7741
0
LINE
8
BLACK
6
CONTINUOUS
10
67.3131
20
-69.7741
11
67.3094
21
-69.7681
0
LINE
8
BLACK
6
CONTINUOUS
10
67.3094
20
-69.7681
11
67.3081
21
-69.7613
0
LINE
8
BLACK
6
CONTINUOUS
10
67.3081
20
-69.7613
11
67.3007
21
-69.7423
0
LINE
8
BLACK
6
CONTINUOUS
10
67.3007
20
-69.7423
11
67.2968
21
-69.7008
0
LINE
8
BLACK
6
CONTINUOUS
10
67.2968
20
-69.7008
11
67.2891
21
-69.6597
0
LINE
8
BLACK
6
CONTINUOUS
10
67.2891
20
-69.6597
11
67.2891
21
-68.1359
0
LINE
8
BLACK
6
CONTINUOUS
10
67.2891
20
-68.1359
11
67.2911
21
-68.1147
0
LINE
8
BLACK
6
CONTINUOUS
10
67.2911
20
-68.1147
11
67.2905
21
-68.1078
0
LINE
8
BLACK
6
CONTINUOUS
10
67.2905
20
-68.1078
11
67.2924
21
-68.1011
0
LINE
8
BLACK
6
CONTINUOUS
10
67.2924
20
-68.1011
11
67.2942
21
-68.0808
0
LINE
8
BLACK
6
CONTINUOUS
10
67.2942
20
-68.0808
11
67.3093
21
-68.0419
0
LINE
8
BLACK
6
CONTINUOUS
10
67.3093
20
-68.0419
11
67.3208
21
-68.0018
0
LINE
8
BLACK
6
CONTINUOUS
10
67.3208
20
-68.0018
11
67.5113
21
-67.6208
0
LINE
8
BLACK
6
CONTINUOUS
10
67.5113
20
-67.6208
11
67.5405
21
-67.5738
0
LINE
8
BLACK
6
CONTINUOUS
10
67.5405
20
-67.5738
11
67.5505
21
-67.5647
0
LINE
8
BLACK
6
CONTINUOUS
10
67.5505
20
-67.5647
11
67.5576
21
-67.5532
0
LINE
8
BLACK
6
CONTINUOUS
10
67.5576
20
-67.5532
11
67.591
21
-67.5279
0
LINE
8
BLACK
6
CONTINUOUS
10
67.591
20
-67.5279
11
67.6221
21
-67.4996
0
LINE
8
BLACK
6
CONTINUOUS
10
67.6221
20
-67.4996
11
67.6347
21
-67.4948
0
LINE
8
BLACK
6
CONTINUOUS
10
67.6347
20
-67.4948
11
67.6454
21
-67.4866
0
LINE
8
BLACK
6
CONTINUOUS
10
67.6454
20
-67.4866
11
68.0264
21
-67.2962
0
LINE
8
BLACK
6
CONTINUOUS
10
68.0264
20
-67.2962
11
68.0462
21
-67.2885
0
LINE
8
BLACK
6
CONTINUOUS
10
68.0462
20
-67.2885
11
68.0522
21
-67.2848
0
LINE
8
BLACK
6
CONTINUOUS
10
68.0522
20
-67.2848
11
68.059
21
-67.2835
0
LINE
8
BLACK
6
CONTINUOUS
10
68.059
20
-67.2835
11
68.078
21
-67.2761
0
LINE
8
BLACK
6
CONTINUOUS
10
68.078
20
-67.2761
11
68.1195
21
-67.2722
0
LINE
8
BLACK
6
CONTINUOUS
10
68.1195
20
-67.2722
11
68.1606
21
-67.2645
0
LINE
8
BLACK
6
CONTINUOUS
10
68.1606
20
-67.2645
11
68.9225
21
-67.2645
0
LINE
8
BLACK
6
CONTINUOUS
10
68.9225
20
-67.2645
11
68.9436
21
-67.2665
0
LINE
8
BLACK
6
CONTINUOUS
10
68.2314
20
-67.8645
11
68.0032
21
-67.9786
0
LINE
8
BLACK
6
CONTINUOUS
10
68.0032
20
-67.9786
11
67.8891
21
-68.2067
0
LINE
8
BLACK
6
CONTINUOUS
10
67.8891
20
-68.2067
11
67.8891
21
-68.5319
0
LINE
8
BLACK
6
CONTINUOUS
10
67.8891
20
-68.5319
11
69.1939
21
-68.2709
0
LINE
8
BLACK
6
CONTINUOUS
10
69.1939
20
-68.2709
11
69.1939
21
-68.2067
0
LINE
8
BLACK
6
CONTINUOUS
10
69.1939
20
-68.2067
11
69.0798
21
-67.9786
0
LINE
8
BLACK
6
CONTINUOUS
10
69.0798
20
-67.9786
11
68.8516
21
-67.8645
0
LINE
8
BLACK
6
CONTINUOUS
10
68.8516
20
-67.8645
11
68.2314
21
-67.8645
0
LINE
8
BLACK
6
CONTINUOUS
10
103.938
20
-65.9565
11
104.029
21
-66.0187
0
LINE
8
BLACK
6
CONTINUOUS
10
104.029
20
-66.0187
11
104.092
21
-66.1095
0
LINE
8
BLACK
6
CONTINUOUS
10
104.092
20
-66.1095
11
104.117
21
-66.2168
0
LINE
8
BLACK
6
CONTINUOUS
10
104.117
20
-66.2168
11
104.102
21
-66.326
0
LINE
8
BLACK
6
CONTINUOUS
10
104.102
20
-66.326
11
102.769
21
-70.326
0
LINE
8
BLACK
6
CONTINUOUS
10
102.769
20
-70.326
11
102.747
21
-70.3767
0
LINE
8
BLACK
6
CONTINUOUS
10
102.747
20
-70.3767
11
102.737
21
-70.3879
0
LINE
8
BLACK
6
CONTINUOUS
10
102.737
20
-70.3879
11
102.732
21
-70.4011
0
LINE
8
BLACK
6
CONTINUOUS
10
102.732
20
-70.4011
11
102.703
21
-70.4301
0
LINE
8
BLACK
6
CONTINUOUS
10
102.703
20
-70.4301
11
102.676
21
-70.4616
0
LINE
8
BLACK
6
CONTINUOUS
10
102.676
20
-70.4616
11
102.664
21
-70.4687
0
LINE
8
BLACK
6
CONTINUOUS
10
102.664
20
-70.4687
11
102.653
21
-70.4789
0
LINE
8
BLACK
6
CONTINUOUS
10
102.653
20
-70.4789
11
102.616
21
-70.4954
0
LINE
8
BLACK
6
CONTINUOUS
10
102.616
20
-70.4954
11
102.58
21
-70.5155
0
LINE
8
BLACK
6
CONTINUOUS
10
102.58
20
-70.5155
11
102.566
21
-70.5175
0
LINE
8
BLACK
6
CONTINUOUS
10
102.566
20
-70.5175
11
102.553
21
-70.5233
0
LINE
8
BLACK
6
CONTINUOUS
10
102.553
20
-70.5233
11
102.512
21
-70.5251
0
LINE
8
BLACK
6
CONTINUOUS
10
102.512
20
-70.5251
11
102.471
21
-70.5309
0
LINE
8
BLACK
6
CONTINUOUS
10
102.471
20
-70.5309
11
102.457
21
-70.5276
0
LINE
8
BLACK
6
CONTINUOUS
10
102.457
20
-70.5276
11
102.442
21
-70.5282
0
LINE
8
BLACK
6
CONTINUOUS
10
102.442
20
-70.5282
11
102.404
21
-70.5151
0
LINE
8
BLACK
6
CONTINUOUS
10
102.404
20
-70.5151
11
102.364
21
-70.5058
0
LINE
8
BLACK
6
CONTINUOUS
10
102.364
20
-70.5058
11
102.352
21
-70.4976
0
LINE
8
BLACK
6
CONTINUOUS
10
102.352
20
-70.4976
11
102.338
21
-70.493
0
LINE
8
BLACK
6
CONTINUOUS
10
102.338
20
-70.493
11
102.306
21
-70.4668
0
LINE
8
BLACK
6
CONTINUOUS
10
102.306
20
-70.4668
11
102.273
21
-70.4436
0
LINE
8
BLACK
6
CONTINUOUS
10
102.273
20
-70.4436
11
102.264
21
-70.4317
0
LINE
8
BLACK
6
CONTINUOUS
10
102.264
20
-70.4317
11
102.253
21
-70.4224
0
LINE
8
BLACK
6
CONTINUOUS
10
102.253
20
-70.4224
11
102.233
21
-70.3866
0
LINE
8
BLACK
6
CONTINUOUS
10
102.233
20
-70.3866
11
102.21
21
-70.3528
0
LINE
8
BLACK
6
CONTINUOUS
10
102.21
20
-70.3528
11
102.207
21
-70.3387
0
LINE
8
BLACK
6
CONTINUOUS
10
102.207
20
-70.3387
11
102.2
21
-70.326
0
LINE
8
BLACK
6
CONTINUOUS
10
102.2
20
-70.326
11
100.866
21
-66.326
0
LINE
8
BLACK
6
CONTINUOUS
10
100.866
20
-66.326
11
100.854
21
-66.2721
0
LINE
8
BLACK
6
CONTINUOUS
10
100.854
20
-66.2721
11
100.859
21
-66.162
0
LINE
8
BLACK
6
CONTINUOUS
10
100.859
20
-66.162
11
100.904
21
-66.0612
0
LINE
8
BLACK
6
CONTINUOUS
10
100.904
20
-66.0612
11
100.982
21
-65.9834
0
LINE
8
BLACK
6
CONTINUOUS
10
100.982
20
-65.9834
11
101.083
21
-65.939
0
LINE
8
BLACK
6
CONTINUOUS
10
101.083
20
-65.939
11
101.193
21
-65.9341
0
LINE
8
BLACK
6
CONTINUOUS
10
101.193
20
-65.9341
11
101.297
21
-65.9693
0
LINE
8
BLACK
6
CONTINUOUS
10
101.297
20
-65.9693
11
101.382
21
-66.0399
0
LINE
8
BLACK
6
CONTINUOUS
10
101.382
20
-66.0399
11
101.436
21
-66.1363
0
LINE
8
BLACK
6
CONTINUOUS
10
101.436
20
-66.1363
11
102.484
21
-69.2825
0
LINE
8
BLACK
6
CONTINUOUS
10
102.484
20
-69.2825
11
103.533
21
-66.1363
0
LINE
8
BLACK
6
CONTINUOUS
10
103.533
20
-66.1363
11
103.555
21
-66.0856
0
LINE
8
BLACK
6
CONTINUOUS
10
103.555
20
-66.0856
11
103.626
21
-66.0007
0
LINE
8
BLACK
6
CONTINUOUS
10
103.626
20
-66.0007
11
103.722
21
-65.9469
0
LINE
8
BLACK
6
CONTINUOUS
10
103.722
20
-65.9469
11
103.831
21
-65.9315
0
LINE
8
BLACK
6
CONTINUOUS
10
103.831
20
-65.9315
11
103.938
21
-65.9565
0
LINE
8
BLACK
6
CONTINUOUS
10
73.6134
20
-65.9345
11
73.6359
21
-65.9324
0
LINE
8
BLACK
6
CONTINUOUS
10
73.6359
20
-65.9324
11
73.6676
21
-65.9415
0
LINE
8
BLACK
6
CONTINUOUS
10
73.6676
20
-65.9415
11
73.7004
21
-65.9457
0
LINE
8
BLACK
6
CONTINUOUS
10
73.7004
20
-65.9457
11
73.7202
21
-65.9564
0
LINE
8
BLACK
6
CONTINUOUS
10
73.7202
20
-65.9564
11
73.7419
21
-65.9626
0
LINE
8
BLACK
6
CONTINUOUS
10
73.7419
20
-65.9626
11
73.7683
21
-65.9825
0
LINE
8
BLACK
6
CONTINUOUS
10
73.7683
20
-65.9825
11
73.7973
21
-65.9983
0
LINE
8
BLACK
6
CONTINUOUS
10
73.7973
20
-65.9983
11
73.8119
21
-66.0155
0
LINE
8
BLACK
6
CONTINUOUS
10
73.8119
20
-66.0155
11
73.8299
21
-66.0291
0
LINE
8
BLACK
6
CONTINUOUS
10
73.8299
20
-66.0291
11
73.8473
21
-66.0571
0
LINE
8
BLACK
6
CONTINUOUS
10
73.8473
20
-66.0571
11
73.8686
21
-66.0823
0
LINE
8
BLACK
6
CONTINUOUS
10
73.8686
20
-66.0823
11
75.5939
21
-69.1015
0
LINE
8
BLACK
6
CONTINUOUS
10
75.5939
20
-69.1015
11
75.5939
21
-66.2312
0
LINE
8
BLACK
6
CONTINUOUS
10
75.5939
20
-66.2312
11
75.599
21
-66.176
0
LINE
8
BLACK
6
CONTINUOUS
10
75.599
20
-66.176
11
75.6388
21
-66.0732
0
LINE
8
BLACK
6
CONTINUOUS
10
75.6388
20
-66.0732
11
75.7131
21
-65.9918
0
LINE
8
BLACK
6
CONTINUOUS
10
75.7131
20
-65.9918
11
75.8118
21
-65.9426
0
LINE
8
BLACK
6
CONTINUOUS
10
75.8118
20
-65.9426
11
75.9216
21
-65.9324
0
LINE
8
BLACK
6
CONTINUOUS
10
75.9216
20
-65.9324
11
76.0276
21
-65.9626
0
LINE
8
BLACK
6
CONTINUOUS
10
76.0276
20
-65.9626
11
76.1156
21
-66.0291
0
LINE
8
BLACK
6
CONTINUOUS
10
76.1156
20
-66.0291
11
76.1736
21
-66.1228
0
LINE
8
BLACK
6
CONTINUOUS
10
76.1736
20
-66.1228
11
76.1939
21
-66.2312
0
LINE
8
BLACK
6
CONTINUOUS
10
76.1939
20
-66.2312
11
76.1939
21
-70.2312
0
LINE
8
BLACK
6
CONTINUOUS
10
76.1939
20
-70.2312
11
76.1932
21
-70.2385
0
LINE
8
BLACK
6
CONTINUOUS
10
76.1932
20
-70.2385
11
76.1937
21
-70.2417
0
LINE
8
BLACK
6
CONTINUOUS
10
76.1937
20
-70.2417
11
76.1923
21
-70.2478
0
LINE
8
BLACK
6
CONTINUOUS
10
76.1923
20
-70.2478
11
76.1888
21
-70.2863
0
LINE
8
BLACK
6
CONTINUOUS
10
76.1888
20
-70.2863
11
76.1768
21
-70.3171
0
LINE
8
BLACK
6
CONTINUOUS
10
76.1768
20
-70.3171
11
76.1696
21
-70.3493
0
LINE
8
BLACK
6
CONTINUOUS
10
76.1696
20
-70.3493
11
76.1571
21
-70.3681
0
LINE
8
BLACK
6
CONTINUOUS
10
76.1571
20
-70.3681
11
76.149
21
-70.3891
0
LINE
8
BLACK
6
CONTINUOUS
10
76.149
20
-70.3891
11
76.1267
21
-70.4135
0
LINE
8
BLACK
6
CONTINUOUS
10
76.1267
20
-70.4135
11
76.1083
21
-70.441
0
LINE
8
BLACK
6
CONTINUOUS
10
76.1083
20
-70.441
11
76.0899
21
-70.4539
0
LINE
8
BLACK
6
CONTINUOUS
10
76.0899
20
-70.4539
11
76.0747
21
-70.4706
0
LINE
8
BLACK
6
CONTINUOUS
10
76.0747
20
-70.4706
11
76.0451
21
-70.4853
0
LINE
8
BLACK
6
CONTINUOUS
10
76.0451
20
-70.4853
11
76.0181
21
-70.5043
0
LINE
8
BLACK
6
CONTINUOUS
10
76.0181
20
-70.5043
11
75.9962
21
-70.5097
0
LINE
8
BLACK
6
CONTINUOUS
10
75.9962
20
-70.5097
11
75.976
21
-70.5197
0
LINE
8
BLACK
6
CONTINUOUS
10
75.976
20
-70.5197
11
75.9431
21
-70.5228
0
LINE
8
BLACK
6
CONTINUOUS
10
75.9431
20
-70.5228
11
75.911
21
-70.5307
0
LINE
8
BLACK
6
CONTINUOUS
10
75.911
20
-70.5307
11
75.8887
21
-70.5278
0
LINE
8
BLACK
6
CONTINUOUS
10
75.8887
20
-70.5278
11
75.8662
21
-70.5299
0
LINE
8
BLACK
6
CONTINUOUS
10
75.8662
20
-70.5299
11
75.8344
21
-70.5208
0
LINE
8
BLACK
6
CONTINUOUS
10
75.8344
20
-70.5208
11
75.8017
21
-70.5166
0
LINE
8
BLACK
6
CONTINUOUS
10
75.8017
20
-70.5166
11
75.7819
21
-70.5059
0
LINE
8
BLACK
6
CONTINUOUS
10
75.7819
20
-70.5059
11
75.7602
21
-70.4997
0
LINE
8
BLACK
6
CONTINUOUS
10
75.7602
20
-70.4997
11
75.7338
21
-70.4798
0
LINE
8
BLACK
6
CONTINUOUS
10
75.7338
20
-70.4798
11
75.7048
21
-70.464
0
LINE
8
BLACK
6
CONTINUOUS
10
75.7048
20
-70.464
11
75.6902
21
-70.4469
0
LINE
8
BLACK
6
CONTINUOUS
10
75.6902
20
-70.4469
11
75.6722
21
-70.4333
0
LINE
8
BLACK
6
CONTINUOUS
10
75.6722
20
-70.4333
11
75.6548
21
-70.4052
0
LINE
8
BLACK
6
CONTINUOUS
10
75.6548
20
-70.4052
11
75.6334
21
-70.38
0
LINE
8
BLACK
6
CONTINUOUS
10
75.6334
20
-70.38
11
73.9082
21
-67.3608
0
LINE
8
BLACK
6
CONTINUOUS
10
73.9082
20
-67.3608
11
73.9082
21
-70.2312
0
LINE
8
BLACK
6
CONTINUOUS
10
73.9082
20
-70.2312
11
73.9031
21
-70.2863
0
LINE
8
BLACK
6
CONTINUOUS
10
73.9031
20
-70.2863
11
73.8632
21
-70.3891
0
LINE
8
BLACK
6
CONTINUOUS
10
73.8632
20
-70.3891
11
73.789
21
-70.4706
0
LINE
8
BLACK
6
CONTINUOUS
10
73.789
20
-70.4706
11
73.6903
21
-70.5197
0
LINE
8
BLACK
6
CONTINUOUS
10
73.6903
20
-70.5197
11
73.5805
21
-70.5299
0
LINE
8
BLACK
6
CONTINUOUS
10
73.5805
20
-70.5299
11
73.4745
21
-70.4997
0
LINE
8
BLACK
6
CONTINUOUS
10
73.4745
20
-70.4997
11
73.3865
21
-70.4333
0
LINE
8
BLACK
6
CONTINUOUS
10
73.3865
20
-70.4333
11
73.3284
21
-70.3395
0
LINE
8
BLACK
6
CONTINUOUS
10
73.3284
20
-70.3395
11
73.3082
21
-70.2312
0
LINE
8
BLACK
6
CONTINUOUS
10
73.3082
20
-70.2312
11
73.3082
21
-66.2312
0
LINE
8
BLACK
6
CONTINUOUS
10
73.3082
20
-66.2312
11
73.3089
21
-66.2239
0
LINE
8
BLACK
6
CONTINUOUS
10
73.3089
20
-66.2239
11
73.3084
21
-66.2206
0
LINE
8
BLACK
6
CONTINUOUS
10
73.3084
20
-66.2206
11
73.3097
21
-66.2145
0
LINE
8
BLACK
6
CONTINUOUS
10
73.3097
20
-66.2145
11
73.3133
21
-66.176
0
LINE
8
BLACK
6
CONTINUOUS
10
73.3133
20
-66.176
11
73.3252
21
-66.1452
0
LINE
8
BLACK
6
CONTINUOUS
10
73.3252
20
-66.1452
11
73.3324
21
-66.113
0
LINE
8
BLACK
6
CONTINUOUS
10
73.3324
20
-66.113
11
73.345
21
-66.0943
0
LINE
8
BLACK
6
CONTINUOUS
10
73.345
20
-66.0943
11
73.3531
21
-66.0732
0
LINE
8
BLACK
6
CONTINUOUS
10
73.3531
20
-66.0732
11
73.3754
21
-66.0488
0
LINE
8
BLACK
6
CONTINUOUS
10
73.3754
20
-66.0488
11
73.3937
21
-66.0214
0
LINE
8
BLACK
6
CONTINUOUS
10
73.3937
20
-66.0214
11
73.4122
21
-66.0084
0
LINE
8
BLACK
6
CONTINUOUS
10
73.4122
20
-66.0084
11
73.4274
21
-65.9918
0
LINE
8
BLACK
6
CONTINUOUS
10
73.4274
20
-65.9918
11
73.457
21
-65.977
0
LINE
8
BLACK
6
CONTINUOUS
10
73.457
20
-65.977
11
73.484
21
-65.9581
0
LINE
8
BLACK
6
CONTINUOUS
10
73.484
20
-65.9581
11
73.5059
21
-65.9527
0
LINE
8
BLACK
6
CONTINUOUS
10
73.5059
20
-65.9527
11
73.5261
21
-65.9426
0
LINE
8
BLACK
6
CONTINUOUS
10
73.5261
20
-65.9426
11
73.559
21
-65.9396
0
LINE
8
BLACK
6
CONTINUOUS
10
73.559
20
-65.9396
11
73.591
21
-65.9317
0
LINE
8
BLACK
6
CONTINUOUS
10
73.591
20
-65.9317
11
73.6134
21
-65.9345
0
LINE
8
BLACK
6
CONTINUOUS
10
109.934
20
-67.2665
11
109.941
21
-67.2658
0
LINE
8
BLACK
6
CONTINUOUS
10
109.941
20
-67.2658
11
109.948
21
-67.2677
0
LINE
8
BLACK
6
CONTINUOUS
10
109.948
20
-67.2677
11
109.968
21
-67.2696
0
LINE
8
BLACK
6
CONTINUOUS
10
109.968
20
-67.2696
11
110.007
21
-67.2847
0
LINE
8
BLACK
6
CONTINUOUS
10
110.007
20
-67.2847
11
110.047
21
-67.2962
0
LINE
8
BLACK
6
CONTINUOUS
10
110.047
20
-67.2962
11
110.428
21
-67.4866
0
LINE
8
BLACK
6
CONTINUOUS
10
110.428
20
-67.4866
11
110.475
21
-67.5159
0
LINE
8
BLACK
6
CONTINUOUS
10
110.475
20
-67.5159
11
110.484
21
-67.5259
0
LINE
8
BLACK
6
CONTINUOUS
10
110.484
20
-67.5259
11
110.496
21
-67.5329
0
LINE
8
BLACK
6
CONTINUOUS
10
110.496
20
-67.5329
11
110.521
21
-67.5664
0
LINE
8
BLACK
6
CONTINUOUS
10
110.521
20
-67.5664
11
110.549
21
-67.5975
0
LINE
8
BLACK
6
CONTINUOUS
10
110.549
20
-67.5975
11
110.554
21
-67.6101
0
LINE
8
BLACK
6
CONTINUOUS
10
110.554
20
-67.6101
11
110.562
21
-67.6208
0
LINE
8
BLACK
6
CONTINUOUS
10
110.562
20
-67.6208
11
110.753
21
-68.0018
0
LINE
8
BLACK
6
CONTINUOUS
10
110.753
20
-68.0018
11
110.76
21
-68.0216
0
LINE
8
BLACK
6
CONTINUOUS
10
110.76
20
-68.0216
11
110.764
21
-68.0276
0
LINE
8
BLACK
6
CONTINUOUS
10
110.764
20
-68.0276
11
110.765
21
-68.0343
0
LINE
8
BLACK
6
CONTINUOUS
10
110.765
20
-68.0343
11
110.773
21
-68.0533
0
LINE
8
BLACK
6
CONTINUOUS
10
110.773
20
-68.0533
11
110.777
21
-68.0949
0
LINE
8
BLACK
6
CONTINUOUS
10
110.777
20
-68.0949
11
110.784
21
-68.1359
0
LINE
8
BLACK
6
CONTINUOUS
10
110.784
20
-68.1359
11
110.784
21
-70.2312
0
LINE
8
BLACK
6
CONTINUOUS
10
110.784
20
-70.2312
11
110.779
21
-70.2863
0
LINE
8
BLACK
6
CONTINUOUS
10
110.779
20
-70.2863
11
110.739
21
-70.3891
0
LINE
8
BLACK
6
CONTINUOUS
10
110.739
20
-70.3891
11
110.665
21
-70.4706
0
LINE
8
BLACK
6
CONTINUOUS
10
110.665
20
-70.4706
11
110.566
21
-70.5197
0
LINE
8
BLACK
6
CONTINUOUS
10
110.566
20
-70.5197
11
110.457
21
-70.5299
0
LINE
8
BLACK
6
CONTINUOUS
10
110.457
20
-70.5299
11
110.351
21
-70.4997
0
LINE
8
BLACK
6
CONTINUOUS
10
110.351
20
-70.4997
11
110.263
21
-70.4333
0
LINE
8
BLACK
6
CONTINUOUS
10
110.263
20
-70.4333
11
110.205
21
-70.3395
0
LINE
8
BLACK
6
CONTINUOUS
10
110.205
20
-70.3395
11
110.184
21
-70.2312
0
LINE
8
BLACK
6
CONTINUOUS
10
110.184
20
-70.2312
11
110.184
21
-68.2067
0
LINE
8
BLACK
6
CONTINUOUS
10
110.184
20
-68.2067
11
110.07
21
-67.9786
0
LINE
8
BLACK
6
CONTINUOUS
10
110.07
20
-67.9786
11
109.842
21
-67.8645
0
LINE
8
BLACK
6
CONTINUOUS
10
109.842
20
-67.8645
11
109.412
21
-67.8645
0
LINE
8
BLACK
6
CONTINUOUS
10
109.412
20
-67.8645
11
109.138
21
-68.0015
0
LINE
8
BLACK
6
CONTINUOUS
10
109.138
20
-68.0015
11
109.07
21
-68.0697
0
LINE
8
BLACK
6
CONTINUOUS
10
109.07
20
-68.0697
11
109.07
21
-70.2312
0
LINE
8
BLACK
6
CONTINUOUS
10
109.07
20
-70.2312
11
109.065
21
-70.2863
0
LINE
8
BLACK
6
CONTINUOUS
10
109.065
20
-70.2863
11
109.025
21
-70.3891
0
LINE
8
BLACK
6
CONTINUOUS
10
109.025
20
-70.3891
11
108.951
21
-70.4706
0
LINE
8
BLACK
6
CONTINUOUS
10
108.951
20
-70.4706
11
108.852
21
-70.5197
0
LINE
8
BLACK
6
CONTINUOUS
10
108.852
20
-70.5197
11
108.742
21
-70.5299
0
LINE
8
BLACK
6
CONTINUOUS
10
108.742
20
-70.5299
11
108.636
21
-70.4997
0
LINE
8
BLACK
6
CONTINUOUS
10
108.636
20
-70.4997
11
108.548
21
-70.4333
0
LINE
8
BLACK
6
CONTINUOUS
10
108.548
20
-70.4333
11
108.49
21
-70.3395
0
LINE
8
BLACK
6
CONTINUOUS
10
108.49
20
-70.3395
11
108.47
21
-70.2312
0
LINE
8
BLACK
6
CONTINUOUS
10
108.47
20
-70.2312
11
108.47
21
-67.5645
0
LINE
8
BLACK
6
CONTINUOUS
10
108.47
20
-67.5645
11
108.475
21
-67.5094
0
LINE
8
BLACK
6
CONTINUOUS
10
108.475
20
-67.5094
11
108.515
21
-67.4066
0
LINE
8
BLACK
6
CONTINUOUS
10
108.515
20
-67.4066
11
108.589
21
-67.3251
0
LINE
8
BLACK
6
CONTINUOUS
10
108.589
20
-67.3251
11
108.688
21
-67.2759
0
LINE
8
BLACK
6
CONTINUOUS
10
108.688
20
-67.2759
11
108.798
21
-67.2658
0
LINE
8
BLACK
6
CONTINUOUS
10
108.798
20
-67.2658
11
108.904
21
-67.2959
0
LINE
8
BLACK
6
CONTINUOUS
10
108.904
20
-67.2959
11
108.992
21
-67.3624
0
LINE
8
BLACK
6
CONTINUOUS
10
108.992
20
-67.3624
11
109.011
21
-67.3941
0
LINE
8
BLACK
6
CONTINUOUS
10
109.011
20
-67.3941
11
109.207
21
-67.2962
0
LINE
8
BLACK
6
CONTINUOUS
10
109.207
20
-67.2962
11
109.227
21
-67.2885
0
LINE
8
BLACK
6
CONTINUOUS
10
109.227
20
-67.2885
11
109.233
21
-67.2848
0
LINE
8
BLACK
6
CONTINUOUS
10
109.233
20
-67.2848
11
109.24
21
-67.2835
0
LINE
8
BLACK
6
CONTINUOUS
10
109.24
20
-67.2835
11
109.259
21
-67.2761
0
LINE
8
BLACK
6
CONTINUOUS
10
109.259
20
-67.2761
11
109.3
21
-67.2722
0
LINE
8
BLACK
6
CONTINUOUS
10
109.3
20
-67.2722
11
109.342
21
-67.2645
0
LINE
8
BLACK
6
CONTINUOUS
10
109.342
20
-67.2645
11
109.913
21
-67.2645
0
LINE
8
BLACK
6
CONTINUOUS
10
109.913
20
-67.2645
11
109.934
21
-67.2665
0
LINE
8
BLACK
6
CONTINUOUS
10
83.2657
20
-65.9626
11
83.3537
21
-66.0291
0
LINE
8
BLACK
6
CONTINUOUS
10
83.3537
20
-66.0291
11
83.4117
21
-66.1228
0
LINE
8
BLACK
6
CONTINUOUS
10
83.4117
20
-66.1228
11
83.432
21
-66.2312
0
LINE
8
BLACK
6
CONTINUOUS
10
83.432
20
-66.2312
11
83.432
21
-67.3648
0
LINE
8
BLACK
6
CONTINUOUS
10
83.432
20
-67.3648
11
83.5692
21
-67.2962
0
LINE
8
BLACK
6
CONTINUOUS
10
83.5692
20
-67.2962
11
83.5891
21
-67.2885
0
LINE
8
BLACK
6
CONTINUOUS
10
83.5891
20
-67.2885
11
83.595
21
-67.2848
0
LINE
8
BLACK
6
CONTINUOUS
10
83.595
20
-67.2848
11
83.6018
21
-67.2835
0
LINE
8
BLACK
6
CONTINUOUS
10
83.6018
20
-67.2835
11
83.6208
21
-67.2761
0
LINE
8
BLACK
6
CONTINUOUS
10
83.6208
20
-67.2761
11
83.6624
21
-67.2722
0
LINE
8
BLACK
6
CONTINUOUS
10
83.6624
20
-67.2722
11
83.7034
21
-67.2645
0
LINE
8
BLACK
6
CONTINUOUS
10
83.7034
20
-67.2645
11
84.2748
21
-67.2645
0
LINE
8
BLACK
6
CONTINUOUS
10
84.2748
20
-67.2645
11
84.296
21
-67.2665
0
LINE
8
BLACK
6
CONTINUOUS
10
84.296
20
-67.2665
11
84.303
21
-67.2658
0
LINE
8
BLACK
6
CONTINUOUS
10
84.303
20
-67.2658
11
84.3096
21
-67.2677
0
LINE
8
BLACK
6
CONTINUOUS
10
84.3096
20
-67.2677
11
84.33
21
-67.2696
0
LINE
8
BLACK
6
CONTINUOUS
10
84.33
20
-67.2696
11
84.3689
21
-67.2847
0
LINE
8
BLACK
6
CONTINUOUS
10
84.3689
20
-67.2847
11
84.409
21
-67.2962
0
LINE
8
BLACK
6
CONTINUOUS
10
84.409
20
-67.2962
11
84.79
21
-67.4866
0
LINE
8
BLACK
6
CONTINUOUS
10
84.79
20
-67.4866
11
84.837
21
-67.5159
0
LINE
8
BLACK
6
CONTINUOUS
10
84.837
20
-67.5159
11
84.8461
21
-67.5259
0
LINE
8
BLACK
6
CONTINUOUS
10
84.8461
20
-67.5259
11
84.8575
21
-67.5329
0
LINE
8
BLACK
6
CONTINUOUS
10
84.8575
20
-67.5329
11
84.8829
21
-67.5664
0
LINE
8
BLACK
6
CONTINUOUS
10
84.8829
20
-67.5664
11
84.9111
21
-67.5975
0
LINE
8
BLACK
6
CONTINUOUS
10
84.9111
20
-67.5975
11
84.916
21
-67.6101
0
LINE
8
BLACK
6
CONTINUOUS
10
84.916
20
-67.6101
11
84.9241
21
-67.6208
0
LINE
8
BLACK
6
CONTINUOUS
10
84.9241
20
-67.6208
11
85.1146
21
-68.0018
0
LINE
8
BLACK
6
CONTINUOUS
10
85.1146
20
-68.0018
11
85.1223
21
-68.0216
0
LINE
8
BLACK
6
CONTINUOUS
10
85.1223
20
-68.0216
11
85.126
21
-68.0276
0
LINE
8
BLACK
6
CONTINUOUS
10
85.126
20
-68.0276
11
85.1273
21
-68.0343
0
LINE
8
BLACK
6
CONTINUOUS
10
85.1273
20
-68.0343
11
85.1347
21
-68.0533
0
LINE
8
BLACK
6
CONTINUOUS
10
85.1347
20
-68.0533
11
85.1386
21
-68.0949
0
LINE
8
BLACK
6
CONTINUOUS
10
85.1386
20
-68.0949
11
85.1463
21
-68.1359
0
LINE
8
BLACK
6
CONTINUOUS
10
85.1463
20
-68.1359
11
85.1463
21
-70.2312
0
LINE
8
BLACK
6
CONTINUOUS
10
85.1463
20
-70.2312
11
85.1412
21
-70.2863
0
LINE
8
BLACK
6
CONTINUOUS
10
85.1412
20
-70.2863
11
85.1013
21
-70.3891
0
LINE
8
BLACK
6
CONTINUOUS
10
85.1013
20
-70.3891
11
85.0271
21
-70.4706
0
LINE
8
BLACK
6
CONTINUOUS
10
85.0271
20
-70.4706
11
84.9284
21
-70.5197
0
LINE
8
BLACK
6
CONTINUOUS
10
84.9284
20
-70.5197
11
84.8186
21
-70.5299
0
LINE
8
BLACK
6
CONTINUOUS
10
84.8186
20
-70.5299
11
84.7125
21
-70.4997
0
LINE
8
BLACK
6
CONTINUOUS
10
84.7125
20
-70.4997
11
84.6246
21
-70.4333
0
LINE
8
BLACK
6
CONTINUOUS
10
84.6246
20
-70.4333
11
84.5665
21
-70.3395
0
LINE
8
BLACK
6
CONTINUOUS
10
84.5665
20
-70.3395
11
84.5463
21
-70.2312
0
LINE
8
BLACK
6
CONTINUOUS
10
84.5463
20
-70.2312
11
84.5463
21
-68.2067
0
LINE
8
BLACK
6
CONTINUOUS
10
84.5463
20
-68.2067
11
84.4322
21
-67.9786
0
LINE
8
BLACK
6
CONTINUOUS
10
84.4322
20
-67.9786
11
84.204
21
-67.8645
0
LINE
8
BLACK
6
CONTINUOUS
10
84.204
20
-67.8645
11
83.7742
21
-67.8645
0
LINE
8
BLACK
6
CONTINUOUS
10
83.7742
20
-67.8645
11
83.5002
21
-68.0015
0
LINE
8
BLACK
6
CONTINUOUS
10
83.5002
20
-68.0015
11
83.432
21
-68.0697
0
LINE
8
BLACK
6
CONTINUOUS
10
83.432
20
-68.0697
11
83.432
21
-70.2312
0
LINE
8
BLACK
6
CONTINUOUS
10
83.432
20
-70.2312
11
83.4269
21
-70.2863
0
LINE
8
BLACK
6
CONTINUOUS
10
83.4269
20
-70.2863
11
83.387
21
-70.3891
0
LINE
8
BLACK
6
CONTINUOUS
10
83.387
20
-70.3891
11
83.3128
21
-70.4706
0
LINE
8
BLACK
6
CONTINUOUS
10
83.3128
20
-70.4706
11
83.2141
21
-70.5197
0
LINE
8
BLACK
6
CONTINUOUS
10
83.2141
20
-70.5197
11
83.1043
21
-70.5299
0
LINE
8
BLACK
6
CONTINUOUS
10
83.1043
20
-70.5299
11
82.9983
21
-70.4997
0
LINE
8
BLACK
6
CONTINUOUS
10
82.9983
20
-70.4997
11
82.9103
21
-70.4333
0
LINE
8
BLACK
6
CONTINUOUS
10
82.9103
20
-70.4333
11
82.8522
21
-70.3395
0
LINE
8
BLACK
6
CONTINUOUS
10
82.8522
20
-70.3395
11
82.832
21
-70.2312
0
LINE
8
BLACK
6
CONTINUOUS
10
82.832
20
-70.2312
11
82.832
21
-66.2312
0
LINE
8
BLACK
6
CONTINUOUS
10
82.832
20
-66.2312
11
82.8371
21
-66.176
0
LINE
8
BLACK
6
CONTINUOUS
10
82.8371
20
-66.176
11
82.8769
21
-66.0732
0
LINE
8
BLACK
6
CONTINUOUS
10
82.8769
20
-66.0732
11
82.9512
21
-65.9918
0
LINE
8
BLACK
6
CONTINUOUS
10
82.9512
20
-65.9918
11
83.0499
21
-65.9426
0
LINE
8
BLACK
6
CONTINUOUS
10
83.0499
20
-65.9426
11
83.1597
21
-65.9324
0
LINE
8
BLACK
6
CONTINUOUS
10
83.1597
20
-65.9324
11
83.2657
21
-65.9626
0
LINE
8
BLACK
6
CONTINUOUS
10
77.9324
20
-67.2959
11
78.0204
21
-67.3624
0
LINE
8
BLACK
6
CONTINUOUS
10
78.0204
20
-67.3624
11
78.0784
21
-67.4561
0
LINE
8
BLACK
6
CONTINUOUS
10
78.0784
20
-67.4561
11
78.0987
21
-67.5645
0
LINE
8
BLACK
6
CONTINUOUS
10
78.0987
20
-67.5645
11
78.0987
21
-70.2312
0
LINE
8
BLACK
6
CONTINUOUS
10
78.0987
20
-70.2312
11
78.0935
21
-70.2863
0
LINE
8
BLACK
6
CONTINUOUS
10
78.0935
20
-70.2863
11
78.0537
21
-70.3891
0
LINE
8
BLACK
6
CONTINUOUS
10
78.0537
20
-70.3891
11
77.9794
21
-70.4706
0
LINE
8
BLACK
6
CONTINUOUS
10
77.9794
20
-70.4706
11
77.8807
21
-70.5197
0
LINE
8
BLACK
6
CONTINUOUS
10
77.8807
20
-70.5197
11
77.771
21
-70.5299
0
LINE
8
BLACK
6
CONTINUOUS
10
77.771
20
-70.5299
11
77.6649
21
-70.4997
0
LINE
8
BLACK
6
CONTINUOUS
10
77.6649
20
-70.4997
11
77.5769
21
-70.4333
0
LINE
8
BLACK
6
CONTINUOUS
10
77.5769
20
-70.4333
11
77.5189
21
-70.3395
0
LINE
8
BLACK
6
CONTINUOUS
10
77.5189
20
-70.3395
11
77.4987
21
-70.2312
0
LINE
8
BLACK
6
CONTINUOUS
10
77.4987
20
-70.2312
11
77.4987
21
-67.5645
0
LINE
8
BLACK
6
CONTINUOUS
10
77.4987
20
-67.5645
11
77.5038
21
-67.5094
0
LINE
8
BLACK
6
CONTINUOUS
10
77.5038
20
-67.5094
11
77.5436
21
-67.4066
0
LINE
8
BLACK
6
CONTINUOUS
10
77.5436
20
-67.4066
11
77.6179
21
-67.3251
0
LINE
8
BLACK
6
CONTINUOUS
10
77.6179
20
-67.3251
11
77.7166
21
-67.2759
0
LINE
8
BLACK
6
CONTINUOUS
10
77.7166
20
-67.2759
11
77.8263
21
-67.2658
0
LINE
8
BLACK
6
CONTINUOUS
10
77.8263
20
-67.2658
11
77.9324
21
-67.2959
0
LINE
8
BLACK
6
CONTINUOUS
10
64.2943
20
-65.9626
11
64.3823
21
-66.0291
0
LINE
8
BLACK
6
CONTINUOUS
10
64.3823
20
-66.0291
11
64.4403
21
-66.1228
0
LINE
8
BLACK
6
CONTINUOUS
10
64.4403
20
-66.1228
11
64.4606
21
-66.2312
0
LINE
8
BLACK
6
CONTINUOUS
10
64.4606
20
-66.2312
11
64.4606
21
-67.3648
0
LINE
8
BLACK
6
CONTINUOUS
10
64.4606
20
-67.3648
11
64.5978
21
-67.2962
0
LINE
8
BLACK
6
CONTINUOUS
10
64.5978
20
-67.2962
11
64.6176
21
-67.2885
0
LINE
8
BLACK
6
CONTINUOUS
10
64.6176
20
-67.2885
11
64.6236
21
-67.2848
0
LINE
8
BLACK
6
CONTINUOUS
10
64.6236
20
-67.2848
11
64.6304
21
-67.2835
0
LINE
8
BLACK
6
CONTINUOUS
10
64.6304
20
-67.2835
11
64.6494
21
-67.2761
0
LINE
8
BLACK
6
CONTINUOUS
10
64.6494
20
-67.2761
11
64.691
21
-67.2722
0
LINE
8
BLACK
6
CONTINUOUS
10
64.691
20
-67.2722
11
64.732
21
-67.2645
0
LINE
8
BLACK
6
CONTINUOUS
10
64.732
20
-67.2645
11
65.3034
21
-67.2645
0
LINE
8
BLACK
6
CONTINUOUS
10
65.3034
20
-67.2645
11
65.3246
21
-67.2665
0
LINE
8
BLACK
6
CONTINUOUS
10
65.3246
20
-67.2665
11
65.3316
21
-67.2658
0
LINE
8
BLACK
6
CONTINUOUS
10
65.3316
20
-67.2658
11
65.3382
21
-67.2677
0
LINE
8
BLACK
6
CONTINUOUS
10
65.3382
20
-67.2677
11
65.3585
21
-67.2696
0
LINE
8
BLACK
6
CONTINUOUS
10
65.3585
20
-67.2696
11
65.3975
21
-67.2847
0
LINE
8
BLACK
6
CONTINUOUS
10
65.3975
20
-67.2847
11
65.4376
21
-67.2962
0
LINE
8
BLACK
6
CONTINUOUS
10
65.4376
20
-67.2962
11
65.8185
21
-67.4866
0
LINE
8
BLACK
6
CONTINUOUS
10
65.8185
20
-67.4866
11
65.8656
21
-67.5159
0
LINE
8
BLACK
6
CONTINUOUS
10
65.8656
20
-67.5159
11
65.8746
21
-67.5259
0
LINE
8
BLACK
6
CONTINUOUS
10
65.8746
20
-67.5259
11
65.8861
21
-67.5329
0
LINE
8
BLACK
6
CONTINUOUS
10
65.8861
20
-67.5329
11
65.9115
21
-67.5664
0
LINE
8
BLACK
6
CONTINUOUS
10
65.9115
20
-67.5664
11
65.9397
21
-67.5975
0
LINE
8
BLACK
6
CONTINUOUS
10
65.9397
20
-67.5975
11
65.9445
21
-67.6101
0
LINE
8
BLACK
6
CONTINUOUS
10
65.9445
20
-67.6101
11
65.9527
21
-67.6208
0
LINE
8
BLACK
6
CONTINUOUS
10
65.9527
20
-67.6208
11
66.1432
21
-68.0018
0
LINE
8
BLACK
6
CONTINUOUS
10
66.1432
20
-68.0018
11
66.1509
21
-68.0216
0
LINE
8
BLACK
6
CONTINUOUS
10
66.1509
20
-68.0216
11
66.1546
21
-68.0276
0
LINE
8
BLACK
6
CONTINUOUS
10
66.1546
20
-68.0276
11
66.1559
21
-68.0343
0
LINE
8
BLACK
6
CONTINUOUS
10
66.1559
20
-68.0343
11
66.1633
21
-68.0533
0
LINE
8
BLACK
6
CONTINUOUS
10
66.1633
20
-68.0533
11
66.1672
21
-68.0949
0
LINE
8
BLACK
6
CONTINUOUS
10
66.1672
20
-68.0949
11
66.1748
21
-68.1359
0
LINE
8
BLACK
6
CONTINUOUS
10
66.1748
20
-68.1359
11
66.1748
21
-70.2312
0
LINE
8
BLACK
6
CONTINUOUS
10
66.1748
20
-70.2312
11
66.1697
21
-70.2863
0
LINE
8
BLACK
6
CONTINUOUS
10
66.1697
20
-70.2863
11
66.1299
21
-70.3891
0
LINE
8
BLACK
6
CONTINUOUS
10
66.1299
20
-70.3891
11
66.0556
21
-70.4706
0
LINE
8
BLACK
6
CONTINUOUS
10
66.0556
20
-70.4706
11
65.9569
21
-70.5197
0
LINE
8
BLACK
6
CONTINUOUS
10
65.9569
20
-70.5197
11
65.8472
21
-70.5299
0
LINE
8
BLACK
6
CONTINUOUS
10
65.8472
20
-70.5299
11
65.7411
21
-70.4997
0
LINE
8
BLACK
6
CONTINUOUS
10
65.7411
20
-70.4997
11
65.6531
21
-70.4333
0
LINE
8
BLACK
6
CONTINUOUS
10
65.6531
20
-70.4333
11
65.5951
21
-70.3395
0
LINE
8
BLACK
6
CONTINUOUS
10
65.5951
20
-70.3395
11
65.5748
21
-70.2312
0
LINE
8
BLACK
6
CONTINUOUS
10
65.5748
20
-70.2312
11
65.5748
21
-68.2067
0
LINE
8
BLACK
6
CONTINUOUS
10
65.5748
20
-68.2067
11
65.4608
21
-67.9786
0
LINE
8
BLACK
6
CONTINUOUS
10
65.4608
20
-67.9786
11
65.2326
21
-67.8645
0
LINE
8
BLACK
6
CONTINUOUS
10
65.2326
20
-67.8645
11
64.8028
21
-67.8645
0
LINE
8
BLACK
6
CONTINUOUS
10
64.8028
20
-67.8645
11
64.5287
21
-68.0015
0
LINE
8
BLACK
6
CONTINUOUS
10
64.5287
20
-68.0015
11
64.4606
21
-68.0697
0
LINE
8
BLACK
6
CONTINUOUS
10
64.4606
20
-68.0697
11
64.4606
21
-70.2312
0
LINE
8
BLACK
6
CONTINUOUS
10
64.4606
20
-70.2312
11
64.4554
21
-70.2863
0
LINE
8
BLACK
6
CONTINUOUS
10
64.4554
20
-70.2863
11
64.4156
21
-70.3891
0
LINE
8
BLACK
6
CONTINUOUS
10
64.4156
20
-70.3891
11
64.3413
21
-70.4706
0
LINE
8
BLACK
6
CONTINUOUS
10
64.3413
20
-70.4706
11
64.2427
21
-70.5197
0
LINE
8
BLACK
6
CONTINUOUS
10
64.2427
20
-70.5197
11
64.1329
21
-70.5299
0
LINE
8
BLACK
6
CONTINUOUS
10
64.1329
20
-70.5299
11
64.0268
21
-70.4997
0
LINE
8
BLACK
6
CONTINUOUS
10
64.0268
20
-70.4997
11
63.9389
21
-70.4333
0
LINE
8
BLACK
6
CONTINUOUS
10
63.9389
20
-70.4333
11
63.8808
21
-70.3395
0
LINE
8
BLACK
6
CONTINUOUS
10
63.8808
20
-70.3395
11
63.8606
21
-70.2312
0
LINE
8
BLACK
6
CONTINUOUS
10
63.8606
20
-70.2312
11
63.8606
21
-66.2312
0
LINE
8
BLACK
6
CONTINUOUS
10
63.8606
20
-66.2312
11
63.8657
21
-66.176
0
LINE
8
BLACK
6
CONTINUOUS
10
63.8657
20
-66.176
11
63.9055
21
-66.0732
0
LINE
8
BLACK
6
CONTINUOUS
10
63.9055
20
-66.0732
11
63.9798
21
-65.9918
0
LINE
8
BLACK
6
CONTINUOUS
10
63.9798
20
-65.9918
11
64.0785
21
-65.9426
0
LINE
8
BLACK
6
CONTINUOUS
10
64.0785
20
-65.9426
11
64.1882
21
-65.9324
0
LINE
8
BLACK
6
CONTINUOUS
10
64.1882
20
-65.9324
11
64.2943
21
-65.9626
0
LINE
8
BLACK
6
CONTINUOUS
10
62.8823
20
-65.9363
11
62.9852
21
-65.9761
0
LINE
8
BLACK
6
CONTINUOUS
10
62.9852
20
-65.9761
11
63.0666
21
-66.0504
0
LINE
8
BLACK
6
CONTINUOUS
10
63.0666
20
-66.0504
11
63.1158
21
-66.1491
0
LINE
8
BLACK
6
CONTINUOUS
10
63.1158
20
-66.1491
11
63.1259
21
-66.2588
0
LINE
8
BLACK
6
CONTINUOUS
10
63.1259
20
-66.2588
11
63.0958
21
-66.3649
0
LINE
8
BLACK
6
CONTINUOUS
10
63.0958
20
-66.3649
11
63.0293
21
-66.4529
0
LINE
8
BLACK
6
CONTINUOUS
10
63.0293
20
-66.4529
11
62.9356
21
-66.5109
0
LINE
8
BLACK
6
CONTINUOUS
10
62.9356
20
-66.5109
11
62.8272
21
-66.5312
0
LINE
8
BLACK
6
CONTINUOUS
10
62.8272
20
-66.5312
11
61.9844
21
-66.5312
0
LINE
8
BLACK
6
CONTINUOUS
10
61.9844
20
-66.5312
11
61.9844
21
-70.2312
0
LINE
8
BLACK
6
CONTINUOUS
10
61.9844
20
-70.2312
11
61.9793
21
-70.2863
0
LINE
8
BLACK
6
CONTINUOUS
10
61.9793
20
-70.2863
11
61.9394
21
-70.3891
0
LINE
8
BLACK
6
CONTINUOUS
10
61.9394
20
-70.3891
11
61.8652
21
-70.4706
0
LINE
8
BLACK
6
CONTINUOUS
10
61.8652
20
-70.4706
11
61.7665
21
-70.5197
0
LINE
8
BLACK
6
CONTINUOUS
10
61.7665
20
-70.5197
11
61.6567
21
-70.5299
0
LINE
8
BLACK
6
CONTINUOUS
10
61.6567
20
-70.5299
11
61.5506
21
-70.4997
0
LINE
8
BLACK
6
CONTINUOUS
10
61.5506
20
-70.4997
11
61.4627
21
-70.4333
0
LINE
8
BLACK
6
CONTINUOUS
10
61.4627
20
-70.4333
11
61.4046
21
-70.3395
0
LINE
8
BLACK
6
CONTINUOUS
10
61.4046
20
-70.3395
11
61.3844
21
-70.2312
0
LINE
8
BLACK
6
CONTINUOUS
10
61.3844
20
-70.2312
11
61.3844
21
-66.5312
0
LINE
8
BLACK
6
CONTINUOUS
10
61.3844
20
-66.5312
11
60.5415
21
-66.5312
0
LINE
8
BLACK
6
CONTINUOUS
10
60.5415
20
-66.5312
11
60.4864
21
-66.5261
0
LINE
8
BLACK
6
CONTINUOUS
10
60.4864
20
-66.5261
11
60.3836
21
-66.4862
0
LINE
8
BLACK
6
CONTINUOUS
10
60.3836
20
-66.4862
11
60.3021
21
-66.412
0
LINE
8
BLACK
6
CONTINUOUS
10
60.3021
20
-66.412
11
60.253
21
-66.3133
0
LINE
8
BLACK
6
CONTINUOUS
10
60.253
20
-66.3133
11
60.2428
21
-66.2035
0
LINE
8
BLACK
6
CONTINUOUS
10
60.2428
20
-66.2035
11
60.273
21
-66.0974
0
LINE
8
BLACK
6
CONTINUOUS
10
60.273
20
-66.0974
11
60.3394
21
-66.0095
0
LINE
8
BLACK
6
CONTINUOUS
10
60.3394
20
-66.0095
11
60.4331
21
-65.9514
0
LINE
8
BLACK
6
CONTINUOUS
10
60.4331
20
-65.9514
11
60.5415
21
-65.9312
0
LINE
8
BLACK
6
CONTINUOUS
10
60.5415
20
-65.9312
11
62.8272
21
-65.9312
0
LINE
8
BLACK
6
CONTINUOUS
10
62.8272
20
-65.9312
11
62.8823
21
-65.9363
0
LINE
8
BLACK
6
CONTINUOUS
10
90.5038
20
-65.9626
11
90.5918
21
-66.0291
0
LINE
8
BLACK
6
CONTINUOUS
10
90.5918
20
-66.0291
11
90.6498
21
-66.1228
0
LINE
8
BLACK
6
CONTINUOUS
10
90.6498
20
-66.1228
11
90.6701
21
-66.2312
0
LINE
8
BLACK
6
CONTINUOUS
10
90.6701
20
-66.2312
11
90.6701
21
-69.5889
0
LINE
8
BLACK
6
CONTINUOUS
10
90.6701
20
-69.5889
11
90.7842
21
-69.8171
0
LINE
8
BLACK
6
CONTINUOUS
10
90.7842
20
-69.8171
11
91.0757
21
-69.9628
0
LINE
8
BLACK
6
CONTINUOUS
10
91.0757
20
-69.9628
11
91.1227
21
-69.9921
0
LINE
8
BLACK
6
CONTINUOUS
10
91.1227
20
-69.9921
11
91.1968
21
-70.0737
0
LINE
8
BLACK
6
CONTINUOUS
10
91.1968
20
-70.0737
11
91.2365
21
-70.1765
0
LINE
8
BLACK
6
CONTINUOUS
10
91.2365
20
-70.1765
11
91.2363
21
-70.2868
0
LINE
8
BLACK
6
CONTINUOUS
10
91.2363
20
-70.2868
11
91.1963
21
-70.3895
0
LINE
8
BLACK
6
CONTINUOUS
10
91.1963
20
-70.3895
11
91.1219
21
-70.4709
0
LINE
8
BLACK
6
CONTINUOUS
10
91.1219
20
-70.4709
11
91.0231
21
-70.5198
0
LINE
8
BLACK
6
CONTINUOUS
10
91.0231
20
-70.5198
11
90.9133
21
-70.5298
0
LINE
8
BLACK
6
CONTINUOUS
10
90.9133
20
-70.5298
11
90.8073
21
-70.4995
0
LINE
8
BLACK
6
CONTINUOUS
10
90.8073
20
-70.4995
11
90.4264
21
-70.309
0
LINE
8
BLACK
6
CONTINUOUS
10
90.4264
20
-70.309
11
90.3794
21
-70.2798
0
LINE
8
BLACK
6
CONTINUOUS
10
90.3794
20
-70.2798
11
90.3703
21
-70.2698
0
LINE
8
BLACK
6
CONTINUOUS
10
90.3703
20
-70.2698
11
90.3588
21
-70.2627
0
LINE
8
BLACK
6
CONTINUOUS
10
90.3588
20
-70.2627
11
90.3335
21
-70.2293
0
LINE
8
BLACK
6
CONTINUOUS
10
90.3335
20
-70.2293
11
90.3052
21
-70.1982
0
LINE
8
BLACK
6
CONTINUOUS
10
90.3052
20
-70.1982
11
90.3004
21
-70.1856
0
LINE
8
BLACK
6
CONTINUOUS
10
90.3004
20
-70.1856
11
90.2922
21
-70.1749
0
LINE
8
BLACK
6
CONTINUOUS
10
90.2922
20
-70.1749
11
90.1018
21
-69.7939
0
LINE
8
BLACK
6
CONTINUOUS
10
90.1018
20
-69.7939
11
90.094
21
-69.7741
0
LINE
8
BLACK
6
CONTINUOUS
10
90.094
20
-69.7741
11
90.0903
21
-69.7681
0
LINE
8
BLACK
6
CONTINUOUS
10
90.0903
20
-69.7681
11
90.0891
21
-69.7613
0
LINE
8
BLACK
6
CONTINUOUS
10
90.0891
20
-69.7613
11
90.0817
21
-69.7423
0
LINE
8
BLACK
6
CONTINUOUS
10
90.0817
20
-69.7423
11
90.0777
21
-69.7008
0
LINE
8
BLACK
6
CONTINUOUS
10
90.0777
20
-69.7008
11
90.0701
21
-69.6597
0
LINE
8
BLACK
6
CONTINUOUS
10
90.0701
20
-69.6597
11
90.0701
21
-66.2312
0
LINE
8
BLACK
6
CONTINUOUS
10
90.0701
20
-66.2312
11
90.0752
21
-66.176
0
LINE
8
BLACK
6
CONTINUOUS
10
90.0752
20
-66.176
11
90.115
21
-66.0732
0
LINE
8
BLACK
6
CONTINUOUS
10
90.115
20
-66.0732
11
90.1893
21
-65.9918
0
LINE
8
BLACK
6
CONTINUOUS
10
90.1893
20
-65.9918
11
90.288
21
-65.9426
0
LINE
8
BLACK
6
CONTINUOUS
10
90.288
20
-65.9426
11
90.3978
21
-65.9324
0
LINE
8
BLACK
6
CONTINUOUS
10
90.3978
20
-65.9324
11
90.5038
21
-65.9626
0
LINE
8
BLACK
6
CONTINUOUS
10
77.8193
20
-65.9331
11
77.8263
21
-65.9324
0
LINE
8
BLACK
6
CONTINUOUS
10
77.8263
20
-65.9324
11
77.8331
21
-65.9344
0
LINE
8
BLACK
6
CONTINUOUS
10
77.8331
20
-65.9344
11
77.8401
21
-65.934
0
LINE
8
BLACK
6
CONTINUOUS
10
77.8401
20
-65.934
11
77.8794
21
-65.9472
0
LINE
8
BLACK
6
CONTINUOUS
10
77.8794
20
-65.9472
11
77.9198
21
-65.9567
0
LINE
8
BLACK
6
CONTINUOUS
10
77.9198
20
-65.9567
11
77.9256
21
-65.9607
0
LINE
8
BLACK
6
CONTINUOUS
10
77.9256
20
-65.9607
11
77.9324
21
-65.9626
0
LINE
8
BLACK
6
CONTINUOUS
10
77.9324
20
-65.9626
11
77.938
21
-65.9668
0
LINE
8
BLACK
6
CONTINUOUS
10
77.938
20
-65.9668
11
77.9446
21
-65.9691
0
LINE
8
BLACK
6
CONTINUOUS
10
77.9446
20
-65.9691
11
77.9765
21
-65.9956
0
LINE
8
BLACK
6
CONTINUOUS
10
77.9765
20
-65.9956
11
78.0108
21
-66.019
0
LINE
8
BLACK
6
CONTINUOUS
10
78.0108
20
-66.019
11
78.2013
21
-66.2095
0
LINE
8
BLACK
6
CONTINUOUS
10
78.2013
20
-66.2095
11
78.2146
21
-66.2255
0
LINE
8
BLACK
6
CONTINUOUS
10
78.2146
20
-66.2255
11
78.2199
21
-66.23
0
LINE
8
BLACK
6
CONTINUOUS
10
78.2199
20
-66.23
11
78.2233
21
-66.2361
0
LINE
8
BLACK
6
CONTINUOUS
10
78.2233
20
-66.2361
11
78.2366
21
-66.2521
0
LINE
8
BLACK
6
CONTINUOUS
10
78.2366
20
-66.2521
11
78.2534
21
-66.2901
0
LINE
8
BLACK
6
CONTINUOUS
10
78.2534
20
-66.2901
11
78.2736
21
-66.3263
0
LINE
8
BLACK
6
CONTINUOUS
10
78.2736
20
-66.3263
11
78.2755
21
-66.3402
0
LINE
8
BLACK
6
CONTINUOUS
10
78.2755
20
-66.3402
11
78.2812
21
-66.353
0
LINE
8
BLACK
6
CONTINUOUS
10
78.2812
20
-66.353
11
78.2831
21
-66.3944
0
LINE
8
BLACK
6
CONTINUOUS
10
78.2831
20
-66.3944
11
78.2888
21
-66.4355
0
LINE
8
BLACK
6
CONTINUOUS
10
78.2888
20
-66.4355
11
78.2856
21
-66.4491
0
LINE
8
BLACK
6
CONTINUOUS
10
78.2856
20
-66.4491
11
78.2863
21
-66.4631
0
LINE
8
BLACK
6
CONTINUOUS
10
78.2863
20
-66.4631
11
78.2731
21
-66.5024
0
LINE
8
BLACK
6
CONTINUOUS
10
78.2731
20
-66.5024
11
78.2636
21
-66.5428
0
LINE
8
BLACK
6
CONTINUOUS
10
78.2636
20
-66.5428
11
78.2557
21
-66.5544
0
LINE
8
BLACK
6
CONTINUOUS
10
78.2557
20
-66.5544
11
78.2512
21
-66.5676
0
LINE
8
BLACK
6
CONTINUOUS
10
78.2512
20
-66.5676
11
78.2247
21
-66.5995
0
LINE
8
BLACK
6
CONTINUOUS
10
78.2247
20
-66.5995
11
78.2013
21
-66.6338
0
LINE
8
BLACK
6
CONTINUOUS
10
78.2013
20
-66.6338
11
78.0108
21
-66.8242
0
LINE
8
BLACK
6
CONTINUOUS
10
78.0108
20
-66.8242
11
77.9948
21
-66.8376
0
LINE
8
BLACK
6
CONTINUOUS
10
77.9948
20
-66.8376
11
77.9903
21
-66.8429
0
LINE
8
BLACK
6
CONTINUOUS
10
77.9903
20
-66.8429
11
77.9842
21
-66.8463
0
LINE
8
BLACK
6
CONTINUOUS
10
77.9842
20
-66.8463
11
77.9841
21
-66.8464
0
LINE
8
BLACK
6
CONTINUOUS
10
77.9841
20
-66.8464
11
77.9794
21
-66.8515
0
LINE
8
BLACK
6
CONTINUOUS
10
77.9794
20
-66.8515
11
77.9757
21
-66.8534
0
LINE
8
BLACK
6
CONTINUOUS
10
77.9757
20
-66.8534
11
77.9682
21
-66.8596
0
LINE
8
BLACK
6
CONTINUOUS
10
77.9682
20
-66.8596
11
77.9302
21
-66.8764
0
LINE
8
BLACK
6
CONTINUOUS
10
77.9302
20
-66.8764
11
77.894
21
-66.8966
0
LINE
8
BLACK
6
CONTINUOUS
10
77.894
20
-66.8966
11
77.887
21
-66.8975
0
LINE
8
BLACK
6
CONTINUOUS
10
77.887
20
-66.8975
11
77.8807
21
-66.9007
0
LINE
8
BLACK
6
CONTINUOUS
10
77.8807
20
-66.9007
11
77.8738
21
-66.9013
0
LINE
8
BLACK
6
CONTINUOUS
10
77.8738
20
-66.9013
11
77.8673
21
-66.9041
0
LINE
8
BLACK
6
CONTINUOUS
10
77.8673
20
-66.9041
11
77.8259
21
-66.9061
0
LINE
8
BLACK
6
CONTINUOUS
10
77.8259
20
-66.9061
11
77.7848
21
-66.9118
0
LINE
8
BLACK
6
CONTINUOUS
10
77.7848
20
-66.9118
11
77.778
21
-66.9102
0
LINE
8
BLACK
6
CONTINUOUS
10
77.778
20
-66.9102
11
77.771
21
-66.9108
0
LINE
8
BLACK
6
CONTINUOUS
10
77.771
20
-66.9108
11
77.7642
21
-66.9089
0
LINE
8
BLACK
6
CONTINUOUS
10
77.7642
20
-66.9089
11
77.7572
21
-66.9092
0
LINE
8
BLACK
6
CONTINUOUS
10
77.7572
20
-66.9092
11
77.7179
21
-66.8961
0
LINE
8
BLACK
6
CONTINUOUS
10
77.7179
20
-66.8961
11
77.6775
21
-66.8866
0
LINE
8
BLACK
6
CONTINUOUS
10
77.6775
20
-66.8866
11
77.6717
21
-66.8826
0
LINE
8
BLACK
6
CONTINUOUS
10
77.6717
20
-66.8826
11
77.6649
21
-66.8807
0
LINE
8
BLACK
6
CONTINUOUS
10
77.6649
20
-66.8807
11
77.6593
21
-66.8764
0
LINE
8
BLACK
6
CONTINUOUS
10
77.6593
20
-66.8764
11
77.6527
21
-66.8742
0
LINE
8
BLACK
6
CONTINUOUS
10
77.6527
20
-66.8742
11
77.6207
21
-66.8477
0
LINE
8
BLACK
6
CONTINUOUS
10
77.6207
20
-66.8477
11
77.5865
21
-66.8242
0
LINE
8
BLACK
6
CONTINUOUS
10
77.5865
20
-66.8242
11
77.396
21
-66.6338
0
LINE
8
BLACK
6
CONTINUOUS
10
77.396
20
-66.6338
11
77.3827
21
-66.6177
0
LINE
8
BLACK
6
CONTINUOUS
10
77.3827
20
-66.6177
11
77.3774
21
-66.6133
0
LINE
8
BLACK
6
CONTINUOUS
10
77.3774
20
-66.6133
11
77.374
21
-66.6072
0
LINE
8
BLACK
6
CONTINUOUS
10
77.374
20
-66.6072
11
77.3607
21
-66.5912
0
LINE
8
BLACK
6
CONTINUOUS
10
77.3607
20
-66.5912
11
77.3439
21
-66.5532
0
LINE
8
BLACK
6
CONTINUOUS
10
77.3439
20
-66.5532
11
77.3237
21
-66.517
0
LINE
8
BLACK
6
CONTINUOUS
10
77.3237
20
-66.517
11
77.3218
21
-66.5031
0
LINE
8
BLACK
6
CONTINUOUS
10
77.3218
20
-66.5031
11
77.3161
21
-66.4903
0
LINE
8
BLACK
6
CONTINUOUS
10
77.3161
20
-66.4903
11
77.3142
21
-66.4489
0
LINE
8
BLACK
6
CONTINUOUS
10
77.3142
20
-66.4489
11
77.3085
21
-66.4078
0
LINE
8
BLACK
6
CONTINUOUS
10
77.3085
20
-66.4078
11
77.3117
21
-66.3942
0
LINE
8
BLACK
6
CONTINUOUS
10
77.3117
20
-66.3942
11
77.3111
21
-66.3802
0
LINE
8
BLACK
6
CONTINUOUS
10
77.3111
20
-66.3802
11
77.3242
21
-66.3409
0
LINE
8
BLACK
6
CONTINUOUS
10
77.3242
20
-66.3409
11
77.3337
21
-66.3005
0
LINE
8
BLACK
6
CONTINUOUS
10
77.3337
20
-66.3005
11
77.3416
21
-66.2889
0
LINE
8
BLACK
6
CONTINUOUS
10
77.3416
20
-66.2889
11
77.3461
21
-66.2757
0
LINE
8
BLACK
6
CONTINUOUS
10
77.3461
20
-66.2757
11
77.3726
21
-66.2437
0
LINE
8
BLACK
6
CONTINUOUS
10
77.3726
20
-66.2437
11
77.396
21
-66.2095
0
LINE
8
BLACK
6
CONTINUOUS
10
77.396
20
-66.2095
11
77.5865
21
-66.019
0
LINE
8
BLACK
6
CONTINUOUS
10
77.5865
20
-66.019
11
77.6025
21
-66.0057
0
LINE
8
BLACK
6
CONTINUOUS
10
77.6025
20
-66.0057
11
77.607
21
-66.0004
0
LINE
8
BLACK
6
CONTINUOUS
10
77.607
20
-66.0004
11
77.6131
21
-65.997
0
LINE
8
BLACK
6
CONTINUOUS
10
77.6131
20
-65.997
11
77.6132
21
-65.9969
0
LINE
8
BLACK
6
CONTINUOUS
10
77.6132
20
-65.9969
11
77.6179
21
-65.9918
0
LINE
8
BLACK
6
CONTINUOUS
10
77.6179
20
-65.9918
11
77.6216
21
-65.9899
0
LINE
8
BLACK
6
CONTINUOUS
10
77.6216
20
-65.9899
11
77.6291
21
-65.9837
0
LINE
8
BLACK
6
CONTINUOUS
10
77.6291
20
-65.9837
11
77.6671
21
-65.9669
0
LINE
8
BLACK
6
CONTINUOUS
10
77.6671
20
-65.9669
11
77.7033
21
-65.9467
0
LINE
8
BLACK
6
CONTINUOUS
10
77.7033
20
-65.9467
11
77.7103
21
-65.9457
0
LINE
8
BLACK
6
CONTINUOUS
10
77.7103
20
-65.9457
11
77.7166
21
-65.9426
0
LINE
8
BLACK
6
CONTINUOUS
10
77.7166
20
-65.9426
11
77.7235
21
-65.942
0
LINE
8
BLACK
6
CONTINUOUS
10
77.7235
20
-65.942
11
77.73
21
-65.9391
0
LINE
8
BLACK
6
CONTINUOUS
10
77.73
20
-65.9391
11
77.7714
21
-65.9372
0
LINE
8
BLACK
6
CONTINUOUS
10
77.7714
20
-65.9372
11
77.8125
21
-65.9315
0
LINE
8
BLACK
6
CONTINUOUS
10
77.8125
20
-65.9315
11
77.8193
21
-65.9331
  0
ENDSEC
  0
EOF
