%TF.GenerationSoftware,KiCad,Pcbnew,(7.0.0)*%
%TF.CreationDate,2023-09-29T19:28:48+02:00*%
%TF.ProjectId,Hull OEM 275u 225u,48756c6c-204f-4454-9d20-323735752032,rev?*%
%TF.SameCoordinates,Original*%
%TF.FileFunction,Profile,NP*%
%FSLAX46Y46*%
G04 Gerber Fmt 4.6, Leading zero omitted, Abs format (unit mm)*
G04 Created by KiCad (PCBNEW (7.0.0)) date 2023-09-29 19:28:48*
%MOMM*%
%LPD*%
G01*
G04 APERTURE LIST*
%TA.AperFunction,Profile*%
%ADD10C,0.200000*%
%TD*%
%TA.AperFunction,Profile*%
%ADD11C,0.100000*%
%TD*%
%TA.AperFunction,Profile*%
%ADD12C,0.120000*%
%TD*%
%TA.AperFunction,Profile*%
%ADD13C,0.050000*%
%TD*%
G04 APERTURE END LIST*
D10*
X273787500Y-73612500D02*
G75*
G03*
X275429947Y-73048896I0J2675000D01*
G01*
X215462500Y-115887500D02*
G75*
G03*
X215462500Y-115887500I-1150000J0D01*
G01*
X24607553Y-73048896D02*
G75*
G03*
X26250000Y-73612500I1642447J2111396D01*
G01*
X31750000Y-49212500D02*
G75*
G03*
X28575000Y-52387500I0J-3175000D01*
G01*
D11*
X30899001Y-50952301D02*
X34298999Y-50952301D01*
X34298999Y-50952301D02*
X34298999Y-54152701D01*
X34298999Y-54152701D02*
X30899001Y-54152701D01*
X30899001Y-54152701D02*
X30899001Y-50952301D01*
D10*
X105925000Y-77787500D02*
G75*
G03*
X105925000Y-77787500I-1150000J0D01*
G01*
X31750000Y-49212500D02*
X149225000Y-49212500D01*
X272962500Y-73612500D02*
X273787500Y-73612500D01*
X28575000Y-75112500D02*
G75*
G03*
X27075000Y-73612500I-1500000J0D01*
G01*
X32106250Y-96837500D02*
G75*
G03*
X32106250Y-96837500I-1150000J0D01*
G01*
X27075000Y-139112500D02*
G75*
G03*
X28575000Y-137612500I0J1500000D01*
G01*
X205937500Y-96837500D02*
G75*
G03*
X205937500Y-96837500I-1150000J0D01*
G01*
X28575000Y-66762500D02*
X28575000Y-52387500D01*
X220225000Y-77787500D02*
G75*
G03*
X220225000Y-77787500I-1150000J0D01*
G01*
X273787500Y-68262500D02*
X152400000Y-68262500D01*
X134500000Y-58737500D02*
G75*
G03*
X134500000Y-58737500I-1150000J0D01*
G01*
X51156250Y-134937500D02*
G75*
G03*
X51156250Y-134937500I-1150000J0D01*
G01*
X24817536Y-72163742D02*
G75*
G03*
X24607553Y-73048896I97014J-490498D01*
G01*
X158312500Y-115887500D02*
G75*
G03*
X158312500Y-115887500I-1150000J0D01*
G01*
X24607553Y-143898896D02*
G75*
G03*
X26250000Y-144462500I1642447J2111396D01*
G01*
X26250000Y-73612500D02*
X27075000Y-73612500D01*
X275219963Y-140561255D02*
G75*
G03*
X275219963Y-143013745I242537J-1226245D01*
G01*
X272962500Y-73612500D02*
G75*
G03*
X271462500Y-75112500I0J-1500000D01*
G01*
X72587500Y-96837500D02*
G75*
G03*
X72587500Y-96837500I-1150000J0D01*
G01*
X275429971Y-143898927D02*
G75*
G03*
X275219963Y-143013746I-307171J394627D01*
G01*
X115450000Y-58737500D02*
G75*
G03*
X115450000Y-58737500I-1150000J0D01*
G01*
X36868750Y-115887500D02*
G75*
G03*
X36868750Y-115887500I-1150000J0D01*
G01*
X253562500Y-115887500D02*
G75*
G03*
X253562500Y-115887500I-1150000J0D01*
G01*
X27075000Y-68262500D02*
X26250000Y-68262500D01*
X28575000Y-137612500D02*
X28575000Y-75112500D01*
X110687500Y-96837500D02*
G75*
G03*
X110687500Y-96837500I-1150000J0D01*
G01*
X74968750Y-134937500D02*
G75*
G03*
X74968750Y-134937500I-1150000J0D01*
G01*
D11*
X30900001Y-62204601D02*
X34299999Y-62204601D01*
X34299999Y-62204601D02*
X34299999Y-65405001D01*
X34299999Y-65405001D02*
X30900001Y-65405001D01*
X30900001Y-65405001D02*
X30900001Y-62204601D01*
D10*
X148787500Y-96837500D02*
G75*
G03*
X148787500Y-96837500I-1150000J0D01*
G01*
X273787500Y-139112500D02*
X272962500Y-139112500D01*
X26250000Y-68262500D02*
G75*
G03*
X24607553Y-68826104I0J-2675000D01*
G01*
X275429914Y-73048853D02*
G75*
G03*
X275219963Y-72163746I-306914J394653D01*
G01*
X253562500Y-134937500D02*
G75*
G03*
X253562500Y-134937500I-1150000J0D01*
G01*
X275429947Y-68826104D02*
G75*
G03*
X273787500Y-68262500I-1642447J-2111396D01*
G01*
X101162500Y-115887500D02*
G75*
G03*
X101162500Y-115887500I-1150000J0D01*
G01*
X215462500Y-134937500D02*
G75*
G03*
X215462500Y-134937500I-1150000J0D01*
G01*
X271462500Y-75112500D02*
X271462500Y-137612500D01*
X163075000Y-77787500D02*
G75*
G03*
X163075000Y-77787500I-1150000J0D01*
G01*
X275219973Y-69711307D02*
G75*
G03*
X275429947Y-68826104I-96973J490507D01*
G01*
X24817536Y-143013742D02*
G75*
G03*
X24607553Y-143898896I97014J-490498D01*
G01*
X275219963Y-69711255D02*
G75*
G03*
X275219963Y-72163745I242537J-1226245D01*
G01*
X24607612Y-68826180D02*
G75*
G03*
X24817537Y-69711255I306988J-394620D01*
G01*
X185300000Y-134937500D02*
G75*
G03*
X185300000Y-134937500I-1150000J0D01*
G01*
X24817537Y-72163745D02*
G75*
G03*
X24817537Y-69711255I-242537J1226245D01*
G01*
X26250000Y-139112500D02*
G75*
G03*
X24607553Y-139676104I0J-2675000D01*
G01*
X275219965Y-140561266D02*
G75*
G03*
X275429947Y-139676104I-96865J490466D01*
G01*
X152400000Y-52387500D02*
G75*
G03*
X149225000Y-49212500I-3175100J-100D01*
G01*
X248800000Y-96837500D02*
G75*
G03*
X248800000Y-96837500I-1150000J0D01*
G01*
X102750000Y-134937500D02*
G75*
G03*
X102750000Y-134937500I-1150000J0D01*
G01*
X48775000Y-77787500D02*
G75*
G03*
X48775000Y-77787500I-1150000J0D01*
G01*
X27075000Y-68262500D02*
G75*
G03*
X28575000Y-66762500I0J1500000D01*
G01*
X152400000Y-52387500D02*
X152400000Y-68262500D01*
X275429947Y-139676104D02*
G75*
G03*
X273787500Y-139112500I-1642447J-2111396D01*
G01*
X24607612Y-139676180D02*
G75*
G03*
X24817537Y-140561255I306988J-394620D01*
G01*
X273787500Y-144462500D02*
G75*
G03*
X275429947Y-143898896I0J2675000D01*
G01*
X27075000Y-139112500D02*
X26250000Y-139112500D01*
X39250000Y-58737500D02*
G75*
G03*
X39250000Y-58737500I-1150000J0D01*
G01*
D11*
X30899001Y-56584801D02*
X34298999Y-56584801D01*
X34298999Y-56584801D02*
X34298999Y-59785201D01*
X34298999Y-59785201D02*
X30899001Y-59785201D01*
X30899001Y-59785201D02*
X30899001Y-56584801D01*
D10*
X273787500Y-144462500D02*
X26250000Y-144462500D01*
X77350000Y-58737500D02*
G75*
G03*
X77350000Y-58737500I-1150000J0D01*
G01*
X265468750Y-77787500D02*
G75*
G03*
X265468750Y-77787500I-1150000J0D01*
G01*
X24817537Y-143013745D02*
G75*
G03*
X24817537Y-140561255I-242537J1226245D01*
G01*
X271462500Y-137612500D02*
G75*
G03*
X272962500Y-139112500I1500000J0D01*
G01*
D12*
%TO.C,REF\u002A\u002A*%
X235587500Y-109887500D02*
X235587500Y-121887500D01*
X235587500Y-121887500D02*
X236587500Y-122887500D01*
X236587500Y-108887500D02*
X235587500Y-109887500D01*
X236587500Y-122887500D02*
X249187500Y-122887500D01*
X249187500Y-108887500D02*
X236587500Y-108887500D01*
X249187500Y-108887500D02*
X250187500Y-109887500D01*
X249187500Y-122887500D02*
X250187500Y-121887500D01*
X250187500Y-121887500D02*
X250187500Y-109887500D01*
X37943750Y-109887500D02*
X37943750Y-121887500D01*
X37943750Y-121887500D02*
X38943750Y-122887500D01*
X38943750Y-108887500D02*
X37943750Y-109887500D01*
X38943750Y-122887500D02*
X51543750Y-122887500D01*
X51543750Y-108887500D02*
X38943750Y-108887500D01*
X51543750Y-108887500D02*
X52543750Y-109887500D01*
X51543750Y-122887500D02*
X52543750Y-121887500D01*
X52543750Y-121887500D02*
X52543750Y-109887500D01*
X183200000Y-71787500D02*
X183200000Y-83787500D01*
X183200000Y-83787500D02*
X184200000Y-84787500D01*
X184200000Y-70787500D02*
X183200000Y-71787500D01*
X184200000Y-84787500D02*
X196800000Y-84787500D01*
X196800000Y-70787500D02*
X184200000Y-70787500D01*
X196800000Y-70787500D02*
X197800000Y-71787500D01*
X196800000Y-84787500D02*
X197800000Y-83787500D01*
X197800000Y-83787500D02*
X197800000Y-71787500D01*
X254637500Y-128937500D02*
X254637500Y-140937500D01*
X254637500Y-140937500D02*
X255637500Y-141937500D01*
X255637500Y-127937500D02*
X254637500Y-128937500D01*
X255637500Y-141937500D02*
X268237500Y-141937500D01*
X268237500Y-127937500D02*
X255637500Y-127937500D01*
X268237500Y-127937500D02*
X269237500Y-128937500D01*
X268237500Y-141937500D02*
X269237500Y-140937500D01*
X269237500Y-140937500D02*
X269237500Y-128937500D01*
X116525000Y-52737500D02*
X116525000Y-64737500D01*
X116525000Y-64737500D02*
X117525000Y-65737500D01*
X117525000Y-51737500D02*
X116525000Y-52737500D01*
X117525000Y-65737500D02*
X130125000Y-65737500D01*
X130125000Y-51737500D02*
X117525000Y-51737500D01*
X130125000Y-51737500D02*
X131125000Y-52737500D01*
X130125000Y-65737500D02*
X131125000Y-64737500D01*
X131125000Y-64737500D02*
X131125000Y-52737500D01*
X254637500Y-109887500D02*
X254637500Y-121887500D01*
X254637500Y-121887500D02*
X255637500Y-122887500D01*
X255637500Y-108887500D02*
X254637500Y-109887500D01*
X255637500Y-122887500D02*
X268237500Y-122887500D01*
X268237500Y-108887500D02*
X255637500Y-108887500D01*
X268237500Y-108887500D02*
X269237500Y-109887500D01*
X268237500Y-122887500D02*
X269237500Y-121887500D01*
X269237500Y-121887500D02*
X269237500Y-109887500D01*
X78425000Y-52737500D02*
X78425000Y-64737500D01*
X78425000Y-64737500D02*
X79425000Y-65737500D01*
X79425000Y-51737500D02*
X78425000Y-52737500D01*
X79425000Y-65737500D02*
X92025000Y-65737500D01*
X92025000Y-51737500D02*
X79425000Y-51737500D01*
X92025000Y-51737500D02*
X93025000Y-52737500D01*
X92025000Y-65737500D02*
X93025000Y-64737500D01*
X93025000Y-64737500D02*
X93025000Y-52737500D01*
X216537500Y-109887500D02*
X216537500Y-121887500D01*
X216537500Y-121887500D02*
X217537500Y-122887500D01*
X217537500Y-108887500D02*
X216537500Y-109887500D01*
X217537500Y-122887500D02*
X230137500Y-122887500D01*
X230137500Y-108887500D02*
X217537500Y-108887500D01*
X230137500Y-108887500D02*
X231137500Y-109887500D01*
X230137500Y-122887500D02*
X231137500Y-121887500D01*
X231137500Y-121887500D02*
X231137500Y-109887500D01*
D13*
X107894190Y-128487450D02*
X111193200Y-128487450D01*
X107894190Y-142686750D02*
X107894190Y-128487450D01*
X111193200Y-128487450D02*
X111193200Y-142686750D01*
X111193200Y-142686750D02*
X107894190Y-142686750D01*
X131692900Y-128487450D02*
X134993300Y-128487450D01*
X131692900Y-142686750D02*
X131692900Y-128487450D01*
X134993300Y-128487450D02*
X134993300Y-142686750D01*
X134993300Y-142686750D02*
X131692900Y-142686750D01*
D12*
X226062500Y-90837500D02*
X226062500Y-102837500D01*
X226062500Y-102837500D02*
X227062500Y-103837500D01*
X227062500Y-89837500D02*
X226062500Y-90837500D01*
X227062500Y-103837500D02*
X239662500Y-103837500D01*
X239662500Y-89837500D02*
X227062500Y-89837500D01*
X239662500Y-89837500D02*
X240662500Y-90837500D01*
X239662500Y-103837500D02*
X240662500Y-102837500D01*
X240662500Y-102837500D02*
X240662500Y-90837500D01*
X54612500Y-90837500D02*
X54612500Y-102837500D01*
X54612500Y-102837500D02*
X55612500Y-103837500D01*
X55612500Y-89837500D02*
X54612500Y-90837500D01*
X55612500Y-103837500D02*
X68212500Y-103837500D01*
X68212500Y-89837500D02*
X55612500Y-89837500D01*
X68212500Y-89837500D02*
X69212500Y-90837500D01*
X68212500Y-103837500D02*
X69212500Y-102837500D01*
X69212500Y-102837500D02*
X69212500Y-90837500D01*
X235587500Y-128937500D02*
X235587500Y-140937500D01*
X235587500Y-140937500D02*
X236587500Y-141937500D01*
X236587500Y-127937500D02*
X235587500Y-128937500D01*
X236587500Y-141937500D02*
X249187500Y-141937500D01*
X249187500Y-127937500D02*
X236587500Y-127937500D01*
X249187500Y-127937500D02*
X250187500Y-128937500D01*
X249187500Y-141937500D02*
X250187500Y-140937500D01*
X250187500Y-140937500D02*
X250187500Y-128937500D01*
X87950000Y-71787500D02*
X87950000Y-83787500D01*
X87950000Y-83787500D02*
X88950000Y-84787500D01*
X88950000Y-70787500D02*
X87950000Y-71787500D01*
X88950000Y-84787500D02*
X101550000Y-84787500D01*
X101550000Y-70787500D02*
X88950000Y-70787500D01*
X101550000Y-70787500D02*
X102550000Y-71787500D01*
X101550000Y-84787500D02*
X102550000Y-83787500D01*
X102550000Y-83787500D02*
X102550000Y-71787500D01*
X161768750Y-128937500D02*
X161768750Y-140937500D01*
X161768750Y-140937500D02*
X162768750Y-141937500D01*
X162768750Y-127937500D02*
X161768750Y-128937500D01*
X162768750Y-141937500D02*
X175368750Y-141937500D01*
X175368750Y-127937500D02*
X162768750Y-127937500D01*
X175368750Y-127937500D02*
X176368750Y-128937500D01*
X175368750Y-141937500D02*
X176368750Y-140937500D01*
X176368750Y-140937500D02*
X176368750Y-128937500D01*
X149862500Y-90837500D02*
X149862500Y-102837500D01*
X149862500Y-102837500D02*
X150862500Y-103837500D01*
X150862500Y-89837500D02*
X149862500Y-90837500D01*
X150862500Y-103837500D02*
X163462500Y-103837500D01*
X163462500Y-89837500D02*
X150862500Y-89837500D01*
X163462500Y-89837500D02*
X164462500Y-90837500D01*
X163462500Y-103837500D02*
X164462500Y-102837500D01*
X164462500Y-102837500D02*
X164462500Y-90837500D01*
X102237500Y-109887500D02*
X102237500Y-121887500D01*
X102237500Y-121887500D02*
X103237500Y-122887500D01*
X103237500Y-108887500D02*
X102237500Y-109887500D01*
X103237500Y-122887500D02*
X115837500Y-122887500D01*
X115837500Y-108887500D02*
X103237500Y-108887500D01*
X115837500Y-108887500D02*
X116837500Y-109887500D01*
X115837500Y-122887500D02*
X116837500Y-121887500D01*
X116837500Y-121887500D02*
X116837500Y-109887500D01*
X168912500Y-90837500D02*
X168912500Y-102837500D01*
X168912500Y-102837500D02*
X169912500Y-103837500D01*
X169912500Y-89837500D02*
X168912500Y-90837500D01*
X169912500Y-103837500D02*
X182512500Y-103837500D01*
X182512500Y-89837500D02*
X169912500Y-89837500D01*
X182512500Y-89837500D02*
X183512500Y-90837500D01*
X182512500Y-103837500D02*
X183512500Y-102837500D01*
X183512500Y-102837500D02*
X183512500Y-90837500D01*
X68900000Y-71787500D02*
X68900000Y-83787500D01*
X68900000Y-83787500D02*
X69900000Y-84787500D01*
X69900000Y-70787500D02*
X68900000Y-71787500D01*
X69900000Y-84787500D02*
X82500000Y-84787500D01*
X82500000Y-70787500D02*
X69900000Y-70787500D01*
X82500000Y-70787500D02*
X83500000Y-71787500D01*
X82500000Y-84787500D02*
X83500000Y-83787500D01*
X83500000Y-83787500D02*
X83500000Y-71787500D01*
X59375000Y-52737500D02*
X59375000Y-64737500D01*
X59375000Y-64737500D02*
X60375000Y-65737500D01*
X60375000Y-51737500D02*
X59375000Y-52737500D01*
X60375000Y-65737500D02*
X72975000Y-65737500D01*
X72975000Y-51737500D02*
X60375000Y-51737500D01*
X72975000Y-51737500D02*
X73975000Y-52737500D01*
X72975000Y-65737500D02*
X73975000Y-64737500D01*
X73975000Y-64737500D02*
X73975000Y-52737500D01*
D13*
X155519190Y-128487450D02*
X158818200Y-128487450D01*
X155519190Y-142686750D02*
X155519190Y-128487450D01*
X158818200Y-128487450D02*
X158818200Y-142686750D01*
X158818200Y-142686750D02*
X155519190Y-142686750D01*
X179317900Y-128487450D02*
X182618300Y-128487450D01*
X179317900Y-142686750D02*
X179317900Y-128487450D01*
X182618300Y-128487450D02*
X182618300Y-142686750D01*
X182618300Y-142686750D02*
X179317900Y-142686750D01*
D12*
X121287500Y-109887500D02*
X121287500Y-121887500D01*
X121287500Y-121887500D02*
X122287500Y-122887500D01*
X122287500Y-108887500D02*
X121287500Y-109887500D01*
X122287500Y-122887500D02*
X134887500Y-122887500D01*
X134887500Y-108887500D02*
X122287500Y-108887500D01*
X134887500Y-108887500D02*
X135887500Y-109887500D01*
X134887500Y-122887500D02*
X135887500Y-121887500D01*
X135887500Y-121887500D02*
X135887500Y-109887500D01*
X33181250Y-128937500D02*
X33181250Y-140937500D01*
X33181250Y-140937500D02*
X34181250Y-141937500D01*
X34181250Y-127937500D02*
X33181250Y-128937500D01*
X34181250Y-141937500D02*
X46781250Y-141937500D01*
X46781250Y-127937500D02*
X34181250Y-127937500D01*
X46781250Y-127937500D02*
X47781250Y-128937500D01*
X46781250Y-141937500D02*
X47781250Y-140937500D01*
X47781250Y-140937500D02*
X47781250Y-128937500D01*
X49850000Y-71787500D02*
X49850000Y-83787500D01*
X49850000Y-83787500D02*
X50850000Y-84787500D01*
X50850000Y-70787500D02*
X49850000Y-71787500D01*
X50850000Y-84787500D02*
X63450000Y-84787500D01*
X63450000Y-70787500D02*
X50850000Y-70787500D01*
X63450000Y-70787500D02*
X64450000Y-71787500D01*
X63450000Y-84787500D02*
X64450000Y-83787500D01*
X64450000Y-83787500D02*
X64450000Y-71787500D01*
X40325000Y-52737500D02*
X40325000Y-64737500D01*
X40325000Y-64737500D02*
X41325000Y-65737500D01*
X41325000Y-51737500D02*
X40325000Y-52737500D01*
X41325000Y-65737500D02*
X53925000Y-65737500D01*
X53925000Y-51737500D02*
X41325000Y-51737500D01*
X53925000Y-51737500D02*
X54925000Y-52737500D01*
X53925000Y-65737500D02*
X54925000Y-64737500D01*
X54925000Y-64737500D02*
X54925000Y-52737500D01*
X33181250Y-90837500D02*
X33181250Y-102837500D01*
X33181250Y-102837500D02*
X34181250Y-103837500D01*
X34181250Y-89837500D02*
X33181250Y-90837500D01*
X34181250Y-103837500D02*
X46781250Y-103837500D01*
X46781250Y-89837500D02*
X34181250Y-89837500D01*
X46781250Y-89837500D02*
X47781250Y-90837500D01*
X46781250Y-103837500D02*
X47781250Y-102837500D01*
X47781250Y-102837500D02*
X47781250Y-90837500D01*
X164150000Y-71787500D02*
X164150000Y-83787500D01*
X164150000Y-83787500D02*
X165150000Y-84787500D01*
X165150000Y-70787500D02*
X164150000Y-71787500D01*
X165150000Y-84787500D02*
X177750000Y-84787500D01*
X177750000Y-70787500D02*
X165150000Y-70787500D01*
X177750000Y-70787500D02*
X178750000Y-71787500D01*
X177750000Y-84787500D02*
X178750000Y-83787500D01*
X178750000Y-83787500D02*
X178750000Y-71787500D01*
X92712500Y-90837500D02*
X92712500Y-102837500D01*
X92712500Y-102837500D02*
X93712500Y-103837500D01*
X93712500Y-89837500D02*
X92712500Y-90837500D01*
X93712500Y-103837500D02*
X106312500Y-103837500D01*
X106312500Y-89837500D02*
X93712500Y-89837500D01*
X106312500Y-89837500D02*
X107312500Y-90837500D01*
X106312500Y-103837500D02*
X107312500Y-102837500D01*
X107312500Y-102837500D02*
X107312500Y-90837500D01*
X107000000Y-71787500D02*
X107000000Y-83787500D01*
X107000000Y-83787500D02*
X108000000Y-84787500D01*
X108000000Y-70787500D02*
X107000000Y-71787500D01*
X108000000Y-84787500D02*
X120600000Y-84787500D01*
X120600000Y-70787500D02*
X108000000Y-70787500D01*
X120600000Y-70787500D02*
X121600000Y-71787500D01*
X120600000Y-84787500D02*
X121600000Y-83787500D01*
X121600000Y-83787500D02*
X121600000Y-71787500D01*
X197487500Y-109887500D02*
X197487500Y-121887500D01*
X197487500Y-121887500D02*
X198487500Y-122887500D01*
X198487500Y-108887500D02*
X197487500Y-109887500D01*
X198487500Y-122887500D02*
X211087500Y-122887500D01*
X211087500Y-108887500D02*
X198487500Y-108887500D01*
X211087500Y-108887500D02*
X212087500Y-109887500D01*
X211087500Y-122887500D02*
X212087500Y-121887500D01*
X212087500Y-121887500D02*
X212087500Y-109887500D01*
X73662500Y-90837500D02*
X73662500Y-102837500D01*
X73662500Y-102837500D02*
X74662500Y-103837500D01*
X74662500Y-89837500D02*
X73662500Y-90837500D01*
X74662500Y-103837500D02*
X87262500Y-103837500D01*
X87262500Y-89837500D02*
X74662500Y-89837500D01*
X87262500Y-89837500D02*
X88262500Y-90837500D01*
X87262500Y-103837500D02*
X88262500Y-102837500D01*
X88262500Y-102837500D02*
X88262500Y-90837500D01*
X76043750Y-128937500D02*
X76043750Y-140937500D01*
X76043750Y-140937500D02*
X77043750Y-141937500D01*
X77043750Y-127937500D02*
X76043750Y-128937500D01*
X77043750Y-141937500D02*
X89643750Y-141937500D01*
X89643750Y-127937500D02*
X77043750Y-127937500D01*
X89643750Y-127937500D02*
X90643750Y-128937500D01*
X89643750Y-141937500D02*
X90643750Y-140937500D01*
X90643750Y-140937500D02*
X90643750Y-128937500D01*
X207012500Y-90837500D02*
X207012500Y-102837500D01*
X207012500Y-102837500D02*
X208012500Y-103837500D01*
X208012500Y-89837500D02*
X207012500Y-90837500D01*
X208012500Y-103837500D02*
X220612500Y-103837500D01*
X220612500Y-89837500D02*
X208012500Y-89837500D01*
X220612500Y-89837500D02*
X221612500Y-90837500D01*
X220612500Y-103837500D02*
X221612500Y-102837500D01*
X221612500Y-102837500D02*
X221612500Y-90837500D01*
X30800000Y-71787500D02*
X30800000Y-83787500D01*
X30800000Y-83787500D02*
X31800000Y-84787500D01*
X31800000Y-70787500D02*
X30800000Y-71787500D01*
X31800000Y-84787500D02*
X44400000Y-84787500D01*
X44400000Y-70787500D02*
X31800000Y-70787500D01*
X44400000Y-70787500D02*
X45400000Y-71787500D01*
X44400000Y-84787500D02*
X45400000Y-83787500D01*
X45400000Y-83787500D02*
X45400000Y-71787500D01*
X114143750Y-128937500D02*
X114143750Y-140937500D01*
X114143750Y-140937500D02*
X115143750Y-141937500D01*
X115143750Y-127937500D02*
X114143750Y-128937500D01*
X115143750Y-141937500D02*
X127743750Y-141937500D01*
X127743750Y-127937500D02*
X115143750Y-127937500D01*
X127743750Y-127937500D02*
X128743750Y-128937500D01*
X127743750Y-141937500D02*
X128743750Y-140937500D01*
X128743750Y-140937500D02*
X128743750Y-128937500D01*
X130812500Y-90837500D02*
X130812500Y-102837500D01*
X130812500Y-102837500D02*
X131812500Y-103837500D01*
X131812500Y-89837500D02*
X130812500Y-90837500D01*
X131812500Y-103837500D02*
X144412500Y-103837500D01*
X144412500Y-89837500D02*
X131812500Y-89837500D01*
X144412500Y-89837500D02*
X145412500Y-90837500D01*
X144412500Y-103837500D02*
X145412500Y-102837500D01*
X145412500Y-102837500D02*
X145412500Y-90837500D01*
X195106250Y-128937500D02*
X195106250Y-140937500D01*
X195106250Y-140937500D02*
X196106250Y-141937500D01*
X196106250Y-127937500D02*
X195106250Y-128937500D01*
X196106250Y-141937500D02*
X208706250Y-141937500D01*
X208706250Y-127937500D02*
X196106250Y-127937500D01*
X208706250Y-127937500D02*
X209706250Y-128937500D01*
X208706250Y-141937500D02*
X209706250Y-140937500D01*
X209706250Y-140937500D02*
X209706250Y-128937500D01*
X247493750Y-71787500D02*
X247493750Y-83787500D01*
X247493750Y-83787500D02*
X248493750Y-84787500D01*
X248493750Y-70787500D02*
X247493750Y-71787500D01*
X248493750Y-84787500D02*
X261093750Y-84787500D01*
X261093750Y-70787500D02*
X248493750Y-70787500D01*
X261093750Y-70787500D02*
X262093750Y-71787500D01*
X261093750Y-84787500D02*
X262093750Y-83787500D01*
X262093750Y-83787500D02*
X262093750Y-71787500D01*
X216537500Y-128937500D02*
X216537500Y-140937500D01*
X216537500Y-140937500D02*
X217537500Y-141937500D01*
X217537500Y-127937500D02*
X216537500Y-128937500D01*
X217537500Y-141937500D02*
X230137500Y-141937500D01*
X230137500Y-127937500D02*
X217537500Y-127937500D01*
X230137500Y-127937500D02*
X231137500Y-128937500D01*
X230137500Y-141937500D02*
X231137500Y-140937500D01*
X231137500Y-140937500D02*
X231137500Y-128937500D01*
X202250000Y-71787500D02*
X202250000Y-83787500D01*
X202250000Y-83787500D02*
X203250000Y-84787500D01*
X203250000Y-70787500D02*
X202250000Y-71787500D01*
X203250000Y-84787500D02*
X215850000Y-84787500D01*
X215850000Y-70787500D02*
X203250000Y-70787500D01*
X215850000Y-70787500D02*
X216850000Y-71787500D01*
X215850000Y-84787500D02*
X216850000Y-83787500D01*
X216850000Y-83787500D02*
X216850000Y-71787500D01*
X187962500Y-90837500D02*
X187962500Y-102837500D01*
X187962500Y-102837500D02*
X188962500Y-103837500D01*
X188962500Y-89837500D02*
X187962500Y-90837500D01*
X188962500Y-103837500D02*
X201562500Y-103837500D01*
X201562500Y-89837500D02*
X188962500Y-89837500D01*
X201562500Y-89837500D02*
X202562500Y-90837500D01*
X201562500Y-103837500D02*
X202562500Y-102837500D01*
X202562500Y-102837500D02*
X202562500Y-90837500D01*
X178437500Y-109887500D02*
X178437500Y-121887500D01*
X178437500Y-121887500D02*
X179437500Y-122887500D01*
X179437500Y-108887500D02*
X178437500Y-109887500D01*
X179437500Y-122887500D02*
X192037500Y-122887500D01*
X192037500Y-108887500D02*
X179437500Y-108887500D01*
X192037500Y-108887500D02*
X193037500Y-109887500D01*
X192037500Y-122887500D02*
X193037500Y-121887500D01*
X193037500Y-121887500D02*
X193037500Y-109887500D01*
X54612500Y-128937500D02*
X54612500Y-140937500D01*
X54612500Y-140937500D02*
X55612500Y-141937500D01*
X55612500Y-127937500D02*
X54612500Y-128937500D01*
X55612500Y-141937500D02*
X68212500Y-141937500D01*
X68212500Y-127937500D02*
X55612500Y-127937500D01*
X68212500Y-127937500D02*
X69212500Y-128937500D01*
X68212500Y-141937500D02*
X69212500Y-140937500D01*
X69212500Y-140937500D02*
X69212500Y-128937500D01*
X140337500Y-109887500D02*
X140337500Y-121887500D01*
X140337500Y-121887500D02*
X141337500Y-122887500D01*
X141337500Y-108887500D02*
X140337500Y-109887500D01*
X141337500Y-122887500D02*
X153937500Y-122887500D01*
X153937500Y-108887500D02*
X141337500Y-108887500D01*
X153937500Y-108887500D02*
X154937500Y-109887500D01*
X153937500Y-122887500D02*
X154937500Y-121887500D01*
X154937500Y-121887500D02*
X154937500Y-109887500D01*
X111762500Y-90837500D02*
X111762500Y-102837500D01*
X111762500Y-102837500D02*
X112762500Y-103837500D01*
X112762500Y-89837500D02*
X111762500Y-90837500D01*
X112762500Y-103837500D02*
X125362500Y-103837500D01*
X125362500Y-89837500D02*
X112762500Y-89837500D01*
X125362500Y-89837500D02*
X126362500Y-90837500D01*
X125362500Y-103837500D02*
X126362500Y-102837500D01*
X126362500Y-102837500D02*
X126362500Y-90837500D01*
X145100000Y-71787500D02*
X145100000Y-83787500D01*
X145100000Y-83787500D02*
X146100000Y-84787500D01*
X146100000Y-70787500D02*
X145100000Y-71787500D01*
X146100000Y-84787500D02*
X158700000Y-84787500D01*
X158700000Y-70787500D02*
X146100000Y-70787500D01*
X158700000Y-70787500D02*
X159700000Y-71787500D01*
X158700000Y-84787500D02*
X159700000Y-83787500D01*
X159700000Y-83787500D02*
X159700000Y-71787500D01*
X83187500Y-109887500D02*
X83187500Y-121887500D01*
X83187500Y-121887500D02*
X84187500Y-122887500D01*
X84187500Y-108887500D02*
X83187500Y-109887500D01*
X84187500Y-122887500D02*
X96787500Y-122887500D01*
X96787500Y-108887500D02*
X84187500Y-108887500D01*
X96787500Y-108887500D02*
X97787500Y-109887500D01*
X96787500Y-122887500D02*
X97787500Y-121887500D01*
X97787500Y-121887500D02*
X97787500Y-109887500D01*
X249875000Y-90837500D02*
X249875000Y-102837500D01*
X249875000Y-102837500D02*
X250875000Y-103837500D01*
X250875000Y-89837500D02*
X249875000Y-90837500D01*
X250875000Y-103837500D02*
X263475000Y-103837500D01*
X263475000Y-89837500D02*
X250875000Y-89837500D01*
X263475000Y-89837500D02*
X264475000Y-90837500D01*
X263475000Y-103837500D02*
X264475000Y-102837500D01*
X264475000Y-102837500D02*
X264475000Y-90837500D01*
X159387500Y-109887500D02*
X159387500Y-121887500D01*
X159387500Y-121887500D02*
X160387500Y-122887500D01*
X160387500Y-108887500D02*
X159387500Y-109887500D01*
X160387500Y-122887500D02*
X172987500Y-122887500D01*
X172987500Y-108887500D02*
X160387500Y-108887500D01*
X172987500Y-108887500D02*
X173987500Y-109887500D01*
X172987500Y-122887500D02*
X173987500Y-121887500D01*
X173987500Y-121887500D02*
X173987500Y-109887500D01*
X97475000Y-52737500D02*
X97475000Y-64737500D01*
X97475000Y-64737500D02*
X98475000Y-65737500D01*
X98475000Y-51737500D02*
X97475000Y-52737500D01*
X98475000Y-65737500D02*
X111075000Y-65737500D01*
X111075000Y-51737500D02*
X98475000Y-51737500D01*
X111075000Y-51737500D02*
X112075000Y-52737500D01*
X111075000Y-65737500D02*
X112075000Y-64737500D01*
X112075000Y-64737500D02*
X112075000Y-52737500D01*
X126050000Y-71787500D02*
X126050000Y-83787500D01*
X126050000Y-83787500D02*
X127050000Y-84787500D01*
X127050000Y-70787500D02*
X126050000Y-71787500D01*
X127050000Y-84787500D02*
X139650000Y-84787500D01*
X139650000Y-70787500D02*
X127050000Y-70787500D01*
X139650000Y-70787500D02*
X140650000Y-71787500D01*
X139650000Y-84787500D02*
X140650000Y-83787500D01*
X140650000Y-83787500D02*
X140650000Y-71787500D01*
X221300000Y-71787500D02*
X221300000Y-83787500D01*
X221300000Y-83787500D02*
X222300000Y-84787500D01*
X222300000Y-70787500D02*
X221300000Y-71787500D01*
X222300000Y-84787500D02*
X234900000Y-84787500D01*
X234900000Y-70787500D02*
X222300000Y-70787500D01*
X234900000Y-70787500D02*
X235900000Y-71787500D01*
X234900000Y-84787500D02*
X235900000Y-83787500D01*
X235900000Y-83787500D02*
X235900000Y-71787500D01*
X64137500Y-109887500D02*
X64137500Y-121887500D01*
X64137500Y-121887500D02*
X65137500Y-122887500D01*
X65137500Y-108887500D02*
X64137500Y-109887500D01*
X65137500Y-122887500D02*
X77737500Y-122887500D01*
X77737500Y-108887500D02*
X65137500Y-108887500D01*
X77737500Y-108887500D02*
X78737500Y-109887500D01*
X77737500Y-122887500D02*
X78737500Y-121887500D01*
X78737500Y-121887500D02*
X78737500Y-109887500D01*
X135575000Y-52737500D02*
X135575000Y-64737500D01*
X135575000Y-64737500D02*
X136575000Y-65737500D01*
X136575000Y-51737500D02*
X135575000Y-52737500D01*
X136575000Y-65737500D02*
X149175000Y-65737500D01*
X149175000Y-51737500D02*
X136575000Y-51737500D01*
X149175000Y-51737500D02*
X150175000Y-52737500D01*
X149175000Y-65737500D02*
X150175000Y-64737500D01*
X150175000Y-64737500D02*
X150175000Y-52737500D01*
%TD*%
M02*
