%TF.GenerationSoftware,KiCad,Pcbnew,(7.0.0)*%
%TF.CreationDate,2023-09-29T19:28:48+02:00*%
%TF.ProjectId,Hull OEM 275u 225u,48756c6c-204f-4454-9d20-323735752032,rev?*%
%TF.SameCoordinates,Original*%
%TF.FileFunction,Legend,Top*%
%TF.FilePolarity,Positive*%
%FSLAX46Y46*%
G04 Gerber Fmt 4.6, Leading zero omitted, Abs format (unit mm)*
G04 Created by KiCad (PCBNEW (7.0.0)) date 2023-09-29 19:28:48*
%MOMM*%
%LPD*%
G01*
G04 APERTURE LIST*
%ADD10C,0.150000*%
%ADD11C,0.600000*%
%ADD12C,0.100000*%
G04 APERTURE END LIST*
D10*
X142337202Y-134304880D02*
X142527678Y-134304880D01*
X142527678Y-134304880D02*
X142622916Y-134352500D01*
X142622916Y-134352500D02*
X142718154Y-134447738D01*
X142718154Y-134447738D02*
X142765773Y-134638214D01*
X142765773Y-134638214D02*
X142765773Y-134971547D01*
X142765773Y-134971547D02*
X142718154Y-135162023D01*
X142718154Y-135162023D02*
X142622916Y-135257261D01*
X142622916Y-135257261D02*
X142527678Y-135304880D01*
X142527678Y-135304880D02*
X142337202Y-135304880D01*
X142337202Y-135304880D02*
X142241964Y-135257261D01*
X142241964Y-135257261D02*
X142146726Y-135162023D01*
X142146726Y-135162023D02*
X142099107Y-134971547D01*
X142099107Y-134971547D02*
X142099107Y-134638214D01*
X142099107Y-134638214D02*
X142146726Y-134447738D01*
X142146726Y-134447738D02*
X142241964Y-134352500D01*
X142241964Y-134352500D02*
X142337202Y-134304880D01*
X143194345Y-134781071D02*
X143527678Y-134781071D01*
X143670535Y-135304880D02*
X143194345Y-135304880D01*
X143194345Y-135304880D02*
X143194345Y-134304880D01*
X143194345Y-134304880D02*
X143670535Y-134304880D01*
X144099107Y-135304880D02*
X144099107Y-134304880D01*
X144099107Y-134304880D02*
X144432440Y-135019166D01*
X144432440Y-135019166D02*
X144765773Y-134304880D01*
X144765773Y-134304880D02*
X144765773Y-135304880D01*
X145841964Y-135304880D02*
X145841964Y-134304880D01*
X145841964Y-134781071D02*
X146413392Y-134781071D01*
X146413392Y-135304880D02*
X146413392Y-134304880D01*
X147318154Y-134638214D02*
X147318154Y-135304880D01*
X146889583Y-134638214D02*
X146889583Y-135162023D01*
X146889583Y-135162023D02*
X146937202Y-135257261D01*
X146937202Y-135257261D02*
X147032440Y-135304880D01*
X147032440Y-135304880D02*
X147175297Y-135304880D01*
X147175297Y-135304880D02*
X147270535Y-135257261D01*
X147270535Y-135257261D02*
X147318154Y-135209642D01*
X147937202Y-135304880D02*
X147841964Y-135257261D01*
X147841964Y-135257261D02*
X147794345Y-135162023D01*
X147794345Y-135162023D02*
X147794345Y-134304880D01*
X148461012Y-135304880D02*
X148365774Y-135257261D01*
X148365774Y-135257261D02*
X148318155Y-135162023D01*
X148318155Y-135162023D02*
X148318155Y-134304880D01*
D11*
X60467857Y-66304816D02*
X62753571Y-66304816D01*
X61610714Y-70304816D02*
X61610714Y-66304816D01*
X64086904Y-70304816D02*
X64086904Y-66304816D01*
X65801190Y-70304816D02*
X65801190Y-68209578D01*
X65801190Y-68209578D02*
X65610714Y-67828626D01*
X65610714Y-67828626D02*
X65229762Y-67638150D01*
X65229762Y-67638150D02*
X64658333Y-67638150D01*
X64658333Y-67638150D02*
X64277381Y-67828626D01*
X64277381Y-67828626D02*
X64086904Y-68019102D01*
X69229762Y-70114340D02*
X68848810Y-70304816D01*
X68848810Y-70304816D02*
X68086905Y-70304816D01*
X68086905Y-70304816D02*
X67705952Y-70114340D01*
X67705952Y-70114340D02*
X67515476Y-69733388D01*
X67515476Y-69733388D02*
X67515476Y-68209578D01*
X67515476Y-68209578D02*
X67705952Y-67828626D01*
X67705952Y-67828626D02*
X68086905Y-67638150D01*
X68086905Y-67638150D02*
X68848810Y-67638150D01*
X68848810Y-67638150D02*
X69229762Y-67828626D01*
X69229762Y-67828626D02*
X69420238Y-68209578D01*
X69420238Y-68209578D02*
X69420238Y-68590531D01*
X69420238Y-68590531D02*
X67515476Y-68971483D01*
X73534523Y-70304816D02*
X73534523Y-66304816D01*
X73534523Y-66304816D02*
X75820238Y-70304816D01*
X75820238Y-70304816D02*
X75820238Y-66304816D01*
X77724999Y-70304816D02*
X77724999Y-67638150D01*
X77724999Y-66304816D02*
X77534523Y-66495293D01*
X77534523Y-66495293D02*
X77724999Y-66685769D01*
X77724999Y-66685769D02*
X77915476Y-66495293D01*
X77915476Y-66495293D02*
X77724999Y-66304816D01*
X77724999Y-66304816D02*
X77724999Y-66685769D01*
X81344047Y-70114340D02*
X80963095Y-70304816D01*
X80963095Y-70304816D02*
X80201190Y-70304816D01*
X80201190Y-70304816D02*
X79820238Y-70114340D01*
X79820238Y-70114340D02*
X79629761Y-69923864D01*
X79629761Y-69923864D02*
X79439285Y-69542912D01*
X79439285Y-69542912D02*
X79439285Y-68400054D01*
X79439285Y-68400054D02*
X79629761Y-68019102D01*
X79629761Y-68019102D02*
X79820238Y-67828626D01*
X79820238Y-67828626D02*
X80201190Y-67638150D01*
X80201190Y-67638150D02*
X80963095Y-67638150D01*
X80963095Y-67638150D02*
X81344047Y-67828626D01*
X83058332Y-70304816D02*
X83058332Y-66304816D01*
X84772618Y-70304816D02*
X84772618Y-68209578D01*
X84772618Y-68209578D02*
X84582142Y-67828626D01*
X84582142Y-67828626D02*
X84201190Y-67638150D01*
X84201190Y-67638150D02*
X83629761Y-67638150D01*
X83629761Y-67638150D02*
X83248809Y-67828626D01*
X83248809Y-67828626D02*
X83058332Y-68019102D01*
X87248809Y-70304816D02*
X86867857Y-70114340D01*
X86867857Y-70114340D02*
X86677380Y-69923864D01*
X86677380Y-69923864D02*
X86486904Y-69542912D01*
X86486904Y-69542912D02*
X86486904Y-68400054D01*
X86486904Y-68400054D02*
X86677380Y-68019102D01*
X86677380Y-68019102D02*
X86867857Y-67828626D01*
X86867857Y-67828626D02*
X87248809Y-67638150D01*
X87248809Y-67638150D02*
X87820238Y-67638150D01*
X87820238Y-67638150D02*
X88201190Y-67828626D01*
X88201190Y-67828626D02*
X88391666Y-68019102D01*
X88391666Y-68019102D02*
X88582142Y-68400054D01*
X88582142Y-68400054D02*
X88582142Y-69542912D01*
X88582142Y-69542912D02*
X88391666Y-69923864D01*
X88391666Y-69923864D02*
X88201190Y-70114340D01*
X88201190Y-70114340D02*
X87820238Y-70304816D01*
X87820238Y-70304816D02*
X87248809Y-70304816D01*
X90867857Y-70304816D02*
X90486905Y-70114340D01*
X90486905Y-70114340D02*
X90296428Y-69733388D01*
X90296428Y-69733388D02*
X90296428Y-66304816D01*
X94105952Y-70304816D02*
X94105952Y-68209578D01*
X94105952Y-68209578D02*
X93915476Y-67828626D01*
X93915476Y-67828626D02*
X93534524Y-67638150D01*
X93534524Y-67638150D02*
X92772619Y-67638150D01*
X92772619Y-67638150D02*
X92391666Y-67828626D01*
X94105952Y-70114340D02*
X93725000Y-70304816D01*
X93725000Y-70304816D02*
X92772619Y-70304816D01*
X92772619Y-70304816D02*
X92391666Y-70114340D01*
X92391666Y-70114340D02*
X92201190Y-69733388D01*
X92201190Y-69733388D02*
X92201190Y-69352435D01*
X92201190Y-69352435D02*
X92391666Y-68971483D01*
X92391666Y-68971483D02*
X92772619Y-68781007D01*
X92772619Y-68781007D02*
X93725000Y-68781007D01*
X93725000Y-68781007D02*
X94105952Y-68590531D01*
X95820238Y-70114340D02*
X96201191Y-70304816D01*
X96201191Y-70304816D02*
X96963095Y-70304816D01*
X96963095Y-70304816D02*
X97344048Y-70114340D01*
X97344048Y-70114340D02*
X97534524Y-69733388D01*
X97534524Y-69733388D02*
X97534524Y-69542912D01*
X97534524Y-69542912D02*
X97344048Y-69161959D01*
X97344048Y-69161959D02*
X96963095Y-68971483D01*
X96963095Y-68971483D02*
X96391667Y-68971483D01*
X96391667Y-68971483D02*
X96010714Y-68781007D01*
X96010714Y-68781007D02*
X95820238Y-68400054D01*
X95820238Y-68400054D02*
X95820238Y-68209578D01*
X95820238Y-68209578D02*
X96010714Y-67828626D01*
X96010714Y-67828626D02*
X96391667Y-67638150D01*
X96391667Y-67638150D02*
X96963095Y-67638150D01*
X96963095Y-67638150D02*
X97344048Y-67828626D01*
X101077381Y-66304816D02*
X102410714Y-70304816D01*
X102410714Y-70304816D02*
X103744048Y-66304816D01*
X106791666Y-70304816D02*
X106791666Y-68209578D01*
X106791666Y-68209578D02*
X106601190Y-67828626D01*
X106601190Y-67828626D02*
X106220238Y-67638150D01*
X106220238Y-67638150D02*
X105458333Y-67638150D01*
X105458333Y-67638150D02*
X105077380Y-67828626D01*
X106791666Y-70114340D02*
X106410714Y-70304816D01*
X106410714Y-70304816D02*
X105458333Y-70304816D01*
X105458333Y-70304816D02*
X105077380Y-70114340D01*
X105077380Y-70114340D02*
X104886904Y-69733388D01*
X104886904Y-69733388D02*
X104886904Y-69352435D01*
X104886904Y-69352435D02*
X105077380Y-68971483D01*
X105077380Y-68971483D02*
X105458333Y-68781007D01*
X105458333Y-68781007D02*
X106410714Y-68781007D01*
X106410714Y-68781007D02*
X106791666Y-68590531D01*
X108696428Y-67638150D02*
X108696428Y-70304816D01*
X108696428Y-68019102D02*
X108886905Y-67828626D01*
X108886905Y-67828626D02*
X109267857Y-67638150D01*
X109267857Y-67638150D02*
X109839286Y-67638150D01*
X109839286Y-67638150D02*
X110220238Y-67828626D01*
X110220238Y-67828626D02*
X110410714Y-68209578D01*
X110410714Y-68209578D02*
X110410714Y-70304816D01*
D12*
%TO.C,REF\u002A\u002A*%
X120110416Y-134804880D02*
X119777083Y-134328690D01*
X119538988Y-134804880D02*
X119538988Y-133804880D01*
X119538988Y-133804880D02*
X119919940Y-133804880D01*
X119919940Y-133804880D02*
X120015178Y-133852500D01*
X120015178Y-133852500D02*
X120062797Y-133900119D01*
X120062797Y-133900119D02*
X120110416Y-133995357D01*
X120110416Y-133995357D02*
X120110416Y-134138214D01*
X120110416Y-134138214D02*
X120062797Y-134233452D01*
X120062797Y-134233452D02*
X120015178Y-134281071D01*
X120015178Y-134281071D02*
X119919940Y-134328690D01*
X119919940Y-134328690D02*
X119538988Y-134328690D01*
X120538988Y-134281071D02*
X120872321Y-134281071D01*
X121015178Y-134804880D02*
X120538988Y-134804880D01*
X120538988Y-134804880D02*
X120538988Y-133804880D01*
X120538988Y-133804880D02*
X121015178Y-133804880D01*
X121777083Y-134281071D02*
X121443750Y-134281071D01*
X121443750Y-134804880D02*
X121443750Y-133804880D01*
X121443750Y-133804880D02*
X121919940Y-133804880D01*
X122443750Y-133804880D02*
X122443750Y-134042976D01*
X122205655Y-133947738D02*
X122443750Y-134042976D01*
X122443750Y-134042976D02*
X122681845Y-133947738D01*
X122300893Y-134233452D02*
X122443750Y-134042976D01*
X122443750Y-134042976D02*
X122586607Y-134233452D01*
X123205655Y-133804880D02*
X123205655Y-134042976D01*
X122967560Y-133947738D02*
X123205655Y-134042976D01*
X123205655Y-134042976D02*
X123443750Y-133947738D01*
X123062798Y-134233452D02*
X123205655Y-134042976D01*
X123205655Y-134042976D02*
X123348512Y-134233452D01*
X167735416Y-134804880D02*
X167402083Y-134328690D01*
X167163988Y-134804880D02*
X167163988Y-133804880D01*
X167163988Y-133804880D02*
X167544940Y-133804880D01*
X167544940Y-133804880D02*
X167640178Y-133852500D01*
X167640178Y-133852500D02*
X167687797Y-133900119D01*
X167687797Y-133900119D02*
X167735416Y-133995357D01*
X167735416Y-133995357D02*
X167735416Y-134138214D01*
X167735416Y-134138214D02*
X167687797Y-134233452D01*
X167687797Y-134233452D02*
X167640178Y-134281071D01*
X167640178Y-134281071D02*
X167544940Y-134328690D01*
X167544940Y-134328690D02*
X167163988Y-134328690D01*
X168163988Y-134281071D02*
X168497321Y-134281071D01*
X168640178Y-134804880D02*
X168163988Y-134804880D01*
X168163988Y-134804880D02*
X168163988Y-133804880D01*
X168163988Y-133804880D02*
X168640178Y-133804880D01*
X169402083Y-134281071D02*
X169068750Y-134281071D01*
X169068750Y-134804880D02*
X169068750Y-133804880D01*
X169068750Y-133804880D02*
X169544940Y-133804880D01*
X170068750Y-133804880D02*
X170068750Y-134042976D01*
X169830655Y-133947738D02*
X170068750Y-134042976D01*
X170068750Y-134042976D02*
X170306845Y-133947738D01*
X169925893Y-134233452D02*
X170068750Y-134042976D01*
X170068750Y-134042976D02*
X170211607Y-134233452D01*
X170830655Y-133804880D02*
X170830655Y-134042976D01*
X170592560Y-133947738D02*
X170830655Y-134042976D01*
X170830655Y-134042976D02*
X171068750Y-133947738D01*
X170687798Y-134233452D02*
X170830655Y-134042976D01*
X170830655Y-134042976D02*
X170973512Y-134233452D01*
%TD*%
M02*
