%TF.GenerationSoftware,KiCad,Pcbnew,8.0.3*%
%TF.CreationDate,2024-08-17T23:00:18+02:00*%
%TF.ProjectId,V1 Hull 625u,56312048-756c-46c2-9036-3235752e6b69,rev?*%
%TF.SameCoordinates,Original*%
%TF.FileFunction,Profile,NP*%
%FSLAX46Y46*%
G04 Gerber Fmt 4.6, Leading zero omitted, Abs format (unit mm)*
G04 Created by KiCad (PCBNEW 8.0.3) date 2024-08-17 23:00:18*
%MOMM*%
%LPD*%
G01*
G04 APERTURE LIST*
%TA.AperFunction,Profile*%
%ADD10C,0.200000*%
%TD*%
%TA.AperFunction,Profile*%
%ADD11C,0.100000*%
%TD*%
%TA.AperFunction,Profile*%
%ADD12C,0.120000*%
%TD*%
G04 APERTURE END LIST*
D10*
X51156250Y-134937500D02*
G75*
G02*
X48856250Y-134937500I-1150000J0D01*
G01*
X48856250Y-134937500D02*
G75*
G02*
X51156250Y-134937500I1150000J0D01*
G01*
X74968750Y-134937500D02*
G75*
G02*
X72668750Y-134937500I-1150000J0D01*
G01*
X72668750Y-134937500D02*
G75*
G02*
X74968750Y-134937500I1150000J0D01*
G01*
X96400000Y-134937500D02*
G75*
G02*
X94100000Y-134937500I-1150000J0D01*
G01*
X94100000Y-134937500D02*
G75*
G02*
X96400000Y-134937500I1150000J0D01*
G01*
X194031250Y-134937500D02*
G75*
G02*
X191731250Y-134937500I-1150000J0D01*
G01*
X191731250Y-134937500D02*
G75*
G02*
X194031250Y-134937500I1150000J0D01*
G01*
X215462500Y-134937500D02*
G75*
G02*
X213162500Y-134937500I-1150000J0D01*
G01*
X213162500Y-134937500D02*
G75*
G02*
X215462500Y-134937500I1150000J0D01*
G01*
X253562500Y-134937500D02*
G75*
G02*
X251262500Y-134937500I-1150000J0D01*
G01*
X251262500Y-134937500D02*
G75*
G02*
X253562500Y-134937500I1150000J0D01*
G01*
X253562500Y-115887500D02*
G75*
G02*
X251262500Y-115887500I-1150000J0D01*
G01*
X251262500Y-115887500D02*
G75*
G02*
X253562500Y-115887500I1150000J0D01*
G01*
X215462500Y-115887500D02*
G75*
G02*
X213162500Y-115887500I-1150000J0D01*
G01*
X213162500Y-115887500D02*
G75*
G02*
X215462500Y-115887500I1150000J0D01*
G01*
X158312500Y-115887500D02*
G75*
G02*
X156012500Y-115887500I-1150000J0D01*
G01*
X156012500Y-115887500D02*
G75*
G02*
X158312500Y-115887500I1150000J0D01*
G01*
X101162500Y-115887500D02*
G75*
G02*
X98862500Y-115887500I-1150000J0D01*
G01*
X98862500Y-115887500D02*
G75*
G02*
X101162500Y-115887500I1150000J0D01*
G01*
X36868750Y-115887500D02*
G75*
G02*
X34568750Y-115887500I-1150000J0D01*
G01*
X34568750Y-115887500D02*
G75*
G02*
X36868750Y-115887500I1150000J0D01*
G01*
X32106250Y-96837500D02*
G75*
G02*
X29806250Y-96837500I-1150000J0D01*
G01*
X29806250Y-96837500D02*
G75*
G02*
X32106250Y-96837500I1150000J0D01*
G01*
X72587500Y-96837500D02*
G75*
G02*
X70287500Y-96837500I-1150000J0D01*
G01*
X70287500Y-96837500D02*
G75*
G02*
X72587500Y-96837500I1150000J0D01*
G01*
X110687500Y-96837500D02*
G75*
G02*
X108387500Y-96837500I-1150000J0D01*
G01*
X108387500Y-96837500D02*
G75*
G02*
X110687500Y-96837500I1150000J0D01*
G01*
X148787500Y-96837500D02*
G75*
G02*
X146487500Y-96837500I-1150000J0D01*
G01*
X146487500Y-96837500D02*
G75*
G02*
X148787500Y-96837500I1150000J0D01*
G01*
X205937500Y-96837500D02*
G75*
G02*
X203637500Y-96837500I-1150000J0D01*
G01*
X203637500Y-96837500D02*
G75*
G02*
X205937500Y-96837500I1150000J0D01*
G01*
X248800000Y-96837500D02*
G75*
G02*
X246500000Y-96837500I-1150000J0D01*
G01*
X246500000Y-96837500D02*
G75*
G02*
X248800000Y-96837500I1150000J0D01*
G01*
X265468750Y-77787500D02*
G75*
G02*
X263168750Y-77787500I-1150000J0D01*
G01*
X263168750Y-77787500D02*
G75*
G02*
X265468750Y-77787500I1150000J0D01*
G01*
X220225000Y-77787500D02*
G75*
G02*
X217925000Y-77787500I-1150000J0D01*
G01*
X217925000Y-77787500D02*
G75*
G02*
X220225000Y-77787500I1150000J0D01*
G01*
X163075000Y-77787500D02*
G75*
G02*
X160775000Y-77787500I-1150000J0D01*
G01*
X160775000Y-77787500D02*
G75*
G02*
X163075000Y-77787500I1150000J0D01*
G01*
X105925000Y-77787500D02*
G75*
G02*
X103625000Y-77787500I-1150000J0D01*
G01*
X103625000Y-77787500D02*
G75*
G02*
X105925000Y-77787500I1150000J0D01*
G01*
X48775000Y-77787500D02*
G75*
G02*
X46475000Y-77787500I-1150000J0D01*
G01*
X46475000Y-77787500D02*
G75*
G02*
X48775000Y-77787500I1150000J0D01*
G01*
X134500000Y-58737500D02*
G75*
G02*
X132200000Y-58737500I-1150000J0D01*
G01*
X132200000Y-58737500D02*
G75*
G02*
X134500000Y-58737500I1150000J0D01*
G01*
X115450000Y-58737500D02*
G75*
G02*
X113150000Y-58737500I-1150000J0D01*
G01*
X113150000Y-58737500D02*
G75*
G02*
X115450000Y-58737500I1150000J0D01*
G01*
X77350000Y-58737500D02*
G75*
G02*
X75050000Y-58737500I-1150000J0D01*
G01*
X75050000Y-58737500D02*
G75*
G02*
X77350000Y-58737500I1150000J0D01*
G01*
X39250000Y-58737500D02*
G75*
G02*
X36950000Y-58737500I-1150000J0D01*
G01*
X36950000Y-58737500D02*
G75*
G02*
X39250000Y-58737500I1150000J0D01*
G01*
X275429947Y-73048896D02*
G75*
G02*
X273787500Y-73612500I-1642447J2111396D01*
G01*
X26250000Y-73612500D02*
G75*
G02*
X24607553Y-73048896I0J2675000D01*
G01*
X28575000Y-52387500D02*
G75*
G02*
X31750000Y-49212500I3175000J0D01*
G01*
D11*
X30899001Y-50952301D02*
X34298999Y-50952301D01*
X34298999Y-54152701D01*
X30899001Y-54152701D01*
X30899001Y-50952301D01*
D10*
X31750000Y-49212500D02*
X149225000Y-49212500D01*
X272962500Y-73612500D02*
X273787500Y-73612500D01*
X27075000Y-73612500D02*
G75*
G02*
X28575000Y-75112500I0J-1500000D01*
G01*
X28575000Y-137612500D02*
G75*
G02*
X27075000Y-139112500I-1500000J0D01*
G01*
X28575000Y-66762500D02*
X28575000Y-52387500D01*
X273787500Y-68262500D02*
X152400000Y-68262500D01*
X24607553Y-73048896D02*
G75*
G02*
X24817536Y-72163741I306997J394656D01*
G01*
X26250000Y-144462500D02*
G75*
G02*
X24607553Y-143898896I0J2675000D01*
G01*
X26250000Y-73612500D02*
X27075000Y-73612500D01*
X275219963Y-143013745D02*
G75*
G02*
X275219963Y-140561255I242537J1226245D01*
G01*
X271462500Y-75112500D02*
G75*
G02*
X272962500Y-73612500I1500000J0D01*
G01*
X275219963Y-143013745D02*
G75*
G02*
X275429971Y-143898927I-97163J-490555D01*
G01*
X27075000Y-68262500D02*
X26250000Y-68262500D01*
X28575000Y-137612500D02*
X28575000Y-75112500D01*
D11*
X30900001Y-62204601D02*
X34299999Y-62204601D01*
X34299999Y-65405001D01*
X30900001Y-65405001D01*
X30900001Y-62204601D01*
D10*
X273787500Y-139112500D02*
X272962500Y-139112500D01*
X24607553Y-68826104D02*
G75*
G02*
X26250000Y-68262500I1642447J-2111396D01*
G01*
X275219963Y-72163745D02*
G75*
G02*
X275429914Y-73048854I-96963J-490455D01*
G01*
X273787500Y-68262500D02*
G75*
G02*
X275429947Y-68826104I0J-2675000D01*
G01*
D11*
X187123653Y-131867762D02*
X190715197Y-131867762D01*
X190715197Y-138012074D01*
X187123653Y-138012074D01*
X187123653Y-131867762D01*
D10*
X271462500Y-75112500D02*
X271462500Y-137612500D01*
X275429947Y-68826104D02*
G75*
G02*
X275219973Y-69711307I-306947J-394696D01*
G01*
X24607553Y-143898896D02*
G75*
G02*
X24817536Y-143013741I306997J394656D01*
G01*
X275219963Y-72163745D02*
G75*
G02*
X275219963Y-69711255I242537J1226245D01*
G01*
X24817537Y-69711255D02*
G75*
G02*
X24607612Y-68826179I97063J490455D01*
G01*
X24817537Y-69711255D02*
G75*
G02*
X24817537Y-72163745I-242537J-1226245D01*
G01*
X24607553Y-139676104D02*
G75*
G02*
X26250000Y-139112500I1642447J-2111396D01*
G01*
X275429947Y-139676104D02*
G75*
G02*
X275219965Y-140561266I-306847J-394696D01*
G01*
X149225000Y-49212500D02*
G75*
G02*
X152400000Y-52387500I-100J-3175100D01*
G01*
X28575000Y-66762500D02*
G75*
G02*
X27075000Y-68262500I-1500000J0D01*
G01*
X152400000Y-52387500D02*
X152400000Y-68262500D01*
X273787500Y-139112500D02*
G75*
G02*
X275429947Y-139676104I0J-2675000D01*
G01*
X24817537Y-140561255D02*
G75*
G02*
X24607612Y-139676179I97063J490455D01*
G01*
X275429947Y-143898896D02*
G75*
G02*
X273787500Y-144462500I-1642447J2111396D01*
G01*
X27075000Y-139112500D02*
X26250000Y-139112500D01*
D11*
X30899001Y-56584801D02*
X34298999Y-56584801D01*
X34298999Y-59785201D01*
X30899001Y-59785201D01*
X30899001Y-56584801D01*
D10*
X273787500Y-144462500D02*
X26250000Y-144462500D01*
X24817537Y-140561255D02*
G75*
G02*
X24817537Y-143013745I-242537J-1226245D01*
G01*
X272962500Y-139112500D02*
G75*
G02*
X271462500Y-137612500I0J1500000D01*
G01*
D12*
%TO.C,REF\u002A\u002A*%
X147481250Y-128937500D02*
X147481250Y-140937500D01*
X147481250Y-140937500D02*
X148481250Y-141937500D01*
X148481250Y-127937500D02*
X147481250Y-128937500D01*
X148481250Y-141937500D02*
X161081250Y-141937500D01*
X161081250Y-127937500D02*
X148481250Y-127937500D01*
X161081250Y-127937500D02*
X162081250Y-128937500D01*
X161081250Y-141937500D02*
X162081250Y-140937500D01*
X162081250Y-140937500D02*
X162081250Y-128937500D01*
X97974750Y-141387500D02*
X97974750Y-128487500D01*
X98474750Y-127987500D02*
X111074750Y-127987500D01*
X111074750Y-141887500D02*
X98474750Y-141887500D01*
X111574750Y-128487500D02*
X111574750Y-141387500D01*
X197987750Y-141387500D02*
X197987750Y-128487500D01*
X198487750Y-127987500D02*
X211087750Y-127987500D01*
X211087750Y-141887500D02*
X198487750Y-141887500D01*
X211587750Y-128487500D02*
X211587750Y-141387500D01*
X97974750Y-128487500D02*
G75*
G02*
X98474750Y-127987500I500001J-1D01*
G01*
X98474750Y-141887500D02*
G75*
G02*
X97974750Y-141387500I1J500001D01*
G01*
X111074750Y-127987500D02*
G75*
G02*
X111574750Y-128487500I-1J-500001D01*
G01*
X111574750Y-141387500D02*
G75*
G02*
X111074750Y-141887500I-500001J1D01*
G01*
X197987750Y-128487500D02*
G75*
G02*
X198487750Y-127987500I500000J0D01*
G01*
X198487750Y-141887500D02*
G75*
G02*
X197987750Y-141387500I0J500000D01*
G01*
X211087750Y-127987500D02*
G75*
G02*
X211587750Y-128487500I0J-500000D01*
G01*
X211587750Y-141387500D02*
G75*
G02*
X211087750Y-141887500I-500000J0D01*
G01*
X235587500Y-109887500D02*
X235587500Y-121887500D01*
X235587500Y-121887500D02*
X236587500Y-122887500D01*
X236587500Y-108887500D02*
X235587500Y-109887500D01*
X236587500Y-122887500D02*
X249187500Y-122887500D01*
X249187500Y-108887500D02*
X236587500Y-108887500D01*
X249187500Y-108887500D02*
X250187500Y-109887500D01*
X249187500Y-122887500D02*
X250187500Y-121887500D01*
X250187500Y-121887500D02*
X250187500Y-109887500D01*
X37943750Y-109887500D02*
X37943750Y-121887500D01*
X37943750Y-121887500D02*
X38943750Y-122887500D01*
X38943750Y-108887500D02*
X37943750Y-109887500D01*
X38943750Y-122887500D02*
X51543750Y-122887500D01*
X51543750Y-108887500D02*
X38943750Y-108887500D01*
X51543750Y-108887500D02*
X52543750Y-109887500D01*
X51543750Y-122887500D02*
X52543750Y-121887500D01*
X52543750Y-121887500D02*
X52543750Y-109887500D01*
X183200000Y-71787500D02*
X183200000Y-83787500D01*
X183200000Y-83787500D02*
X184200000Y-84787500D01*
X184200000Y-70787500D02*
X183200000Y-71787500D01*
X184200000Y-84787500D02*
X196800000Y-84787500D01*
X196800000Y-70787500D02*
X184200000Y-70787500D01*
X196800000Y-70787500D02*
X197800000Y-71787500D01*
X196800000Y-84787500D02*
X197800000Y-83787500D01*
X197800000Y-83787500D02*
X197800000Y-71787500D01*
X254637500Y-128937500D02*
X254637500Y-140937500D01*
X254637500Y-140937500D02*
X255637500Y-141937500D01*
X255637500Y-127937500D02*
X254637500Y-128937500D01*
X255637500Y-141937500D02*
X268237500Y-141937500D01*
X268237500Y-127937500D02*
X255637500Y-127937500D01*
X268237500Y-127937500D02*
X269237500Y-128937500D01*
X268237500Y-141937500D02*
X269237500Y-140937500D01*
X269237500Y-140937500D02*
X269237500Y-128937500D01*
X116525000Y-52737500D02*
X116525000Y-64737500D01*
X116525000Y-64737500D02*
X117525000Y-65737500D01*
X117525000Y-51737500D02*
X116525000Y-52737500D01*
X117525000Y-65737500D02*
X130125000Y-65737500D01*
X130125000Y-51737500D02*
X117525000Y-51737500D01*
X130125000Y-51737500D02*
X131125000Y-52737500D01*
X130125000Y-65737500D02*
X131125000Y-64737500D01*
X131125000Y-64737500D02*
X131125000Y-52737500D01*
X254637500Y-109887500D02*
X254637500Y-121887500D01*
X254637500Y-121887500D02*
X255637500Y-122887500D01*
X255637500Y-108887500D02*
X254637500Y-109887500D01*
X255637500Y-122887500D02*
X268237500Y-122887500D01*
X268237500Y-108887500D02*
X255637500Y-108887500D01*
X268237500Y-108887500D02*
X269237500Y-109887500D01*
X268237500Y-122887500D02*
X269237500Y-121887500D01*
X269237500Y-121887500D02*
X269237500Y-109887500D01*
X78425000Y-52737500D02*
X78425000Y-64737500D01*
X78425000Y-64737500D02*
X79425000Y-65737500D01*
X79425000Y-51737500D02*
X78425000Y-52737500D01*
X79425000Y-65737500D02*
X92025000Y-65737500D01*
X92025000Y-51737500D02*
X79425000Y-51737500D01*
X92025000Y-51737500D02*
X93025000Y-52737500D01*
X92025000Y-65737500D02*
X93025000Y-64737500D01*
X93025000Y-64737500D02*
X93025000Y-52737500D01*
X216537500Y-109887500D02*
X216537500Y-121887500D01*
X216537500Y-121887500D02*
X217537500Y-122887500D01*
X217537500Y-108887500D02*
X216537500Y-109887500D01*
X217537500Y-122887500D02*
X230137500Y-122887500D01*
X230137500Y-108887500D02*
X217537500Y-108887500D01*
X230137500Y-108887500D02*
X231137500Y-109887500D01*
X230137500Y-122887500D02*
X231137500Y-121887500D01*
X231137500Y-121887500D02*
X231137500Y-109887500D01*
X226062500Y-90837500D02*
X226062500Y-102837500D01*
X226062500Y-102837500D02*
X227062500Y-103837500D01*
X227062500Y-89837500D02*
X226062500Y-90837500D01*
X227062500Y-103837500D02*
X239662500Y-103837500D01*
X239662500Y-89837500D02*
X227062500Y-89837500D01*
X239662500Y-89837500D02*
X240662500Y-90837500D01*
X239662500Y-103837500D02*
X240662500Y-102837500D01*
X240662500Y-102837500D02*
X240662500Y-90837500D01*
X54612500Y-90837500D02*
X54612500Y-102837500D01*
X54612500Y-102837500D02*
X55612500Y-103837500D01*
X55612500Y-89837500D02*
X54612500Y-90837500D01*
X55612500Y-103837500D02*
X68212500Y-103837500D01*
X68212500Y-89837500D02*
X55612500Y-89837500D01*
X68212500Y-89837500D02*
X69212500Y-90837500D01*
X68212500Y-103837500D02*
X69212500Y-102837500D01*
X69212500Y-102837500D02*
X69212500Y-90837500D01*
X235587500Y-128937500D02*
X235587500Y-140937500D01*
X235587500Y-140937500D02*
X236587500Y-141937500D01*
X236587500Y-127937500D02*
X235587500Y-128937500D01*
X236587500Y-141937500D02*
X249187500Y-141937500D01*
X249187500Y-127937500D02*
X236587500Y-127937500D01*
X249187500Y-127937500D02*
X250187500Y-128937500D01*
X249187500Y-141937500D02*
X250187500Y-140937500D01*
X250187500Y-140937500D02*
X250187500Y-128937500D01*
X87950000Y-71787500D02*
X87950000Y-83787500D01*
X87950000Y-83787500D02*
X88950000Y-84787500D01*
X88950000Y-70787500D02*
X87950000Y-71787500D01*
X88950000Y-84787500D02*
X101550000Y-84787500D01*
X101550000Y-70787500D02*
X88950000Y-70787500D01*
X101550000Y-70787500D02*
X102550000Y-71787500D01*
X101550000Y-84787500D02*
X102550000Y-83787500D01*
X102550000Y-83787500D02*
X102550000Y-71787500D01*
X149862500Y-90837500D02*
X149862500Y-102837500D01*
X149862500Y-102837500D02*
X150862500Y-103837500D01*
X150862500Y-89837500D02*
X149862500Y-90837500D01*
X150862500Y-103837500D02*
X163462500Y-103837500D01*
X163462500Y-89837500D02*
X150862500Y-89837500D01*
X163462500Y-89837500D02*
X164462500Y-90837500D01*
X163462500Y-103837500D02*
X164462500Y-102837500D01*
X164462500Y-102837500D02*
X164462500Y-90837500D01*
X102237500Y-109887500D02*
X102237500Y-121887500D01*
X102237500Y-121887500D02*
X103237500Y-122887500D01*
X103237500Y-108887500D02*
X102237500Y-109887500D01*
X103237500Y-122887500D02*
X115837500Y-122887500D01*
X115837500Y-108887500D02*
X103237500Y-108887500D01*
X115837500Y-108887500D02*
X116837500Y-109887500D01*
X115837500Y-122887500D02*
X116837500Y-121887500D01*
X116837500Y-121887500D02*
X116837500Y-109887500D01*
X168912500Y-90837500D02*
X168912500Y-102837500D01*
X168912500Y-102837500D02*
X169912500Y-103837500D01*
X169912500Y-89837500D02*
X168912500Y-90837500D01*
X169912500Y-103837500D02*
X182512500Y-103837500D01*
X182512500Y-89837500D02*
X169912500Y-89837500D01*
X182512500Y-89837500D02*
X183512500Y-90837500D01*
X182512500Y-103837500D02*
X183512500Y-102837500D01*
X183512500Y-102837500D02*
X183512500Y-90837500D01*
X68900000Y-71787500D02*
X68900000Y-83787500D01*
X68900000Y-83787500D02*
X69900000Y-84787500D01*
X69900000Y-70787500D02*
X68900000Y-71787500D01*
X69900000Y-84787500D02*
X82500000Y-84787500D01*
X82500000Y-70787500D02*
X69900000Y-70787500D01*
X82500000Y-70787500D02*
X83500000Y-71787500D01*
X82500000Y-84787500D02*
X83500000Y-83787500D01*
X83500000Y-83787500D02*
X83500000Y-71787500D01*
X59375000Y-52737500D02*
X59375000Y-64737500D01*
X59375000Y-64737500D02*
X60375000Y-65737500D01*
X60375000Y-51737500D02*
X59375000Y-52737500D01*
X60375000Y-65737500D02*
X72975000Y-65737500D01*
X72975000Y-51737500D02*
X60375000Y-51737500D01*
X72975000Y-51737500D02*
X73975000Y-52737500D01*
X72975000Y-65737500D02*
X73975000Y-64737500D01*
X73975000Y-64737500D02*
X73975000Y-52737500D01*
X121287500Y-109887500D02*
X121287500Y-121887500D01*
X121287500Y-121887500D02*
X122287500Y-122887500D01*
X122287500Y-108887500D02*
X121287500Y-109887500D01*
X122287500Y-122887500D02*
X134887500Y-122887500D01*
X134887500Y-108887500D02*
X122287500Y-108887500D01*
X134887500Y-108887500D02*
X135887500Y-109887500D01*
X134887500Y-122887500D02*
X135887500Y-121887500D01*
X135887500Y-121887500D02*
X135887500Y-109887500D01*
X33181250Y-128937500D02*
X33181250Y-140937500D01*
X33181250Y-140937500D02*
X34181250Y-141937500D01*
X34181250Y-127937500D02*
X33181250Y-128937500D01*
X34181250Y-141937500D02*
X46781250Y-141937500D01*
X46781250Y-127937500D02*
X34181250Y-127937500D01*
X46781250Y-127937500D02*
X47781250Y-128937500D01*
X46781250Y-141937500D02*
X47781250Y-140937500D01*
X47781250Y-140937500D02*
X47781250Y-128937500D01*
X49850000Y-71787500D02*
X49850000Y-83787500D01*
X49850000Y-83787500D02*
X50850000Y-84787500D01*
X50850000Y-70787500D02*
X49850000Y-71787500D01*
X50850000Y-84787500D02*
X63450000Y-84787500D01*
X63450000Y-70787500D02*
X50850000Y-70787500D01*
X63450000Y-70787500D02*
X64450000Y-71787500D01*
X63450000Y-84787500D02*
X64450000Y-83787500D01*
X64450000Y-83787500D02*
X64450000Y-71787500D01*
X40325000Y-52737500D02*
X40325000Y-64737500D01*
X40325000Y-64737500D02*
X41325000Y-65737500D01*
X41325000Y-51737500D02*
X40325000Y-52737500D01*
X41325000Y-65737500D02*
X53925000Y-65737500D01*
X53925000Y-51737500D02*
X41325000Y-51737500D01*
X53925000Y-51737500D02*
X54925000Y-52737500D01*
X53925000Y-65737500D02*
X54925000Y-64737500D01*
X54925000Y-64737500D02*
X54925000Y-52737500D01*
X33181250Y-90837500D02*
X33181250Y-102837500D01*
X33181250Y-102837500D02*
X34181250Y-103837500D01*
X34181250Y-89837500D02*
X33181250Y-90837500D01*
X34181250Y-103837500D02*
X46781250Y-103837500D01*
X46781250Y-89837500D02*
X34181250Y-89837500D01*
X46781250Y-89837500D02*
X47781250Y-90837500D01*
X46781250Y-103837500D02*
X47781250Y-102837500D01*
X47781250Y-102837500D02*
X47781250Y-90837500D01*
X164150000Y-71787500D02*
X164150000Y-83787500D01*
X164150000Y-83787500D02*
X165150000Y-84787500D01*
X165150000Y-70787500D02*
X164150000Y-71787500D01*
X165150000Y-84787500D02*
X177750000Y-84787500D01*
X177750000Y-70787500D02*
X165150000Y-70787500D01*
X177750000Y-70787500D02*
X178750000Y-71787500D01*
X177750000Y-84787500D02*
X178750000Y-83787500D01*
X178750000Y-83787500D02*
X178750000Y-71787500D01*
X92712500Y-90837500D02*
X92712500Y-102837500D01*
X92712500Y-102837500D02*
X93712500Y-103837500D01*
X93712500Y-89837500D02*
X92712500Y-90837500D01*
X93712500Y-103837500D02*
X106312500Y-103837500D01*
X106312500Y-89837500D02*
X93712500Y-89837500D01*
X106312500Y-89837500D02*
X107312500Y-90837500D01*
X106312500Y-103837500D02*
X107312500Y-102837500D01*
X107312500Y-102837500D02*
X107312500Y-90837500D01*
X107000000Y-71787500D02*
X107000000Y-83787500D01*
X107000000Y-83787500D02*
X108000000Y-84787500D01*
X108000000Y-70787500D02*
X107000000Y-71787500D01*
X108000000Y-84787500D02*
X120600000Y-84787500D01*
X120600000Y-70787500D02*
X108000000Y-70787500D01*
X120600000Y-70787500D02*
X121600000Y-71787500D01*
X120600000Y-84787500D02*
X121600000Y-83787500D01*
X121600000Y-83787500D02*
X121600000Y-71787500D01*
X197487500Y-109887500D02*
X197487500Y-121887500D01*
X197487500Y-121887500D02*
X198487500Y-122887500D01*
X198487500Y-108887500D02*
X197487500Y-109887500D01*
X198487500Y-122887500D02*
X211087500Y-122887500D01*
X211087500Y-108887500D02*
X198487500Y-108887500D01*
X211087500Y-108887500D02*
X212087500Y-109887500D01*
X211087500Y-122887500D02*
X212087500Y-121887500D01*
X212087500Y-121887500D02*
X212087500Y-109887500D01*
X73662500Y-90837500D02*
X73662500Y-102837500D01*
X73662500Y-102837500D02*
X74662500Y-103837500D01*
X74662500Y-89837500D02*
X73662500Y-90837500D01*
X74662500Y-103837500D02*
X87262500Y-103837500D01*
X87262500Y-89837500D02*
X74662500Y-89837500D01*
X87262500Y-89837500D02*
X88262500Y-90837500D01*
X87262500Y-103837500D02*
X88262500Y-102837500D01*
X88262500Y-102837500D02*
X88262500Y-90837500D01*
X76043750Y-128937500D02*
X76043750Y-140937500D01*
X76043750Y-140937500D02*
X77043750Y-141937500D01*
X77043750Y-127937500D02*
X76043750Y-128937500D01*
X77043750Y-141937500D02*
X89643750Y-141937500D01*
X89643750Y-127937500D02*
X77043750Y-127937500D01*
X89643750Y-127937500D02*
X90643750Y-128937500D01*
X89643750Y-141937500D02*
X90643750Y-140937500D01*
X90643750Y-140937500D02*
X90643750Y-128937500D01*
X207012500Y-90837500D02*
X207012500Y-102837500D01*
X207012500Y-102837500D02*
X208012500Y-103837500D01*
X208012500Y-89837500D02*
X207012500Y-90837500D01*
X208012500Y-103837500D02*
X220612500Y-103837500D01*
X220612500Y-89837500D02*
X208012500Y-89837500D01*
X220612500Y-89837500D02*
X221612500Y-90837500D01*
X220612500Y-103837500D02*
X221612500Y-102837500D01*
X221612500Y-102837500D02*
X221612500Y-90837500D01*
X30800000Y-71787500D02*
X30800000Y-83787500D01*
X30800000Y-83787500D02*
X31800000Y-84787500D01*
X31800000Y-70787500D02*
X30800000Y-71787500D01*
X31800000Y-84787500D02*
X44400000Y-84787500D01*
X44400000Y-70787500D02*
X31800000Y-70787500D01*
X44400000Y-70787500D02*
X45400000Y-71787500D01*
X44400000Y-84787500D02*
X45400000Y-83787500D01*
X45400000Y-83787500D02*
X45400000Y-71787500D01*
X130812500Y-90837500D02*
X130812500Y-102837500D01*
X130812500Y-102837500D02*
X131812500Y-103837500D01*
X131812500Y-89837500D02*
X130812500Y-90837500D01*
X131812500Y-103837500D02*
X144412500Y-103837500D01*
X144412500Y-89837500D02*
X131812500Y-89837500D01*
X144412500Y-89837500D02*
X145412500Y-90837500D01*
X144412500Y-103837500D02*
X145412500Y-102837500D01*
X145412500Y-102837500D02*
X145412500Y-90837500D01*
X247493750Y-71787500D02*
X247493750Y-83787500D01*
X247493750Y-83787500D02*
X248493750Y-84787500D01*
X248493750Y-70787500D02*
X247493750Y-71787500D01*
X248493750Y-84787500D02*
X261093750Y-84787500D01*
X261093750Y-70787500D02*
X248493750Y-70787500D01*
X261093750Y-70787500D02*
X262093750Y-71787500D01*
X261093750Y-84787500D02*
X262093750Y-83787500D01*
X262093750Y-83787500D02*
X262093750Y-71787500D01*
X216537500Y-128937500D02*
X216537500Y-140937500D01*
X216537500Y-140937500D02*
X217537500Y-141937500D01*
X217537500Y-127937500D02*
X216537500Y-128937500D01*
X217537500Y-141937500D02*
X230137500Y-141937500D01*
X230137500Y-127937500D02*
X217537500Y-127937500D01*
X230137500Y-127937500D02*
X231137500Y-128937500D01*
X230137500Y-141937500D02*
X231137500Y-140937500D01*
X231137500Y-140937500D02*
X231137500Y-128937500D01*
X202250000Y-71787500D02*
X202250000Y-83787500D01*
X202250000Y-83787500D02*
X203250000Y-84787500D01*
X203250000Y-70787500D02*
X202250000Y-71787500D01*
X203250000Y-84787500D02*
X215850000Y-84787500D01*
X215850000Y-70787500D02*
X203250000Y-70787500D01*
X215850000Y-70787500D02*
X216850000Y-71787500D01*
X215850000Y-84787500D02*
X216850000Y-83787500D01*
X216850000Y-83787500D02*
X216850000Y-71787500D01*
X187962500Y-90837500D02*
X187962500Y-102837500D01*
X187962500Y-102837500D02*
X188962500Y-103837500D01*
X188962500Y-89837500D02*
X187962500Y-90837500D01*
X188962500Y-103837500D02*
X201562500Y-103837500D01*
X201562500Y-89837500D02*
X188962500Y-89837500D01*
X201562500Y-89837500D02*
X202562500Y-90837500D01*
X201562500Y-103837500D02*
X202562500Y-102837500D01*
X202562500Y-102837500D02*
X202562500Y-90837500D01*
X178437500Y-109887500D02*
X178437500Y-121887500D01*
X178437500Y-121887500D02*
X179437500Y-122887500D01*
X179437500Y-108887500D02*
X178437500Y-109887500D01*
X179437500Y-122887500D02*
X192037500Y-122887500D01*
X192037500Y-108887500D02*
X179437500Y-108887500D01*
X192037500Y-108887500D02*
X193037500Y-109887500D01*
X192037500Y-122887500D02*
X193037500Y-121887500D01*
X193037500Y-121887500D02*
X193037500Y-109887500D01*
X54612500Y-128937500D02*
X54612500Y-140937500D01*
X54612500Y-140937500D02*
X55612500Y-141937500D01*
X55612500Y-127937500D02*
X54612500Y-128937500D01*
X55612500Y-141937500D02*
X68212500Y-141937500D01*
X68212500Y-127937500D02*
X55612500Y-127937500D01*
X68212500Y-127937500D02*
X69212500Y-128937500D01*
X68212500Y-141937500D02*
X69212500Y-140937500D01*
X69212500Y-140937500D02*
X69212500Y-128937500D01*
X140337500Y-109887500D02*
X140337500Y-121887500D01*
X140337500Y-121887500D02*
X141337500Y-122887500D01*
X141337500Y-108887500D02*
X140337500Y-109887500D01*
X141337500Y-122887500D02*
X153937500Y-122887500D01*
X153937500Y-108887500D02*
X141337500Y-108887500D01*
X153937500Y-108887500D02*
X154937500Y-109887500D01*
X153937500Y-122887500D02*
X154937500Y-121887500D01*
X154937500Y-121887500D02*
X154937500Y-109887500D01*
X111762500Y-90837500D02*
X111762500Y-102837500D01*
X111762500Y-102837500D02*
X112762500Y-103837500D01*
X112762500Y-89837500D02*
X111762500Y-90837500D01*
X112762500Y-103837500D02*
X125362500Y-103837500D01*
X125362500Y-89837500D02*
X112762500Y-89837500D01*
X125362500Y-89837500D02*
X126362500Y-90837500D01*
X125362500Y-103837500D02*
X126362500Y-102837500D01*
X126362500Y-102837500D02*
X126362500Y-90837500D01*
X145100000Y-71787500D02*
X145100000Y-83787500D01*
X145100000Y-83787500D02*
X146100000Y-84787500D01*
X146100000Y-70787500D02*
X145100000Y-71787500D01*
X146100000Y-84787500D02*
X158700000Y-84787500D01*
X158700000Y-70787500D02*
X146100000Y-70787500D01*
X158700000Y-70787500D02*
X159700000Y-71787500D01*
X158700000Y-84787500D02*
X159700000Y-83787500D01*
X159700000Y-83787500D02*
X159700000Y-71787500D01*
X83187500Y-109887500D02*
X83187500Y-121887500D01*
X83187500Y-121887500D02*
X84187500Y-122887500D01*
X84187500Y-108887500D02*
X83187500Y-109887500D01*
X84187500Y-122887500D02*
X96787500Y-122887500D01*
X96787500Y-108887500D02*
X84187500Y-108887500D01*
X96787500Y-108887500D02*
X97787500Y-109887500D01*
X96787500Y-122887500D02*
X97787500Y-121887500D01*
X97787500Y-121887500D02*
X97787500Y-109887500D01*
X249875000Y-90837500D02*
X249875000Y-102837500D01*
X249875000Y-102837500D02*
X250875000Y-103837500D01*
X250875000Y-89837500D02*
X249875000Y-90837500D01*
X250875000Y-103837500D02*
X263475000Y-103837500D01*
X263475000Y-89837500D02*
X250875000Y-89837500D01*
X263475000Y-89837500D02*
X264475000Y-90837500D01*
X263475000Y-103837500D02*
X264475000Y-102837500D01*
X264475000Y-102837500D02*
X264475000Y-90837500D01*
X159387500Y-109887500D02*
X159387500Y-121887500D01*
X159387500Y-121887500D02*
X160387500Y-122887500D01*
X160387500Y-108887500D02*
X159387500Y-109887500D01*
X160387500Y-122887500D02*
X172987500Y-122887500D01*
X172987500Y-108887500D02*
X160387500Y-108887500D01*
X172987500Y-108887500D02*
X173987500Y-109887500D01*
X172987500Y-122887500D02*
X173987500Y-121887500D01*
X173987500Y-121887500D02*
X173987500Y-109887500D01*
X97475000Y-52737500D02*
X97475000Y-64737500D01*
X97475000Y-64737500D02*
X98475000Y-65737500D01*
X98475000Y-51737500D02*
X97475000Y-52737500D01*
X98475000Y-65737500D02*
X111075000Y-65737500D01*
X111075000Y-51737500D02*
X98475000Y-51737500D01*
X111075000Y-51737500D02*
X112075000Y-52737500D01*
X111075000Y-65737500D02*
X112075000Y-64737500D01*
X112075000Y-64737500D02*
X112075000Y-52737500D01*
X126050000Y-71787500D02*
X126050000Y-83787500D01*
X126050000Y-83787500D02*
X127050000Y-84787500D01*
X127050000Y-70787500D02*
X126050000Y-71787500D01*
X127050000Y-84787500D02*
X139650000Y-84787500D01*
X139650000Y-70787500D02*
X127050000Y-70787500D01*
X139650000Y-70787500D02*
X140650000Y-71787500D01*
X139650000Y-84787500D02*
X140650000Y-83787500D01*
X140650000Y-83787500D02*
X140650000Y-71787500D01*
X221300000Y-71787500D02*
X221300000Y-83787500D01*
X221300000Y-83787500D02*
X222300000Y-84787500D01*
X222300000Y-70787500D02*
X221300000Y-71787500D01*
X222300000Y-84787500D02*
X234900000Y-84787500D01*
X234900000Y-70787500D02*
X222300000Y-70787500D01*
X234900000Y-70787500D02*
X235900000Y-71787500D01*
X234900000Y-84787500D02*
X235900000Y-83787500D01*
X235900000Y-83787500D02*
X235900000Y-71787500D01*
X64137500Y-109887500D02*
X64137500Y-121887500D01*
X64137500Y-121887500D02*
X65137500Y-122887500D01*
X65137500Y-108887500D02*
X64137500Y-109887500D01*
X65137500Y-122887500D02*
X77737500Y-122887500D01*
X77737500Y-108887500D02*
X65137500Y-108887500D01*
X77737500Y-108887500D02*
X78737500Y-109887500D01*
X77737500Y-122887500D02*
X78737500Y-121887500D01*
X78737500Y-121887500D02*
X78737500Y-109887500D01*
X135575000Y-52737500D02*
X135575000Y-64737500D01*
X135575000Y-64737500D02*
X136575000Y-65737500D01*
X136575000Y-51737500D02*
X135575000Y-52737500D01*
X136575000Y-65737500D02*
X149175000Y-65737500D01*
X149175000Y-51737500D02*
X136575000Y-51737500D01*
X149175000Y-51737500D02*
X150175000Y-52737500D01*
X149175000Y-65737500D02*
X150175000Y-64737500D01*
X150175000Y-64737500D02*
X150175000Y-52737500D01*
%TD*%
M02*
