%TF.GenerationSoftware,KiCad,Pcbnew,8.0.8*%
%TF.CreationDate,2025-03-01T16:22:11+01:00*%
%TF.ProjectId,the-nicholas-van revision,7468652d-6e69-4636-986f-6c61732d7661,rev?*%
%TF.SameCoordinates,Original*%
%TF.FileFunction,Soldermask,Bot*%
%TF.FilePolarity,Negative*%
%FSLAX46Y46*%
G04 Gerber Fmt 4.6, Leading zero omitted, Abs format (unit mm)*
G04 Created by KiCad (PCBNEW 8.0.8) date 2025-03-01 16:22:11*
%MOMM*%
%LPD*%
G01*
G04 APERTURE LIST*
G04 Aperture macros list*
%AMRoundRect*
0 Rectangle with rounded corners*
0 $1 Rounding radius*
0 $2 $3 $4 $5 $6 $7 $8 $9 X,Y pos of 4 corners*
0 Add a 4 corners polygon primitive as box body*
4,1,4,$2,$3,$4,$5,$6,$7,$8,$9,$2,$3,0*
0 Add four circle primitives for the rounded corners*
1,1,$1+$1,$2,$3*
1,1,$1+$1,$4,$5*
1,1,$1+$1,$6,$7*
1,1,$1+$1,$8,$9*
0 Add four rect primitives between the rounded corners*
20,1,$1+$1,$2,$3,$4,$5,0*
20,1,$1+$1,$4,$5,$6,$7,0*
20,1,$1+$1,$6,$7,$8,$9,0*
20,1,$1+$1,$8,$9,$2,$3,0*%
G04 Aperture macros list end*
%ADD10C,2.200000*%
%ADD11RoundRect,0.075000X0.075000X-0.662500X0.075000X0.662500X-0.075000X0.662500X-0.075000X-0.662500X0*%
%ADD12RoundRect,0.075000X0.662500X-0.075000X0.662500X0.075000X-0.662500X0.075000X-0.662500X-0.075000X0*%
%ADD13RoundRect,0.135000X-0.135000X-0.185000X0.135000X-0.185000X0.135000X0.185000X-0.135000X0.185000X0*%
%ADD14R,1.700000X1.700000*%
%ADD15O,1.700000X1.700000*%
%ADD16RoundRect,0.135000X0.185000X-0.135000X0.185000X0.135000X-0.185000X0.135000X-0.185000X-0.135000X0*%
%ADD17RoundRect,0.140000X0.140000X0.170000X-0.140000X0.170000X-0.140000X-0.170000X0.140000X-0.170000X0*%
%ADD18RoundRect,0.140000X-0.140000X-0.170000X0.140000X-0.170000X0.140000X0.170000X-0.140000X0.170000X0*%
%ADD19RoundRect,0.135000X-0.185000X0.135000X-0.185000X-0.135000X0.185000X-0.135000X0.185000X0.135000X0*%
%ADD20C,1.500000*%
%ADD21R,1.778000X0.419100*%
%ADD22RoundRect,0.150000X-0.150000X-0.625000X0.150000X-0.625000X0.150000X0.625000X-0.150000X0.625000X0*%
%ADD23RoundRect,0.250000X-0.350000X-0.650000X0.350000X-0.650000X0.350000X0.650000X-0.350000X0.650000X0*%
%ADD24RoundRect,0.135000X0.135000X0.185000X-0.135000X0.185000X-0.135000X-0.185000X0.135000X-0.185000X0*%
%ADD25R,0.700000X1.000000*%
%ADD26R,0.700000X0.600000*%
%ADD27RoundRect,0.250000X-0.625000X0.375000X-0.625000X-0.375000X0.625000X-0.375000X0.625000X0.375000X0*%
%ADD28RoundRect,0.140000X-0.170000X0.140000X-0.170000X-0.140000X0.170000X-0.140000X0.170000X0.140000X0*%
%ADD29R,1.700000X0.820000*%
%ADD30RoundRect,0.205000X0.645000X0.205000X-0.645000X0.205000X-0.645000X-0.205000X0.645000X-0.205000X0*%
%ADD31RoundRect,0.150000X-0.512500X-0.150000X0.512500X-0.150000X0.512500X0.150000X-0.512500X0.150000X0*%
%ADD32RoundRect,0.150000X0.587500X0.150000X-0.587500X0.150000X-0.587500X-0.150000X0.587500X-0.150000X0*%
%ADD33R,0.600000X1.300000*%
%ADD34R,0.300000X1.300000*%
%ADD35O,1.200000X2.250000*%
%ADD36O,1.200000X1.850000*%
%ADD37RoundRect,0.140000X0.170000X-0.140000X0.170000X0.140000X-0.170000X0.140000X-0.170000X-0.140000X0*%
%ADD38RoundRect,0.150000X0.150000X-0.512500X0.150000X0.512500X-0.150000X0.512500X-0.150000X-0.512500X0*%
%ADD39RoundRect,0.150000X-0.150000X-0.275000X0.150000X-0.275000X0.150000X0.275000X-0.150000X0.275000X0*%
%ADD40RoundRect,0.175000X-0.175000X-0.225000X0.175000X-0.225000X0.175000X0.225000X-0.175000X0.225000X0*%
G04 APERTURE END LIST*
D10*
%TO.C,H7*%
X161925000Y-77787500D03*
%TD*%
%TO.C,H22*%
X73818750Y-134937500D03*
%TD*%
%TO.C,H26*%
X252412500Y-134937500D03*
%TD*%
%TO.C,H13*%
X147637500Y-96837500D03*
%TD*%
%TO.C,H8*%
X219075000Y-77787500D03*
%TD*%
%TO.C,H19*%
X214312500Y-115887500D03*
%TD*%
%TO.C,H3*%
X114300000Y-58737500D03*
%TD*%
%TO.C,H18*%
X157162500Y-115887500D03*
%TD*%
%TO.C,H16*%
X35718750Y-115887500D03*
%TD*%
%TO.C,H25*%
X214312500Y-134937500D03*
%TD*%
%TO.C,H24*%
X192881250Y-134937500D03*
%TD*%
%TO.C,H1*%
X38100000Y-58737500D03*
%TD*%
%TO.C,H20*%
X252412500Y-115887500D03*
%TD*%
%TO.C,H17*%
X100012500Y-115887500D03*
%TD*%
%TO.C,H9*%
X264318750Y-77787500D03*
%TD*%
%TO.C,H11*%
X71437500Y-96837500D03*
%TD*%
%TO.C,H2*%
X76200000Y-58737500D03*
%TD*%
%TO.C,H10*%
X30956250Y-96837500D03*
%TD*%
%TO.C,H14*%
X204787500Y-96837500D03*
%TD*%
%TO.C,H21*%
X50006250Y-134937500D03*
%TD*%
%TO.C,H5*%
X47625000Y-77787500D03*
%TD*%
%TO.C,H23*%
X95250000Y-134937500D03*
%TD*%
%TO.C,H12*%
X109537500Y-96837500D03*
%TD*%
%TO.C,H15*%
X247650000Y-96837500D03*
%TD*%
%TO.C,H6*%
X104775000Y-77787500D03*
%TD*%
%TO.C,H4*%
X133350000Y-58737500D03*
%TD*%
D11*
%TO.C,U1*%
X143243750Y-139100000D03*
X142743750Y-139100000D03*
X142243750Y-139100000D03*
X141743750Y-139100000D03*
X141243750Y-139100000D03*
X140743750Y-139100000D03*
X140243750Y-139100000D03*
X139743750Y-139100000D03*
X139243750Y-139100000D03*
X138743750Y-139100000D03*
X138243750Y-139100000D03*
X137743750Y-139100000D03*
D12*
X136331250Y-137687500D03*
X136331250Y-137187500D03*
X136331250Y-136687500D03*
X136331250Y-136187500D03*
X136331250Y-135687500D03*
X136331250Y-135187500D03*
X136331250Y-134687500D03*
X136331250Y-134187500D03*
X136331250Y-133687500D03*
X136331250Y-133187500D03*
X136331250Y-132687500D03*
X136331250Y-132187500D03*
D11*
X137743750Y-130775000D03*
X138243750Y-130775000D03*
X138743750Y-130775000D03*
X139243750Y-130775000D03*
X139743750Y-130775000D03*
X140243750Y-130775000D03*
X140743750Y-130775000D03*
X141243750Y-130775000D03*
X141743750Y-130775000D03*
X142243750Y-130775000D03*
X142743750Y-130775000D03*
X143243750Y-130775000D03*
D12*
X144656250Y-132187500D03*
X144656250Y-132687500D03*
X144656250Y-133187500D03*
X144656250Y-133687500D03*
X144656250Y-134187500D03*
X144656250Y-134687500D03*
X144656250Y-135187500D03*
X144656250Y-135687500D03*
X144656250Y-136187500D03*
X144656250Y-136687500D03*
X144656250Y-137187500D03*
X144656250Y-137687500D03*
%TD*%
D13*
%TO.C,R10*%
X69389148Y-128587500D03*
X70409148Y-128587500D03*
%TD*%
%TO.C,R21*%
X216183750Y-128587500D03*
X217203750Y-128587500D03*
%TD*%
D14*
%TO.C,SW1*%
X188887500Y-133687500D03*
D15*
X188887500Y-136227500D03*
%TD*%
D16*
%TO.C,R3*%
X136485542Y-128276745D03*
X136485542Y-127256745D03*
%TD*%
D17*
%TO.C,C9*%
X35405000Y-54768750D03*
X34445000Y-54768750D03*
%TD*%
D13*
%TO.C,R23*%
X254283750Y-128577309D03*
X255303750Y-128577309D03*
%TD*%
D18*
%TO.C,C5*%
X144462500Y-140887500D03*
X145422500Y-140887500D03*
%TD*%
D19*
%TO.C,R2*%
X135421458Y-127248819D03*
X135421458Y-128268819D03*
%TD*%
D20*
%TO.C,J3*%
X37787500Y-51593750D03*
X39687500Y-51593750D03*
X41587500Y-51593750D03*
%TD*%
D19*
%TO.C,R6*%
X55753000Y-57575000D03*
X55753000Y-58595000D03*
%TD*%
D16*
%TO.C,R5*%
X138644542Y-128286382D03*
X138644542Y-127266382D03*
%TD*%
D21*
%TO.C,U6*%
X183949340Y-132664200D03*
X183949340Y-133314440D03*
X183949340Y-133964680D03*
X183949340Y-134614920D03*
X183949340Y-135260080D03*
X183949340Y-135910320D03*
X183949340Y-136560560D03*
X183949340Y-137210800D03*
X178000660Y-137210800D03*
X178000660Y-136560560D03*
X178000660Y-135910320D03*
X178000660Y-135260080D03*
X178000660Y-134614920D03*
X178000660Y-133964680D03*
X178000660Y-133314440D03*
X178000660Y-132664200D03*
%TD*%
D22*
%TO.C,J1*%
X65843750Y-75025000D03*
X66843750Y-75025000D03*
X67843750Y-75025000D03*
X68843750Y-75025000D03*
D23*
X64543750Y-71150000D03*
X70143750Y-71150000D03*
%TD*%
D24*
%TO.C,R12*%
X105001250Y-127793750D03*
X103981250Y-127793750D03*
%TD*%
D25*
%TO.C,D1*%
X59735621Y-62604972D03*
D26*
X59735621Y-64304972D03*
X57735621Y-64304972D03*
X57735621Y-62404972D03*
%TD*%
D21*
%TO.C,U4*%
X109336840Y-132664200D03*
X109336840Y-133314440D03*
X109336840Y-133964680D03*
X109336840Y-134614920D03*
X109336840Y-135260080D03*
X109336840Y-135910320D03*
X109336840Y-136560560D03*
X109336840Y-137210800D03*
X103388160Y-137210800D03*
X103388160Y-136560560D03*
X103388160Y-135910320D03*
X103388160Y-135260080D03*
X103388160Y-134614920D03*
X103388160Y-133964680D03*
X103388160Y-133314440D03*
X103388160Y-132664200D03*
%TD*%
D22*
%TO.C,J5*%
X264700000Y-90106250D03*
X265700000Y-90106250D03*
X266700000Y-90106250D03*
X267700000Y-90106250D03*
X268700000Y-90106250D03*
D23*
X263400000Y-86231250D03*
X270000000Y-86231250D03*
%TD*%
D24*
%TO.C,R18*%
X161641250Y-128587500D03*
X160621250Y-128587500D03*
%TD*%
D13*
%TO.C,R14*%
X130297511Y-141453333D03*
X131317511Y-141453333D03*
%TD*%
D18*
%TO.C,C3*%
X144462500Y-139700000D03*
X145422500Y-139700000D03*
%TD*%
D27*
%TO.C,F_USBC1*%
X55562500Y-62100000D03*
X55562500Y-64900000D03*
%TD*%
D28*
%TO.C,C6*%
X139249142Y-141250531D03*
X139249142Y-142210531D03*
%TD*%
D29*
%TO.C,LED1*%
X35150000Y-64567500D03*
X35150000Y-63067500D03*
D30*
X30050000Y-63067500D03*
D29*
X30050000Y-64567500D03*
%TD*%
D13*
%TO.C,R11*%
X47625000Y-128587500D03*
X48645000Y-128587500D03*
%TD*%
D31*
%TO.C,U5*%
X130475000Y-140166654D03*
X130475000Y-139216654D03*
X130475000Y-138266654D03*
X132750000Y-138266654D03*
X132750000Y-140166654D03*
%TD*%
D17*
%TO.C,C11*%
X35405000Y-65859930D03*
X34445000Y-65859930D03*
%TD*%
D16*
%TO.C,R8*%
X186531250Y-135447500D03*
X186531250Y-134427500D03*
%TD*%
D29*
%TO.C,LED3*%
X35149000Y-53302500D03*
X35149000Y-51802500D03*
D30*
X30049000Y-51802500D03*
D29*
X30049000Y-53302500D03*
%TD*%
D24*
%TO.C,R13*%
X114209913Y-128577309D03*
X113189913Y-128577309D03*
%TD*%
D19*
%TO.C,R7*%
X59055000Y-57575000D03*
X59055000Y-58595000D03*
%TD*%
D13*
%TO.C,R22*%
X235233750Y-128587500D03*
X236253750Y-128587500D03*
%TD*%
D32*
%TO.C,U3*%
X55854439Y-68106250D03*
X55854439Y-70006250D03*
X53979439Y-69056250D03*
%TD*%
D28*
%TO.C,C13*%
X52313712Y-69068759D03*
X52313712Y-70028759D03*
%TD*%
D33*
%TO.C,J4*%
X53950000Y-55100000D03*
X54750000Y-55100000D03*
D34*
X55900000Y-55100000D03*
X56900000Y-55100000D03*
X57400000Y-55100000D03*
X58400000Y-55100000D03*
D33*
X59550000Y-55100000D03*
X60350000Y-55100000D03*
D34*
X58900000Y-55100000D03*
X57900000Y-55100000D03*
X56400000Y-55100000D03*
X55400000Y-55100000D03*
D35*
X51530000Y-49950000D03*
D36*
X51530000Y-53950000D03*
D35*
X62770000Y-49950000D03*
D36*
X62770000Y-53950000D03*
%TD*%
D18*
%TO.C,C1*%
X145570000Y-130575000D03*
X146530000Y-130575000D03*
%TD*%
D17*
%TO.C,C2*%
X134623750Y-131762500D03*
X133663750Y-131762500D03*
%TD*%
D16*
%TO.C,R1*%
X139700000Y-128303750D03*
X139700000Y-127283750D03*
%TD*%
D37*
%TO.C,C14*%
X57702555Y-70069871D03*
X57702555Y-69109871D03*
%TD*%
D38*
%TO.C,U2*%
X33150000Y-69747375D03*
X32200000Y-69747375D03*
X31250000Y-69747375D03*
X31250000Y-67472375D03*
X33150000Y-67472375D03*
%TD*%
D24*
%TO.C,R17*%
X179387500Y-127793750D03*
X178367500Y-127793750D03*
%TD*%
D17*
%TO.C,C10*%
X35405000Y-60325000D03*
X34445000Y-60325000D03*
%TD*%
D16*
%TO.C,R4*%
X137571488Y-128275777D03*
X137571488Y-127255777D03*
%TD*%
D29*
%TO.C,LED2*%
X35149000Y-58935000D03*
X35149000Y-57435000D03*
D30*
X30049000Y-57435000D03*
D29*
X30049000Y-58935000D03*
%TD*%
D24*
%TO.C,R19*%
X147353750Y-128587500D03*
X146333750Y-128587500D03*
%TD*%
D37*
%TO.C,C15*%
X134225200Y-140707019D03*
X134225200Y-139747019D03*
%TD*%
D28*
%TO.C,C17*%
X128937103Y-138736654D03*
X128937103Y-139696654D03*
%TD*%
D39*
%TO.C,J2*%
X65543750Y-73312500D03*
X66743750Y-73312500D03*
X67943750Y-73312500D03*
X69143750Y-73312500D03*
D40*
X64393750Y-69537500D03*
X70293750Y-69537500D03*
%TD*%
D24*
%TO.C,R9*%
X79375000Y-128587500D03*
X78355000Y-128587500D03*
%TD*%
D28*
%TO.C,C7*%
X141287500Y-141274651D03*
X141287500Y-142234651D03*
%TD*%
D19*
%TO.C,R15*%
X134244447Y-137805463D03*
X134244447Y-138825463D03*
%TD*%
D28*
%TO.C,C8*%
X140304304Y-141250531D03*
X140304304Y-142210531D03*
%TD*%
D37*
%TO.C,C16*%
X103187500Y-130655000D03*
X103187500Y-129695000D03*
%TD*%
D24*
%TO.C,R16*%
X133252900Y-141417520D03*
X132232900Y-141417520D03*
%TD*%
D37*
%TO.C,C18*%
X177800000Y-130655000D03*
X177800000Y-129695000D03*
%TD*%
D17*
%TO.C,C4*%
X134623750Y-130575000D03*
X133663750Y-130575000D03*
%TD*%
D19*
%TO.C,R20*%
X183356250Y-139190000D03*
X183356250Y-140210000D03*
%TD*%
D28*
%TO.C,C12*%
X34652000Y-68554000D03*
X34652000Y-69514000D03*
%TD*%
M02*
