%TF.GenerationSoftware,KiCad,Pcbnew,8.0.3*%
%TF.CreationDate,2024-08-17T22:33:00+02:00*%
%TF.ProjectId,the-nicholas-van V1,7468652d-6e69-4636-986f-6c61732d7661,rev?*%
%TF.SameCoordinates,Original*%
%TF.FileFunction,Soldermask,Bot*%
%TF.FilePolarity,Negative*%
%FSLAX46Y46*%
G04 Gerber Fmt 4.6, Leading zero omitted, Abs format (unit mm)*
G04 Created by KiCad (PCBNEW 8.0.3) date 2024-08-17 22:33:00*
%MOMM*%
%LPD*%
G01*
G04 APERTURE LIST*
G04 Aperture macros list*
%AMRoundRect*
0 Rectangle with rounded corners*
0 $1 Rounding radius*
0 $2 $3 $4 $5 $6 $7 $8 $9 X,Y pos of 4 corners*
0 Add a 4 corners polygon primitive as box body*
4,1,4,$2,$3,$4,$5,$6,$7,$8,$9,$2,$3,0*
0 Add four circle primitives for the rounded corners*
1,1,$1+$1,$2,$3*
1,1,$1+$1,$4,$5*
1,1,$1+$1,$6,$7*
1,1,$1+$1,$8,$9*
0 Add four rect primitives between the rounded corners*
20,1,$1+$1,$2,$3,$4,$5,0*
20,1,$1+$1,$4,$5,$6,$7,0*
20,1,$1+$1,$6,$7,$8,$9,0*
20,1,$1+$1,$8,$9,$2,$3,0*%
G04 Aperture macros list end*
%ADD10C,2.200000*%
%ADD11RoundRect,0.140000X-0.170000X0.140000X-0.170000X-0.140000X0.170000X-0.140000X0.170000X0.140000X0*%
%ADD12RoundRect,0.135000X-0.185000X0.135000X-0.185000X-0.135000X0.185000X-0.135000X0.185000X0.135000X0*%
%ADD13RoundRect,0.135000X-0.135000X-0.185000X0.135000X-0.185000X0.135000X0.185000X-0.135000X0.185000X0*%
%ADD14RoundRect,0.135000X0.135000X0.185000X-0.135000X0.185000X-0.135000X-0.185000X0.135000X-0.185000X0*%
%ADD15R,0.400000X1.900000*%
%ADD16RoundRect,0.140000X0.140000X0.170000X-0.140000X0.170000X-0.140000X-0.170000X0.140000X-0.170000X0*%
%ADD17RoundRect,0.062500X0.062500X-0.375000X0.062500X0.375000X-0.062500X0.375000X-0.062500X-0.375000X0*%
%ADD18RoundRect,0.062500X0.375000X-0.062500X0.375000X0.062500X-0.375000X0.062500X-0.375000X-0.062500X0*%
%ADD19R,5.600000X5.600000*%
%ADD20C,1.500000*%
%ADD21R,1.778000X0.419100*%
%ADD22R,1.700000X1.700000*%
%ADD23O,1.700000X1.700000*%
%ADD24RoundRect,0.150000X-0.150000X-0.625000X0.150000X-0.625000X0.150000X0.625000X-0.150000X0.625000X0*%
%ADD25RoundRect,0.250000X-0.350000X-0.650000X0.350000X-0.650000X0.350000X0.650000X-0.350000X0.650000X0*%
%ADD26R,0.700000X1.000000*%
%ADD27R,0.700000X0.600000*%
%ADD28RoundRect,0.250000X-0.625000X0.375000X-0.625000X-0.375000X0.625000X-0.375000X0.625000X0.375000X0*%
%ADD29R,1.700000X0.820000*%
%ADD30RoundRect,0.205000X0.645000X0.205000X-0.645000X0.205000X-0.645000X-0.205000X0.645000X-0.205000X0*%
%ADD31RoundRect,0.140000X0.170000X-0.140000X0.170000X0.140000X-0.170000X0.140000X-0.170000X-0.140000X0*%
%ADD32RoundRect,0.150000X-0.825000X-0.150000X0.825000X-0.150000X0.825000X0.150000X-0.825000X0.150000X0*%
%ADD33RoundRect,0.150000X0.587500X0.150000X-0.587500X0.150000X-0.587500X-0.150000X0.587500X-0.150000X0*%
%ADD34R,0.600000X1.300000*%
%ADD35R,0.300000X1.300000*%
%ADD36O,1.200000X2.250000*%
%ADD37O,1.200000X1.850000*%
%ADD38RoundRect,0.150000X0.150000X-0.512500X0.150000X0.512500X-0.150000X0.512500X-0.150000X-0.512500X0*%
%ADD39RoundRect,0.140000X-0.140000X-0.170000X0.140000X-0.170000X0.140000X0.170000X-0.140000X0.170000X0*%
%ADD40RoundRect,0.135000X0.185000X-0.135000X0.185000X0.135000X-0.185000X0.135000X-0.185000X-0.135000X0*%
%ADD41RoundRect,0.150000X-0.150000X-0.275000X0.150000X-0.275000X0.150000X0.275000X-0.150000X0.275000X0*%
%ADD42RoundRect,0.175000X-0.175000X-0.225000X0.175000X-0.225000X0.175000X0.225000X-0.175000X0.225000X0*%
%ADD43RoundRect,0.237500X0.250000X0.237500X-0.250000X0.237500X-0.250000X-0.237500X0.250000X-0.237500X0*%
G04 APERTURE END LIST*
D10*
%TO.C,H7*%
X161925000Y-77787500D03*
%TD*%
%TO.C,H22*%
X73818750Y-134937500D03*
%TD*%
%TO.C,H26*%
X252412500Y-134937500D03*
%TD*%
%TO.C,H13*%
X147637500Y-96837500D03*
%TD*%
%TO.C,H8*%
X219075000Y-77787500D03*
%TD*%
%TO.C,H19*%
X214312500Y-115887500D03*
%TD*%
%TO.C,H3*%
X114300000Y-58737500D03*
%TD*%
%TO.C,H18*%
X157162500Y-115887500D03*
%TD*%
%TO.C,H16*%
X35718750Y-115887500D03*
%TD*%
%TO.C,H25*%
X214312500Y-134937500D03*
%TD*%
%TO.C,H24*%
X192881250Y-134937500D03*
%TD*%
%TO.C,H1*%
X38100000Y-58737500D03*
%TD*%
%TO.C,H20*%
X252412500Y-115887500D03*
%TD*%
%TO.C,H17*%
X100012500Y-115887500D03*
%TD*%
%TO.C,H9*%
X264318750Y-77787500D03*
%TD*%
%TO.C,H11*%
X71437500Y-96837500D03*
%TD*%
%TO.C,H2*%
X76200000Y-58737500D03*
%TD*%
%TO.C,H10*%
X30956250Y-96837500D03*
%TD*%
%TO.C,H14*%
X204787500Y-96837500D03*
%TD*%
%TO.C,H21*%
X50006250Y-134937500D03*
%TD*%
%TO.C,H5*%
X47625000Y-77787500D03*
%TD*%
%TO.C,H23*%
X95250000Y-134937500D03*
%TD*%
%TO.C,H12*%
X109537500Y-96837500D03*
%TD*%
%TO.C,H15*%
X247650000Y-96837500D03*
%TD*%
%TO.C,H6*%
X104775000Y-77787500D03*
%TD*%
%TO.C,H4*%
X133350000Y-58737500D03*
%TD*%
D11*
%TO.C,C6*%
X139442322Y-140577223D03*
X139442322Y-141537223D03*
%TD*%
D12*
%TO.C,R6*%
X137707458Y-127253239D03*
X137707458Y-128273239D03*
%TD*%
D13*
%TO.C,R15*%
X69389148Y-128587500D03*
X70409148Y-128587500D03*
%TD*%
%TO.C,R24*%
X216183750Y-128587500D03*
X217203750Y-128587500D03*
%TD*%
D12*
%TO.C,R4*%
X135578946Y-127225266D03*
X135578946Y-128245266D03*
%TD*%
D14*
%TO.C,R19*%
X131478750Y-141193750D03*
X130458750Y-141193750D03*
%TD*%
D15*
%TO.C,Y1*%
X141957464Y-141748285D03*
X143157464Y-141748285D03*
X144357464Y-141748285D03*
%TD*%
D16*
%TO.C,C15*%
X35405000Y-54768750D03*
X34445000Y-54768750D03*
%TD*%
D13*
%TO.C,R26*%
X254283750Y-128577309D03*
X255303750Y-128577309D03*
%TD*%
D17*
%TO.C,U1*%
X144037500Y-138375000D03*
X143537500Y-138375000D03*
X143037500Y-138375000D03*
X142537500Y-138375000D03*
X142037500Y-138375000D03*
X141537500Y-138375000D03*
X141037500Y-138375000D03*
X140537500Y-138375000D03*
X140037500Y-138375000D03*
X139537500Y-138375000D03*
X139037500Y-138375000D03*
X138537500Y-138375000D03*
D18*
X137850000Y-137687500D03*
X137850000Y-137187500D03*
X137850000Y-136687500D03*
X137850000Y-136187500D03*
X137850000Y-135687500D03*
X137850000Y-135187500D03*
X137850000Y-134687500D03*
X137850000Y-134187500D03*
X137850000Y-133687500D03*
X137850000Y-133187500D03*
X137850000Y-132687500D03*
X137850000Y-132187500D03*
D17*
X138537500Y-131500000D03*
X139037500Y-131500000D03*
X139537500Y-131500000D03*
X140037500Y-131500000D03*
X140537500Y-131500000D03*
X141037500Y-131500000D03*
X141537500Y-131500000D03*
X142037500Y-131500000D03*
X142537500Y-131500000D03*
X143037500Y-131500000D03*
X143537500Y-131500000D03*
X144037500Y-131500000D03*
D18*
X144725000Y-132187500D03*
X144725000Y-132687500D03*
X144725000Y-133187500D03*
X144725000Y-133687500D03*
X144725000Y-134187500D03*
X144725000Y-134687500D03*
X144725000Y-135187500D03*
X144725000Y-135687500D03*
X144725000Y-136187500D03*
X144725000Y-136687500D03*
X144725000Y-137187500D03*
X144725000Y-137687500D03*
D19*
X141287500Y-134937500D03*
%TD*%
D11*
%TO.C,C13*%
X138345929Y-140577223D03*
X138345929Y-141537223D03*
%TD*%
D20*
%TO.C,J5*%
X37787500Y-51593750D03*
X39687500Y-51593750D03*
X41587500Y-51593750D03*
%TD*%
D12*
%TO.C,R12*%
X55753000Y-57575000D03*
X55753000Y-58595000D03*
%TD*%
D21*
%TO.C,U6*%
X183949340Y-132664200D03*
X183949340Y-133314440D03*
X183949340Y-133964680D03*
X183949340Y-134614920D03*
X183949340Y-135260080D03*
X183949340Y-135910320D03*
X183949340Y-136560560D03*
X183949340Y-137210800D03*
X178000660Y-137210800D03*
X178000660Y-136560560D03*
X178000660Y-135910320D03*
X178000660Y-135260080D03*
X178000660Y-134614920D03*
X178000660Y-133964680D03*
X178000660Y-133314440D03*
X178000660Y-132664200D03*
%TD*%
D22*
%TO.C,SW1*%
X188912500Y-133662500D03*
D23*
X188912500Y-136202500D03*
%TD*%
D24*
%TO.C,J1*%
X65843750Y-75025000D03*
X66843750Y-75025000D03*
X67843750Y-75025000D03*
X68843750Y-75025000D03*
D25*
X64543750Y-71150000D03*
X70143750Y-71150000D03*
%TD*%
D14*
%TO.C,R17*%
X105001250Y-127793750D03*
X103981250Y-127793750D03*
%TD*%
D26*
%TO.C,D1*%
X59735621Y-62604972D03*
D27*
X59735621Y-64304972D03*
X57735621Y-64304972D03*
X57735621Y-62404972D03*
%TD*%
D21*
%TO.C,U4*%
X109336840Y-132664200D03*
X109336840Y-133314440D03*
X109336840Y-133964680D03*
X109336840Y-134614920D03*
X109336840Y-135260080D03*
X109336840Y-135910320D03*
X109336840Y-136560560D03*
X109336840Y-137210800D03*
X103388160Y-137210800D03*
X103388160Y-136560560D03*
X103388160Y-135910320D03*
X103388160Y-135260080D03*
X103388160Y-134614920D03*
X103388160Y-133964680D03*
X103388160Y-133314440D03*
X103388160Y-132664200D03*
%TD*%
D24*
%TO.C,J4*%
X264700000Y-90106250D03*
X265700000Y-90106250D03*
X266700000Y-90106250D03*
X267700000Y-90106250D03*
X268700000Y-90106250D03*
D25*
X263400000Y-86231250D03*
X270000000Y-86231250D03*
%TD*%
D12*
%TO.C,R5*%
X136652000Y-127235871D03*
X136652000Y-128255871D03*
%TD*%
D14*
%TO.C,R21*%
X161641250Y-128587500D03*
X160621250Y-128587500D03*
%TD*%
D11*
%TO.C,C7*%
X140445929Y-140584658D03*
X140445929Y-141544658D03*
%TD*%
D12*
%TO.C,R3*%
X134493000Y-127226234D03*
X134493000Y-128246234D03*
%TD*%
D13*
%TO.C,R11*%
X146333750Y-135731250D03*
X147353750Y-135731250D03*
%TD*%
D28*
%TO.C,F_USBC1*%
X55562500Y-62100000D03*
X55562500Y-64900000D03*
%TD*%
D13*
%TO.C,R8*%
X139439723Y-142663937D03*
X140459723Y-142663937D03*
%TD*%
D29*
%TO.C,LED1*%
X35150000Y-64567500D03*
X35150000Y-63067500D03*
D30*
X30050000Y-63067500D03*
D29*
X30050000Y-64567500D03*
%TD*%
D13*
%TO.C,R16*%
X47625000Y-128587500D03*
X48645000Y-128587500D03*
%TD*%
D31*
%TO.C,C1*%
X136331787Y-132911388D03*
X136331787Y-131951388D03*
%TD*%
D16*
%TO.C,C17*%
X35405000Y-65859930D03*
X34445000Y-65859930D03*
%TD*%
D29*
%TO.C,LED3*%
X35149000Y-53302500D03*
X35149000Y-51802500D03*
D30*
X30049000Y-51802500D03*
D29*
X30049000Y-53302500D03*
%TD*%
D14*
%TO.C,R18*%
X114209913Y-128577309D03*
X113189913Y-128577309D03*
%TD*%
D12*
%TO.C,R13*%
X59055000Y-57575000D03*
X59055000Y-58595000D03*
%TD*%
D32*
%TO.C,U5*%
X130875000Y-139923750D03*
X130875000Y-138653750D03*
X130875000Y-137383750D03*
X130875000Y-136113750D03*
X135825000Y-136113750D03*
X135825000Y-137383750D03*
X135825000Y-138653750D03*
X135825000Y-139923750D03*
%TD*%
D13*
%TO.C,R25*%
X235233750Y-128587500D03*
X236253750Y-128587500D03*
%TD*%
D33*
%TO.C,U2*%
X55854439Y-68106250D03*
X55854439Y-70006250D03*
X53979439Y-69056250D03*
%TD*%
D11*
%TO.C,C8*%
X52313712Y-69068759D03*
X52313712Y-70028759D03*
%TD*%
D34*
%TO.C,J3*%
X53950000Y-55100000D03*
X54750000Y-55100000D03*
D35*
X55900000Y-55100000D03*
X56900000Y-55100000D03*
X57400000Y-55100000D03*
X58400000Y-55100000D03*
D34*
X59550000Y-55100000D03*
X60350000Y-55100000D03*
D35*
X58900000Y-55100000D03*
X57900000Y-55100000D03*
X56400000Y-55100000D03*
X55400000Y-55100000D03*
D36*
X51530000Y-49950000D03*
D37*
X51530000Y-53950000D03*
D36*
X62770000Y-49950000D03*
D37*
X62770000Y-53950000D03*
%TD*%
D31*
%TO.C,C9*%
X57702555Y-70069871D03*
X57702555Y-69109871D03*
%TD*%
D38*
%TO.C,U3*%
X33150000Y-69747375D03*
X32200000Y-69747375D03*
X31250000Y-69747375D03*
X31250000Y-67472375D03*
X33150000Y-67472375D03*
%TD*%
D14*
%TO.C,R20*%
X179387500Y-127793750D03*
X178367500Y-127793750D03*
%TD*%
D16*
%TO.C,C16*%
X35405000Y-60325000D03*
X34445000Y-60325000D03*
%TD*%
D39*
%TO.C,C5*%
X146375680Y-137121052D03*
X147335680Y-137121052D03*
%TD*%
D31*
%TO.C,C12*%
X129007714Y-138333131D03*
X129007714Y-137373131D03*
%TD*%
D29*
%TO.C,LED2*%
X35149000Y-58935000D03*
X35149000Y-57435000D03*
D30*
X30049000Y-57435000D03*
D29*
X30049000Y-58935000D03*
%TD*%
D40*
%TO.C,R1*%
X139319000Y-128271660D03*
X139319000Y-127251660D03*
%TD*%
D14*
%TO.C,R22*%
X147353750Y-128587500D03*
X146333750Y-128587500D03*
%TD*%
D39*
%TO.C,C2*%
X146386593Y-138167485D03*
X147346593Y-138167485D03*
%TD*%
D16*
%TO.C,C3*%
X136243000Y-130937000D03*
X135283000Y-130937000D03*
%TD*%
D13*
%TO.C,R7*%
X135505000Y-141193750D03*
X136525000Y-141193750D03*
%TD*%
D39*
%TO.C,C4*%
X145851250Y-131481250D03*
X146811250Y-131481250D03*
%TD*%
D12*
%TO.C,R9*%
X135252011Y-131903511D03*
X135252011Y-132923511D03*
%TD*%
D41*
%TO.C,J2*%
X65543750Y-73312500D03*
X66743750Y-73312500D03*
X67943750Y-73312500D03*
X69143750Y-73312500D03*
D42*
X64393750Y-69537500D03*
X70293750Y-69537500D03*
%TD*%
D14*
%TO.C,R10*%
X79375000Y-128587500D03*
X78355000Y-128587500D03*
%TD*%
D12*
%TO.C,R2*%
X133428916Y-127218308D03*
X133428916Y-128238308D03*
%TD*%
D31*
%TO.C,C11*%
X103187500Y-130655000D03*
X103187500Y-129695000D03*
%TD*%
%TO.C,C14*%
X177800000Y-130655000D03*
X177800000Y-129695000D03*
%TD*%
D12*
%TO.C,R23*%
X183356250Y-139190000D03*
X183356250Y-140210000D03*
%TD*%
D43*
%TO.C,JP1*%
X134279692Y-142496607D03*
X132454692Y-142496607D03*
%TD*%
D11*
%TO.C,C18*%
X34652000Y-68554000D03*
X34652000Y-69514000D03*
%TD*%
M02*
