%TF.GenerationSoftware,KiCad,Pcbnew,(7.0.0)*%
%TF.CreationDate,2023-09-15T12:32:05+02:00*%
%TF.ProjectId,vanagon topre,76616e61-676f-46e2-9074-6f7072652e6b,rev?*%
%TF.SameCoordinates,Original*%
%TF.FileFunction,Profile,NP*%
%FSLAX46Y46*%
G04 Gerber Fmt 4.6, Leading zero omitted, Abs format (unit mm)*
G04 Created by KiCad (PCBNEW (7.0.0)) date 2023-09-15 12:32:05*
%MOMM*%
%LPD*%
G01*
G04 APERTURE LIST*
%TA.AperFunction,Profile*%
%ADD10C,0.050000*%
%TD*%
%TA.AperFunction,Profile*%
%ADD11C,0.100000*%
%TD*%
G04 APERTURE END LIST*
D10*
X28575000Y-141287500D02*
X28575000Y-71437500D01*
X51244500Y-49212500D02*
X52686296Y-49212500D01*
X62928500Y-49212500D02*
X149225000Y-49212500D01*
X52684425Y-54074950D02*
X61625054Y-54074950D01*
X268287500Y-144462500D02*
G75*
G03*
X271462500Y-141287500I0J3175000D01*
G01*
X31750000Y-49212500D02*
X51244500Y-49212500D01*
X28575000Y-71437500D02*
X28575000Y-52387500D01*
X235346875Y-68262500D02*
X161925000Y-68262500D01*
X152400000Y-52387500D02*
X152400000Y-68262500D01*
X31750000Y-49212500D02*
G75*
G03*
X28575000Y-52387500I0J-3175000D01*
G01*
X271462500Y-71437500D02*
G75*
G03*
X268287500Y-68262500I-3175000J0D01*
G01*
X235346875Y-68262500D02*
X248046875Y-68262500D01*
X152400000Y-68262500D02*
X161925000Y-68262500D01*
X61625054Y-54074950D02*
X61626296Y-49212500D01*
X268287500Y-144462500D02*
X31750000Y-144462500D01*
X271462500Y-71437500D02*
X271462500Y-141287500D01*
X28575000Y-141287500D02*
G75*
G03*
X31750000Y-144462500I3175000J0D01*
G01*
X52686296Y-49212500D02*
X52684425Y-54074950D01*
X248046875Y-68262500D02*
X268287500Y-68262500D01*
X62928500Y-49212500D02*
X61626296Y-49212500D01*
X152400000Y-52387500D02*
G75*
G03*
X149225000Y-49212500I-3175100J-100D01*
G01*
D11*
%TO.C,LED1*%
X30900001Y-64520343D02*
X30900001Y-63114659D01*
X31805548Y-62317501D02*
X33394452Y-62317501D01*
X33394452Y-65317500D02*
X31805547Y-65317500D01*
X34299999Y-63114659D02*
X34299999Y-64520343D01*
X30900000Y-63114659D02*
G75*
G03*
X30850515Y-62897781I-499989J2D01*
G01*
X31553289Y-62249202D02*
G75*
G03*
X30850517Y-62897782I-252259J-431700D01*
G01*
X30850516Y-64737221D02*
G75*
G03*
X30900001Y-64520344I-450505J216876D01*
G01*
X30850516Y-64737221D02*
G75*
G03*
X31553289Y-65385799I450514J-216878D01*
G01*
X31805547Y-65317500D02*
G75*
G03*
X31553289Y-65385799I3J-500009D01*
G01*
X31553289Y-62249202D02*
G75*
G03*
X31805548Y-62317501I252261J431710D01*
G01*
X33646711Y-65385800D02*
G75*
G03*
X33394453Y-65317501I-252261J-431710D01*
G01*
X33394452Y-62317500D02*
G75*
G03*
X33646710Y-62249202I-2J500010D01*
G01*
X34349480Y-62897779D02*
G75*
G03*
X33646711Y-62249204I-450510J216879D01*
G01*
X34349484Y-62897781D02*
G75*
G03*
X34299999Y-63114658I450866J-216959D01*
G01*
X33646711Y-65385800D02*
G75*
G03*
X34349484Y-64737221I252259J431700D01*
G01*
X34299987Y-64520343D02*
G75*
G03*
X34349484Y-64737221I500513J143D01*
G01*
%TO.C,LED3*%
X30899001Y-53255343D02*
X30899001Y-51849659D01*
X31804548Y-51052501D02*
X33393452Y-51052501D01*
X33393452Y-54052500D02*
X31804547Y-54052500D01*
X34298999Y-51849659D02*
X34298999Y-53255343D01*
X30899000Y-51849659D02*
G75*
G03*
X30849515Y-51632781I-499989J2D01*
G01*
X31552289Y-50984202D02*
G75*
G03*
X30849517Y-51632782I-252259J-431700D01*
G01*
X30849516Y-53472221D02*
G75*
G03*
X30899001Y-53255344I-450505J216876D01*
G01*
X30849516Y-53472221D02*
G75*
G03*
X31552289Y-54120799I450514J-216878D01*
G01*
X31804547Y-54052500D02*
G75*
G03*
X31552289Y-54120799I3J-500009D01*
G01*
X31552289Y-50984202D02*
G75*
G03*
X31804548Y-51052501I252261J431710D01*
G01*
X33645711Y-54120800D02*
G75*
G03*
X33393453Y-54052501I-252261J-431710D01*
G01*
X33393452Y-51052500D02*
G75*
G03*
X33645710Y-50984202I-2J500010D01*
G01*
X34348480Y-51632779D02*
G75*
G03*
X33645711Y-50984204I-450510J216879D01*
G01*
X34348484Y-51632781D02*
G75*
G03*
X34298999Y-51849658I450866J-216959D01*
G01*
X33645711Y-54120800D02*
G75*
G03*
X34348484Y-53472221I252259J431700D01*
G01*
X34298987Y-53255343D02*
G75*
G03*
X34348484Y-53472221I500513J143D01*
G01*
%TO.C,LED2*%
X30899001Y-58887843D02*
X30899001Y-57482159D01*
X31804548Y-56685001D02*
X33393452Y-56685001D01*
X33393452Y-59685000D02*
X31804547Y-59685000D01*
X34298999Y-57482159D02*
X34298999Y-58887843D01*
X30899000Y-57482159D02*
G75*
G03*
X30849515Y-57265281I-499989J2D01*
G01*
X31552289Y-56616702D02*
G75*
G03*
X30849517Y-57265282I-252259J-431700D01*
G01*
X30849516Y-59104721D02*
G75*
G03*
X30899001Y-58887844I-450505J216876D01*
G01*
X30849516Y-59104721D02*
G75*
G03*
X31552289Y-59753299I450514J-216878D01*
G01*
X31804547Y-59685000D02*
G75*
G03*
X31552289Y-59753299I3J-500009D01*
G01*
X31552289Y-56616702D02*
G75*
G03*
X31804548Y-56685001I252261J431710D01*
G01*
X33645711Y-59753300D02*
G75*
G03*
X33393453Y-59685001I-252261J-431710D01*
G01*
X33393452Y-56685000D02*
G75*
G03*
X33645710Y-56616702I-2J500010D01*
G01*
X34348480Y-57265279D02*
G75*
G03*
X33645711Y-56616704I-450510J216879D01*
G01*
X34348484Y-57265281D02*
G75*
G03*
X34298999Y-57482158I450866J-216959D01*
G01*
X33645711Y-59753300D02*
G75*
G03*
X34348484Y-59104721I252259J431700D01*
G01*
X34298987Y-58887843D02*
G75*
G03*
X34348484Y-59104721I500513J143D01*
G01*
%TD*%
M02*
