M48
; DRILL file {KiCad (7.0.0)} date Fri Sep 15 12:32:39 2023
; FORMAT={-:-/ absolute / inch / decimal}
; #@! TF.CreationDate,2023-09-15T12:32:39+02:00
; #@! TF.GenerationSoftware,Kicad,Pcbnew,(7.0.0)
; #@! TF.FileFunction,Plated,1,4,PTH
FMAT,2
INCH
; #@! TA.AperFunction,Plated,PTH,ViaDrill
T1C0.0157
; #@! TA.AperFunction,Plated,PTH,ComponentDrill
T2C0.0236
; #@! TA.AperFunction,Plated,PTH,ComponentDrill
T3C0.0394
%
G90
G05
T1
X1.1562Y-5.0938
X1.1762Y-2.0139
X1.1762Y-2.0139
X1.1762Y-2.2356
X1.1762Y-2.2356
X1.1762Y-2.4574
X1.1762Y-2.4574
X1.2812Y-2.8125
X1.295Y-5.62
X1.38Y-2.765
X1.385Y-2.615
X1.3907Y-2.0139
X1.3907Y-2.0139
X1.445Y-5.62
X1.46Y-2.73
X1.4606Y-2.0139
X1.4606Y-2.0139
X1.4606Y-2.4574
X1.4606Y-2.4574
X1.4607Y-2.1338
X1.4624Y-3.0633
X1.5405Y-3.0619
X1.5514Y-5.3111
X1.5534Y-3.8127
X1.5944Y-4.9111
X1.595Y-5.0
X1.6Y-2.62
X1.6Y-2.73
X1.6351Y-5.3118
X1.6371Y-3.8134
X1.6881Y-4.9111
X1.69Y-5.0
X1.71Y-2.62
X1.71Y-2.73
X1.725Y-3.325
X1.725Y-3.425
X1.7413Y-4.5645
X1.78Y-5.0
X1.7819Y-4.9111
X1.825Y-3.325
X1.825Y-3.425
X1.825Y-4.5652
X1.8361Y-2.3125
X1.85Y-4.07
X1.85Y-4.17
X1.875Y-5.0
X1.8756Y-4.9111
X1.9153Y-2.3125
X1.95Y-4.07
X1.95Y-4.17
X1.9501Y-5.0629
X2.0Y-4.8125
X2.0Y-5.0
X2.0006Y-4.9111
X2.06Y-2.8
X2.065Y-2.57
X2.085Y-5.62
X2.0944Y-4.9111
X2.095Y-5.0
X2.125Y-4.07
X2.1535Y-2.215
X2.1881Y-4.9111
X2.19Y-5.0
X2.1911Y-2.326
X2.2093Y-3.0625
X2.2284Y-2.3387
X2.23Y-5.62
X2.25Y-4.07
X2.265Y-2.585
X2.2695Y-2.2991
X2.28Y-5.0
X2.2819Y-4.9111
X2.292Y-3.0635
X2.325Y-2.3263
X2.33Y-2.7228
X2.3499Y-2.4062
X2.35Y-2.215
X2.375Y-5.0
X2.3756Y-4.9111
X2.3968Y-3.8123
X2.3975Y-5.3114
X2.4Y-2.57
X2.4007Y-2.7235
X2.4014Y-2.8015
X2.4694Y-4.9111
X2.47Y-5.0
X2.475Y-3.33
X2.475Y-3.43
X2.48Y-2.57
X2.4805Y-3.813
X2.4812Y-5.3121
X2.485Y-2.725
X2.575Y-3.13
X2.575Y-3.23
X2.575Y-3.33
X2.575Y-3.43
X2.575Y-4.075
X2.575Y-4.175
X2.5839Y-2.313
X2.64Y-3.52
X2.655Y-5.0
X2.6569Y-4.9111
X2.6633Y-2.3125
X2.675Y-4.075
X2.675Y-4.175
X2.705Y-2.66
X2.705Y-2.735
X2.705Y-3.04
X2.705Y-3.13
X2.705Y-3.23
X2.705Y-3.33
X2.7056Y-2.8125
X2.7506Y-4.9111
X2.765Y-3.555
X2.7708Y-4.5619
X2.775Y-3.425
X2.8003Y-5.0618
X2.8444Y-4.9111
X2.845Y-5.005
X2.8546Y-4.5626
X2.875Y-3.425
X2.875Y-3.555
X2.9381Y-4.9111
X2.94Y-5.01
X2.9608Y-3.0625
X2.985Y-3.425
X2.985Y-3.555
X3.0319Y-4.9111
X3.035Y-5.01
X3.0395Y-3.0625
X3.0542Y-5.0629
X3.11Y-3.425
X3.13Y-2.57
X3.13Y-2.67
X3.147Y-3.8118
X3.2194Y-4.9111
X3.22Y-5.01
X3.23Y-2.57
X3.23Y-2.67
X3.2308Y-3.8125
X3.2397Y-5.3111
X3.2709Y-3.3116
X3.2709Y-3.425
X3.3131Y-4.9111
X3.3235Y-5.3118
X3.325Y-4.075
X3.325Y-4.175
X3.3376Y-2.3124
X3.395Y-3.55
X3.3959Y-3.3116
X3.3959Y-3.425
X3.405Y-5.01
X3.4069Y-4.9111
X3.4156Y-2.312
X3.425Y-4.075
X3.425Y-4.175
X3.455Y-5.62
X3.5006Y-4.9111
X3.505Y-3.43
X3.51Y-3.55
X3.5223Y-4.5618
X3.58Y-4.98
X3.5944Y-4.9111
X3.606Y-4.5625
X3.625Y-5.1875
X3.63Y-3.43
X3.63Y-3.55
X3.6488Y-4.9084
X3.6624Y-5.1048
X3.6881Y-4.9111
X3.7063Y-3.0645
X3.745Y-5.385
X3.75Y-3.43
X3.75Y-3.55
X3.7819Y-4.9111
X3.791Y-3.0615
X3.875Y-3.43
X3.8756Y-4.9111
X3.885Y-2.57
X3.885Y-2.67
X3.8982Y-3.8127
X3.9301Y-4.9084
X3.9694Y-4.9111
X3.982Y-3.8134
X3.985Y-2.57
X3.985Y-2.67
X3.9953Y-3.3049
X3.9953Y-3.4299
X4.0631Y-4.9111
X4.075Y-4.075
X4.075Y-4.175
X4.0848Y-2.3105
X4.12Y-3.55
X4.1203Y-3.3049
X4.1203Y-3.4299
X4.1569Y-4.9111
X4.1645Y-2.3118
X4.175Y-4.075
X4.175Y-4.175
X4.2506Y-4.9111
X4.255Y-3.43
X4.255Y-3.55
X4.2692Y-4.5622
X4.3444Y-4.9111
X4.3529Y-4.5629
X4.385Y-3.43
X4.385Y-3.55
X4.4062Y-5.0625
X4.4381Y-4.9111
X4.4581Y-3.0624
X4.5Y-3.55
X4.505Y-3.43
X4.53Y-5.015
X4.5319Y-4.9111
X4.5418Y-3.0631
X4.6Y-2.57
X4.6Y-2.67
X4.64Y-3.43
X4.6476Y-3.8124
X4.7Y-2.57
X4.7Y-2.67
X4.7194Y-4.9111
X4.72Y-5.015
X4.7314Y-3.8131
X4.7417Y-5.3111
X4.7776Y-3.2993
X4.7776Y-3.4243
X4.8131Y-4.9111
X4.8254Y-5.3118
X4.8341Y-2.3118
X4.855Y-4.075
X4.855Y-4.175
X4.895Y-2.67
X4.9026Y-3.2993
X4.9026Y-3.4243
X4.905Y-3.55
X4.9069Y-4.9111
X4.9071Y-5.0104
X4.9185Y-2.3118
X4.955Y-4.075
X4.955Y-4.175
X4.97Y-5.615
X4.985Y-2.67
X4.985Y-3.64
X4.985Y-3.725
X4.985Y-3.825
X4.985Y-3.91
X4.985Y-4.0
X4.99Y-4.255
X5.0Y-5.01
X5.0006Y-4.9111
X5.0187Y-4.5643
X5.055Y-3.3
X5.065Y-3.425
X5.079Y-5.0165
X5.0794Y-5.4848
X5.08Y-5.5587
X5.09Y-5.615
X5.0944Y-4.9111
X5.1024Y-4.5649
X5.14Y-3.55
X5.14Y-3.64
X5.14Y-3.725
X5.14Y-3.82
X5.14Y-3.91
X5.14Y-4.0
X5.14Y-4.07
X5.145Y-5.295
X5.1454Y-5.0614
X5.1462Y-5.1792
X5.155Y-3.425
X5.1881Y-4.9111
X5.2124Y-3.0615
X5.22Y-4.285
X5.245Y-4.075
X5.25Y-5.125
X5.25Y-5.435
X5.253Y-4.9682
X5.2812Y-5.1562
X5.2812Y-5.25
X5.285Y-4.335
X5.291Y-3.0635
X5.295Y-4.9682
X5.325Y-2.57
X5.325Y-2.67
X5.335Y-4.2834
X5.3352Y-4.1811
X5.338Y-4.9682
X5.3744Y-4.2834
X5.3746Y-4.1811
X5.38Y-4.9682
X5.3973Y-3.8118
X5.405Y-5.155
X5.4137Y-4.2834
X5.4139Y-4.1811
X5.4162Y-5.6019
X5.4184Y-5.4645
X5.42Y-4.97
X5.425Y-2.57
X5.425Y-2.67
X5.4375Y-5.5
X5.4688Y-4.9375
X5.47Y-4.18
X5.4772Y-5.5002
X5.4811Y-3.8125
X5.51Y-3.32
X5.51Y-3.42
X5.53Y-4.22
X5.545Y-4.32
X5.545Y-4.41
X5.545Y-4.715
X5.5625Y-5.0938
X5.5625Y-5.3125
X5.5869Y-2.3125
X5.61Y-3.32
X5.61Y-3.42
X5.6208Y-5.5042
X5.625Y-4.82
X5.6256Y-4.9111
X5.6402Y-5.0938
X5.6535Y-4.9682
X5.6643Y-2.3129
X5.6686Y-5.5118
X5.7188Y-5.0625
X5.7188Y-5.514
X5.7194Y-4.9111
X5.7207Y-5.4536
X5.73Y-5.01
X5.7417Y-5.1327
X5.7496Y-5.2979
X5.75Y-5.2188
X5.7505Y-5.2586
X5.7692Y-4.5602
X5.7808Y-5.0944
X5.797Y-5.5664
X5.797Y-5.5249
X5.7972Y-5.4847
X5.8125Y-4.0625
X5.8125Y-4.1875
X5.8131Y-4.9111
X5.8132Y-5.1764
X5.845Y-5.01
X5.845Y-5.06
X5.853Y-4.5609
X5.92Y-4.065
X5.92Y-4.19
X5.9588Y-3.0625
X6.02Y-4.07
X6.0319Y-4.9111
X6.0425Y-3.0625
X6.0497Y-5.3141
X6.1256Y-4.9111
X6.1334Y-5.3148
X6.1466Y-3.8131
X6.2194Y-4.9111
X6.22Y-5.01
X6.2303Y-3.8138
X6.255Y-3.42
X6.275Y-5.595
X6.2812Y-5.0625
X6.31Y-5.01
X6.3131Y-4.9111
X6.355Y-3.32
X6.355Y-3.42
X6.355Y-4.07
X6.355Y-4.17
X6.415Y-5.595
X6.455Y-4.07
X6.455Y-4.17
X6.5006Y-4.9111
X6.5197Y-4.5619
X6.5944Y-4.9111
X6.6034Y-4.5626
X6.6126Y-5.3118
X6.6881Y-4.9111
X6.6963Y-5.3125
X6.7073Y-3.0625
X6.7819Y-4.9111
X6.7869Y-3.0615
X6.855Y-5.5938
X6.8756Y-4.9111
X6.894Y-3.8109
X6.9694Y-4.9111
X6.97Y-5.5938
X6.9777Y-3.8116
X7.045Y-3.315
X7.045Y-3.415
X7.0631Y-4.9111
X7.105Y-4.07
X7.105Y-4.17
X7.145Y-3.315
X7.145Y-3.415
X7.1569Y-4.9111
X7.205Y-4.07
X7.205Y-4.17
X7.2506Y-4.9111
X7.2676Y-4.5618
X7.3325Y-5.0
X7.3444Y-4.9111
X7.3513Y-4.5625
X7.375Y-5.0625
X7.415Y-5.145
X7.4381Y-4.9111
X7.4537Y-5.0
X7.4604Y-3.0629
X7.5319Y-4.9111
X7.5352Y-5.3223
X7.5411Y-3.0639
X7.5462Y-5.2436
X7.5938Y-5.0312
X7.6256Y-4.9111
X7.6473Y-3.8118
X7.7194Y-4.9111
X7.72Y-5.01
X7.7311Y-3.8125
X7.76Y-3.31
X7.76Y-3.41
X7.855Y-4.07
X7.855Y-4.17
X7.86Y-3.31
X7.86Y-3.41
X7.905Y-5.01
X7.9069Y-4.9111
X7.9285Y-5.3112
X7.955Y-4.07
X7.955Y-4.17
X8.0Y-5.01
X8.0006Y-4.9111
X8.0123Y-5.3119
X8.0217Y-4.5632
X8.0944Y-4.9111
X8.095Y-5.01
X8.1055Y-4.5639
X8.1881Y-4.9111
X8.19Y-5.01
X8.2074Y-3.0626
X8.2819Y-4.9111
X8.2851Y-5.0096
X8.2891Y-3.0612
X8.375Y-5.015
X8.3756Y-4.9111
X8.3937Y-3.8123
X8.4694Y-4.9111
X8.4774Y-3.813
X8.51Y-3.31
X8.51Y-3.41
X8.5631Y-4.9111
X8.565Y-5.01
X8.57Y-4.07
X8.57Y-4.17
X8.5916Y-5.0625
X8.61Y-3.31
X8.61Y-3.41
X8.67Y-4.07
X8.67Y-4.17
X8.7194Y-4.9111
X8.72Y-5.005
X8.7723Y-4.5618
X8.7741Y-5.3116
X8.8131Y-4.9111
X8.8561Y-4.5625
X8.8579Y-5.3123
X8.905Y-5.005
X8.9069Y-4.9111
X8.958Y-3.0625
X9.0Y-5.005
X9.0006Y-4.9111
X9.0422Y-3.0625
X9.0944Y-4.9111
X9.095Y-5.01
X9.1455Y-3.8118
X9.1881Y-4.9111
X9.2293Y-3.8125
X9.2819Y-4.9111
X9.29Y-3.31
X9.29Y-3.41
X9.3009Y-5.0246
X9.355Y-4.07
X9.355Y-4.17
X9.39Y-3.31
X9.39Y-3.41
X9.405Y-5.01
X9.4069Y-4.9111
X9.455Y-4.07
X9.455Y-4.17
X9.5Y-5.01
X9.5006Y-4.9111
X9.5196Y-5.3118
X9.5216Y-4.5618
X9.5944Y-4.9111
X9.6033Y-5.3125
X9.6053Y-4.5625
X9.685Y-5.01
X9.6881Y-4.9111
X9.7819Y-4.9111
X9.785Y-5.01
X9.875Y-5.01
X9.8756Y-4.9111
X9.9694Y-4.9111
X9.9874Y-3.0612
X10.0711Y-3.0619
X10.0861Y-3.811
X10.0938Y-5.0625
X10.1698Y-3.8117
X10.2692Y-5.3115
X10.2716Y-4.5615
X10.3529Y-5.3122
X10.3553Y-4.5622
X10.5Y-3.4688
X10.55Y-5.0938
X10.5894Y-5.0938
X10.6287Y-5.0938
X10.6718Y-5.0938
T3
X7.0938Y-5.2623
X7.0938Y-5.3623
T2
G00X2.0287Y-1.9754
M15
G01X2.0287Y-1.9341
M16
G05
G00X2.0287Y-2.125
M15
G01X2.0287Y-2.0994
M16
G05
G00X2.4713Y-1.9754
M15
G01X2.4713Y-1.9341
M16
G05
G00X2.4713Y-2.125
M15
G01X2.4713Y-2.0994
M16
G05
T0
M30
