M48
; DRILL file {KiCad (7.0.0)} date Mon Nov 27 23:28:24 2023
; FORMAT={-:-/ absolute / inch / decimal}
; #@! TF.CreationDate,2023-11-27T23:28:24+01:00
; #@! TF.GenerationSoftware,Kicad,Pcbnew,(7.0.0)
; #@! TF.FileFunction,NonPlated,1,4,NPTH
FMAT,2
INCH
; #@! TA.AperFunction,NonPlated,NPTH,ComponentDrill
T1C0.0866
%
G90
G05
T1
X1.2188Y-3.8125
X1.4062Y-4.5625
X1.5Y-2.3125
X1.875Y-3.0625
X1.9688Y-5.3125
X2.8125Y-3.8125
X2.9062Y-5.3125
X3.0Y-2.3125
X3.9375Y-4.5625
X4.0Y-5.3125
X4.125Y-3.0625
X4.3125Y-3.8125
X4.5Y-2.3125
X5.25Y-2.3125
X5.8125Y-3.8125
X6.1875Y-4.5625
X6.375Y-3.0625
X7.25Y-5.3125
X8.0625Y-3.8125
X8.4375Y-4.5625
X8.4375Y-5.3125
X8.625Y-3.0625
X9.75Y-3.8125
X9.9375Y-4.5625
X9.9375Y-5.3125
X10.4062Y-3.0625
T0
M30
